<?xml version="1.0" standalone="no"?>
<!DOCTYPE svg PUBLIC "-//W3C//DTD SVG 1.1//EN" "http://www.w3.org/Graphics/SVG/1.1/DTD/svg11.dtd" >
<svg xmlns="http://www.w3.org/2000/svg" xmlns:xlink="http://www.w3.org/1999/xlink" version="1.1">
<metadata>
Created by FontForge 20170812 at Wed Feb  3 15:00:58 2021
 By www-data
(c) 2021 Mikhail Vlasov. All rights reserved.
</metadata>
<defs>
<font id="Arina-Regular" horiz-adv-x="572" >
  <font-face 
    font-family="Arina"
    font-weight="400"
    font-stretch="normal"
    units-per-em="1000"
    panose-1="0 0 0 0 0 0 0 0 0 0"
    ascent="800"
    descent="-200"
    x-height="392"
    cap-height="788"
    bbox="-84 -195 924 946"
    underline-thickness="50"
    underline-position="-175"
    unicode-range="U+000D-FB04"
  />
<missing-glyph horiz-adv-x="250" 
 />
    <glyph glyph-name="f_f" unicode="ff" horiz-adv-x="408" 
d="M192 392q42 0 46 41q2 24 -3.5 49.5t-15.5 45.5t-22 32.5t-23 12.5q-15 0 -27.5 -14t-21 -39t-13.5 -57.5t-5 -70.5h85zM170 588q25 0 51.5 -20t43.5 -43q14 29 34 46t42 17q18 0 37 -10.5t35.5 -26.5t27 -33t10.5 -31q0 -11 -6.5 -17.5t-15.5 -6.5q-8 0 -14.5 5t-6.5 13
q-1 21 -7 38t-15 29t-19.5 18.5t-21.5 6.5q-15 0 -27.5 -14t-21 -39t-13.5 -57.5t-5 -70.5h114v-15h-114v-333q0 -18 13 -30t31 -12v-2h-130v2q12 1 22 6q8 5 14.5 13.5t6.5 22.5v333h-128v-332q0 -15 7 -23t15 -13q9 -5 21 -6v-3v0h-129v3v0q12 1 22 6q8 4 14.5 12.5
t6.5 22.5v333h-43v15q42 0 46 42q4 33 14 61t23.5 49t30.5 32.5t35 11.5v0z" />
    <glyph glyph-name="fi" unicode="fi" horiz-adv-x="343" 
d="M322 0h-130v2q12 1 22 6q8 4 14.5 11.5t6.5 21.5v294q0 16 -6.5 24.5t-14.5 12.5q-10 4 -22 5h-85v-333q0 -18 13 -29.5t31 -11.5v-3h-130v3q12 1 22 6q8 4 14.5 12.5t6.5 22.5v333h-43v15q42 0 46 42v-1q4 33 14 61.5t23.5 49.5t30.5 32.5t35 11.5t37 -10.5t35.5 -26.5
t27 -33t10.5 -31q0 -11 -6.5 -17.5t-15.5 -6.5q-8 0 -14.5 5t-6.5 13q-1 21 -7 38t-15 29t-19.5 18.5t-21.5 6.5q-15 0 -27.5 -14t-21 -39t-13.5 -57.5t-5 -70.5h215v-3q-12 -1 -22 -6q-8 -4 -15 -12.5t-7 -23.5v-303q0 -14 7 -22.5t15 -13.5q10 -5 22 -6v-2z" />
    <glyph glyph-name="fl" unicode="fl" horiz-adv-x="344" 
d="M174 587q16 0 34.5 -7.5t34.5 -21t26.5 -32t10.5 -39.5v-443q0 -14 7 -22.5t15 -13.5q9 -5 21 -6v-2h-129v2q12 1 22 6q8 5 14.5 13.5t6.5 22.5v437q0 21 -6 38t-15 29t-20 18.5t-22 6.5q-15 0 -27.5 -14t-21 -39t-13.5 -57.5t-5 -70.5h114v-15h-114v-333q0 -14 7 -22.5
t15 -13.5q9 -5 21 -6v-2h-129v2q12 1 22 6q8 5 14.5 13.5t6.5 22.5v333h-43v15q42 0 46 41q4 33 14 61t24 49t32 32.5t37 11.5z" />
    <glyph glyph-name="f_f_i" unicode="ffi" horiz-adv-x="514" 
d="M192 392q42 0 46 41q2 24 -3.5 49t-15.5 45.5t-22 33t-23 12.5q-15 0 -27.5 -14t-21 -39t-13.5 -57.5t-5 -70.5h85zM170 588q25 0 51.5 -20t43.5 -43q14 29 34 46t42 17q18 0 37 -10.5t35.5 -26.5t27 -33t10.5 -31q0 -11 -6.5 -17.5t-15.5 -6.5q-8 0 -14 5t-7 13
q-1 21 -7 38t-15 29t-19.5 18.5t-21.5 6.5q-15 0 -27.5 -14t-21 -39t-13.5 -57.5t-5 -70.5h215v-3q-12 -1 -22 -6q-8 -4 -15 -12.5t-7 -23.5v-303q0 -14 7 -22.5t15 -13.5q10 -5 22 -6v-2h-130v2q12 1 22 6q8 4 14.5 11.5t6.5 21.5v294q0 17 -6.5 25.5t-14.5 12.5
q-10 4 -22 4h-85v-333q0 -18 13 -29.5t31 -11.5v-3h-130v2q12 1 22 6q8 5 14.5 13.5t6.5 22.5v333h-128v-332q0 -15 7 -23.5t15 -12.5q9 -6 21 -7v-2h-129v2q12 1 22 6q8 5 14.5 13.5t6.5 22.5v333h-43v15q42 0 46 42q4 33 14 61t23.5 49t30.5 32.5t35 11.5v0z" />
    <glyph glyph-name="f_f_l" unicode="ffl" horiz-adv-x="515" 
d="M174 573q-15 0 -27.5 -14t-21 -39t-13.5 -57.5t-5 -70.5h85v0h3v0h2h1h2q34 4 38 41v0q2 24 -3.5 49t-15.5 45.5t-22 33t-23 12.5zM494 0h-129v2q12 1 22 6q8 5 14.5 13.5t6.5 22.5v437q0 21 -6 38t-15 29t-20 18.5t-22 6.5q-15 0 -27.5 -14t-21 -39t-13.5 -57.5
t-5 -70.5h114v-15h-114v-333q0 -15 6.5 -23t15 -12.5t15.5 -5.5l7 -1v-2h-130v2q12 1 22 6q8 5 14.5 13.5t6.5 22.5v333h-128v-332q0 -15 7 -23.5t15 -12.5q9 -6 21 -7v-2h-129v2q12 1 22 6q8 5 14.5 13.5t6.5 22.5v333h-43v15q42 0 46 42q4 33 14 61t23.5 49t30.5 32.5
t35 11.5v0q25 0 51.5 -20t43.5 -43v-1q15 29 36 46t44 17q16 0 34.5 -7.5t34.5 -21t26.5 -32t10.5 -39.5v-443q0 -14 7 -22.5t15 -13.5q9 -5 21 -6v-2z" />
    <glyph glyph-name="f_j" unicode="fj" horiz-adv-x="344" 
d="M21 377v15q42 0 46 42v-1q4 33 14 61.5t23.5 49.5t30.5 32.5t35 11.5t37 -10.5t35.5 -26.5t27 -33t10.5 -31q0 -11 -6.5 -17.5t-15.5 -6.5q-8 0 -14.5 5t-6.5 13q-1 21 -7 38t-15 29t-19.5 18.5t-21.5 6.5q-15 0 -27.5 -14t-21 -39t-13.5 -57.5t-5 -70.5h216v-2
q-12 -1 -21 -6q-8 -5 -15 -13.5t-7 -23.5v-349q0 -17 -8.5 -30t-19.5 -22q-12 -11 -28 -20l-2 2q4 4 8 13q2 8 4.5 21t2.5 36v337q0 16 -7 24.5t-15 12.5q-10 4 -22 5h-86v-333q0 -18 13 -30t30 -12v-2h-129v2q12 1 22 6q8 5 14.5 13.5t6.5 22.5v333h-43z" />
    <glyph glyph-name="f_k" unicode="fk" horiz-adv-x="502" 
d="M481 0h-65q-9 0 -15 6.5t-6 14.5v48q0 38 -14 62t-33 37t-38.5 17.5t-29.5 4.5v-146q0 -14 7 -22.5t15 -13.5q9 -5 21 -6v-2h-129v2q12 1 22 6q8 5 14.5 13.5t6.5 22.5v435q0 21 -6 38t-15 29.5t-20 19.5t-22 7q-15 0 -27.5 -14t-21 -39t-13.5 -57.5t-5 -70.5h114v-15
h-114v-332q0 -15 6.5 -23.5t15 -12.5t15 -5.5l6.5 -1.5v-2h-129v3q12 1 22 6q8 4 14.5 12.5t6.5 22.5v333h-43v15q42 0 46 41q4 33 14 61t24 49t32 32.5t37 11.5q16 0 34.5 -7.5t34.5 -21t26.5 -32t10.5 -39.5v-283l60 118q10 20 24 35q12 14 29.5 24.5t40.5 10.5v-70h-3
q0 5 -3.5 10.5t-10 10t-14.5 6t-17 -0.5q-8 -2 -16.5 -8.5t-14.5 -17.5l-60 -119q57 0 86 -20.5t42 -46.5q14 -29 14 -67v-25q0 -14 7 -22.5t15 -13.5q10 -5 22 -6v-2z" />
    <glyph glyph-name="f_h" unicode="fh" horiz-adv-x="517" 
d="M496 0h-130v2q12 1 22 6q8 5 15 13.5t7 22.5v205q0 35 -5.5 58t-14.5 38t-21 22.5t-24 10.5q-29 6 -65 -9v-325q0 -14 7 -22.5t15 -13.5q9 -5 21 -6v-2h-129v2q12 1 22 6q8 5 14.5 13.5t6.5 22.5v443q0 20 -6 36t-15.5 27t-20.5 17.5t-21 6.5q-15 0 -27.5 -14.5t-21 -39
t-13.5 -57.5t-5 -71h114v-15h-114v-332q0 -15 6.5 -23.5t15 -12.5t15 -5.5l6.5 -1.5v-2h-129v3q12 1 22 6q8 4 14.5 12.5t6.5 22.5v333h-43v15q42 0 46 41q4 33 14 61.5t24 49t32 32.5t37 12q16 0 34.5 -8t34.5 -21.5t26.5 -32t10.5 -39.5v-104q33 12 58 12t43 -7
t30.5 -20.5t20.5 -28.5q18 -36 20 -90v-205q0 -14 7 -22.5t15 -13.5q10 -5 22 -6v-2z" />
    <glyph glyph-name=".notdef" horiz-adv-x="250" 
 />
    <glyph glyph-name=".null" horiz-adv-x="0" 
 />
    <glyph glyph-name=".null" horiz-adv-x="0" 
 />
    <glyph glyph-name="uni000D" unicode="&#xd;" horiz-adv-x="250" 
 />
    <glyph glyph-name="space" unicode=" " horiz-adv-x="170" 
 />
    <glyph glyph-name="exclam" unicode="!" horiz-adv-x="85" 
d="M43 588q8 0 14.5 -6t6.5 -15l-13 -454l-16 1l-14 452q0 9 6.5 15.5t15.5 6.5zM21 22q0 9 6.5 15t15.5 6q8 0 14.5 -6t6.5 -15t-6.5 -15.5t-14.5 -6.5q-9 0 -15.5 6.5t-6.5 15.5z" />
    <glyph glyph-name="quotedbl" unicode="&#x22;" horiz-adv-x="150" 
d="M43 509q9 0 15 -6.5t6 -16.5q0 -8 -4 -16.5t-9 -16.5q-6 -8 -14 -16l-5 5q4 4 5 9t0 10t-8 10q-8 6 -8 16q0 9 6.5 15.5t15.5 6.5zM108 509q9 0 15 -6.5t6 -16.5q0 -8 -4 -16.5t-9 -16.5q-6 -8 -13 -16l-6 5q4 4 5 9t0 10t-8 10q-8 6 -8 16q0 9 6.5 15.5t15.5 6.5z" />
    <glyph glyph-name="numbersign" unicode="#" horiz-adv-x="322" 
d="M21 282h68l18 110h43l-18 -110h86l18 110h43l-18 -110h40v-43h-47l-14 -86h61v-43h-68l-18 -110h-43l18 110h-86l-18 -110h-43l18 110h-40v43h47l14 86h-61v43zM197 153l14 86h-86l-14 -86h86z" />
    <glyph glyph-name="dollar" unicode="$" horiz-adv-x="468" 
d="M239 16q33 3 62 19.5t50 42.5t33 58.5t12 68.5q0 35 -12 66.5t-33 56.5t-50 41.5t-62 22.5v-376zM224 409v365q-4 -1 -7.5 -1t-7.5 -1v-363h15zM224 15v379h-10h-5v-379h15zM72 592q0 -30 9 -60.5t25 -56t38.5 -43t49.5 -22.5v360q-33 -7 -56.5 -24t-38 -41t-21 -53
t-6.5 -60zM194 887h15v-99h12h3v99h15v-99h61q8 0 12 4.5t4 10.5h3l77 -86l-1 -2q-38 37 -73.5 48t-58.5 11h-24v-365h7q42 0 78.5 -16t63.5 -43.5t43 -65t16 -80.5v0q0 -42 -15.5 -79.5t-42.5 -65t-62 -43.5t-74 -16h-14v-99h-15v99h-15v-99h-15v99h-79q-7 0 -10.5 -4.5
t-3.5 -9.5h-2l-78 86l2 2q38 -37 73 -48t58 -11h40v381q-39 5 -70.5 22t-54.5 43t-35.5 59.5t-12.5 70.5q0 38 13.5 71t36.5 59t54.5 43t68.5 22v101z" />
    <glyph glyph-name="percent" unicode="%" horiz-adv-x="524" 
d="M305 147q0 30 8 57t22 47t32 31.5t37 11.5t37 -11.5t31.5 -31.5t22 -47t8.5 -57t-8.5 -57t-22 -47t-31.5 -31.5t-37 -11.5t-37 11.5t-32 31.5t-22 47t-8 57zM120 392q19 0 37 -11.5t31.5 -31.5t22 -47t8.5 -57t-8.5 -57t-22 -47t-31.5 -31.5t-38 -11.5q-19 0 -37 11.5
t-31.5 31.5t-21.5 47t-8 57t8 57t22 47t32 31.5t37 11.5zM348 147q0 -28 4 -52t11 -42t17.5 -28t23.5 -10q26 0 41 37.5t15 94.5t-15 94.5t-41 37.5t-41 -37.5t-15 -94.5zM119 113q26 0 41.5 37.5t15.5 94.5t-15.5 94.5t-41.5 37.5t-40.5 -37.5t-14.5 -94.5t14.5 -94.5
t40.5 -37.5zM133 0l240 392h18l-240 -392h-18z" />
    <glyph glyph-name="ampersand" unicode="&#x26;" horiz-adv-x="587" 
d="M566 401q0 -3 -1 -5q-4 -16 -16.5 -26.5t-28 -15.5t-33 -7t-31.5 -2h-24q25 -27 40 -63.5t15 -76.5q0 -42 -15.5 -79.5t-42.5 -65.5t-63 -44t-76 -16h-72q-40 0 -76 16t-63 44t-42.5 65.5t-15.5 79.5q0 39 13.5 74t37.5 62t56.5 45t69.5 22q-56 22 -91 71.5t-36 112.5
q0 41 16 76.5t43 62t64 42t79 15.5h77q8 0 12 4.5t4 10.5v0h3l78 -86l-2 -2q-17 19 -35.5 30.5t-36 18t-33 8.5t-26.5 2h-25q-46 0 -78 -15t-51.5 -40t-28.5 -58.5t-9 -69.5q0 -33 11 -63t30.5 -55t46.5 -43t58 -26v0q8 -2 15.5 -4.5t14.5 -4.5q7 -3 15 -6l-1 -3q-8 3 -18 5
q-8 2 -17 3t-19 1v0q-39 0 -72.5 -15t-59 -40.5t-40.5 -60.5t-15 -74q0 -38 14 -72.5t38 -60t56.5 -41t69.5 -16.5h8q38 0 70.5 15.5t57 41.5t38.5 60t14 73q0 42 -16.5 78t-43.5 62h-31q-24 -1 -47.5 -5.5t-33.5 -14.5q11 -2 16.5 -9t2.5 -18q-2 -9 -9.5 -13t-16.5 -2
q-8 2 -12.5 9.5t-2.5 16.5q4 16 16.5 26t28.5 15.5t33 7.5t31 2h110q24 0 47.5 4.5t33.5 15.5q-10 2 -16 9t-3 18q2 8 10 12.5t16 2.5t12 -7.5t4 -13.5z" />
    <glyph glyph-name="quotesingle" unicode="'" horiz-adv-x="85" 
d="M43 509q9 0 15 -6.5t6 -16.5q0 -8 -4 -16.5t-9 -16.5q-6 -8 -14 -16l-5 5q4 4 5 9t0 10t-8 10q-8 6 -8 16q0 9 6.5 15.5t15.5 6.5z" />
    <glyph glyph-name="parenleft" unicode="(" horiz-adv-x="220" 
d="M21 199q0 163 40.5 258t131.5 135l6 -11q-44 -21 -70.5 -54t-41 -80t-19 -108.5t-4.5 -139.5q0 -79 4.5 -140.5t19 -108.5t41 -80t70.5 -54l-6 -11q-91 40 -131.5 135.5t-40.5 258.5z" />
    <glyph glyph-name="parenright" unicode=")" horiz-adv-x="220" 
d="M21 -185q44 22 70.5 55t41 80t19 108.5t4.5 139.5q0 79 -4.5 140.5t-19 108.5t-41 80t-70.5 54l6 11q91 -40 131.5 -135t40.5 -258t-40.5 -258.5t-131.5 -135.5z" />
    <glyph glyph-name="asterisk" unicode="*" horiz-adv-x="243" 
d="M21 498h82l-56 56l11 11l56 -57v80h15v-80l57 57l10 -11l-56 -56h82v-15h-82l56 -57l-10 -10l-57 56v-80h-15v80l-56 -56l-11 10l56 57h-82v15z" />
    <glyph glyph-name="plus" unicode="+" horiz-adv-x="339" 
d="M21 219h127v126h43v-126h127v-43h-127v-127h-43v127h-127v43z" />
    <glyph glyph-name="comma" unicode="," horiz-adv-x="85" 
d="M21 21q0 9 6.5 15t15.5 6t15 -6t6 -16q0 -8 -4 -16.5t-9 -16.5q-6 -8 -14 -16l-5 5q4 4 5 9q1 4 0 9t-8 10q-8 6 -8 17z" />
    <glyph glyph-name="hyphen" unicode="-" horiz-adv-x="243" 
d="M222 205v-15h-201v15h201z" />
    <glyph glyph-name="period" unicode="." horiz-adv-x="85" 
d="M21 22q0 9 6.5 15t15.5 6q8 0 14.5 -6t6.5 -15t-6.5 -15.5t-14.5 -6.5q-9 0 -15.5 6.5t-6.5 15.5z" />
    <glyph glyph-name="slash" unicode="/" horiz-adv-x="190" 
d="M125 392h44l-104 -392h-44z" />
    <glyph glyph-name="zero" unicode="0" horiz-adv-x="291" 
d="M146 395q26 0 48.5 -16t39 -43t26.5 -63t10 -77q0 -40 -10 -76.5t-26.5 -63.5t-39 -43t-48.5 -16t-48.5 16t-39.5 43t-27 63.5t-10 76.5q0 41 10 77t27 63t39.5 43t48.5 16zM146 12q17 0 32 14.5t26 40t17.5 59t6.5 70.5q0 38 -6.5 71.5t-17.5 58.5t-26 39.5t-32 14.5
t-32 -14.5t-26 -39.5t-17.5 -58.5t-6.5 -71.5q0 -37 6.5 -70.5t17.5 -59t26 -40t32 -14.5z" />
    <glyph glyph-name="one" unicode="1" horiz-adv-x="172" 
d="M21 392h130v-2q-12 -1 -22 -6q-8 -5 -15 -13t-7 -23v-303q0 -15 7 -23t15 -13q10 -5 22 -6v-3h-130v3q12 1 22 6q8 4 14.5 11t6.5 21v307q0 15 -6.5 23t-14.5 13q-10 5 -22 6v2z" />
    <glyph glyph-name="two" unicode="2" horiz-adv-x="292" 
d="M21 0v2q29 0 46.5 14.5t17.5 36.5v49q0 36 24.5 62.5t55.5 36.5q32 11 45 33.5t13 53.5q0 38 -16 65.5t-42 27.5t-47.5 -18t-24.5 -43l-2 1l7 71h2q-1 -12 7 -12t21 4q8 3 18.5 7t22.5 4q20 0 37.5 -8.5t31 -23t21 -33.5t7.5 -40q0 -29 -10.5 -46.5t-25.5 -28.5
t-33 -19.5t-33.5 -20t-25.5 -28.5t-10 -45v-69q0 -10 4 -14.5t16 -4.5h48q26 0 47.5 16t24.5 41v1l3 -1l-9 -85h-3q0 5 -4 9.5t-10 4.5h-224z" />
    <glyph glyph-name="three" unicode="3" horiz-adv-x="240" 
d="M35 99q11 -38 32.5 -63t49.5 -24q24 1 41.5 28t17.5 62q0 37 -18.5 62.5t-44.5 25.5v14q26 0 41 24.5t15 61.5q0 36 -14.5 63t-40.5 27t-48 -17.5t-25 -42.5l-3 1l8 71h2q-2 -22 21 -11q11 5 24.5 9.5t24.5 4.5q20 0 37 -8.5t30 -23t20 -33.5t7 -40q0 -32 -16.5 -57
t-43.5 -36q29 -11 48 -36.5t19 -58.5q0 -21 -8.5 -40t-22.5 -33.5t-33 -23t-40 -8.5q-34 0 -56 26.5t-38 70.5z" />
    <glyph glyph-name="four" unicode="4" horiz-adv-x="357" 
d="M333 262l3 -1l-9 -85h-3v0q1 5 -3.5 9.5t-10.5 4.5h-39v-145q0 -15 7 -23t15 -13q9 -5 21 -6v-3h-129v3q12 1 22 6q8 4 14.5 11t6.5 21v149h-207v2q15 0 27 7t21 16.5t14 18.5t7 12l67 146h47l-74 -159q-5 -10 0.5 -19t17.5 -10h80v188h43v-187q23 0 40.5 16.5t21.5 39.5
v1z" />
    <glyph glyph-name="five" unicode="5" horiz-adv-x="258" 
d="M237 109q0 -20 -9 -39.5t-23.5 -35t-33 -25t-36.5 -9.5q-8 0 -17 2t-17 4q-40 14 -39 -6h-2l-8 71l3 1q3 -25 24.5 -41.5t47.5 -16.5t47 26.5t21 68.5q0 25 -11.5 44t-28.5 32t-36 19t-34 6v126q0 23 -16.5 38t-47.5 15v3h189q6 0 10 4.5t4 9.5v0h3l9 -85l-3 -1
q-3 25 -24.5 41.5t-47.5 16.5h-13q-12 -1 -16 -5t-4 -14v-141q24 0 44 -10t34.5 -25.5t22.5 -35t8 -38.5z" />
    <glyph glyph-name="six" unicode="6" horiz-adv-x="243" 
d="M123 279q-26 0 -41 -37.5t-15 -94.5q0 -56 15.5 -95t40.5 -40q13 0 23.5 10.5t18 28.5t11.5 43t4 53q0 57 -15.5 94.5t-41.5 37.5zM21 196q0 41 8.5 77t24 63t37.5 42.5t48 15.5q8 1 21 -3.5t24 -9.5q20 -10 20 11h2l8 -71l-3 -1q-4 25 -25 42.5t-47 17.5
q-29 0 -48 -38.5t-25 -95.5q8 23 22.5 35.5t34.5 12.5q19 0 37 -11.5t31.5 -31.5t22 -47t8.5 -57q0 -21 -6 -47t-18.5 -49t-31 -38.5t-44.5 -15.5t-45 16t-31.5 43.5t-18.5 63.5t-6 76z" />
    <glyph glyph-name="seven" unicode="7" horiz-adv-x="343" 
d="M322 392v-3q-14 0 -25.5 -5.5t-20 -13.5t-14 -16.5t-7.5 -14.5l-63 -134h69v-15h-76l-89 -190h-47l89 190h-78v15h85l68 145q5 9 -1 18.5t-17 9.5h-99q-26 0 -47 -15.5t-25 -41.5v-1l-3 1l9 85h3q0 -14 14 -14h275z" />
    <glyph glyph-name="eight" unicode="8" horiz-adv-x="240" 
d="M119 8q26 0 41.5 28t15.5 66q0 39 -15.5 69t-41.5 30t-41 -30t-15 -69q0 -38 15 -66t41 -28zM68 297q0 -38 12.5 -62t38.5 -24t39 24t13 62t-13 62.5t-39 24.5t-38.5 -24.5t-12.5 -62.5zM26 297q0 21 7.5 38.5t20 30.5t29.5 20.5t36 7.5q20 0 37 -7.5t30 -20.5
t20.5 -30.5t7.5 -38.5q0 -34 -18 -58.5t-47 -33.5q29 -11 49.5 -40t20.5 -63q0 -21 -8.5 -39.5t-22 -33t-31.5 -23t-38 -8.5q-19 0 -37 8.5t-31.5 23t-21.5 33t-8 39.5q0 34 20 63t49 40q-29 9 -46.5 33.5t-17.5 58.5z" />
    <glyph glyph-name="nine" unicode="9" horiz-adv-x="243" 
d="M120 113q26 0 41 37.5t15 94.5q0 56 -14.5 95t-39.5 40q-13 0 -23.5 -10.5t-18.5 -28.5t-12.5 -43t-4.5 -53q0 -57 15.5 -94.5t41.5 -37.5zM121 394q26 0 45 -16t31.5 -43t18.5 -63t6 -77q0 -40 -8.5 -76t-24 -63t-37 -43t-47.5 -16q-8 0 -21.5 4.5t-24.5 10.5
q-20 9 -20 -12h-2l-8 72h3q2 -25 24 -42.5t49 -17.5q28 0 47 38.5t25 95.5q-8 -22 -22 -35t-35 -13q-19 0 -37 11.5t-31.5 31.5t-22 47t-8.5 57q0 20 6.5 45.5t19 48.5t31 39t43.5 16z" />
    <glyph glyph-name="colon" unicode=":" horiz-adv-x="85" 
d="M21 22q0 9 6.5 15t15.5 6q8 0 14.5 -6t6.5 -15t-6.5 -15.5t-14.5 -6.5q-9 0 -15.5 6.5t-6.5 15.5zM43 392q8 0 14.5 -6t6.5 -15t-6.5 -15.5t-14.5 -6.5q-9 0 -15.5 6.5t-6.5 15.5q0 8 6.5 14.5t15.5 6.5z" />
    <glyph glyph-name="semicolon" unicode=";" horiz-adv-x="85" 
d="M43 43q9 0 15 -6.5t6 -16.5q0 -8 -4 -16.5t-9 -16.5q-6 -8 -14 -16l-5 5q3 4 5 9q2 11 -8 20q-8 6 -8 17q0 8 6.5 14.5t15.5 6.5zM21 371q0 8 6.5 14.5t15.5 6.5t15 -6t6 -15t-6 -15.5t-15 -6.5t-15.5 6.5t-6.5 15.5z" />
    <glyph glyph-name="less" unicode="&#x3c;" horiz-adv-x="172" 
d="M151 223l-88 -23l88 -24v-44l-130 34v67l130 34v-44z" />
    <glyph glyph-name="equal" unicode="=" horiz-adv-x="169" 
d="M21 266h127v-43h-127v43zM148 176v-43h-127v43h127z" />
    <glyph glyph-name="greater" unicode="&#x3e;" horiz-adv-x="172" 
d="M21 176l88 23l-88 24v44l130 -34v-67l-130 -34v44z" />
    <glyph glyph-name="question" unicode="?" horiz-adv-x="224" 
d="M21 517l7 71h3q1 -13 10 -13q8 0 22.5 6.5t36.5 6.5q20 0 39 -8t33 -22.5t22.5 -34.5t8.5 -44q0 -30 -15 -52.5t-47 -35.5q-25 -10 -29.5 -29.5t-6.5 -48.5l-13 -200h-17l-13 186q-2 36 8.5 62.5t43.5 37.5q30 10 38 32t8 55q0 36 -19 62t-45 26t-47.5 -16t-24.5 -42z
M83 43q9 0 15.5 -6t6.5 -15t-6.5 -15.5t-15.5 -6.5t-15 6.5t-6 15.5t6 15t15 6z" />
    <glyph glyph-name="at" unicode="@" horiz-adv-x="558" 
d="M21 190q0 59 18 111t51.5 90t81 60t106.5 22t107 -22.5t82 -61.5t52 -91t18 -111q0 -31 -5 -64t-17 -60.5t-31.5 -45t-48.5 -17.5h-129v2q12 1 21 6q8 5 15 13.5t7 22.5v150q0 38 -6.5 71.5t-17.5 59t-26 40.5t-32 15t-32 -15t-26 -40.5t-17.5 -59t-6.5 -71.5t6 -71
t17 -58t26 -39t33 -14q10 0 24 5.5t26 16.5l10 -12q-29 -24 -60 -24q-26 0 -48.5 15.5t-39.5 42t-27 62.5t-10 76q0 41 10 77t27 64t39.5 44t48.5 16t48.5 -16t39.5 -44t27 -64t10 -77v-137q0 -14 6 -22t13.5 -12.5t14.5 -6t9 -1.5q24 0 41 16t27 41t14.5 55.5t4.5 59.5
q0 56 -17 105.5t-49 86.5t-77 58t-101 21t-101 -21t-76.5 -57t-48 -85t-16.5 -105t16.5 -106t48 -87.5t76.5 -59t101 -21.5q57 0 105 21l7 -14q-55 -22 -112 -22q-59 0 -106.5 23t-81 62.5t-51.5 92t-18 111.5z" />
    <glyph glyph-name="A" unicode="A" 
d="M21 2q27 0 46.5 15t25.5 41l166 628q7 26 -1 52t-14 50h56q-3 -11 -5 -19.5t1 -19.5l185 -699q1 -2 4.5 -10t11.5 -16.5t21.5 -15t32.5 -6.5v-2h-143v2q12 1 20 6q7 4 11.5 11.5t0.5 21.5l-89 337h-158l-89 -334q-4 -14 0.5 -22.5t11.5 -13.5q8 -5 20 -6v-2h-115v2z
M196 392h151l-75 289z" />
    <glyph glyph-name="B" unicode="B" horiz-adv-x="535" 
d="M78 57v673q0 24 -16.5 40t-40.5 16v2h241q42 0 79 -15.5t64 -42t42.5 -62t15.5 -76.5q-1 -63 -35.5 -112.5t-90.5 -71.5q37 -4 69.5 -22t56.5 -45t37.5 -62t13.5 -74q0 -42 -16 -79.5t-43 -65.5t-63.5 -44t-78.5 -16h-292v2q24 0 40.5 16t16.5 39zM122 47
q0 -14 9.5 -23.5t23.5 -9.5h124q38 0 71.5 15t58.5 41t39.5 61t14.5 74t-15 74t-40 60.5t-58.5 40.5t-72.5 15q-8 0 -17 -1t-17 -3q-10 -2 -20 -5l-1 3q8 3 15 6q7 2 15 4.5t15 4.5q31 8 58 26t46.5 43t30.5 55t11 63q0 36 -13 69t-36.5 58.5t-54.5 40.5t-67 15h-87
q-14 0 -23.5 -9.5t-9.5 -23.5v-694z" />
    <glyph glyph-name="C" unicode="C" horiz-adv-x="558" 
d="M21 394q0 82 26 153.5t71 125t105 84.5t128 31h68q8 0 12 4.5t4 10.5h3l77 -86l-2 -1q-18 19 -36.5 30.5t-35.5 17.5t-32 8t-26 2h-13q-63 0 -118 -30t-95 -81.5t-63 -120.5t-23 -148t23 -148t63 -120.5t95 -81.5t118 -30q46 0 88 16t78 45l1 -3q-40 -34 -87.5 -53
t-101.5 -19q-67 0 -127 31t-104 84.5t-70 125t-26 153.5z" />
    <glyph glyph-name="D" unicode="D" horiz-adv-x="558" 
d="M21 3q24 0 40.5 15.5t16.5 39.5v672q0 24 -16.5 40t-40.5 16v2h187q68 0 127.5 -31t104.5 -84.5t71 -125.5t26 -154q0 -81 -25.5 -152.5t-69 -125t-102.5 -84.5t-126 -31h-193v3zM122 47q0 -14 9.5 -23.5t23.5 -9.5h45q61 0 113.5 30.5t91 82.5t60.5 121t22 146
q0 78 -22.5 147.5t-62.5 121t-94 81.5t-117 30h-36q-14 0 -23.5 -9.5t-9.5 -23.5v-694z" />
    <glyph glyph-name="E" unicode="E" horiz-adv-x="479" 
d="M396 788q6 0 10 4.5t4 9.5h2l10 -85l-3 -1q-4 26 -25.5 42t-47.5 16h-193q-14 0 -22.5 -9.5t-8.5 -23.5v-340h175q23 0 37 17.5t14 40.5h3v-129h-3q0 23 -14 40t-37 17h-175v-340q0 -14 9.5 -23.5t23.5 -9.5h228q26 0 48.5 16t24.5 42l3 -1l-10 -86h-2q0 6 -4 10.5
t-10 4.5h-412v3q24 0 40.5 16t16.5 39v672q0 25 -16.5 40.5t-40.5 15.5v2h375z" />
    <glyph glyph-name="F" unicode="F" horiz-adv-x="443" 
d="M21 0v3q24 0 40.5 15.5t16.5 39.5v672q0 24 -16.5 40t-40.5 16v2h375q6 0 10 4.5t4 10.5h2l10 -86l-3 -1q-1 9 -7.5 19t-16.5 18.5t-23 14.5t-26 6h-193q-14 0 -22.5 -10t-8.5 -23v-340h175q23 0 37 17.5t14 40.5h3v-129h-3q0 23 -14 40t-37 17h-175v-329
q0 -24 16.5 -39.5t40.5 -15.5v-3h-158z" />
    <glyph glyph-name="G" unicode="G" horiz-adv-x="573" 
d="M351 788h68q8 0 12 4.5t4 10.5h3l77 -86l-2 -1q-38 36 -72.5 47t-57.5 11h-13q-63 0 -118 -30t-95 -81.5t-63 -120.5t-23 -148t23 -148t64.5 -120.5t98 -81.5t123.5 -30q8 0 22.5 1t28.5 5.5t24.5 13t10.5 24.5v289q0 15 -7 23.5t-15 13.5q-10 5 -22 6v2h130v-2
q-12 -1 -21 -6q-8 -5 -15 -13.5t-7 -23.5v-347h-3q0 5 -2.5 11.5t-8 11t-13 6.5t-16.5 -3q-53 -26 -118 -26q-67 0 -127 31t-104 84.5t-70 125t-26 153.5t26 153.5t71 125t105 84.5t128 31z" />
    <glyph glyph-name="H" unicode="H" 
d="M179 788v-2q-24 0 -40.5 -16t-16.5 -40v-338h329v339q0 23 -17 39t-40 16v2h157v-2q-23 0 -40 -16t-17 -40v-678q0 -22 17.5 -35.5t39.5 -13.5v-3h-157v3q23 0 40 15.5t17 39.5v320h-329v-325q0 -22 17 -36t40 -14v-3h-158v3q23 0 40 14.5t17 37.5v675q0 24 -16.5 40
t-40.5 16v2h158z" />
    <glyph glyph-name="I" unicode="I" horiz-adv-x="200" 
d="M21 788h158v-2q-24 0 -40.5 -16t-16.5 -40v-677q0 -22 17 -36t40 -14v-3h-158v3q23 0 40 14.5t17 37.5v676q0 23 -16.5 39t-40.5 16v2z" />
    <glyph glyph-name="J" unicode="J" horiz-adv-x="200" 
d="M179 788v-3q-24 0 -40.5 -15.5t-16.5 -39.5v-730q0 -17 -8.5 -30t-19.5 -22q-12 -11 -28 -20l-2 2q4 4 7 12t5 21.5t2 36.5v730q0 24 -16.5 39.5t-40.5 15.5v3h158z" />
    <glyph glyph-name="K" unicode="K" horiz-adv-x="472" 
d="M21 785v3h158v-3q-24 0 -40.5 -15.5t-16.5 -39.5v-291q17 0 39 -3l142 280q10 20 24 36q12 14 30 25t41 11v-72h-3q0 11 -13.5 21.5t-31.5 5.5q-19 -5 -31 -27l-144 -283q35 -7 73.5 -28t70.5 -64t53.5 -111.5t21.5 -172.5q0 -23 17 -39t40 -16v-2h-79q-8 0 -14.5 6.5
t-6.5 15.5v95q0 49 -14.5 103t-43 99.5t-71.5 75t-100 29.5l-1 -367q1 -23 17.5 -39t40.5 -16v-2h-158v2q24 0 40.5 16t16.5 40v672q0 24 -16.5 39.5t-40.5 15.5z" />
    <glyph glyph-name="L" unicode="L" horiz-adv-x="443" 
d="M179 788v-2q-24 0 -40.5 -16t-16.5 -39v-684q0 -14 9.5 -23.5t23.5 -9.5h192q26 1 47.5 17t25.5 41h3l-10 -86h-2q0 5 -4.5 9.5t-9.5 4.5h-376v3q24 0 40.5 15.5t16.5 39.5v672q0 24 -16.5 40t-40.5 16v2h158z" />
    <glyph glyph-name="M" unicode="M" horiz-adv-x="559" 
d="M21 785v3h87l179 -681l180 681h14v-736q0 -22 17.5 -36t39.5 -14v-2h-157v2q23 0 40 16t17 40v567l-138 -523q-2 -8 -2.5 -15t-0.5 -13l2 -12l17 -62h-57q3 11 5 19.5t-1 19.5l-170 645v-630q0 -23 17 -37.5t40 -14.5v-2h-129v2q23 0 40 14.5t17 37.5v676
q0 24 -16.5 39.5t-40.5 15.5z" />
    <glyph glyph-name="N" unicode="N" horiz-adv-x="545" 
d="M524 788v-3q-23 0 -40 -14.5t-17 -37.5v-733h-14l-360 732v-678q0 -23 17 -37.5t40 -14.5v-2h-129v2q23 0 40 14.5t17 37.5v676q0 24 -16.5 39.5t-40.5 15.5v3h87l345 -702v648q0 23 -17.5 37t-40.5 14v3h129z" />
    <glyph glyph-name="O" unicode="O" 
d="M286 788q55 0 103.5 -31t84.5 -84.5t56.5 -125.5t20.5 -153q0 -82 -20.5 -153.5t-56.5 -125t-84.5 -84.5t-103.5 -31t-103 31t-84 84.5t-57 125t-21 153.5q0 81 21 153t57 125.5t84 84.5t103 31zM286 14q46 0 85.5 30t68 81.5t45 120.5t16.5 148t-16.5 148t-45 120.5
t-68 81.5t-85.5 30t-85 -30t-68 -81.5t-45.5 -120.5t-16.5 -148t16.5 -148t45.5 -120.5t68 -81.5t85 -30z" />
    <glyph glyph-name="P" unicode="P" horiz-adv-x="515" 
d="M21 2q23 0 40 15t17 37v526q0 43 16.5 81t44.5 66t66 44.5t81 16.5t81 -16.5t66 -44.5t44.5 -66t16.5 -81t-16.5 -80.5t-44.5 -65.5t-66 -44.5t-81 -16.5t-80.5 16t-66.5 44l3 3q23 -23 58.5 -36t85.5 -13q34 0 64 15t52.5 41.5t35.5 61.5t13 75t-13 75.5t-35.5 61.5
t-52.5 41.5t-64 15.5t-64 -15.5t-52 -41.5t-35 -61.5t-13 -75.5v-525q0 -23 17 -38t40 -15v-2h-158v2z" />
    <glyph glyph-name="Q" unicode="Q" 
d="M21 394q0 81 21 153t57 125.5t84 84.5t103 31t103.5 -31t84.5 -84.5t56.5 -125.5t20.5 -153q0 -73 -16.5 -138t-45.5 -116t-68.5 -86t-86.5 -48q7 -6 16 -11q11 -7 27 -7.5t35 -1.5q18 -1 38.5 -2.5t40 -7t36 -17t24.5 -30.5l-2 -1q-24 28 -52 31t-63 -2t-64 10.5
t-49 35.5q-16 -3 -35 -3q-55 0 -103 31t-84 84.5t-57 125t-21 153.5zM71 394q0 -79 16.5 -148t45.5 -120.5t68 -81.5t85 -30q40 0 71 20t55 52.5t41 74t27.5 83.5t15.5 81.5t5 68.5q0 79 -16.5 148t-45 120.5t-68 81.5t-85.5 30t-85 -30t-68 -81.5t-45.5 -120.5t-16.5 -148z
" />
    <glyph glyph-name="R" unicode="R" horiz-adv-x="472" 
d="M21 785v3h133q41 0 76.5 -14.5t62.5 -39.5t42.5 -58t15.5 -70q0 -32 -12 -61.5t-33.5 -52.5t-51 -39.5t-63.5 -23.5q34 -10 69.5 -32.5t65 -65.5t49 -109.5t19.5 -163.5v-1q-1 -23 16.5 -39t40.5 -16v-2h-79q-9 0 -15.5 6.5t-6.5 15.5v95q0 26 -4 59t-13.5 67t-26 66.5
t-41.5 58t-60.5 41t-82.5 15.5v-369q0 -23 17 -38t40 -15v-2h-158v2q23 0 40 15t17 37v676q0 24 -16.5 39.5t-40.5 15.5zM122 439q40 -2 74 8.5t59 32.5t39 54t14 72q0 35 -10.5 65.5t-30.5 53t-49 36t-65 13.5q-13 0 -22 -9t-9 -21v-305z" />
    <glyph glyph-name="S" unicode="S" horiz-adv-x="468" 
d="M23 74q38 -37 73 -48t58 -11h70q36 0 67.5 15.5t55 41.5t36.5 60.5t13 72.5q0 39 -14 73t-39 59.5t-58 40.5t-71 16q-43 1 -78.5 17t-61 43t-39.5 62.5t-14 74.5q0 41 16 77t43 62.5t63.5 42t78.5 15.5h78q8 0 12 4.5t4 10.5h3l77 -86l-1 -2q-38 37 -73 48t-58 11h-25
q-46 0 -78 -15t-52 -40t-28.5 -58t-8.5 -69q0 -31 10.5 -64t28.5 -59t43 -43t55 -17h37q42 0 78.5 -16t63.5 -43.5t43 -65t16 -80.5q0 -42 -15.5 -79.5t-42.5 -65t-62 -43.5t-74 -16h-138q-7 0 -10.5 -4.5t-3.5 -9.5h-2l-78 86z" />
    <glyph glyph-name="T" unicode="T" horiz-adv-x="543" 
d="M30 803h3q0 -14 14 -14h450q14 0 14 14h2l10 -86l-3 -1q-6 25 -26 41.5t-47 16.5h-120q-14 0 -23.5 -9.5t-9.5 -23.5v-683q0 -23 17 -39t40 -16v-3h-158v3q23 0 40.5 17t17.5 38v683q0 14 -9.5 23.5t-23.5 9.5h-121q-27 0 -47 -16.5t-26 -41.5l-3 1z" />
    <glyph glyph-name="U" unicode="U" horiz-adv-x="558" 
d="M21 788h158v-3q-24 0 -40.5 -15.5t-16.5 -39.5v-522q0 -40 13.5 -75.5t37 -61.5t54.5 -41.5t66 -15.5q36 0 67 15.5t54.5 41.5t37 61.5t13.5 75.5v526q0 23 -17 37t-40 14v3h129v-3q-23 0 -40 -14t-17 -37v-534q0 -41 -16 -77.5t-43 -63.5t-63.5 -43t-78.5 -16t-78.5 16
t-63.5 43t-43 63.5t-16 77.5v531q0 23 -16.5 38.5t-40.5 15.5v3z" />
    <glyph glyph-name="V" unicode="V" horiz-adv-x="558" 
d="M21 788h143v-2q-11 -1 -19 -6q-7 -4 -11.5 -11.5t-1.5 -21.5l168 -640l161 609q5 20 15 36q8 14 23 25t38 11v-72h-3q0 12 -8 20t-19 8q-12 0 -20.5 -8.5t-11.5 -19.5l-162 -616q-5 -20 0 -40l10 -40l5 -20h-56l2 5q7 14 2 34l-183 692q-1 2 -5 11t-12.5 19t-21.5 17.5
t-33 7.5v2z" />
    <glyph glyph-name="W" unicode="W" horiz-adv-x="766" 
d="M21 786v2h143v-2q-11 -1 -19 -6q-7 -4 -11.5 -11.5t-1.5 -21.5l168 -640l83 314l-82 310q-1 2 -5 11t-12.5 19t-21.5 17.5t-33 7.5v2h143v-2q-11 -1 -19 -6q-7 -4 -11.5 -11.5t-1.5 -21.5l64 -245l64 242q4 13 -0.5 21t-12.5 13t-19 8v2h115v-2q-19 0 -32.5 -7.5
t-22 -16.5t-12.5 -18t-5 -12l-67 -257l96 -368l161 609q5 20 14 36q9 14 24 25t38 11v-72l-3 1q0 11 -8 19t-19 8q-12 0 -20.5 -8.5t-11.5 -19.5l-162 -614q-2 -8 -2.5 -15t-0.5 -13l2 -12l16 -62h-56q4 15 5 23t-1 16l-94 355l-77 -292q-2 -8 -2.5 -15t-0.5 -13l2 -12
l16 -62h-56q1 1 1 4q3 9 4.5 16.5t-1.5 18.5l-183 692q-1 2 -5 11t-12.5 19t-21.5 17.5t-33 7.5z" />
    <glyph glyph-name="X" unicode="X" 
d="M21 2q27 0 50.5 16t35.5 39l163 321l-164 350q-9 16 -21 29q-11 11 -26.5 20t-37.5 9v2h158v-3q-18 0 -28.5 -13.5t-2.5 -29.5l147 -316l147 290q10 20 24 36q12 14 30 25t41 11v-72h-3q0 11 -13.5 21.5t-31.5 5.5q-20 -5 -31 -27l-156 -306l165 -352q9 -16 21 -28
q11 -11 26.5 -19.5t36.5 -8.5v-2h-157v2q17 1 27.5 15.5t2.5 30.5l-146 314l-161 -316q-8 -16 2.5 -29.5t27.5 -14.5v-2h-126v2z" />
    <glyph glyph-name="Y" unicode="Y" horiz-adv-x="558" 
d="M21 786v2h143v-2q-11 -1 -19 -6q-7 -4 -11.5 -11.5t-1.5 -21.5l168 -640l161 609q5 20 14 36q9 14 24 25t38 11v-72h-3q0 12 -8 20t-19 8q-12 0 -20.5 -8.5t-11.5 -19.5l-186 -707q-4 -14 -10 -28.5t-14 -26t-19.5 -19t-25.5 -7.5q-13 0 -20 6.5t-7 15.5q0 8 6.5 14.5
t14.5 6.5q11 0 17 -7.5t5 -17.5q8 5 15 13.5t12 18.5q6 11 11.5 28.5t1.5 32.5l-183 692q-1 2 -4.5 11t-12 19t-22 17.5t-33.5 7.5z" />
    <glyph glyph-name="Z" unicode="Z" 
d="M21 0v3q19 0 33.5 7t25 16t16.5 17.5t8 12.5l322 690q5 9 -1 18.5t-17 9.5h-297q-27 0 -48.5 -16t-24.5 -42l-3 1l9 86h3q0 -6 4 -10.5t10 -4.5h490v-2q-23 0 -38.5 -8.5t-25.5 -18.5q-12 -13 -20 -28l-322 -690q-4 -8 2 -17.5t16 -9.5h313q26 0 48 16t24 42h3l-9 -86h-3
q0 5 -4 9.5t-10 4.5h-504z" />
    <glyph glyph-name="bracketleft" unicode="[" horiz-adv-x="129" 
d="M108 588v-15h-44v-753h44v-15h-87v783h87z" />
    <glyph glyph-name="backslash" unicode="\" horiz-adv-x="190" 
d="M169 0h-44l-104 392h45z" />
    <glyph glyph-name="bracketright" unicode="]" horiz-adv-x="129" 
d="M21 -195v15h44v753h-44v15h87v-783h-87z" />
    <glyph glyph-name="asciicircum" unicode="^" horiz-adv-x="216" 
d="M130 392l65 -243h-44l-43 160l-43 -160h-44l65 243h44z" />
    <glyph glyph-name="underscore" unicode="_" horiz-adv-x="243" 
d="M222 15v-15h-201v15h201z" />
    <glyph glyph-name="grave" unicode="`" horiz-adv-x="120" 
d="M99 435h-17l-61 100h18z" />
    <glyph glyph-name="a" unicode="a" horiz-adv-x="334" 
d="M21 3q15 0 25 6.5t17 14.5t10.5 17t4.5 13l64 242q2 5 2 13.5t-2 16.5l-18 66h57q-5 -17 -5.5 -24t2.5 -18l77 -293q5 -22 19.5 -38t38.5 -16v-3h-128v3q11 1 19 6q7 4 11.5 11t1.5 21l-29 108h-71l-29 -108q-3 -14 1.5 -22t12.5 -12t19 -4v-3h-100v3zM185 163l-32 122
l-32 -122h64z" />
    <glyph glyph-name="b" unicode="b" horiz-adv-x="335" 
d="M21 588h129v-2q-12 -1 -21 -6q-8 -5 -15 -13t-7 -23v-349q0 -37 6.5 -70.5t17.5 -58.5t26 -39.5t32 -14.5t32 14.5t26 40t17.5 59t6.5 70.5q0 38 -6.5 71t-18 58.5t-26.5 40t-33 14.5q-10 0 -23 -6.5t-24 -17.5l-11 12q14 11 29 19t33 8q25 0 47.5 -16t39 -43t26.5 -63
t10 -77q0 -40 -9.5 -76.5t-26.5 -63.5t-40 -43t-49 -16q-29 0 -54 20.5t-40 49.5q-7 13 -9 12.5t-4 -8.5l-14 -71h-4v544q0 15 -6.5 23t-14.5 13q-10 5 -22 6v2z" />
    <glyph glyph-name="c" unicode="c" horiz-adv-x="262" 
d="M21 196q0 41 9.5 77t26.5 63t40 43t49 16q8 0 20.5 -4t20.5 -8q10 -5 15 -5q11 0 9 14h2l8 -71l-3 -1q-3 26 -24.5 43t-47.5 17q-17 0 -32 -14.5t-26.5 -40t-17.5 -58.5t-6 -71q0 -37 6.5 -70.5t18 -58.5t27 -40t34.5 -15q24 0 45 24.5t32 62.5l14 -5q-16 -45 -38 -71
t-56 -26q-26 0 -49 16t-40 43t-27 63.5t-10 76.5z" />
    <glyph glyph-name="d" unicode="d" horiz-adv-x="335" 
d="M21 196q0 41 10 77t26.5 63t39 43t47.5 16q17 0 32.5 -8t28.5 -19l-10 -12q-24 24 -49 24q-17 0 -32 -14.5t-26.5 -40t-17.5 -58.5t-6 -71q0 -37 6.5 -70.5t17.5 -59t26 -40t32 -14.5t31.5 14.5t25.5 39.5t17.5 58.5t6.5 70.5v348q0 15 -6.5 23.5t-14.5 13.5q-10 5 -22 6
v2h130v-2q-12 -1 -22 -6q-8 -5 -15 -13.5t-7 -23.5v-542h-3l-14 70q-3 18 -13 -4q-14 -29 -39.5 -49.5t-54.5 -20.5q-26 0 -48.5 16t-39.5 43t-27 63.5t-10 76.5z" />
    <glyph glyph-name="e" unicode="e" horiz-adv-x="264" 
d="M21 197q0 41 10 77t26.5 63t39 42.5t47.5 15.5q11 0 20 -2.5t17 -5.5l8 -3q8 -3 16.5 -3.5t7.5 11.5h2l7 -71l-3 -1q-1 13 -8 24t-17.5 19t-23.5 12.5t-26 4.5q-16 0 -29.5 -12.5t-24 -34.5t-17.5 -51.5t-9 -64.5h99q15 0 23 7t13 15q5 10 6 22h2v-101h-2q-1 12 -6 22
q-5 8 -13 14.5t-23 6.5h-99q0 -38 6 -72.5t17 -61t26.5 -42t34.5 -15.5q25 0 47.5 24.5t33.5 62.5l14 -5q-17 -45 -39 -71t-56 -26q-27 0 -50 16t-40 43t-27 63.5t-10 77.5z" />
    <glyph glyph-name="f" unicode="f" horiz-adv-x="301" 
d="M64 44v333h-43v15q42 0 46 42q4 33 14 61t23.5 49t30.5 32.5t35 11.5t37 -10.5t35.5 -26.5t27 -33t10.5 -31q0 -11 -6.5 -17.5t-15.5 -6.5q-8 0 -14.5 5t-6.5 13q0 21 -6 38t-15 29t-20 18.5t-22 6.5q-15 0 -27.5 -14t-21 -39t-13.5 -57.5t-5 -70.5h114v-15h-114v-332
q0 -19 13 -30.5t31 -11.5v-3h-130v3q12 1 22 6q8 4 14.5 12.5t6.5 22.5z" />
    <glyph glyph-name="g" unicode="g" horiz-adv-x="326" 
d="M96 -49q-15 5 -26 12.5t-11 15.5q0 11 14 18.5t33 12.5q-37 20 -61 70.5t-24 115.5q0 41 10 77t27 63t39.5 43t48.5 16q22 0 41.5 -13t36.5 -33q10 20 22 31.5t31 11.5q14 0 21 -6t7 -15t-6 -15.5t-15 -6.5q-11 0 -17 8t-4 18q-11 -6 -18 -17t-12 -22q17 -26 27 -62
t10 -78q0 -40 -10 -76.5t-26.5 -63.5t-39 -43t-48.5 -16q-29 0 -48.5 -4.5t-19.5 -13.5t19 -15.5t45 -6.5q18 0 40.5 -4.5t42 -13.5t32.5 -23t13 -33q0 -17 -10 -31t-26.5 -24.5t-39 -16.5t-48.5 -6t-48.5 6t-39.5 16.5t-27 24t-10 29.5q0 23 21 42t54 28zM64 196
q0 -37 6.5 -70.5t17.5 -59t26 -40t32 -14.5t32 14.5t26 40t17.5 59t6.5 70.5q0 38 -6.5 71t-17.5 58.5t-26 40t-32 14.5t-32 -14.5t-26 -40t-17.5 -58.5t-6.5 -71zM64 -119q0 -26 23 -44t55 -18q35 0 60 19t25 46q0 25 -24 42t-57 17q-34 0 -58 -18t-24 -44z" />
    <glyph glyph-name="h" unicode="h" horiz-adv-x="344" 
d="M21 3q12 1 22 6q8 5 14.5 13t6.5 23v499q0 15 -6.5 23t-14.5 13q-10 5 -22 6v2h129v-2q-12 -1 -21 -6q-8 -5 -15 -13t-7 -23v-161q18 6 33 8.5t29 2.5q44 0 66 -22.5t33 -49.5q11 -32 12 -72v-206q0 -14 7 -22.5t15 -12.5q9 -5 21 -6v-3h-129v3q12 1 22 6q8 5 14.5 13
t6.5 23v205q0 41 -7.5 66t-19.5 39.5t-26.5 19.5t-28.5 5q-10 0 -18.5 -1.5t-15.5 -3.5l-14 -6v-324q0 -15 7 -23t15 -13q9 -5 21 -6v-3h-129v3z" />
    <glyph glyph-name="i" unicode="i" horiz-adv-x="172" 
d="M151 392v-2q-12 -1 -22 -6q-8 -5 -14.5 -13t-7.5 -23v-303q1 -15 7.5 -23t14.5 -13q10 -5 22 -6v-3h-130v3q12 1 22 6q8 4 14.5 11t6.5 21v307q0 15 -6.5 23t-14.5 13q-10 5 -22 6v2h130zM64 485q0 9 6.5 15t15.5 6t15 -6t6 -15t-6 -15.5t-15 -6.5t-15.5 6.5t-6.5 15.5z
" />
    <glyph glyph-name="j" unicode="j" horiz-adv-x="172" 
d="M21 392h130v-2q-12 -1 -21 -6q-8 -5 -15 -13.5t-7 -23.5v-349q0 -17 -8.5 -30t-19.5 -22q-12 -11 -28 -20l-2 2q4 4 8 13q2 8 4.5 21t2.5 36v349q0 15 -7 23.5t-15 13.5q-10 5 -22 6v2zM65 485q0 9 6 15.5t15 6.5t15.5 -6.5t6.5 -15.5t-6.5 -15t-15.5 -6t-15 6t-6 15z
" />
    <glyph glyph-name="k" unicode="k" horiz-adv-x="329" 
d="M21 3q12 1 22 6q8 5 14.5 13t6.5 23v499q0 15 -6.5 23t-14.5 13q-10 5 -22 6v2h129v-2q-12 -1 -21 -6q-8 -5 -15 -13t-7 -23v-341l60 118q10 20 24 36q12 13 29.5 24t40.5 11v-71h-3q0 12 -12.5 22t-31.5 5q-9 -2 -17.5 -9t-13.5 -18l-60 -119q56 0 85 -20.5t42 -45.5
q15 -30 15 -67v-25q0 -14 7 -22.5t15 -12.5q9 -5 21 -6v-3h-65q-9 0 -15 6.5t-6 14.5v48q0 38 -14.5 61.5t-33.5 36.5t-38 17.5t-29 4.5v-144q0 -15 7 -23t15 -13q9 -5 21 -6v-3h-129v3z" />
    <glyph glyph-name="l" unicode="l" horiz-adv-x="172" 
d="M21 588h130v-2q-12 -1 -22 -6q-8 -5 -15 -13t-7 -23v-499q0 -15 7 -23t15 -13q10 -5 22 -6v-3h-130v3q12 1 22 6q8 4 14.5 11t6.5 21v503q0 15 -6.5 23t-14.5 13q-10 5 -22 6v2z" />
    <glyph glyph-name="m" unicode="m" horiz-adv-x="516" 
d="M21 390v2h65q9 0 15 -6.5t6 -14.5v-22q11 17 29 31.5t37 14.5q26 0 48.5 -17t37.5 -43q14 26 36.5 43t49.5 17q22 0 41.5 -11.5t34 -31.5t23 -46.5t8.5 -56.5v-205q0 -14 7 -22.5t15 -12.5q9 -5 21 -6v-3h-129v3q12 1 22 6q8 4 14.5 12.5t6.5 22.5v205q0 27 -5 51t-14 42
t-20.5 28.5t-24.5 10.5t-25 -10.5t-21 -28.5t-14 -42t-5 -51v-205q0 -14 7 -22.5t15 -12.5q9 -5 21 -6v-3h-129v3q12 1 22 6q8 4 14.5 12.5t6.5 22.5v205q0 27 -5 51t-14 42t-20.5 28.5t-24.5 10.5t-25 -10.5t-21 -28.5t-14.5 -42t-5.5 -51v-205q0 -14 7 -22.5t15 -12.5
q9 -5 21 -6v-3h-129v3q12 1 22 6q8 4 14.5 12.5t6.5 22.5v304q0 15 -6.5 23t-14.5 13q-10 5 -22 6z" />
    <glyph glyph-name="n" unicode="n" horiz-adv-x="344" 
d="M64 45v303q0 15 -6.5 23.5t-14.5 12.5q-10 5 -22 6v2h65q9 0 15 -6t6 -15v-22q11 17 29 31.5t37 14.5q22 0 41.5 -11.5t34 -31.5t23 -46.5t8.5 -56.5v-205q0 -14 7 -22.5t15 -12.5q9 -5 21 -6v-3h-129v3q12 1 22 6q8 4 14.5 12.5t6.5 22.5v205q0 27 -5 51t-14 42
t-20.5 28.5t-24.5 10.5t-25 -10.5t-21 -28.5t-14.5 -42t-5.5 -51v-205q0 -14 7 -22.5t15 -12.5q9 -5 21 -6v-3h-129v3q12 1 22 6q8 5 14.5 13t6.5 23z" />
    <glyph glyph-name="o" unicode="o" horiz-adv-x="291" 
d="M146 395q26 0 48.5 -16t39 -43t26.5 -63t10 -77q0 -40 -10 -76.5t-26.5 -63.5t-39 -43t-48.5 -16t-48.5 16t-39.5 43t-27 63.5t-10 76.5q0 41 10 77t27 63t39.5 43t48.5 16zM146 12q17 0 32 14.5t26 40t17.5 59t6.5 70.5q0 38 -6.5 71.5t-17.5 58.5t-26 39.5t-32 14.5
t-32 -14.5t-26 -39.5t-17.5 -58.5t-6.5 -71.5q0 -37 6.5 -70.5t17.5 -59t26 -40t32 -14.5z" />
    <glyph glyph-name="p" unicode="p" horiz-adv-x="322" 
d="M8 -192q12 1 22 6q8 4 14.5 12t6.5 23v348q0 41 10 77t27 63t39.5 42.5t48.5 15.5t48.5 -16t39.5 -43t27 -63t10 -77q0 -40 -10 -76.5t-27 -63.5t-39.5 -43t-48.5 -16q-17 0 -31.5 8t-28.5 19l11 13q11 -11 24.5 -18t24.5 -7q18 0 33 14.5t26 40t17 59t6 70.5
q0 38 -6.5 71.5t-17.5 58.5t-26 39.5t-32 14.5t-32 -14.5t-26 -39.5t-17.5 -58t-6.5 -71v-348q0 -15 7 -23t15 -12q9 -5 21 -6v-3h-129v3z" />
    <glyph glyph-name="q" unicode="q" horiz-adv-x="335" 
d="M146 395q26 0 48.5 -15.5t39 -42.5t26.5 -63t10 -77v-348q0 -15 7 -23t15 -13q10 -5 22 -6v-2h-130v2q12 1 22 6q8 5 14.5 13t6.5 23v348q0 38 -6.5 71t-17.5 58t-25.5 39.5t-31.5 14.5t-32 -14.5t-26 -39.5t-17.5 -58.5t-6.5 -71.5q0 -37 6 -70.5t17 -59t25.5 -40
t32.5 -14.5q11 0 25 6.5t25 17.5l10 -12q-13 -11 -28 -19t-31 -8q-26 0 -48.5 16t-39.5 43t-27 63.5t-10 76.5q0 41 10 77t27 63t39.5 43t48.5 16z" />
    <glyph glyph-name="r" unicode="r" horiz-adv-x="227" 
d="M86 392q9 0 15 -6.5t6 -14.5v-22q12 20 32.5 33t44.5 13q9 0 15.5 -6.5t6.5 -15.5t-6 -15t-15 -6q-11 0 -17 8t-4 18q-24 -7 -40.5 -28.5t-16.5 -47.5v-258q0 -14 7 -22.5t15 -12.5q9 -5 21 -6v-3h-129v3q12 1 22 6q8 4 14.5 12.5t6.5 22.5v304q0 15 -6.5 23t-14.5 12
q-10 5 -22 6v3h65z" />
    <glyph glyph-name="s" unicode="s" horiz-adv-x="220" 
d="M17 72q3 -25 24.5 -42.5t47.5 -17.5q13 0 25 7.5t21.5 19.5t15 28.5t5.5 34.5q0 35 -18 56.5t-48 35.5q-31 15 -51.5 38t-20.5 58q0 21 8 40t21.5 33.5t32 23t39.5 8.5q18 0 34 -7t24 -7t7 11h2l8 -71l-3 -1q-4 25 -25 42.5t-47 17.5t-42 -27t-16 -63q0 -32 12 -55
t41 -32q35 -11 60 -38t25 -63q0 -21 -9 -40t-24.5 -33.5t-35.5 -23t-41 -8.5q-16 0 -32 8t-26 8q-9 0 -8 -13h-2l-7 71z" />
    <glyph glyph-name="t" unicode="t" horiz-adv-x="242" 
d="M21 392q32 0 49 12.5t25 26.5q9 17 10 39h2v-78h114v-15h-114v-333q0 -14 7 -22.5t15 -12.5q9 -5 21 -6v-3h-64q-9 0 -15.5 6.5t-6.5 14.5v356h-43v15z" />
    <glyph glyph-name="u" unicode="u" horiz-adv-x="344" 
d="M21 390v2h65q9 0 15 -6.5t6 -14.5v-228q0 -27 5 -51t14 -42t21 -28.5t25 -10.5q26 0 45.5 29.5t19.5 102.5v205q0 15 -6.5 23t-14.5 13q-10 5 -22 6v2h129v-2q-12 -1 -21 -6q-8 -5 -15 -13t-7 -23v-303q0 -15 7 -23t15 -13q9 -5 21 -6v-3h-64q-9 0 -15.5 6.5t-6.5 15.5
v24q-10 -21 -26 -35t-39 -14q-22 0 -42 11.5t-34.5 31.5t-23 46.5t-8.5 56.5v205q0 15 -6.5 23t-14.5 13q-10 5 -22 6z" />
    <glyph glyph-name="v" unicode="v" horiz-adv-x="334" 
d="M150 392v-2q-11 -1 -19 -6q-7 -4 -11.5 -11.5t-1.5 -21.5l64 -244l56 215q7 27 26.5 48.5t48.5 21.5v-71h-3q0 11 -8 19t-19 8t-19.5 -8t-11.5 -19l-59 -225q-2 -6 -2 -14t2 -16l17 -66h-57q5 16 5.5 24.5t-1.5 17.5l-78 293q-6 23 -19 39t-39 16v2h129z" />
    <glyph glyph-name="w" unicode="w" horiz-adv-x="484" 
d="M21 389v3h129v-3q-11 -1 -19 -6q-7 -4 -11.5 -11t-1.5 -21l64 -244l48 182q6 20 2 38t-10 38l-8 27h57q-3 -12 -4 -21.5t1 -21.5q9 -49 22 -96.5t27 -95.5l14 -50l57 215q8 27 27 48.5t48 21.5v-71h-3q0 11 -8 19t-19 8t-19.5 -8t-11.5 -19l-59 -226q-5 -17 -0.5 -36
t10.5 -37l7 -22h-57q5 16 5 24.5t-2 17.5l-64 242l-49 -189q-2 -5 -2 -13t2 -16l17 -66h-57q5 17 5.5 24.5t-1.5 17.5l-78 293q-6 23 -19 38.5t-39 15.5z" />
    <glyph glyph-name="x" unicode="x" horiz-adv-x="357" 
d="M21 0v3q14 0 26 6.5t21.5 15.5t15.5 18t8 13l67 132l-71 152q-2 5 -7.5 13t-14 16t-20 14t-25.5 6v3h143v-3q-8 0 -15 -4t-11.5 -11t-6 -14.5t1.5 -15.5l51 -108l46 91q11 26 36 45.5t55 19.5v-71h-3q0 11 -13 21t-32 5q-8 -2 -15.5 -7t-12.5 -15l-54 -105l77 -164
q2 -3 7 -12t13.5 -18t20.5 -16t27 -7v-3h-142v3q17 0 27.5 14.5t2.5 30.5l-58 124l-64 -126q-7 -16 3 -29.5t27 -13.5v-3h-111z" />
    <glyph glyph-name="y" unicode="y" horiz-adv-x="333" 
d="M149 392v-2q-12 -1 -20 -6q-7 -4 -11.5 -11.5t-0.5 -21.5l64 -243l56 214q7 27 26 48.5t50 21.5v-71h-3q0 11 -8.5 19.5t-19.5 8.5t-19.5 -8.5t-11.5 -19.5l-84 -321q-4 -14 -10.5 -30t-15.5 -29.5t-21.5 -23t-29.5 -9.5q-9 0 -15.5 6t-6.5 15t6.5 15.5t15.5 6.5
q11 0 16.5 -7.5t4.5 -18.5q9 5 18.5 19.5t16.5 32t10 35.5t0 30l-78 293q-6 22 -19 38.5t-38 16.5v2h128z" />
    <glyph glyph-name="z" unicode="z" horiz-adv-x="356" 
d="M21 0v3q15 0 27.5 7t21 16.5t14 18.5t6.5 12l136 293q5 10 -0.5 19t-16.5 9h-99q-26 0 -47.5 -16.5t-24.5 -41.5l-3 1l9 85h3q-1 -5 3.5 -9.5t10.5 -4.5h274v-2q-14 0 -25 -5.5t-19.5 -13.5t-14 -16.5t-8.5 -14.5l-138 -298q-5 -10 0.5 -19t16.5 -9h113q26 0 47.5 16
t24.5 42l3 -1l-10 -85h-2q0 14 -14 14h-288z" />
    <glyph glyph-name="braceleft" unicode="{" horiz-adv-x="172" 
d="M145 592l6 -11q-29 -14 -40.5 -34.5t-13 -47t2 -58.5t3.5 -69.5t-7.5 -80.5t-31.5 -91q24 -50 31.5 -94t7.5 -82t-3.5 -70t-2 -58t13 -46t40.5 -34l-6 -11q-30 13 -46 33.5t-24 47t-10.5 59t-6 69.5t-11.5 78.5t-26 86.5v43q18 43 26 83t11.5 76.5t6 69t10.5 59.5t24 48
t46 34z" />
    <glyph glyph-name="bar" unicode="|" horiz-adv-x="85" 
d="M21 588h43v-783h-43v783z" />
    <glyph glyph-name="braceright" unicode="}" horiz-adv-x="172" 
d="M108 198q-23 50 -30.5 93.5t-7.5 81.5t3.5 70t1.5 58t-13.5 46t-40.5 34l6 11q30 -13 46 -33.5t24 -47t10.5 -59t6 -69.5t11.5 -78.5t26 -86.5v-43q-18 -42 -26 -82.5t-11.5 -77t-6 -69t-10.5 -59.5t-24 -48t-46 -34l-6 11q29 14 40.5 34.5t13.5 47t-1.5 58.5t-3.5 70
t7 81t31 91z" />
    <glyph glyph-name="asciitilde" unicode="~" horiz-adv-x="285" 
d="M264 216q-9 -18 -23 -28t-31 -14t-35.5 -2.5t-36.5 6.5q-14 4 -29 9.5t-29.5 7t-27 -3t-22.5 -20.5l-9 8q9 18 23 28.5t31 15t35.5 3.5t36.5 -6q14 -4 29 -10t29.5 -8t27 2t22.5 20z" />
    <glyph glyph-name="exclamdown" unicode="&#xa1;" horiz-adv-x="85" 
d="M21 21l13 454l17 -1l13 -452q0 -9 -6 -15.5t-15 -6.5t-15.5 6t-6.5 15zM43 588q9 0 15 -6.5t6 -15.5t-6 -15t-15 -6t-15.5 6t-6.5 15t6.5 15.5t15.5 6.5z" />
    <glyph glyph-name="cent" unicode="&#xa2;" horiz-adv-x="262" 
d="M153 -98h-15v96q-25 3 -46 20t-37 43.5t-25 61t-9 73.5t9 74t25 62t37 43.5t46 18.5v96h15v-96q8 -2 17.5 -5t16.5 -6q14 -7 20 -4t4 13h2l8 -71l-3 -1q-3 26 -24.5 43t-47.5 17q-17 0 -32 -14.5t-26.5 -39.5t-17.5 -58.5t-6 -71.5q0 -37 6.5 -70.5t18 -59t27 -40
t34.5 -14.5q24 0 45 24.5t32 62.5l14 -5q-15 -43 -36 -68.5t-52 -27.5v-96z" />
    <glyph glyph-name="sterling" unicode="&#xa3;" horiz-adv-x="301" 
d="M204 14q26 1 47.5 17t25.5 41h2l-9 -86h-2q0 5 -4.5 9.5t-9.5 4.5h-233v2q12 1 22 6q8 5 14.5 13.5t6.5 22.5v146h-43v15h43v172q0 14 0.5 24.5t2.5 32.5v-1q4 33 14 61.5t23.5 49.5t30.5 32.5t35 11.5t37 -10.5t35.5 -26.5t27 -33t10.5 -31q0 -11 -6.5 -17.5t-15.5 -6.5
q-8 0 -14.5 5t-6.5 13q-1 21 -7 38t-15 29t-19.5 18.5t-21.5 6.5q-15 0 -27.5 -14t-21 -39t-13.5 -57.5t-5 -70.5v-187h115v-15h-115v-143q0 -14 9.5 -23.5t23.5 -9.5h64z" />
    <glyph glyph-name="currency" unicode="&#xa4;" horiz-adv-x="282" 
d="M143 108q18 0 30 8.5t19 22t9.5 29.5t2.5 31q0 14 -3.5 29t-10.5 27t-18.5 20t-28.5 8t-29 -8t-19.5 -20t-11 -27t-3.5 -29q0 -15 2.5 -31.5t9.5 -29.5t19.5 -21.5t31.5 -8.5zM261 109l-30 -30l-30 30q-26 -16 -58 -16q-35 0 -61 16l-31 -30l-30 30l31 31q-14 25 -14 59
q0 31 17 56l-34 33l30 31l36 -35q25 14 56 14q29 0 53 -13l35 34l30 -31l-32 -32q17 -25 17 -57q0 -34 -15 -60z" />
    <glyph glyph-name="yen" unicode="&#xa5;" horiz-adv-x="558" 
d="M21 788h143v-3q-12 -1 -20 -5q-7 -4 -11.5 -11.5t-0.5 -21.5l168 -640l161 609q5 20 14 36q9 14 24 25t38 11v-72h-3q0 12 -8 20t-19 8q-12 0 -20.5 -8.5t-11.5 -19.5l-179 -678h88v-15h-92l-3 -14l-1 -1h96v-15h-100q-8 -25 -23.5 -45t-40.5 -20q-14 0 -20.5 6.5
t-6.5 15.5q0 8 6 14.5t15 6.5q11 0 17 -7.5t5 -17.5q8 5 15 13.5t12 18.5q2 3 3.5 6.5t3.5 8.5h-87v15h92q2 10 2 15h-94v15h93v1l-183 692q-1 2 -4.5 11t-12 18.5t-22 17t-33.5 7.5v3z" />
    <glyph glyph-name="brokenbar" unicode="&#xa6;" horiz-adv-x="85" 
d="M21 49h43v-244h-43v244zM21 588h43v-243h-43v243z" />
    <glyph glyph-name="section" unicode="&#xa7;" horiz-adv-x="227" 
d="M68 290q0 -56 35 -79q24 4 42 29t18 58q0 29 -12 47t-32 32q-23 -4 -37 -28.5t-14 -58.5zM206 102v0v0v0zM193 588l8 -71l-3 -1q-4 26 -25 42t-47 16t-42 -26t-16 -62q0 -32 12.5 -55t40.5 -32q33 -11 59 -37.5t26 -63.5q0 -34 -23 -60.5t-56 -36.5q32 -12 55.5 -38
t23.5 -61v0v0q0 -21 -9 -39.5t-24.5 -32.5t-35.5 -22t-41 -8q-9 0 -17.5 2.5t-16.5 5.5q-13 4 -23 5t-9 -13h-2l-7 71l3 1q3 -25 24.5 -41.5t47.5 -16.5q13 0 25 7t21.5 19t15 28t5.5 34q0 35 -18.5 56t-47.5 36q-32 12 -52 36.5t-20 59.5t21 62.5t53 35.5q-32 13 -53 38
t-21 60q0 21 8 39.5t21.5 32.5t32 22t39.5 8q11 0 20.5 -2.5t17.5 -4.5q12 -5 20 -4.5t7 11.5h2z" />
    <glyph glyph-name="dieresis" unicode="&#xa8;" horiz-adv-x="172" 
d="M129 478q9 0 15.5 -6.5t6.5 -14.5q0 -9 -6.5 -15.5t-15.5 -6.5t-15 6.5t-6 14.5q0 9 6 15.5t15 6.5zM21 456q0 9 6.5 15.5t15.5 6.5q8 0 14.5 -6.5t6.5 -14.5q0 -9 -6.5 -15.5t-14.5 -6.5q-9 0 -15.5 6.5t-6.5 14.5z" />
    <glyph glyph-name="copyright" unicode="&#xa9;" horiz-adv-x="615" 
d="M307 -80q56 0 105.5 21.5t86.5 58t58.5 86t21.5 105.5t-21.5 105.5t-58.5 86.5t-86.5 58t-105.5 21t-105.5 -21t-86 -58t-58 -86.5t-21.5 -105.5t21.5 -105.5t58 -86t86 -58t105.5 -21.5zM307 478q59 0 111.5 -22.5t91.5 -61.5t61.5 -91.5t22.5 -111.5t-22.5 -111
t-61.5 -91t-91.5 -61.5t-111.5 -22.5t-111 22.5t-91 61.5t-61.5 91t-22.5 111t22.5 111.5t61.5 91.5t91 61.5t111 22.5zM307 -3q-26 0 -49 16t-40 43t-27 63.5t-10 76.5q0 41 9.5 77t26.5 63t39.5 42.5t48.5 15.5q8 0 21 -3.5t21 -7.5q26 -13 24 9h2l8 -71l-3 -1
q-3 26 -24.5 43t-48.5 17q-17 0 -32 -14.5t-26 -39.5t-17.5 -58.5t-6.5 -71.5q0 -37 7 -70.5t18.5 -59t27 -40t34.5 -14.5q24 0 45 24.5t32 62.5l14 -5q-16 -45 -38 -71t-56 -26z" />
    <glyph glyph-name="ordfeminine" unicode="&#xaa;" horiz-adv-x="294" 
d="M273 193h-130v2q12 1 22 6q8 5 15 13.5t7 22.5v59q0 35 -16 59.5t-45 24.5t-45.5 -25t-16.5 -60q0 -27 5 -44t12 -27t15 -13.5t14 -3.5q19 0 43 24l10 -12q-14 -11 -25 -18.5t-28 -7.5q-40 0 -64.5 29.5t-24.5 72.5q0 42 28.5 71t76.5 29q47 0 75.5 -29t28.5 -70v-59
q0 -14 7 -22.5t15 -13.5q9 -5 21 -6v-2z" />
    <glyph glyph-name="guillemotleft" unicode="&#xab;" horiz-adv-x="223" 
d="M141 317v-30l-89 -90l89 -90v-30l-120 120zM82 197l120 120v-30l-89 -90l89 -90v-30z" />
    <glyph glyph-name="logicalnot" unicode="&#xac;" horiz-adv-x="339" 
d="M318 219v-43h-1v-44h-43v44h-253v43h297z" />
    <glyph glyph-name="registered" unicode="&#xae;" horiz-adv-x="615" 
d="M391 0q-9 0 -15 6.5t-6 15.5v48q0 47 -18 71t-40 35q-26 13 -58 14v-145q0 -15 7 -23t15 -13q10 -5 22 -6v-3h-130v3q12 1 22 6q8 5 14.5 13t6.5 23v302q0 15 -6.5 23.5t-14.5 13.5q-10 5 -22 6v2h142q21 0 39.5 -8t33 -21.5t22.5 -32t8 -39.5q0 -37 -23 -64.5t-58 -35.5
q32 -12 48.5 -32.5t24.5 -40.5q8 -23 8 -48v-25q0 -15 6.5 -23.5t14.5 -12.5q10 -6 22 -7v-2h-65zM299 203q32 0 51.5 26t19.5 62t-18 61.5t-44 25.5h-21q-14 0 -23.5 -9.5t-9.5 -23.5v-141q11 0 22.5 -0.5t22.5 -0.5zM307 -80q56 0 105.5 21.5t86.5 58t58.5 86t21.5 105.5
t-21.5 105.5t-58.5 86.5t-86.5 58t-105.5 21t-105.5 -21t-86 -58t-58 -86.5t-21.5 -105.5t21.5 -105.5t58 -86t86 -58t105.5 -21.5zM307 478q59 0 111.5 -22.5t91.5 -61.5t61.5 -91.5t22.5 -111.5t-22.5 -111t-61.5 -91t-91.5 -61.5t-111.5 -22.5t-111 22.5t-91 61.5
t-61.5 91t-22.5 111t22.5 111.5t61.5 91.5t91 61.5t111 22.5z" />
    <glyph glyph-name="macron" unicode="&#xaf;" horiz-adv-x="243" 
d="M222 450v-15h-201v15h201z" />
    <glyph glyph-name="degree" unicode="&#xb0;" horiz-adv-x="251" 
d="M126 395q47 0 75.5 -29t28.5 -70q0 -48 -28 -77t-76 -29q-50 0 -77.5 29t-27.5 77q0 41 28.5 70t76.5 29zM126 205q29 0 45 24.5t16 66.5q0 35 -16 59.5t-45 24.5t-45.5 -24.5t-16.5 -59.5q0 -42 15 -66.5t47 -24.5z" />
    <glyph glyph-name="plusminus" unicode="&#xb1;" horiz-adv-x="339" 
d="M21 222v43h127v127h43v-127h127v-43h-127v-127h-43v127h-127zM21 43h297v-43h-297v43z" />
    <glyph glyph-name="twosuperior" unicode="&#xb2;" horiz-adv-x="292" 
d="M268 265l3 -1l-9 -86h-3q0 6 -4 10.5t-10 4.5h-189h-35v1v1q29 0 46 14t18 34v2q0 18 24.5 32t55.5 19q32 5 45 16.5t13 27.5q0 20 -16 30.5t-42 10.5q-13 0 -28 -5t-28.5 -13t-22.5 -19.5t-11 -23.5l-3 1l7 71h2q-1 -9 6.5 -10t20 2t29 7t32.5 4q40 0 68.5 -16t28.5 -38
t-21 -31.5t-46.5 -16t-47 -15.5t-23.5 -30v-22q0 -10 4 -14.5t16 -4.5h48q26 0 47.5 16t24.5 41v1z" />
    <glyph glyph-name="threesuperior" unicode="&#xb3;" horiz-adv-x="240" 
d="M152 294q29 -6 48 -19t19 -30q0 -10 -8.5 -20t-22.5 -17t-33 -11.5t-40 -4.5q-34 0 -56 13t-38 36l14 5q11 -20 32.5 -30t48.5 -10q25 1 42.5 11t17.5 28q0 19 -18.5 30t-44.5 11v15q26 0 41 10.5t15 29.5t-14.5 29t-40.5 10q-27 0 -49 -17.5t-24 -42.5l-3 1l8 71h2
q-1 -11 3 -12t12.5 2t22 7.5t32.5 4.5q40 0 67 -15.5t27 -37.5q0 -17 -16.5 -29t-43.5 -18z" />
    <glyph glyph-name="acute" unicode="&#xb4;" horiz-adv-x="120" 
d="M82 535h17l-60 -100h-18z" />
    <glyph glyph-name="paragraph" unicode="&#xb6;" horiz-adv-x="406" 
d="M385 0h-130v2q12 1 22 6q8 4 14.5 11.5t6.5 21.5v490q0 16 -6.5 24.5t-14.5 12.5q-10 4 -22 5h-43q-12 -1 -21 -5q-8 -4 -15 -12.5t-7 -24.5v-487q0 -14 7 -22.5t15 -13.5q10 -5 22 -6v-2h-130v2q12 1 22 6q8 4 14.5 11.5t6.5 21.5v343q-50 0 -77.5 28.5t-27.5 76.5
q0 42 28.5 70.5t76.5 28.5h259v-2q-12 -1 -22 -6q-8 -5 -15 -13t-7 -23l1 -500q0 -14 7 -22.5t15 -13.5q9 -5 21 -6v-2z" />
    <glyph glyph-name="periodcentered" unicode="&#xb7;" horiz-adv-x="85" 
d="M21 198q0 9 6.5 15t15.5 6q8 0 14.5 -6t6.5 -15t-6.5 -15.5t-14.5 -6.5q-9 0 -15.5 6.5t-6.5 15.5z" />
    <glyph glyph-name="cedilla" unicode="&#xb8;" horiz-adv-x="251" 
d="M124 -29v29h15v-15q42 0 66.5 -22.5t24.5 -60.5q0 -48 -28 -72.5t-78 -24.5q-47 0 -75 24.5t-28 72.5q0 9 2 16t6 12t11 5q10 0 17 -7t7 -26q0 -82 60 -82q63 0 63 82q0 35 -16.5 52.5t-46.5 16.5z" />
    <glyph glyph-name="onesuperior" unicode="&#xb9;" horiz-adv-x="172" 
d="M21 392h130v-2q-12 -1 -22 -6q-8 -5 -15 -13t-7 -23v-111q0 -14 7 -22.5t15 -13.5q10 -5 22 -6v-2h-130v2q12 1 22 6q8 4 14.5 11t6.5 21v115q0 15 -6.5 23t-14.5 13q-10 5 -22 6v2z" />
    <glyph glyph-name="ordmasculine" unicode="&#xba;" horiz-adv-x="251" 
d="M126 395q47 0 75.5 -29t28.5 -70q0 -48 -28 -77t-76 -29q-50 0 -77.5 29t-27.5 77q0 41 28.5 70t76.5 29zM126 205q29 0 45 24.5t16 66.5q0 35 -16 59.5t-45 24.5t-45.5 -24.5t-16.5 -59.5q0 -42 15 -66.5t47 -24.5z" />
    <glyph glyph-name="guillemotright" unicode="&#xbb;" horiz-adv-x="223" 
d="M21 287v30l120 -120l-120 -120v30l90 90zM82 287v30l120 -120l-120 -120v30l90 90z" />
    <glyph glyph-name="onequarter" unicode="&#xbc;" horiz-adv-x="460" 
d="M436 128l3 -1l-9 -85h-3v0q1 5 -3.5 9.5t-10.5 4.5h-39v-12q0 -14 7 -22.5t15 -13.5q9 -5 21 -6v-2h-129v2q12 1 22 6q8 4 14.5 11.5t6.5 21.5v15h-180v3q15 0 27.5 7t21 16t14 18t6.5 12l40 87h47l-46 -100q-5 -9 0 -18.5t17 -10.5h53v129h43v-128q23 3 40.5 18t21.5 38
v1zM306 392h18l-240 -392h-17zM64 347q0 15 -6.5 23.5t-14.5 12.5q-10 5 -22 6v3h130v-3q-12 -1 -22 -6q-8 -4 -15 -12.5t-7 -23.5v-110q0 -14 7 -22.5t15 -13.5q10 -5 22 -6v-2h-130v2q12 1 22 6q8 4 14.5 11t6.5 21v114z" />
    <glyph glyph-name="onehalf" unicode="&#xbd;" horiz-adv-x="442" 
d="M306 392h18l-240 -392h-17zM64 347q0 15 -6.5 23.5t-14.5 12.5q-10 5 -22 6v3h130v-3q-12 -1 -22 -6q-8 -4 -15 -12.5t-7 -23.5v-110q0 -14 7 -22.5t15 -13.5q10 -5 22 -6v-2h-130v2q12 1 22 6q8 4 14.5 11t6.5 21v114zM418 72l3 -1l-9 -85h-3q0 5 -4 9.5t-9 4.5h-189
h-36v1v2q29 0 46 13.5t18 33.5v2q0 19 24.5 32.5t55.5 18.5q32 5 45 16.5t14 27.5q0 20 -16 30.5t-42 10.5q-13 0 -28.5 -4.5t-29 -13t-22.5 -19.5t-11 -23h-3l8 71h2q-1 -9 6.5 -9.5t20 2t29 6.5t32.5 4q40 0 68.5 -16t28.5 -37q0 -22 -21 -32t-47 -16.5t-47.5 -15.5
t-23.5 -30v-22q0 -19 20 -19h48q26 0 47.5 16.5t24.5 40.5v1z" />
    <glyph glyph-name="threequarters" unicode="&#xbe;" horiz-adv-x="528" 
d="M375 392h17l-239 -392h-18zM504 128l3 -1l-9 -85h-3v0q1 5 -3.5 9.5t-10.5 4.5h-39v-12q0 -14 7 -22.5t15 -13.5q9 -5 21 -6v-2h-129v2q12 1 22 6q8 4 14.5 11.5t6.5 21.5v15h-180v3q15 0 27.5 7t21 16t14 18t6.5 12l41 87h47l-47 -100q-5 -9 0 -18.5t17 -10.5h53v129h43
v-128q23 3 41 18t21 38v1zM152 294q29 -6 48 -19t19 -30q0 -10 -8.5 -20t-22.5 -17t-33 -11.5t-40 -4.5q-34 0 -56 13t-38 36l14 5q11 -20 32.5 -30t48.5 -10q25 1 42.5 11t17.5 28q0 19 -18.5 30t-44.5 11v15q26 0 41 10.5t15 29.5t-14.5 29t-40.5 10q-27 0 -49 -17.5
t-24 -42.5l-3 1l8 71h2q-1 -11 3 -12t12.5 2t22 7.5t32.5 4.5q40 0 67 -15.5t27 -37.5q0 -17 -16.5 -29t-43.5 -18z" />
    <glyph glyph-name="questiondown" unicode="&#xbf;" horiz-adv-x="224" 
d="M21 110q0 29 15 52t47 36q26 11 30.5 29.5t6.5 47.5l13 200h16l14 -185q3 -36 -8.5 -63t-44.5 -38q-30 -10 -38 -32t-8 -54q0 -37 19 -63t45 -26q26 1 48 16.5t25 41.5h2l-7 -72h-2q-3 13 -11 13t-22.5 -6.5t-36.5 -6.5q-20 0 -38.5 8t-33 23t-23 35t-8.5 44zM141 588
q9 0 15.5 -6t6.5 -15t-6.5 -15.5t-15.5 -6.5t-15.5 6.5t-6.5 15.5t6.5 15t15.5 6z" />
    <glyph glyph-name="Agrave" unicode="&#xc0;" 
d="M21 2q27 0 46.5 15t25.5 41l166 628q7 26 -1 52t-14 50h56q-3 -11 -5 -19.5t1 -19.5l185 -699q1 -2 4.5 -10t11.5 -16.5t21.5 -15t32.5 -6.5v-2h-143v2q12 1 20 6q7 4 11.5 11.5t0.5 21.5l-89 337h-158l-89 -334q-4 -14 0.5 -22.5t11.5 -13.5q8 -5 20 -6v-2h-115v2z
M196 392h151l-75 289zM311 846h-17l-61 100h18z" />
    <glyph glyph-name="Aacute" unicode="&#xc1;" 
d="M21 2q27 0 46.5 15t25.5 41l166 628q7 26 -1 52t-14 50h56q-3 -11 -5 -19.5t1 -19.5l185 -699q1 -2 4.5 -10t11.5 -16.5t21.5 -15t32.5 -6.5v-2h-143v2q12 1 20 6q7 4 11.5 11.5t0.5 21.5l-89 337h-158l-89 -334q-4 -14 0.5 -22.5t11.5 -13.5q8 -5 20 -6v-2h-115v2z
M196 392h151l-75 289zM294 946h17l-60 -100h-18z" />
    <glyph glyph-name="Acircumflex" unicode="&#xc2;" 
d="M21 2q27 0 46.5 15t25.5 41l166 628q7 26 -1 52t-14 50h56q-3 -11 -5 -19.5t1 -19.5l185 -699q1 -2 4.5 -10t11.5 -16.5t21.5 -15t32.5 -6.5v-2h-143v2q12 1 20 6q7 4 11.5 11.5t0.5 21.5l-89 337h-158l-89 -334q-4 -14 0.5 -22.5t11.5 -13.5q8 -5 20 -6v-2h-115v2z
M196 392h151l-75 289zM272 877l-101 -31v15l101 31l100 -31v-15z" />
    <glyph glyph-name="Atilde" unicode="&#xc3;" 
d="M21 2q27 0 46.5 15t25.5 41l166 628q7 26 -1 52t-14 50h56q-3 -11 -5 -19.5t1 -19.5l185 -699q1 -2 4.5 -10t11.5 -16.5t21.5 -15t32.5 -6.5v-2h-143v2q12 1 20 6q7 4 11.5 11.5t0.5 21.5l-89 337h-158l-89 -334q-4 -14 0.5 -22.5t11.5 -13.5q8 -5 20 -6v-2h-115v2z
M196 392h151l-75 289zM393 891q-9 -18 -23 -28t-31 -14t-35.5 -2.5t-36.5 6.5q-14 4 -29 9.5t-29.5 7t-27 -3t-22.5 -20.5l-9 8q9 18 23 28.5t31 15t35.5 3.5t36.5 -6q14 -4 29 -10t29.5 -8t27 2t22.5 20z" />
    <glyph glyph-name="Adieresis" unicode="&#xc4;" 
d="M21 2q27 0 46.5 15t25.5 41l166 628q7 26 -1 52t-14 50h56q-3 -11 -5 -19.5t1 -19.5l185 -699q1 -2 4.5 -10t11.5 -16.5t21.5 -15t32.5 -6.5v-2h-143v2q12 1 20 6q7 4 11.5 11.5t0.5 21.5l-89 337h-158l-89 -334q-4 -14 0.5 -22.5t11.5 -13.5q8 -5 20 -6v-2h-115v2z
M196 392h151l-75 289zM315 889q9 0 15.5 -6.5t6.5 -14.5q0 -9 -6.5 -15.5t-15.5 -6.5t-15 6.5t-6 14.5q0 9 6 15.5t15 6.5zM207 867q0 9 6.5 15.5t15.5 6.5q8 0 14.5 -6.5t6.5 -14.5q0 -9 -6.5 -15.5t-14.5 -6.5q-9 0 -15.5 6.5t-6.5 14.5z" />
    <glyph glyph-name="Aring" unicode="&#xc5;" 
d="M21 2q27 0 46.5 15t25.5 41l166 628q7 26 -1 52t-14 50h56q-3 -11 -5 -19.5t1 -19.5l185 -699q1 -2 4.5 -10t11.5 -16.5t21.5 -15t32.5 -6.5v-2h-143v2q12 1 20 6q7 4 11.5 11.5t0.5 21.5l-89 337h-158l-89 -334q-4 -14 0.5 -22.5t11.5 -13.5q8 -5 20 -6v-2h-115v2z
M196 392h151l-75 289zM272 861q14 0 24.5 10.5t10.5 24.5t-10.5 24.5t-24.5 10.5t-24.5 -10.5t-10.5 -24.5q0 -15 10.5 -25t24.5 -10zM272 945q20 0 35 -14.5t15 -34.5t-15 -35t-35 -15q-21 0 -35.5 14.5t-14.5 35.5q0 20 14.5 34.5t35.5 14.5z" />
    <glyph glyph-name="AE" unicode="&#xc6;" horiz-adv-x="663" 
d="M199 401h63v243zM21 0v2q26 0 46 15t26 41q38 157 83 314t83 314q3 11 3 22v22q0 25 -17 40.5t-40 15.5v2h375q14 2 14 14h2l9 -85l-2 -1q-4 26 -25.5 42t-47.5 16h-194q-13 0 -21.5 -9.5t-9.5 -23.5v-340h176q22 0 36.5 17.5t14.5 40.5h2v-129h-2q0 23 -14.5 40
t-36.5 17h-176v-340q1 -14 10 -23.5t23 -9.5h229q26 0 48 16t25 42l2 -1l-9 -85h-3q0 5 -4 9.5t-9 4.5h-412v3q23 0 40 16t17 39v329h-67l-91 -343q-4 -14 0.5 -22.5t11.5 -13.5q8 -5 20 -6v-2h-115z" />
    <glyph glyph-name="Ccedilla" unicode="&#xc7;" horiz-adv-x="558" 
d="M293 -15q42 0 66.5 -22.5t24.5 -60.5q0 -48 -28 -72.5t-78 -24.5q-47 0 -75 24.5t-28 72.5q0 9 2 16t6 12t11 5q10 0 16.5 -7t6.5 -26q0 -82 61 -82q63 0 63 82q0 35 -16.5 52.5t-46.5 16.5v38q-55 15 -102 50t-81.5 86t-54 114.5t-19.5 134.5q0 82 26 153.5t71 125
t105 84.5t128 31h68q8 0 12 4.5t4 10.5h3l77 -86l-2 -1q-18 19 -36.5 30.5t-35.5 17.5t-32 8t-26 2h-13q-63 0 -118 -30t-95 -81.5t-63 -120.5t-23 -148t23 -148t63 -120.5t95 -81.5t118 -30q46 0 88 16t78 45l1 -3q-40 -34 -87.5 -53t-101.5 -19q-14 0 -27.5 1.5t-27.5 3.5
v-20z" />
    <glyph glyph-name="Egrave" unicode="&#xc8;" horiz-adv-x="479" 
d="M396 788q6 0 10 4.5t4 9.5h2l10 -85l-3 -1q-4 26 -25.5 42t-47.5 16h-193q-14 0 -22.5 -9.5t-8.5 -23.5v-340h175q23 0 37 17.5t14 40.5h3v-129h-3q0 23 -14 40t-37 17h-175v-340q0 -14 9.5 -23.5t23.5 -9.5h228q26 0 48.5 16t24.5 42l3 -1l-10 -86h-2q0 6 -4 10.5
t-10 4.5h-412v3q24 0 40.5 16t16.5 39v672q0 25 -16.5 40.5t-40.5 15.5v2h375zM279 846h-17l-61 100h18z" />
    <glyph glyph-name="Eacute" unicode="&#xc9;" horiz-adv-x="479" 
d="M396 788q6 0 10 4.5t4 9.5h2l10 -85l-3 -1q-4 26 -25.5 42t-47.5 16h-193q-14 0 -22.5 -9.5t-8.5 -23.5v-340h175q23 0 37 17.5t14 40.5h3v-129h-3q0 23 -14 40t-37 17h-175v-340q0 -14 9.5 -23.5t23.5 -9.5h228q26 0 48.5 16t24.5 42l3 -1l-10 -86h-2q0 6 -4 10.5
t-10 4.5h-412v3q24 0 40.5 16t16.5 39v672q0 25 -16.5 40.5t-40.5 15.5v2h375zM262 946h17l-60 -100h-18z" />
    <glyph glyph-name="Ecircumflex" unicode="&#xca;" horiz-adv-x="479" 
d="M396 788q6 0 10 4.5t4 9.5h2l10 -85l-3 -1q-4 26 -25.5 42t-47.5 16h-193q-14 0 -22.5 -9.5t-8.5 -23.5v-340h175q23 0 37 17.5t14 40.5h3v-129h-3q0 23 -14 40t-37 17h-175v-340q0 -14 9.5 -23.5t23.5 -9.5h228q26 0 48.5 16t24.5 42l3 -1l-10 -86h-2q0 6 -4 10.5
t-10 4.5h-412v3q24 0 40.5 16t16.5 39v672q0 25 -16.5 40.5t-40.5 15.5v2h375zM240 877l-101 -31v15l101 31l100 -31v-15z" />
    <glyph glyph-name="Edieresis" unicode="&#xcb;" horiz-adv-x="479" 
d="M396 788q6 0 10 4.5t4 9.5h2l10 -85l-3 -1q-4 26 -25.5 42t-47.5 16h-193q-14 0 -22.5 -9.5t-8.5 -23.5v-340h175q23 0 37 17.5t14 40.5h3v-129h-3q0 23 -14 40t-37 17h-175v-340q0 -14 9.5 -23.5t23.5 -9.5h228q26 0 48.5 16t24.5 42l3 -1l-10 -86h-2q0 6 -4 10.5
t-10 4.5h-412v3q24 0 40.5 16t16.5 39v672q0 25 -16.5 40.5t-40.5 15.5v2h375zM283 889q9 0 15.5 -6.5t6.5 -14.5q0 -9 -6.5 -15.5t-15.5 -6.5t-15 6.5t-6 14.5q0 9 6 15.5t15 6.5zM175 867q0 9 6.5 15.5t15.5 6.5q8 0 14.5 -6.5t6.5 -14.5q0 -9 -6.5 -15.5t-14.5 -6.5
q-9 0 -15.5 6.5t-6.5 14.5z" />
    <glyph glyph-name="Igrave" unicode="&#xcc;" horiz-adv-x="200" 
d="M21 788h158v-2q-24 0 -40.5 -16t-16.5 -40v-677q0 -22 17 -36t40 -14v-3h-158v3q23 0 40 14.5t17 37.5v676q0 23 -16.5 39t-40.5 16v2zM139 846h-17l-61 100h18z" />
    <glyph glyph-name="Iacute" unicode="&#xcd;" horiz-adv-x="200" 
d="M21 788h158v-2q-24 0 -40.5 -16t-16.5 -40v-677q0 -22 17 -36t40 -14v-3h-158v3q23 0 40 14.5t17 37.5v676q0 23 -16.5 39t-40.5 16v2zM122 946h17l-60 -100h-18z" />
    <glyph glyph-name="Icircumflex" unicode="&#xce;" horiz-adv-x="200" 
d="M21 788h158v-2q-24 0 -40.5 -16t-16.5 -40v-677q0 -22 17 -36t40 -14v-3h-158v3q23 0 40 14.5t17 37.5v676q0 23 -16.5 39t-40.5 16v2zM100 877l-101 -31v15l101 31l100 -31v-15z" />
    <glyph glyph-name="Idieresis" unicode="&#xcf;" horiz-adv-x="200" 
d="M21 788h158v-2q-24 0 -40.5 -16t-16.5 -40v-677q0 -22 17 -36t40 -14v-3h-158v3q23 0 40 14.5t17 37.5v676q0 23 -16.5 39t-40.5 16v2zM143 889q9 0 15.5 -6.5t6.5 -14.5q0 -9 -6.5 -15.5t-15.5 -6.5t-15 6.5t-6 14.5q0 9 6 15.5t15 6.5zM35 867q0 9 6.5 15.5t15.5 6.5
q8 0 14.5 -6.5t6.5 -14.5q0 -9 -6.5 -15.5t-14.5 -6.5q-9 0 -15.5 6.5t-6.5 14.5z" />
    <glyph glyph-name="Eth" unicode="&#xd0;" horiz-adv-x="558" 
d="M200 14q61 0 113.5 30.5t91 82.5t60.5 121t22 146q0 78 -22.5 147.5t-62.5 121t-94 81.5t-117 30h-37q-14 0 -23 -9.5t-9 -23.5v-486h100v-15h-100v-193q0 -14 9 -23.5t23 -9.5h46zM21 0v3q24 0 40.5 15.5t16.5 39.5v182h-57v15h57v475q0 24 -16.5 40t-40.5 16v2h187
q68 0 127.5 -31t104.5 -84.5t71 -125t26 -153.5v-1v-1q0 -80 -25.5 -151.5t-69 -125t-102.5 -84.5t-126 -31h-193zM537 394v-2v1v1z" />
    <glyph glyph-name="Ntilde" unicode="&#xd1;" horiz-adv-x="545" 
d="M524 788v-3q-23 0 -40 -14.5t-17 -37.5v-733h-14l-360 732v-678q0 -23 17 -37.5t40 -14.5v-2h-129v2q23 0 40 14.5t17 37.5v676q0 24 -16.5 39.5t-40.5 15.5v3h87l345 -702v648q0 23 -17.5 37t-40.5 14v3h129zM394 891q-9 -18 -23 -28t-31 -14t-35.5 -2.5t-36.5 6.5
q-14 4 -29 9.5t-29.5 7t-27 -3t-22.5 -20.5l-9 8q9 18 23 28.5t31 15t35.5 3.5t36.5 -6q14 -4 29 -10t29.5 -8t27 2t22.5 20z" />
    <glyph glyph-name="Ograve" unicode="&#xd2;" 
d="M286 788q55 0 103.5 -31t84.5 -84.5t56.5 -125.5t20.5 -153q0 -82 -20.5 -153.5t-56.5 -125t-84.5 -84.5t-103.5 -31t-103 31t-84 84.5t-57 125t-21 153.5q0 81 21 153t57 125.5t84 84.5t103 31zM286 14q46 0 85.5 30t68 81.5t45 120.5t16.5 148t-16.5 148t-45 120.5
t-68 81.5t-85.5 30t-85 -30t-68 -81.5t-45.5 -120.5t-16.5 -148t16.5 -148t45.5 -120.5t68 -81.5t85 -30zM325 846h-17l-61 100h18z" />
    <glyph glyph-name="Oacute" unicode="&#xd3;" 
d="M286 788q55 0 103.5 -31t84.5 -84.5t56.5 -125.5t20.5 -153q0 -82 -20.5 -153.5t-56.5 -125t-84.5 -84.5t-103.5 -31t-103 31t-84 84.5t-57 125t-21 153.5q0 81 21 153t57 125.5t84 84.5t103 31zM286 14q46 0 85.5 30t68 81.5t45 120.5t16.5 148t-16.5 148t-45 120.5
t-68 81.5t-85.5 30t-85 -30t-68 -81.5t-45.5 -120.5t-16.5 -148t16.5 -148t45.5 -120.5t68 -81.5t85 -30zM308 946h17l-60 -100h-18z" />
    <glyph glyph-name="Ocircumflex" unicode="&#xd4;" 
d="M286 788q55 0 103.5 -31t84.5 -84.5t56.5 -125.5t20.5 -153q0 -82 -20.5 -153.5t-56.5 -125t-84.5 -84.5t-103.5 -31t-103 31t-84 84.5t-57 125t-21 153.5q0 81 21 153t57 125.5t84 84.5t103 31zM286 14q46 0 85.5 30t68 81.5t45 120.5t16.5 148t-16.5 148t-45 120.5
t-68 81.5t-85.5 30t-85 -30t-68 -81.5t-45.5 -120.5t-16.5 -148t16.5 -148t45.5 -120.5t68 -81.5t85 -30zM287 877l-101 -31v15l101 31l100 -31v-15z" />
    <glyph glyph-name="Otilde" unicode="&#xd5;" 
d="M286 788q55 0 103.5 -31t84.5 -84.5t56.5 -125.5t20.5 -153q0 -82 -20.5 -153.5t-56.5 -125t-84.5 -84.5t-103.5 -31t-103 31t-84 84.5t-57 125t-21 153.5q0 81 21 153t57 125.5t84 84.5t103 31zM286 14q46 0 85.5 30t68 81.5t45 120.5t16.5 148t-16.5 148t-45 120.5
t-68 81.5t-85.5 30t-85 -30t-68 -81.5t-45.5 -120.5t-16.5 -148t16.5 -148t45.5 -120.5t68 -81.5t85 -30zM407 891q-9 -18 -23 -28t-31 -14t-35.5 -2.5t-36.5 6.5q-14 4 -29 9.5t-29.5 7t-27 -3t-22.5 -20.5l-9 8q9 18 23 28.5t31 15t35.5 3.5t36.5 -6q14 -4 29 -10t29.5 -8
t27 2t22.5 20z" />
    <glyph glyph-name="Odieresis" unicode="&#xd6;" 
d="M286 788q55 0 103.5 -31t84.5 -84.5t56.5 -125.5t20.5 -153q0 -82 -20.5 -153.5t-56.5 -125t-84.5 -84.5t-103.5 -31t-103 31t-84 84.5t-57 125t-21 153.5q0 81 21 153t57 125.5t84 84.5t103 31zM286 14q46 0 85.5 30t68 81.5t45 120.5t16.5 148t-16.5 148t-45 120.5
t-68 81.5t-85.5 30t-85 -30t-68 -81.5t-45.5 -120.5t-16.5 -148t16.5 -148t45.5 -120.5t68 -81.5t85 -30zM329 889q9 0 15.5 -6.5t6.5 -14.5q0 -9 -6.5 -15.5t-15.5 -6.5t-15 6.5t-6 14.5q0 9 6 15.5t15 6.5zM221 867q0 9 6.5 15.5t15.5 6.5q8 0 14.5 -6.5t6.5 -14.5
q0 -9 -6.5 -15.5t-14.5 -6.5q-9 0 -15.5 6.5t-6.5 14.5z" />
    <glyph glyph-name="multiply" unicode="&#xd7;" horiz-adv-x="282" 
d="M21 287l30 30l90 -89l90 89l30 -30l-89 -90l89 -90l-30 -30l-90 90l-89 -90l-31 30l90 90z" />
    <glyph glyph-name="Oslash" unicode="&#xd8;" 
d="M286 14q46 0 85.5 30t68 81.5t45 120.5t16.5 148q0 56 -8.5 107.5t-24 95.5t-37 79t-48.5 58l-181 -690q39 -30 84 -30zM71 394q0 -56 8.5 -107.5t24 -95.5t37 -79t48.5 -58l182 691q-40 29 -85 29q-46 0 -85.5 -30t-68 -81.5t-45 -120.5t-16.5 -148zM382 788h16l-9 -31
q36 -22 66 -59t51 -84t33 -103t12 -117q0 -82 -20.5 -153.5t-56.5 -125t-84.5 -84.5t-103.5 -31q-47 0 -90 23l-6 -23h-15l8 31q-36 23 -65.5 59.5t-51 83.5t-33.5 103t-12 117q0 82 21 153.5t57 125t84 84.5t103 31q47 0 90 -23z" />
    <glyph glyph-name="Ugrave" unicode="&#xd9;" horiz-adv-x="558" 
d="M21 788h158v-3q-24 0 -40.5 -15.5t-16.5 -39.5v-522q0 -40 13.5 -75.5t37 -61.5t54.5 -41.5t66 -15.5q36 0 67 15.5t54.5 41.5t37 61.5t13.5 75.5v526q0 23 -17 37t-40 14v3h129v-3q-23 0 -40 -14t-17 -37v-534q0 -41 -16 -77.5t-43 -63.5t-63.5 -43t-78.5 -16t-78.5 16
t-63.5 43t-43 63.5t-16 77.5v531q0 23 -16.5 38.5t-40.5 15.5v3zM318 846h-17l-61 100h18z" />
    <glyph glyph-name="Uacute" unicode="&#xda;" horiz-adv-x="558" 
d="M21 788h158v-3q-24 0 -40.5 -15.5t-16.5 -39.5v-522q0 -40 13.5 -75.5t37 -61.5t54.5 -41.5t66 -15.5q36 0 67 15.5t54.5 41.5t37 61.5t13.5 75.5v526q0 23 -17 37t-40 14v3h129v-3q-23 0 -40 -14t-17 -37v-534q0 -41 -16 -77.5t-43 -63.5t-63.5 -43t-78.5 -16t-78.5 16
t-63.5 43t-43 63.5t-16 77.5v531q0 23 -16.5 38.5t-40.5 15.5v3zM301 946h17l-60 -100h-18z" />
    <glyph glyph-name="Ucircumflex" unicode="&#xdb;" horiz-adv-x="558" 
d="M21 788h158v-3q-24 0 -40.5 -15.5t-16.5 -39.5v-522q0 -40 13.5 -75.5t37 -61.5t54.5 -41.5t66 -15.5q36 0 67 15.5t54.5 41.5t37 61.5t13.5 75.5v526q0 23 -17 37t-40 14v3h129v-3q-23 0 -40 -14t-17 -37v-534q0 -41 -16 -77.5t-43 -63.5t-63.5 -43t-78.5 -16t-78.5 16
t-63.5 43t-43 63.5t-16 77.5v531q0 23 -16.5 38.5t-40.5 15.5v3zM279 877l-101 -31v15l101 31l100 -31v-15z" />
    <glyph glyph-name="Udieresis" unicode="&#xdc;" horiz-adv-x="558" 
d="M21 788h158v-3q-24 0 -40.5 -15.5t-16.5 -39.5v-522q0 -40 13.5 -75.5t37 -61.5t54.5 -41.5t66 -15.5q36 0 67 15.5t54.5 41.5t37 61.5t13.5 75.5v526q0 23 -17 37t-40 14v3h129v-3q-23 0 -40 -14t-17 -37v-534q0 -41 -16 -77.5t-43 -63.5t-63.5 -43t-78.5 -16t-78.5 16
t-63.5 43t-43 63.5t-16 77.5v531q0 23 -16.5 38.5t-40.5 15.5v3zM322 889q9 0 15.5 -6.5t6.5 -14.5q0 -9 -6.5 -15.5t-15.5 -6.5t-15 6.5t-6 14.5q0 9 6 15.5t15 6.5zM214 867q0 9 6.5 15.5t15.5 6.5q8 0 14.5 -6.5t6.5 -14.5q0 -9 -6.5 -15.5t-14.5 -6.5q-9 0 -15.5 6.5
t-6.5 14.5z" />
    <glyph glyph-name="Yacute" unicode="&#xdd;" horiz-adv-x="558" 
d="M21 786v2h143v-2q-11 -1 -19 -6q-7 -4 -11.5 -11.5t-1.5 -21.5l168 -640l161 609q5 20 14 36q9 14 24 25t38 11v-72h-3q0 12 -8 20t-19 8q-12 0 -20.5 -8.5t-11.5 -19.5l-186 -707q-4 -14 -10 -28.5t-14 -26t-19.5 -19t-25.5 -7.5q-13 0 -20 6.5t-7 15.5q0 8 6.5 14.5
t14.5 6.5q11 0 17 -7.5t5 -17.5q8 5 15 13.5t12 18.5q6 11 11.5 28.5t1.5 32.5l-183 692q-1 2 -4.5 11t-12 19t-22 17.5t-33.5 7.5zM301 946h17l-60 -100h-18z" />
    <glyph glyph-name="Thorn" unicode="&#xde;" horiz-adv-x="386" 
d="M314 394q0 49 -14 92.5t-39.5 77t-61 55t-77.5 25.5v-500q42 5 77.5 26.5t61 55t39.5 76.5t14 92zM179 0h-158v3q23 0 40 14.5t17 37.5v675q0 24 -16.5 40t-40.5 16v2h57h37h7h57v-2q-24 0 -41 -16t-16 -40v-71q51 -4 95.5 -26.5t77 -58t51.5 -82t19 -98.5t-19 -98.5
t-51.5 -81.5t-77 -57.5t-95.5 -26.5v-72q-1 -24 16 -39.5t41 -15.5v-3z" />
    <glyph glyph-name="germandbls" unicode="&#xdf;" horiz-adv-x="335" 
d="M21 0v2q12 1 22 6q8 5 14.5 13.5t6.5 22.5l3 389v0q0 34 9.5 62.5t24 49t33 32t36.5 11.5q15 0 33.5 -9.5t34.5 -24t27.5 -32t14.5 -33.5q4 -28 -8.5 -45t-29 -30t-30.5 -25t-14 -31q0 -16 8.5 -22.5t21.5 -10.5t28 -9t28 -18t21.5 -36.5t8.5 -65.5q0 -40 -10 -76
t-27 -63t-39.5 -43t-48.5 -16q-17 0 -31.5 7.5t-28.5 18.5l10 12q12 -11 25.5 -17.5t24.5 -6.5q18 0 33 14.5t26 40t17 59t6 70.5q0 42 -6.5 64.5t-16.5 34t-21 15.5t-21 8.5t-16.5 12.5t-6.5 27q0 20 8.5 28t18.5 17.5t18.5 25.5t8.5 52q0 21 -6 38t-15 29t-20 18.5
t-22 6.5q-15 0 -27.5 -14t-21 -39t-13.5 -57.5t-5 -70.5v-348q0 -18 13 -30t30 -12v-2h-129z" />
    <glyph glyph-name="agrave" unicode="&#xe0;" horiz-adv-x="334" 
d="M21 3q15 0 25 6.5t17 14.5t10.5 17t4.5 13l64 242q2 5 2 13.5t-2 16.5l-18 66h57q-5 -17 -5.5 -24t2.5 -18l77 -293q5 -22 19.5 -38t38.5 -16v-3h-128v3q11 1 19 6q7 4 11.5 11t1.5 21l-29 108h-71l-29 -108q-3 -14 1.5 -22t12.5 -12t19 -4v-3h-100v3zM185 163l-32 122
l-32 -122h64zM191 435h-17l-61 100h18z" />
    <glyph glyph-name="aacute" unicode="&#xe1;" horiz-adv-x="334" 
d="M21 3q15 0 25 6.5t17 14.5t10.5 17t4.5 13l64 242q2 5 2 13.5t-2 16.5l-18 66h57q-5 -17 -5.5 -24t2.5 -18l77 -293q5 -22 19.5 -38t38.5 -16v-3h-128v3q11 1 19 6q7 4 11.5 11t1.5 21l-29 108h-71l-29 -108q-3 -14 1.5 -22t12.5 -12t19 -4v-3h-100v3zM185 163l-32 122
l-32 -122h64zM174 535h17l-60 -100h-18z" />
    <glyph glyph-name="acircumflex" unicode="&#xe2;" horiz-adv-x="334" 
d="M21 3q15 0 25 6.5t17 14.5t10.5 17t4.5 13l64 242q2 5 2 13.5t-2 16.5l-18 66h57q-5 -17 -5.5 -24t2.5 -18l77 -293q5 -22 19.5 -38t38.5 -16v-3h-128v3q11 1 19 6q7 4 11.5 11t1.5 21l-29 108h-71l-29 -108q-3 -14 1.5 -22t12.5 -12t19 -4v-3h-100v3zM185 163l-32 122
l-32 -122h64zM153 466l-101 -31v15l101 31l100 -31v-15z" />
    <glyph glyph-name="atilde" unicode="&#xe3;" horiz-adv-x="334" 
d="M21 3q15 0 25 6.5t17 14.5t10.5 17t4.5 13l64 242q2 5 2 13.5t-2 16.5l-18 66h57q-5 -17 -5.5 -24t2.5 -18l77 -293q5 -22 19.5 -38t38.5 -16v-3h-128v3q11 1 19 6q7 4 11.5 11t1.5 21l-29 108h-71l-29 -108q-3 -14 1.5 -22t12.5 -12t19 -4v-3h-100v3zM185 163l-32 122
l-32 -122h64zM274 480q-9 -18 -23 -28t-31 -14t-35.5 -2.5t-36.5 6.5q-14 4 -29 9.5t-29.5 7t-27 -3t-22.5 -20.5l-9 8q9 18 23 28.5t31 15t35.5 3.5t36.5 -6q14 -4 29 -10t29.5 -8t27 2t22.5 20z" />
    <glyph glyph-name="adieresis" unicode="&#xe4;" horiz-adv-x="334" 
d="M21 3q15 0 25 6.5t17 14.5t10.5 17t4.5 13l64 242q2 5 2 13.5t-2 16.5l-18 66h57q-5 -17 -5.5 -24t2.5 -18l77 -293q5 -22 19.5 -38t38.5 -16v-3h-128v3q11 1 19 6q7 4 11.5 11t1.5 21l-29 108h-71l-29 -108q-3 -14 1.5 -22t12.5 -12t19 -4v-3h-100v3zM185 163l-32 122
l-32 -122h64zM196 478q9 0 15.5 -6.5t6.5 -14.5q0 -9 -6.5 -15.5t-15.5 -6.5t-15 6.5t-6 14.5q0 9 6 15.5t15 6.5zM88 456q0 9 6.5 15.5t15.5 6.5q8 0 14.5 -6.5t6.5 -14.5q0 -9 -6.5 -15.5t-14.5 -6.5q-9 0 -15.5 6.5t-6.5 14.5z" />
    <glyph glyph-name="aring" unicode="&#xe5;" horiz-adv-x="334" 
d="M21 3q15 0 25 6.5t17 14.5t10.5 17t4.5 13l64 242q2 5 2 13.5t-2 16.5l-18 66h57q-5 -17 -5.5 -24t2.5 -18l77 -293q5 -22 19.5 -38t38.5 -16v-3h-128v3q11 1 19 6q7 4 11.5 11t1.5 21l-29 108h-71l-29 -108q-3 -14 1.5 -22t12.5 -12t19 -4v-3h-100v3zM185 163l-32 122
l-32 -122h64zM153 450q14 0 24.5 10.5t10.5 24.5t-10.5 24.5t-24.5 10.5t-24.5 -10.5t-10.5 -24.5q0 -15 10.5 -25t24.5 -10zM153 534q20 0 35 -14.5t15 -34.5t-15 -35t-35 -15q-21 0 -35.5 14.5t-14.5 35.5q0 20 14.5 34.5t35.5 14.5z" />
    <glyph glyph-name="ae" unicode="&#xe6;" horiz-adv-x="427" 
d="M121 165h64l-32 122zM406 96q-16 -45 -38.5 -70.5t-55.5 -25.5q-22 0 -42.5 11.5t-37 32t-28 48t-16.5 59.5v0h-71l-29 -108q-3 -14 1.5 -22t12.5 -12t19 -4v-2h-100v2q15 0 25 6.5t16.5 15t10.5 17t5 13.5l64 242q1 5 1.5 13t-1.5 16l-18 67h57q-5 -18 -5.5 -24.5
t2.5 -17.5l18 -70q15 51 45 82.5t67 31.5q11 0 19.5 -2.5t16.5 -5.5l8 -3q9 -2 17 -3t7 12h2l8 -72l-3 -1q-1 13 -8 24t-17.5 19.5t-23.5 13t-26 4.5q-16 0 -30 -12.5t-24.5 -34.5t-17 -52t-8.5 -64h98q15 0 23.5 7t12.5 15q5 9 6 21h3v-101h-3q-1 12 -6 22q-4 8 -12.5 15
t-23.5 7h-99q0 -38 6.5 -72.5t17.5 -61t26.5 -42.5t34.5 -16q24 0 46.5 24.5t33.5 62.5z" />
    <glyph glyph-name="ccedilla" unicode="&#xe7;" horiz-adv-x="262" 
d="M130 -1q-23 5 -43 22.5t-34.5 44t-23 60t-8.5 70.5q0 41 9.5 77t26.5 63t40 42.5t49 15.5q8 0 20.5 -3.5t20.5 -8.5q27 -12 24 10h2l8 -71l-3 -1q-3 26 -24.5 43t-47.5 17q-17 0 -32 -14.5t-26.5 -40t-17.5 -58.5t-6 -71q0 -37 6.5 -70.5t18 -59t27 -40t34.5 -14.5
q24 0 45 24t32 62l14 -5q-16 -44 -39.5 -70t-56.5 -26v-12q42 0 66 -22.5t24 -60.5q0 -48 -27.5 -72.5t-77.5 -24.5q-47 0 -75 24.5t-28 72.5q0 9 2 16t6 12t11 5q10 0 16.5 -7t6.5 -26q0 -83 61 -83q63 0 63 83q0 35 -16.5 52t-46.5 17v28z" />
    <glyph glyph-name="egrave" unicode="&#xe8;" horiz-adv-x="264" 
d="M21 197q0 41 10 77t26.5 63t39 42.5t47.5 15.5q11 0 20 -2.5t17 -5.5l8 -3q8 -3 16.5 -3.5t7.5 11.5h2l7 -71l-3 -1q-1 13 -8 24t-17.5 19t-23.5 12.5t-26 4.5q-16 0 -29.5 -12.5t-24 -34.5t-17.5 -51.5t-9 -64.5h99q15 0 23 7t13 15q5 10 6 22h2v-101h-2q-1 12 -6 22
q-5 8 -13 14.5t-23 6.5h-99q0 -38 6 -72.5t17 -61t26.5 -42t34.5 -15.5q25 0 47.5 24.5t33.5 62.5l14 -5q-17 -45 -39 -71t-56 -26q-27 0 -50 16t-40 43t-27 63.5t-10 77.5zM182 435h-17l-61 100h18z" />
    <glyph glyph-name="eacute" unicode="&#xe9;" horiz-adv-x="264" 
d="M21 197q0 41 10 77t26.5 63t39 42.5t47.5 15.5q11 0 20 -2.5t17 -5.5l8 -3q8 -3 16.5 -3.5t7.5 11.5h2l7 -71l-3 -1q-1 13 -8 24t-17.5 19t-23.5 12.5t-26 4.5q-16 0 -29.5 -12.5t-24 -34.5t-17.5 -51.5t-9 -64.5h99q15 0 23 7t13 15q5 10 6 22h2v-101h-2q-1 12 -6 22
q-5 8 -13 14.5t-23 6.5h-99q0 -38 6 -72.5t17 -61t26.5 -42t34.5 -15.5q25 0 47.5 24.5t33.5 62.5l14 -5q-17 -45 -39 -71t-56 -26q-27 0 -50 16t-40 43t-27 63.5t-10 77.5zM166 535h17l-60 -100h-18z" />
    <glyph glyph-name="ecircumflex" unicode="&#xea;" horiz-adv-x="264" 
d="M21 197q0 41 10 77t26.5 63t39 42.5t47.5 15.5q11 0 20 -2.5t17 -5.5l8 -3q8 -3 16.5 -3.5t7.5 11.5h2l7 -71l-3 -1q-1 13 -8 24t-17.5 19t-23.5 12.5t-26 4.5q-16 0 -29.5 -12.5t-24 -34.5t-17.5 -51.5t-9 -64.5h99q15 0 23 7t13 15q5 10 6 22h2v-101h-2q-1 12 -6 22
q-5 8 -13 14.5t-23 6.5h-99q0 -38 6 -72.5t17 -61t26.5 -42t34.5 -15.5q25 0 47.5 24.5t33.5 62.5l14 -5q-17 -45 -39 -71t-56 -26q-27 0 -50 16t-40 43t-27 63.5t-10 77.5zM143 466l-101 -31v15l101 31l100 -31v-15z" />
    <glyph glyph-name="edieresis" unicode="&#xeb;" horiz-adv-x="264" 
d="M21 197q0 41 10 77t26.5 63t39 42.5t47.5 15.5q11 0 20 -2.5t17 -5.5l8 -3q8 -3 16.5 -3.5t7.5 11.5h2l7 -71l-3 -1q-1 13 -8 24t-17.5 19t-23.5 12.5t-26 4.5q-16 0 -29.5 -12.5t-24 -34.5t-17.5 -51.5t-9 -64.5h99q15 0 23 7t13 15q5 10 6 22h2v-101h-2q-1 12 -6 22
q-5 8 -13 14.5t-23 6.5h-99q0 -38 6 -72.5t17 -61t26.5 -42t34.5 -15.5q25 0 47.5 24.5t33.5 62.5l14 -5q-17 -45 -39 -71t-56 -26q-27 0 -50 16t-40 43t-27 63.5t-10 77.5zM188 478q9 0 15.5 -6.5t6.5 -14.5q0 -9 -6.5 -15.5t-15.5 -6.5t-15 6.5t-6 14.5q0 9 6 15.5t15 6.5
zM80 456q0 9 6.5 15.5t15.5 6.5q8 0 14.5 -6.5t6.5 -14.5q0 -9 -6.5 -15.5t-14.5 -6.5q-9 0 -15.5 6.5t-6.5 14.5z" />
    <glyph glyph-name="igrave" unicode="&#xec;" horiz-adv-x="172" 
d="M21 392h130v-2q-12 -1 -22 -6q-8 -5 -15 -13t-7 -23v-303q0 -15 7 -23t15 -13q10 -5 22 -6v-3h-130v3q12 1 22 6q8 4 14.5 11t6.5 21v307q0 15 -6.5 23t-14.5 13q-10 5 -22 6v2zM125 435h-17l-61 100h18z" />
    <glyph glyph-name="iacute" unicode="&#xed;" horiz-adv-x="172" 
d="M21 392h130v-2q-12 -1 -22 -6q-8 -5 -15 -13t-7 -23v-303q0 -15 7 -23t15 -13q10 -5 22 -6v-3h-130v3q12 1 22 6q8 4 14.5 11t6.5 21v307q0 15 -6.5 23t-14.5 13q-10 5 -22 6v2zM108 535h17l-60 -100h-18z" />
    <glyph glyph-name="icircumflex" unicode="&#xee;" horiz-adv-x="172" 
d="M21 392h130v-2q-12 -1 -22 -6q-8 -5 -15 -13t-7 -23v-303q0 -15 7 -23t15 -13q10 -5 22 -6v-3h-130v3q12 1 22 6q8 4 14.5 11t6.5 21v307q0 15 -6.5 23t-14.5 13q-10 5 -22 6v2zM86 466l-101 -31v15l101 31l100 -31v-15z" />
    <glyph glyph-name="idieresis" unicode="&#xef;" horiz-adv-x="172" 
d="M21 392h130v-2q-12 -1 -22 -6q-8 -5 -15 -13t-7 -23v-303q0 -15 7 -23t15 -13q10 -5 22 -6v-3h-130v3q12 1 22 6q8 4 14.5 11t6.5 21v307q0 15 -6.5 23t-14.5 13q-10 5 -22 6v2zM129 478q9 0 15.5 -6.5t6.5 -14.5q0 -9 -6.5 -15.5t-15.5 -6.5t-15 6.5t-6 14.5q0 9 6 15.5
t15 6.5zM21 456q0 9 6.5 15.5t15.5 6.5q8 0 14.5 -6.5t6.5 -14.5q0 -9 -6.5 -15.5t-14.5 -6.5q-9 0 -15.5 6.5t-6.5 14.5z" />
    <glyph glyph-name="eth" unicode="&#xf0;" horiz-adv-x="244" 
d="M120 12q12 0 22.5 11.5t18 30t11.5 43.5t4 53q0 57 -15 94.5t-41 37.5t-41.5 -37.5t-15.5 -94.5q0 -28 4 -53.5t11.5 -44t18 -29.5t23.5 -11zM223 482l-62 -31q14 -32 25 -67t19 -68t12.5 -63.5t4.5 -53.5q0 -40 -6 -77t-18.5 -64.5t-31.5 -44t-45 -16.5q-25 0 -44 16
t-31.5 39.5t-18.5 50t-6 47.5q0 30 8.5 57t22 47t31.5 31.5t37 11.5q21 0 35 -13t22 -35q-1 15 -5 36.5t-9.5 46.5t-12.5 52.5t-16 54.5l-92 -45l-7 13l95 46q-16 45 -34.5 80t-40.5 49l8 9q25 -14 48.5 -47.5t43.5 -78.5l61 30z" />
    <glyph glyph-name="ntilde" unicode="&#xf1;" horiz-adv-x="344" 
d="M64 45v303q0 15 -6.5 23.5t-14.5 12.5q-10 5 -22 6v2h65q9 0 15 -6t6 -15v-22q11 17 29 31.5t37 14.5q22 0 41.5 -11.5t34 -31.5t23 -46.5t8.5 -56.5v-205q0 -14 7 -22.5t15 -12.5q9 -5 21 -6v-3h-129v3q12 1 22 6q8 4 14.5 12.5t6.5 22.5v205q0 27 -5 51t-14 42
t-20.5 28.5t-24.5 10.5t-25 -10.5t-21 -28.5t-14.5 -42t-5.5 -51v-205q0 -14 7 -22.5t15 -12.5q9 -5 21 -6v-3h-129v3q12 1 22 6q8 5 14.5 13t6.5 23zM293 480q-9 -18 -23 -28t-31 -14t-35.5 -2.5t-36.5 6.5q-14 4 -29 9.5t-29.5 7t-27 -3t-22.5 -20.5l-9 8q9 18 23 28.5
t31 15t35.5 3.5t36.5 -6q14 -4 29 -10t29.5 -8t27 2t22.5 20z" />
    <glyph glyph-name="ograve" unicode="&#xf2;" horiz-adv-x="291" 
d="M146 395q26 0 48.5 -16t39 -43t26.5 -63t10 -77q0 -40 -10 -76.5t-26.5 -63.5t-39 -43t-48.5 -16t-48.5 16t-39.5 43t-27 63.5t-10 76.5q0 41 10 77t27 63t39.5 43t48.5 16zM146 12q17 0 32 14.5t26 40t17.5 59t6.5 70.5q0 38 -6.5 71.5t-17.5 58.5t-26 39.5t-32 14.5
t-32 -14.5t-26 -39.5t-17.5 -58.5t-6.5 -71.5q0 -37 6.5 -70.5t17.5 -59t26 -40t32 -14.5zM184 435h-17l-61 100h18z" />
    <glyph glyph-name="oacute" unicode="&#xf3;" horiz-adv-x="291" 
d="M146 395q26 0 48.5 -16t39 -43t26.5 -63t10 -77q0 -40 -10 -76.5t-26.5 -63.5t-39 -43t-48.5 -16t-48.5 16t-39.5 43t-27 63.5t-10 76.5q0 41 10 77t27 63t39.5 43t48.5 16zM146 12q17 0 32 14.5t26 40t17.5 59t6.5 70.5q0 38 -6.5 71.5t-17.5 58.5t-26 39.5t-32 14.5
t-32 -14.5t-26 -39.5t-17.5 -58.5t-6.5 -71.5q0 -37 6.5 -70.5t17.5 -59t26 -40t32 -14.5zM167 535h17l-60 -100h-18z" />
    <glyph glyph-name="ocircumflex" unicode="&#xf4;" horiz-adv-x="291" 
d="M146 395q26 0 48.5 -16t39 -43t26.5 -63t10 -77q0 -40 -10 -76.5t-26.5 -63.5t-39 -43t-48.5 -16t-48.5 16t-39.5 43t-27 63.5t-10 76.5q0 41 10 77t27 63t39.5 43t48.5 16zM146 12q17 0 32 14.5t26 40t17.5 59t6.5 70.5q0 38 -6.5 71.5t-17.5 58.5t-26 39.5t-32 14.5
t-32 -14.5t-26 -39.5t-17.5 -58.5t-6.5 -71.5q0 -37 6.5 -70.5t17.5 -59t26 -40t32 -14.5zM146 466l-101 -31v15l101 31l100 -31v-15z" />
    <glyph glyph-name="otilde" unicode="&#xf5;" horiz-adv-x="291" 
d="M146 395q26 0 48.5 -16t39 -43t26.5 -63t10 -77q0 -40 -10 -76.5t-26.5 -63.5t-39 -43t-48.5 -16t-48.5 16t-39.5 43t-27 63.5t-10 76.5q0 41 10 77t27 63t39.5 43t48.5 16zM146 12q17 0 32 14.5t26 40t17.5 59t6.5 70.5q0 38 -6.5 71.5t-17.5 58.5t-26 39.5t-32 14.5
t-32 -14.5t-26 -39.5t-17.5 -58.5t-6.5 -71.5q0 -37 6.5 -70.5t17.5 -59t26 -40t32 -14.5zM267 480q-9 -18 -23 -28t-31 -14t-35.5 -2.5t-36.5 6.5q-14 4 -29 9.5t-29.5 7t-27 -3t-22.5 -20.5l-9 8q9 18 23 28.5t31 15t35.5 3.5t36.5 -6q14 -4 29 -10t29.5 -8t27 2t22.5 20z
" />
    <glyph glyph-name="odieresis" unicode="&#xf6;" horiz-adv-x="291" 
d="M146 395q26 0 48.5 -16t39 -43t26.5 -63t10 -77q0 -40 -10 -76.5t-26.5 -63.5t-39 -43t-48.5 -16t-48.5 16t-39.5 43t-27 63.5t-10 76.5q0 41 10 77t27 63t39.5 43t48.5 16zM146 12q17 0 32 14.5t26 40t17.5 59t6.5 70.5q0 38 -6.5 71.5t-17.5 58.5t-26 39.5t-32 14.5
t-32 -14.5t-26 -39.5t-17.5 -58.5t-6.5 -71.5q0 -37 6.5 -70.5t17.5 -59t26 -40t32 -14.5zM189 478q9 0 15.5 -6.5t6.5 -14.5q0 -9 -6.5 -15.5t-15.5 -6.5t-15 6.5t-6 14.5q0 9 6 15.5t15 6.5zM81 456q0 9 6.5 15.5t15.5 6.5q8 0 14.5 -6.5t6.5 -14.5q0 -9 -6.5 -15.5
t-14.5 -6.5q-9 0 -15.5 6.5t-6.5 14.5z" />
    <glyph glyph-name="divide" unicode="&#xf7;" horiz-adv-x="339" 
d="M21 219h297v-43h-297v43zM148 111q0 9 6 15.5t15 6.5t15.5 -6.5t6.5 -15.5t-6.5 -15t-15.5 -6t-15 6t-6 15zM169 305q9 0 15.5 -6.5t6.5 -15.5t-6.5 -15t-15.5 -6t-15 6t-6 15t6 15.5t15 6.5z" />
    <glyph glyph-name="oslash" unicode="&#xf8;" horiz-adv-x="291" 
d="M146 12q17 0 32 14.5t26 40t17.5 59t6.5 70.5q0 47 -9.5 86t-25.5 64l-83 -316q18 -18 36 -18zM64 196q0 -46 9 -85t25 -65l83 315q-16 19 -35 19q-17 0 -32 -14.5t-26 -40t-17.5 -58.5t-6.5 -71zM200 374q32 -24 51 -71.5t19 -106.5q0 -40 -10 -76.5t-26.5 -63.5
t-39 -43t-48.5 -16q-22 0 -42 12l-2 -9h-16l5 18q-31 25 -50.5 72.5t-19.5 105.5q0 41 10 77t27 63t39.5 42.5t48.5 15.5q21 0 41 -11l2 9h16z" />
    <glyph glyph-name="ugrave" unicode="&#xf9;" horiz-adv-x="344" 
d="M21 390v2h65q9 0 15 -6.5t6 -14.5v-228q0 -27 5 -51t14 -42t21 -28.5t25 -10.5q26 0 45.5 29.5t19.5 102.5v205q0 15 -6.5 23t-14.5 13q-10 5 -22 6v2h129v-2q-12 -1 -21 -6q-8 -5 -15 -13t-7 -23v-303q0 -15 7 -23t15 -13q9 -5 21 -6v-3h-64q-9 0 -15.5 6.5t-6.5 15.5
v24q-10 -21 -26 -35t-39 -14q-22 0 -42 11.5t-34.5 31.5t-23 46.5t-8.5 56.5v205q0 15 -6.5 23t-14.5 13q-10 5 -22 6zM207 435h-17l-61 100h18z" />
    <glyph glyph-name="uacute" unicode="&#xfa;" horiz-adv-x="344" 
d="M21 390v2h65q9 0 15 -6.5t6 -14.5v-228q0 -27 5 -51t14 -42t21 -28.5t25 -10.5q26 0 45.5 29.5t19.5 102.5v205q0 15 -6.5 23t-14.5 13q-10 5 -22 6v2h129v-2q-12 -1 -21 -6q-8 -5 -15 -13t-7 -23v-303q0 -15 7 -23t15 -13q9 -5 21 -6v-3h-64q-9 0 -15.5 6.5t-6.5 15.5
v24q-10 -21 -26 -35t-39 -14q-22 0 -42 11.5t-34.5 31.5t-23 46.5t-8.5 56.5v205q0 15 -6.5 23t-14.5 13q-10 5 -22 6zM194 535h17l-60 -100h-18z" />
    <glyph glyph-name="ucircumflex" unicode="&#xfb;" horiz-adv-x="344" 
d="M21 390v2h65q9 0 15 -6.5t6 -14.5v-228q0 -27 5 -51t14 -42t21 -28.5t25 -10.5q26 0 45.5 29.5t19.5 102.5v205q0 15 -6.5 23t-14.5 13q-10 5 -22 6v2h129v-2q-12 -1 -21 -6q-8 -5 -15 -13t-7 -23v-303q0 -15 7 -23t15 -13q9 -5 21 -6v-3h-64q-9 0 -15.5 6.5t-6.5 15.5
v24q-10 -21 -26 -35t-39 -14q-22 0 -42 11.5t-34.5 31.5t-23 46.5t-8.5 56.5v205q0 15 -6.5 23t-14.5 13q-10 5 -22 6zM173 466l-101 -31v15l101 31l100 -31v-15z" />
    <glyph glyph-name="udieresis" unicode="&#xfc;" horiz-adv-x="344" 
d="M21 390v2h65q9 0 15 -6.5t6 -14.5v-228q0 -27 5 -51t14 -42t21 -28.5t25 -10.5q26 0 45.5 29.5t19.5 102.5v205q0 15 -6.5 23t-14.5 13q-10 5 -22 6v2h129v-2q-12 -1 -21 -6q-8 -5 -15 -13t-7 -23v-303q0 -15 7 -23t15 -13q9 -5 21 -6v-3h-64q-9 0 -15.5 6.5t-6.5 15.5
v24q-10 -21 -26 -35t-39 -14q-22 0 -42 11.5t-34.5 31.5t-23 46.5t-8.5 56.5v205q0 15 -6.5 23t-14.5 13q-10 5 -22 6zM215 478q9 0 15.5 -6.5t6.5 -14.5q0 -9 -6.5 -15.5t-15.5 -6.5t-15 6.5t-6 14.5q0 9 6 15.5t15 6.5zM107 456q0 9 6.5 15.5t15.5 6.5q8 0 14.5 -6.5
t6.5 -14.5q0 -9 -6.5 -15.5t-14.5 -6.5q-9 0 -15.5 6.5t-6.5 14.5z" />
    <glyph glyph-name="yacute" unicode="&#xfd;" horiz-adv-x="333" 
d="M149 392v-2q-12 -1 -20 -6q-7 -4 -11.5 -11.5t-0.5 -21.5l64 -243l56 214q7 27 26 48.5t50 21.5v-71h-3q0 11 -8.5 19.5t-19.5 8.5t-19.5 -8.5t-11.5 -19.5l-84 -321q-4 -14 -10.5 -30t-15.5 -29.5t-21.5 -23t-29.5 -9.5q-9 0 -15.5 6t-6.5 15t6.5 15.5t15.5 6.5
q11 0 16.5 -7.5t4.5 -18.5q9 5 18.5 19.5t16.5 32t10 35.5t0 30l-78 293q-6 22 -19 38.5t-38 16.5v2h128zM203 535h17l-60 -100h-18z" />
    <glyph glyph-name="thorn" unicode="&#xfe;" horiz-adv-x="304" 
d="M65 -50v491q0 15 -7 23.5t-15 13.5q-10 5 -22 6v2h130v-2q-12 -1 -21 -6q-8 -5 -15 -13.5t-7 -23.5v-49q37 -4 69 -21t55.5 -43t37 -60t13.5 -72t-13.5 -71.5t-37 -60t-55.5 -43.5t-69 -21v-50q0 -15 7 -23t15 -13q9 -5 21 -6v-2h-130v2q12 1 22 6q8 5 15 13t7 23z
M108 15q28 5 52 21.5t41.5 41t27.5 55t10 63.5t-10 63.5t-27.5 55t-41.5 41.5t-52 22v-363z" />
    <glyph glyph-name="ydieresis" unicode="&#xff;" horiz-adv-x="333" 
d="M149 392v-2q-12 -1 -20 -6q-7 -4 -11.5 -11.5t-0.5 -21.5l64 -243l56 214q7 27 26 48.5t50 21.5v-71h-3q0 11 -8.5 19.5t-19.5 8.5t-19.5 -8.5t-11.5 -19.5l-84 -321q-4 -14 -10.5 -30t-15.5 -29.5t-21.5 -23t-29.5 -9.5q-9 0 -15.5 6t-6.5 15t6.5 15.5t15.5 6.5
q11 0 16.5 -7.5t4.5 -18.5q9 5 18.5 19.5t16.5 32t10 35.5t0 30l-78 293q-6 22 -19 38.5t-38 16.5v2h128zM224 478q9 0 15.5 -6.5t6.5 -14.5q0 -9 -6.5 -15.5t-15.5 -6.5t-15 6.5t-6 14.5q0 9 6 15.5t15 6.5zM116 456q0 9 6.5 15.5t15.5 6.5q8 0 14.5 -6.5t6.5 -14.5
q0 -9 -6.5 -15.5t-14.5 -6.5q-9 0 -15.5 6.5t-6.5 14.5z" />
    <glyph glyph-name="Amacron" unicode="&#x100;" 
d="M21 2q27 0 46.5 15t25.5 41l166 628q7 26 -1 52t-14 50h56q-3 -11 -5 -19.5t1 -19.5l185 -699q1 -2 4.5 -10t11.5 -16.5t21.5 -15t32.5 -6.5v-2h-143v2q12 1 20 6q7 4 11.5 11.5t0.5 21.5l-89 337h-158l-89 -334q-4 -14 0.5 -22.5t11.5 -13.5q8 -5 20 -6v-2h-115v2z
M196 392h151l-75 289zM373 861v-15h-201v15h201z" />
    <glyph glyph-name="amacron" unicode="&#x101;" horiz-adv-x="334" 
d="M21 3q15 0 25 6.5t17 14.5t10.5 17t4.5 13l64 242q2 5 2 13.5t-2 16.5l-18 66h57q-5 -17 -5.5 -24t2.5 -18l77 -293q5 -22 19.5 -38t38.5 -16v-3h-128v3q11 1 19 6q7 4 11.5 11t1.5 21l-29 108h-71l-29 -108q-3 -14 1.5 -22t12.5 -12t19 -4v-3h-100v3zM185 163l-32 122
l-32 -122h64zM253 450v-15h-201v15h201z" />
    <glyph glyph-name="Abreve" unicode="&#x102;" 
d="M21 2q27 0 46.5 15t25.5 41l166 628q7 26 -1 52t-14 50h56q-3 -11 -5 -19.5t1 -19.5l185 -699q1 -2 4.5 -10t11.5 -16.5t21.5 -15t32.5 -6.5v-2h-143v2q12 1 20 6q7 4 11.5 11.5t0.5 21.5l-89 337h-158l-89 -334q-4 -14 0.5 -22.5t11.5 -13.5q8 -5 20 -6v-2h-115v2z
M196 392h151l-75 289zM172 892q29 -15 50 -23t51 -8q29 0 50 8t50 23v-15q-29 -15 -50 -23t-50 -8q-30 0 -51 8t-50 23v15z" />
    <glyph glyph-name="abreve" unicode="&#x103;" horiz-adv-x="334" 
d="M21 3q15 0 25 6.5t17 14.5t10.5 17t4.5 13l64 242q2 5 2 13.5t-2 16.5l-18 66h57q-5 -17 -5.5 -24t2.5 -18l77 -293q5 -22 19.5 -38t38.5 -16v-3h-128v3q11 1 19 6q7 4 11.5 11t1.5 21l-29 108h-71l-29 -108q-3 -14 1.5 -22t12.5 -12t19 -4v-3h-100v3zM185 163l-32 122
l-32 -122h64zM52 481q29 -15 50 -23t51 -8q29 0 50 8t50 23v-15q-29 -15 -50 -23t-50 -8q-30 0 -51 8t-50 23v15z" />
    <glyph glyph-name="Aogonek" unicode="&#x104;" 
d="M196 392h151l-75 289zM551 0h-143q-30 0 -46.5 -24.5t-16.5 -59.5q0 -42 15.5 -69.5t47.5 -27.5q29 0 45 27.5t16 69.5q0 19 6.5 26t17.5 7q7 0 10.5 -5t5.5 -12t2 -16q0 -48 -27.5 -79.5t-75.5 -31.5v0q-50 0 -77.5 31.5t-27.5 79.5q0 41 27.5 70t74.5 29q11 1 19 6
q8 4 12.5 11.5t0.5 21.5l-86 324h-158l-89 -334q-4 -14 0.5 -22.5t11.5 -13.5q8 -5 20 -6v-2h-115v2q26 0 46 15t26 41q38 157 83 314t83 314q7 26 -1 52.5t-14 49.5h56q-3 -11 -5 -19.5t1 -19.5l185 -699q1 -2 4.5 -10t11.5 -16.5t21.5 -15t32.5 -6.5v-2z" />
    <glyph glyph-name="aogonek" unicode="&#x105;" horiz-adv-x="334" 
d="M121 163h64l-32 121zM313 0h-129q-29 0 -45.5 -24.5t-16.5 -59.5q0 -42 15 -69.5t47 -27.5q29 0 45 27.5t16 69.5q0 19 7 26t17 7q8 0 11.5 -5t5.5 -12t2 -16q0 -48 -28 -79.5t-76 -31.5q-50 0 -77.5 31.5t-27.5 79.5q0 41 28 70t74 29q12 1 20 6q7 4 11.5 11t0.5 21
l-25 96h-71l-29 -108q-3 -14 1.5 -22t12.5 -12t19 -5v-2h-100v2q15 0 25 6.5t16.5 15t10.5 17.5t5 13l64 242q1 5 1.5 13.5t-1.5 16.5l-18 66h57q-5 -17 -5.5 -24t2.5 -18l77 -293q5 -22 19.5 -38.5t38.5 -16.5v-2z" />
    <glyph glyph-name="Cacute" unicode="&#x106;" horiz-adv-x="558" 
d="M21 394q0 82 26 153.5t71 125t105 84.5t128 31h68q8 0 12 4.5t4 10.5h3l77 -86l-2 -1q-18 19 -36.5 30.5t-35.5 17.5t-32 8t-26 2h-13q-63 0 -118 -30t-95 -81.5t-63 -120.5t-23 -148t23 -148t63 -120.5t95 -81.5t118 -30q46 0 88 16t78 45l1 -3q-40 -34 -87.5 -53
t-101.5 -19q-67 0 -127 31t-104 84.5t-70 125t-26 153.5zM374 946h17l-60 -100h-18z" />
    <glyph glyph-name="cacute" unicode="&#x107;" horiz-adv-x="262" 
d="M21 196q0 41 9.5 77t26.5 63t40 43t49 16q8 0 20.5 -4t20.5 -8q10 -5 15 -5q11 0 9 14h2l8 -71l-3 -1q-3 26 -24.5 43t-47.5 17q-17 0 -32 -14.5t-26.5 -40t-17.5 -58.5t-6 -71q0 -37 6.5 -70.5t18 -58.5t27 -40t34.5 -15q24 0 45 24.5t32 62.5l14 -5q-16 -45 -38 -71
t-56 -26q-26 0 -49 16t-40 43t-27 63.5t-10 76.5zM167 535h17l-60 -100h-18z" />
    <glyph glyph-name="Ccircumflex" unicode="&#x108;" horiz-adv-x="558" 
d="M21 394q0 82 26 153.5t71 125t105 84.5t128 31h68q8 0 12 4.5t4 10.5h3l77 -86l-2 -1q-18 19 -36.5 30.5t-35.5 17.5t-32 8t-26 2h-13q-63 0 -118 -30t-95 -81.5t-63 -120.5t-23 -148t23 -148t63 -120.5t95 -81.5t118 -30q46 0 88 16t78 45l1 -3q-40 -34 -87.5 -53
t-101.5 -19q-67 0 -127 31t-104 84.5t-70 125t-26 153.5zM335 877l-101 -31v15l101 31l100 -31v-15z" />
    <glyph glyph-name="ccircumflex" unicode="&#x109;" horiz-adv-x="262" 
d="M21 196q0 41 9.5 77t26.5 63t40 43t49 16q8 0 20.5 -4t20.5 -8q10 -5 15 -5q11 0 9 14h2l8 -71l-3 -1q-3 26 -24.5 43t-47.5 17q-17 0 -32 -14.5t-26.5 -40t-17.5 -58.5t-6 -71q0 -37 6.5 -70.5t18 -58.5t27 -40t34.5 -15q24 0 45 24.5t32 62.5l14 -5q-16 -45 -38 -71
t-56 -26q-26 0 -49 16t-40 43t-27 63.5t-10 76.5zM146 465l-101 -31v15l101 31l100 -31v-15z" />
    <glyph glyph-name="Cdotaccent" unicode="&#x10a;" horiz-adv-x="558" 
d="M21 394q0 82 26 153.5t71 125t105 84.5t128 31h68q8 0 12 4.5t4 10.5h3l77 -86l-2 -1q-18 19 -36.5 30.5t-35.5 17.5t-32 8t-26 2h-13q-63 0 -118 -30t-95 -81.5t-63 -120.5t-23 -148t23 -148t63 -120.5t95 -81.5t118 -30q46 0 88 16t78 45l1 -3q-40 -34 -87.5 -53
t-101.5 -19q-67 0 -127 31t-104 84.5t-70 125t-26 153.5zM331 867q0 9 6.5 15.5t15.5 6.5q8 0 14.5 -6.5t6.5 -14.5q0 -9 -6.5 -15.5t-14.5 -6.5q-9 0 -15.5 6.5t-6.5 14.5z" />
    <glyph glyph-name="cdotaccent" unicode="&#x10b;" horiz-adv-x="262" 
d="M21 196q0 41 9.5 77t26.5 63t40 43t49 16q8 0 20.5 -4t20.5 -8q10 -5 15 -5q11 0 9 14h2l8 -71l-3 -1q-3 26 -24.5 43t-47.5 17q-17 0 -32 -14.5t-26.5 -40t-17.5 -58.5t-6 -71q0 -37 6.5 -70.5t18 -58.5t27 -40t34.5 -15q24 0 45 24.5t32 62.5l14 -5q-16 -45 -38 -71
t-56 -26q-26 0 -49 16t-40 43t-27 63.5t-10 76.5zM126 456q0 9 6.5 15.5t15.5 6.5q8 0 14.5 -6.5t6.5 -14.5q0 -9 -6.5 -15.5t-14.5 -6.5q-9 0 -15.5 6.5t-6.5 14.5z" />
    <glyph glyph-name="Ccaron" unicode="&#x10c;" horiz-adv-x="558" 
d="M21 394q0 82 26 153.5t71 125t105 84.5t128 31h68q8 0 12 4.5t4 10.5h3l77 -86l-2 -1q-18 19 -36.5 30.5t-35.5 17.5t-32 8t-26 2h-13q-63 0 -118 -30t-95 -81.5t-63 -120.5t-23 -148t23 -148t63 -120.5t95 -81.5t118 -30q46 0 88 16t78 45l1 -3q-40 -34 -87.5 -53
t-101.5 -19q-67 0 -127 31t-104 84.5t-70 125t-26 153.5zM351 862l100 31v-15l-100 -31l-101 31v15z" />
    <glyph glyph-name="ccaron" unicode="&#x10d;" horiz-adv-x="262" 
d="M21 196q0 41 9.5 77t26.5 63t40 43t49 16q8 0 20.5 -4t20.5 -8q10 -5 15 -5q11 0 9 14h2l8 -71l-3 -1q-3 26 -24.5 43t-47.5 17q-17 0 -32 -14.5t-26.5 -40t-17.5 -58.5t-6 -71q0 -37 6.5 -70.5t18 -58.5t27 -40t34.5 -15q24 0 45 24.5t32 62.5l14 -5q-16 -45 -38 -71
t-56 -26q-26 0 -49 16t-40 43t-27 63.5t-10 76.5zM146 450l100 31v-15l-100 -31l-101 31v15z" />
    <glyph glyph-name="Dcaron" unicode="&#x10e;" horiz-adv-x="558" 
d="M21 3q24 0 40.5 15.5t16.5 39.5v672q0 24 -16.5 40t-40.5 16v2h187q68 0 127.5 -31t104.5 -84.5t71 -125.5t26 -154q0 -81 -25.5 -152.5t-69 -125t-102.5 -84.5t-126 -31h-193v3zM122 47q0 -14 9.5 -23.5t23.5 -9.5h45q61 0 113.5 30.5t91 82.5t60.5 121t22 146
q0 78 -22.5 147.5t-62.5 121t-94 81.5t-117 30h-36q-14 0 -23.5 -9.5t-9.5 -23.5v-694zM208 862l100 31v-15l-100 -31l-101 31v15z" />
    <glyph glyph-name="dcaron" unicode="&#x10f;" horiz-adv-x="336" 
d="M21 196q0 41 10 77t26.5 63t39 43t47.5 16q17 0 32.5 -8t28.5 -19l-10 -12q-24 24 -49 24q-17 0 -32 -14.5t-26.5 -40t-17.5 -58.5t-6 -71q0 -37 6.5 -70.5t17.5 -59t26 -40t32 -14.5t31.5 14.5t25.5 39.5t17.5 58.5t6.5 70.5v348q0 15 -6.5 23.5t-14.5 13.5q-10 5 -22 6
v2h130v-2q-12 -1 -22 -6q-8 -5 -15 -13.5t-7 -23.5v-542h-3l-14 70q-3 18 -13 -4q-14 -29 -39.5 -49.5t-54.5 -20.5q-26 0 -48.5 16t-39.5 43t-27 63.5t-10 76.5zM314 392q9 0 15.5 -6.5t6.5 -16.5q0 -8 -4 -16t-9 -16q-6 -8 -14 -16l-5 5q3 4 5 9q2 10 -8 19q-8 6 -8 17
q0 8 6.5 14.5t14.5 6.5z" />
    <glyph glyph-name="Dcroat" unicode="&#x110;" horiz-adv-x="558" 
d="M200 14q61 0 113.5 30.5t91 82.5t60.5 121t22 146q0 78 -22.5 147.5t-62.5 121t-94 81.5t-117 30h-37q-14 0 -23 -9.5t-9 -23.5v-486h100v-15h-100v-193q0 -14 9 -23.5t23 -9.5h46zM21 0v3q24 0 40.5 15.5t16.5 39.5v182h-57v15h57v475q0 24 -16.5 40t-40.5 16v2h187
q68 0 127.5 -31t104.5 -84.5t71 -125t26 -153.5v-1v-1q0 -80 -25.5 -151.5t-69 -125t-102.5 -84.5t-126 -31h-193zM537 394v-2v1v1z" />
    <glyph glyph-name="dcroat" unicode="&#x111;" horiz-adv-x="335" 
d="M184 587h130v-2q-12 -1 -22 -6q-8 -5 -15 -13t-7 -23v-94h44v-15h-44v-434h-3l-14 71q-3 17 -13 -4q-14 -30 -39.5 -50t-54.5 -20q-26 0 -48.5 16t-39.5 43t-27 63t-10 76v0v0q0 41 10 77t26.5 63t39 43t47.5 16q17 0 32.5 -7.5t28.5 -19.5l-10 -12q-24 24 -49 24
q-17 0 -32 -14.5t-26.5 -40t-17.5 -58.5t-6 -71q0 -37 6.5 -70.5t17.5 -59t26 -40t32 -14.5t31.5 14.5t25.5 39.5t17.5 58.5t6.5 71.5v239h-115v15h115v94q0 15 -6.5 23t-14.5 13q-10 5 -22 6v2z" />
    <glyph glyph-name="Emacron" unicode="&#x112;" horiz-adv-x="479" 
d="M396 788q6 0 10 4.5t4 9.5h2l10 -85l-3 -1q-4 26 -25.5 42t-47.5 16h-193q-14 0 -22.5 -9.5t-8.5 -23.5v-340h175q23 0 37 17.5t14 40.5h3v-129h-3q0 23 -14 40t-37 17h-175v-340q0 -14 9.5 -23.5t23.5 -9.5h228q26 0 48.5 16t24.5 42l3 -1l-10 -86h-2q0 6 -4 10.5
t-10 4.5h-412v3q24 0 40.5 16t16.5 39v672q0 25 -16.5 40.5t-40.5 15.5v2h375zM340 861v-15h-201v15h201z" />
    <glyph glyph-name="emacron" unicode="&#x113;" horiz-adv-x="264" 
d="M21 197q0 41 10 77t26.5 63t39 42.5t47.5 15.5q11 0 20 -2.5t17 -5.5l8 -3q8 -3 16.5 -3.5t7.5 11.5h2l7 -71l-3 -1q-1 13 -8 24t-17.5 19t-23.5 12.5t-26 4.5q-16 0 -29.5 -12.5t-24 -34.5t-17.5 -51.5t-9 -64.5h99q15 0 23 7t13 15q5 10 6 22h2v-101h-2q-1 12 -6 22
q-5 8 -13 14.5t-23 6.5h-99q0 -38 6 -72.5t17 -61t26.5 -42t34.5 -15.5q25 0 47.5 24.5t33.5 62.5l14 -5q-17 -45 -39 -71t-56 -26q-27 0 -50 16t-40 43t-27 63.5t-10 77.5zM232 450v-15h-201v15h201z" />
    <glyph glyph-name="Ebreve" unicode="&#x114;" horiz-adv-x="479" 
d="M396 788q6 0 10 4.5t4 9.5h2l10 -85l-3 -1q-4 26 -25.5 42t-47.5 16h-193q-14 0 -22.5 -9.5t-8.5 -23.5v-340h175q23 0 37 17.5t14 40.5h3v-129h-3q0 23 -14 40t-37 17h-175v-340q0 -14 9.5 -23.5t23.5 -9.5h228q26 0 48.5 16t24.5 42l3 -1l-10 -86h-2q0 6 -4 10.5
t-10 4.5h-412v3q24 0 40.5 16t16.5 39v672q0 25 -16.5 40.5t-40.5 15.5v2h375zM139 892q29 -15 50 -23t51 -8q29 0 50 8t50 23v-15q-29 -15 -50 -23t-50 -8q-30 0 -51 8t-50 23v15z" />
    <glyph glyph-name="ebreve" unicode="&#x115;" horiz-adv-x="264" 
d="M21 197q0 41 10 77t26.5 63t39 42.5t47.5 15.5q11 0 20 -2.5t17 -5.5l8 -3q8 -3 16.5 -3.5t7.5 11.5h2l7 -71l-3 -1q-1 13 -8 24t-17.5 19t-23.5 12.5t-26 4.5q-16 0 -29.5 -12.5t-24 -34.5t-17.5 -51.5t-9 -64.5h99q15 0 23 7t13 15q5 10 6 22h2v-101h-2q-1 12 -6 22
q-5 8 -13 14.5t-23 6.5h-99q0 -38 6 -72.5t17 -61t26.5 -42t34.5 -15.5q25 0 47.5 24.5t33.5 62.5l14 -5q-17 -45 -39 -71t-56 -26q-27 0 -50 16t-40 43t-27 63.5t-10 77.5zM31 481q29 -15 50 -23t51 -8q29 0 50 8t50 23v-15q-29 -15 -50 -23t-50 -8q-30 0 -51 8t-50 23v15z
" />
    <glyph glyph-name="Edotaccent" unicode="&#x116;" horiz-adv-x="479" 
d="M396 788q6 0 10 4.5t4 9.5h2l10 -85l-3 -1q-4 26 -25.5 42t-47.5 16h-193q-14 0 -22.5 -9.5t-8.5 -23.5v-340h175q23 0 37 17.5t14 40.5h3v-129h-3q0 23 -14 40t-37 17h-175v-340q0 -14 9.5 -23.5t23.5 -9.5h228q26 0 48.5 16t24.5 42l3 -1l-10 -86h-2q0 6 -4 10.5
t-10 4.5h-412v3q24 0 40.5 16t16.5 39v672q0 25 -16.5 40.5t-40.5 15.5v2h375zM218 867q0 9 6.5 15.5t15.5 6.5q8 0 14.5 -6.5t6.5 -14.5q0 -9 -6.5 -15.5t-14.5 -6.5q-9 0 -15.5 6.5t-6.5 14.5z" />
    <glyph glyph-name="edotaccent" unicode="&#x117;" horiz-adv-x="264" 
d="M21 197q0 41 10 77t26.5 63t39 42.5t47.5 15.5q11 0 20 -2.5t17 -5.5l8 -3q8 -3 16.5 -3.5t7.5 11.5h2l7 -71l-3 -1q-1 13 -8 24t-17.5 19t-23.5 12.5t-26 4.5q-16 0 -29.5 -12.5t-24 -34.5t-17.5 -51.5t-9 -64.5h99q15 0 23 7t13 15q5 10 6 22h2v-101h-2q-1 12 -6 22
q-5 8 -13 14.5t-23 6.5h-99q0 -38 6 -72.5t17 -61t26.5 -42t34.5 -15.5q25 0 47.5 24.5t33.5 62.5l14 -5q-17 -45 -39 -71t-56 -26q-27 0 -50 16t-40 43t-27 63.5t-10 77.5zM110 456q0 9 6.5 15.5t15.5 6.5q8 0 14.5 -6.5t6.5 -14.5q0 -9 -6.5 -15.5t-14.5 -6.5
q-9 0 -15.5 6.5t-6.5 14.5z" />
    <glyph glyph-name="Eogonek" unicode="&#x118;" horiz-adv-x="479" 
d="M355 -195q-50 0 -77.5 31.5t-27.5 79.5q0 27 12.5 49t35.5 35h-277v3q24 0 40.5 16t16.5 39v672q0 25 -16.5 40.5t-40.5 15.5v2h375q14 2 14 15h2l10 -86l-3 -1q-4 26 -25.5 42t-47.5 16h-193q-14 0 -22.5 -9.5t-8.5 -23.5v-340h175q23 0 37 17.5t14 40.5h3v-129h-3
q0 23 -14 40t-37 17h-175v-340q0 -14 9 -23.5t23 -9.5h229q26 0 48.5 16t24.5 42h2l-9 -86h-2q0 5 -4.5 9.5t-9.5 4.5h-81q-29 0 -44.5 -24.5t-15.5 -59.5q0 -42 15.5 -69.5t47.5 -27.5q29 0 45 27.5t16 69.5q0 19 6.5 26t17.5 7q7 0 10.5 -5t5.5 -12t2 -16
q0 -48 -27.5 -79.5t-75.5 -31.5v0z" />
    <glyph glyph-name="eogonek" unicode="&#x119;" horiz-adv-x="264" 
d="M21 196v2v-1v-1zM146 -195q-51 0 -78.5 31.5t-27.5 79.5q0 32 18.5 56.5t50.5 34.5q-38 20 -63 71.5t-25 117.5v1v1q0 41 10 76.5t26.5 62.5t39 42.5t47.5 15.5q11 0 20 -3t17 -5l8 -3q8 -3 16.5 -3.5t6.5 11.5h3l7 -71l-3 -1q-1 13 -8 24t-17.5 19t-23.5 12.5t-26 4.5
q-16 0 -29.5 -12.5t-24 -34.5t-17.5 -51.5t-9 -64.5h99q15 0 23 7t13 15q5 10 6 22h2v-102h-2q-1 12 -6 22q-5 8 -13 15t-23 7h-99q0 -38 6 -72.5t17 -61t26.5 -42t34.5 -15.5q25 0 47.5 24.5t33.5 62.5l14 -5q-17 -45 -39 -71t-56 -26q-29 0 -47 -23t-18 -58
q0 -42 15.5 -69.5t47.5 -27.5q29 0 44.5 27.5t15.5 69.5q0 19 7 26t17 7q8 0 11.5 -5t5.5 -12t2 -16q0 -48 -28 -79.5t-75 -31.5v0z" />
    <glyph glyph-name="Ecaron" unicode="&#x11a;" horiz-adv-x="479" 
d="M396 788q6 0 10 4.5t4 9.5h2l10 -85l-3 -1q-4 26 -25.5 42t-47.5 16h-193q-14 0 -22.5 -9.5t-8.5 -23.5v-340h175q23 0 37 17.5t14 40.5h3v-129h-3q0 23 -14 40t-37 17h-175v-340q0 -14 9.5 -23.5t23.5 -9.5h228q26 0 48.5 16t24.5 42l3 -1l-10 -86h-2q0 6 -4 10.5
t-10 4.5h-412v3q24 0 40.5 16t16.5 39v672q0 25 -16.5 40.5t-40.5 15.5v2h375zM240 861l100 31v-15l-100 -31l-101 31v15z" />
    <glyph glyph-name="ecaron" unicode="&#x11b;" horiz-adv-x="264" 
d="M21 197q0 41 10 77t26.5 63t39 42.5t47.5 15.5q11 0 20 -2.5t17 -5.5l8 -3q8 -3 16.5 -3.5t7.5 11.5h2l7 -71l-3 -1q-1 13 -8 24t-17.5 19t-23.5 12.5t-26 4.5q-16 0 -29.5 -12.5t-24 -34.5t-17.5 -51.5t-9 -64.5h99q15 0 23 7t13 15q5 10 6 22h2v-101h-2q-1 12 -6 22
q-5 8 -13 14.5t-23 6.5h-99q0 -38 6 -72.5t17 -61t26.5 -42t34.5 -15.5q25 0 47.5 24.5t33.5 62.5l14 -5q-17 -45 -39 -71t-56 -26q-27 0 -50 16t-40 43t-27 63.5t-10 77.5zM132 450l100 31v-15l-100 -31l-101 31v15z" />
    <glyph glyph-name="Gcircumflex" unicode="&#x11c;" horiz-adv-x="573" 
d="M351 788h68q8 0 12 4.5t4 10.5h3l77 -86l-2 -1q-38 36 -72.5 47t-57.5 11h-13q-63 0 -118 -30t-95 -81.5t-63 -120.5t-23 -148t23 -148t64.5 -120.5t98 -81.5t123.5 -30q8 0 22.5 1t28.5 5.5t24.5 13t10.5 24.5v289q0 15 -7 23.5t-15 13.5q-10 5 -22 6v2h130v-2
q-12 -1 -21 -6q-8 -5 -15 -13.5t-7 -23.5v-347h-3q0 5 -2.5 11.5t-8 11t-13 6.5t-16.5 -3q-53 -26 -118 -26q-67 0 -127 31t-104 84.5t-70 125t-26 153.5t26 153.5t71 125t105 84.5t128 31zM335 877l-101 -31v15l101 31l100 -31v-15z" />
    <glyph glyph-name="gcircumflex" unicode="&#x11d;" horiz-adv-x="326" 
d="M96 -49q-15 5 -26 12.5t-11 15.5q0 11 14 18.5t33 12.5q-37 20 -61 70.5t-24 115.5q0 41 10 77t27 63t39.5 43t48.5 16q22 0 41.5 -13t36.5 -33q10 20 22 31.5t31 11.5q14 0 21 -6t7 -15t-6 -15.5t-15 -6.5q-11 0 -17 8t-4 18q-11 -6 -18 -17t-12 -22q17 -26 27 -62
t10 -78q0 -40 -10 -76.5t-26.5 -63.5t-39 -43t-48.5 -16q-29 0 -48.5 -4.5t-19.5 -13.5t19 -15.5t45 -6.5q18 0 40.5 -4.5t42 -13.5t32.5 -23t13 -33q0 -17 -10 -31t-26.5 -24.5t-39 -16.5t-48.5 -6t-48.5 6t-39.5 16.5t-27 24t-10 29.5q0 23 21 42t54 28zM64 196
q0 -37 6.5 -70.5t17.5 -59t26 -40t32 -14.5t32 14.5t26 40t17.5 59t6.5 70.5q0 38 -6.5 71t-17.5 58.5t-26 40t-32 14.5t-32 -14.5t-26 -40t-17.5 -58.5t-6.5 -71zM64 -119q0 -26 23 -44t55 -18q35 0 60 19t25 46q0 25 -24 42t-57 17q-34 0 -58 -18t-24 -44zM145 466
l-101 -31v15l101 31l100 -31v-15z" />
    <glyph glyph-name="Gbreve" unicode="&#x11e;" horiz-adv-x="573" 
d="M351 788h68q8 0 12 4.5t4 10.5h3l77 -86l-2 -1q-38 36 -72.5 47t-57.5 11h-13q-63 0 -118 -30t-95 -81.5t-63 -120.5t-23 -148t23 -148t64.5 -120.5t98 -81.5t123.5 -30q8 0 22.5 1t28.5 5.5t24.5 13t10.5 24.5v289q0 15 -7 23.5t-15 13.5q-10 5 -22 6v2h130v-2
q-12 -1 -21 -6q-8 -5 -15 -13.5t-7 -23.5v-347h-3q0 5 -2.5 11.5t-8 11t-13 6.5t-16.5 -3q-53 -26 -118 -26q-67 0 -127 31t-104 84.5t-70 125t-26 153.5t26 153.5t71 125t105 84.5t128 31zM256 892q29 -15 50 -23t51 -8q29 0 50 8t50 23v-15q-29 -15 -50 -23t-50 -8
q-30 0 -51 8t-50 23v15z" />
    <glyph glyph-name="gbreve" unicode="&#x11f;" horiz-adv-x="326" 
d="M96 -49q-15 5 -26 12.5t-11 15.5q0 11 14 18.5t33 12.5q-37 20 -61 70.5t-24 115.5q0 41 10 77t27 63t39.5 43t48.5 16q22 0 41.5 -13t36.5 -33q10 20 22 31.5t31 11.5q14 0 21 -6t7 -15t-6 -15.5t-15 -6.5q-11 0 -17 8t-4 18q-11 -6 -18 -17t-12 -22q17 -26 27 -62
t10 -78q0 -40 -10 -76.5t-26.5 -63.5t-39 -43t-48.5 -16q-29 0 -48.5 -4.5t-19.5 -13.5t19 -15.5t45 -6.5q18 0 40.5 -4.5t42 -13.5t32.5 -23t13 -33q0 -17 -10 -31t-26.5 -24.5t-39 -16.5t-48.5 -6t-48.5 6t-39.5 16.5t-27 24t-10 29.5q0 23 21 42t54 28zM64 196
q0 -37 6.5 -70.5t17.5 -59t26 -40t32 -14.5t32 14.5t26 40t17.5 59t6.5 70.5q0 38 -6.5 71t-17.5 58.5t-26 40t-32 14.5t-32 -14.5t-26 -40t-17.5 -58.5t-6.5 -71zM64 -119q0 -26 23 -44t55 -18q35 0 60 19t25 46q0 25 -24 42t-57 17q-34 0 -58 -18t-24 -44zM45 482
q29 -15 50 -23t51 -8q29 0 50 8t50 23v-15q-29 -15 -50 -23t-50 -8q-30 0 -51 8t-50 23v15z" />
    <glyph glyph-name="Gdotaccent" unicode="&#x120;" horiz-adv-x="573" 
d="M351 788h68q8 0 12 4.5t4 10.5h3l77 -86l-2 -1q-38 36 -72.5 47t-57.5 11h-13q-63 0 -118 -30t-95 -81.5t-63 -120.5t-23 -148t23 -148t64.5 -120.5t98 -81.5t123.5 -30q8 0 22.5 1t28.5 5.5t24.5 13t10.5 24.5v289q0 15 -7 23.5t-15 13.5q-10 5 -22 6v2h130v-2
q-12 -1 -21 -6q-8 -5 -15 -13.5t-7 -23.5v-347h-3q0 5 -2.5 11.5t-8 11t-13 6.5t-16.5 -3q-53 -26 -118 -26q-67 0 -127 31t-104 84.5t-70 125t-26 153.5t26 153.5t71 125t105 84.5t128 31zM327 867q0 9 6.5 15.5t15.5 6.5q8 0 14.5 -6.5t6.5 -14.5q0 -9 -6.5 -15.5
t-14.5 -6.5q-9 0 -15.5 6.5t-6.5 14.5z" />
    <glyph glyph-name="gdotaccent" unicode="&#x121;" horiz-adv-x="326" 
d="M96 -49q-15 5 -26 12.5t-11 15.5q0 11 14 18.5t33 12.5q-37 20 -61 70.5t-24 115.5q0 41 10 77t27 63t39.5 43t48.5 16q22 0 41.5 -13t36.5 -33q10 20 22 31.5t31 11.5q14 0 21 -6t7 -15t-6 -15.5t-15 -6.5q-11 0 -17 8t-4 18q-11 -6 -18 -17t-12 -22q17 -26 27 -62
t10 -78q0 -40 -10 -76.5t-26.5 -63.5t-39 -43t-48.5 -16q-29 0 -48.5 -4.5t-19.5 -13.5t19 -15.5t45 -6.5q18 0 40.5 -4.5t42 -13.5t32.5 -23t13 -33q0 -17 -10 -31t-26.5 -24.5t-39 -16.5t-48.5 -6t-48.5 6t-39.5 16.5t-27 24t-10 29.5q0 23 21 42t54 28zM64 196
q0 -37 6.5 -70.5t17.5 -59t26 -40t32 -14.5t32 14.5t26 40t17.5 59t6.5 70.5q0 38 -6.5 71t-17.5 58.5t-26 40t-32 14.5t-32 -14.5t-26 -40t-17.5 -58.5t-6.5 -71zM64 -119q0 -26 23 -44t55 -18q35 0 60 19t25 46q0 25 -24 42t-57 17q-34 0 -58 -18t-24 -44zM123 456
q0 9 6.5 15.5t15.5 6.5q8 0 14.5 -6.5t6.5 -14.5q0 -9 -6.5 -15.5t-14.5 -6.5q-9 0 -15.5 6.5t-6.5 14.5z" />
    <glyph glyph-name="uni0122" unicode="&#x122;" horiz-adv-x="573" 
d="M21 394q0 82 26 153.5t71 125t105 84.5t128 31h68q8 0 12 4.5t4 10.5h3l77 -86l-2 -1q-38 36 -72.5 47t-57.5 11h-13q-63 0 -118 -30t-95 -81.5t-63 -120.5t-23 -148t23 -148t64.5 -120.5t98 -81.5t123.5 -30q8 0 22.5 1t28.5 5.5t24.5 13t10.5 24.5v289q0 15 -7 23.5
t-15 13.5q-10 5 -22 6v2h130v-2q-12 -1 -21 -6q-8 -5 -15 -13.5t-7 -23.5v-347h-3q0 5 -2.5 11.5t-8 11t-13 6.5t-16.5 -3q-53 -26 -118 -26q-67 0 -127 31t-104 84.5t-70 125t-26 153.5zM328 -65q0 9 6.5 15t15.5 6q8 0 14.5 -6t6.5 -16q0 -8 -4 -16.5t-9 -16.5
q-6 -8 -14 -16l-5 5q3 4 5 9q2 10 -8 19q-8 6 -8 17z" />
    <glyph glyph-name="uni0123" unicode="&#x123;" horiz-adv-x="326" 
d="M96 -49q-15 5 -26 12.5t-11 15.5q0 11 14 18.5t33 12.5q-37 20 -61 70.5t-24 115.5q0 41 10 77t27 63t39.5 43t48.5 16q22 0 41.5 -13t36.5 -33q10 20 22 31.5t31 11.5q14 0 21 -6t7 -15t-6 -15.5t-15 -6.5q-11 0 -17 8t-4 18q-11 -6 -18 -17t-12 -22q17 -26 27 -62
t10 -78q0 -40 -10 -76.5t-26.5 -63.5t-39 -43t-48.5 -16q-29 0 -48.5 -4.5t-19.5 -13.5t19 -15.5t45 -6.5q18 0 40.5 -4.5t42 -13.5t32.5 -23t13 -33q0 -17 -10 -31t-26.5 -24.5t-39 -16.5t-48.5 -6t-48.5 6t-39.5 16.5t-27 24t-10 29.5q0 23 21 42t54 28zM64 196
q0 -37 6.5 -70.5t17.5 -59t26 -40t32 -14.5t32 14.5t26 40t17.5 59t6.5 70.5q0 38 -6.5 71t-17.5 58.5t-26 40t-32 14.5t-32 -14.5t-26 -40t-17.5 -58.5t-6.5 -71zM64 -119q0 -26 23 -44t55 -18q35 0 60 19t25 46q0 25 -24 42t-57 17q-34 0 -58 -18t-24 -44zM124 457
q0 8 4.5 16.5t9.5 16.5t13 16l6 -5q-4 -4 -5 -9q-1 -4 0 -9t7 -10q8 -6 8 -17q0 -9 -6 -15t-15 -6t-15.5 6t-6.5 16z" />
    <glyph glyph-name="Hcircumflex" unicode="&#x124;" 
d="M179 788v-2q-24 0 -40.5 -16t-16.5 -40v-338h329v339q0 23 -17 39t-40 16v2h157v-2q-23 0 -40 -16t-17 -40v-678q0 -22 17.5 -35.5t39.5 -13.5v-3h-157v3q23 0 40 15.5t17 39.5v320h-329v-325q0 -22 17 -36t40 -14v-3h-158v3q23 0 40 14.5t17 37.5v675q0 24 -16.5 40
t-40.5 16v2h158zM287 877l-101 -31v15l101 31l100 -31v-15z" />
    <glyph glyph-name="hcircumflex" unicode="&#x125;" horiz-adv-x="344" 
d="M21 3q12 1 22 6q8 5 14.5 13t6.5 23v499q0 15 -6.5 23t-14.5 13q-10 5 -22 6v2h129v-2q-12 -1 -21 -6q-8 -5 -15 -13t-7 -23v-161q18 6 33 8.5t29 2.5q44 0 66 -22.5t33 -49.5q11 -32 12 -72v-206q0 -14 7 -22.5t15 -12.5q9 -5 21 -6v-3h-129v3q12 1 22 6q8 5 14.5 13
t6.5 23v205q0 41 -7.5 66t-19.5 39.5t-26.5 19.5t-28.5 5q-10 0 -18.5 -1.5t-15.5 -3.5l-14 -6v-324q0 -15 7 -23t15 -13q9 -5 21 -6v-3h-129v3zM173 662l-101 -31v15l101 31l100 -31v-15z" />
    <glyph glyph-name="Hbar" unicode="&#x126;" 
d="M451 392v142h-329v-142h329zM21 788h158v-2q-24 0 -40.5 -16t-16.5 -40v-181h329v182q0 23 -17 39t-41 16v2h158v-2q-23 0 -40 -16t-17 -40v-181h57v-15h-57v-482q2 -22 18 -35.5t39 -13.5v-3h-158v3q24 0 41 15.5t17 39.5v320h-329v-325q2 -22 18 -36t39 -14v-3h-158v3
q23 0 40 14.5t17 37.5v479h-57v15h57v181q0 24 -16.5 40t-40.5 16v2z" />
    <glyph glyph-name="hbar" unicode="&#x127;" horiz-adv-x="344" 
d="M323 0h-129v2q12 1 22 6q8 5 14.5 13.5t6.5 22.5v205q0 35 -5.5 58.5t-14.5 38.5t-21 22.5t-24 9.5q-29 6 -65 -9v-325q0 -14 7 -22.5t15 -13.5q9 -5 21 -6v-2h-129v2q12 1 22 6q8 5 14.5 13.5t6.5 22.5v391h-43v15h43v94q0 15 -6.5 23t-14.5 12q-10 5 -22 6v3h129v-3
q-12 -1 -21 -6q-8 -4 -15 -12t-7 -23v-94h115v-15h-115v-52q33 11 58.5 11t43.5 -7.5t30.5 -20.5t20.5 -28q19 -36 20 -89v-205q0 -14 7 -22.5t15 -13.5q9 -5 21 -6v-2z" />
    <glyph glyph-name="Itilde" unicode="&#x128;" horiz-adv-x="200" 
d="M21 788h158v-2q-24 0 -40.5 -16t-16.5 -40v-677q0 -22 17 -36t40 -14v-3h-158v3q23 0 40 14.5t17 37.5v676q0 23 -16.5 39t-40.5 16v2zM221 891q-9 -18 -23 -28t-31 -14t-35.5 -2.5t-36.5 6.5q-14 4 -29 9.5t-29.5 7t-27 -3t-22.5 -20.5l-9 8q9 18 23 28.5t31 15
t35.5 3.5t36.5 -6q14 -4 29 -10t29.5 -8t27 2t22.5 20z" />
    <glyph glyph-name="itilde" unicode="&#x129;" horiz-adv-x="172" 
d="M21 392h130v-2q-12 -1 -22 -6q-8 -5 -15 -13t-7 -23v-303q0 -15 7 -23t15 -13q10 -5 22 -6v-3h-130v3q12 1 22 6q8 4 14.5 11t6.5 21v307q0 15 -6.5 23t-14.5 13q-10 5 -22 6v2zM207 480q-9 -18 -23 -28t-31 -14t-35.5 -2.5t-36.5 6.5q-14 4 -29 9.5t-29.5 7t-27 -3
t-22.5 -20.5l-9 8q9 18 23 28.5t31 15t35.5 3.5t36.5 -6q14 -4 29 -10t29.5 -8t27 2t22.5 20z" />
    <glyph glyph-name="Imacron" unicode="&#x12a;" horiz-adv-x="200" 
d="M21 788h158v-2q-24 0 -40.5 -16t-16.5 -40v-677q0 -22 17 -36t40 -14v-3h-158v3q23 0 40 14.5t17 37.5v676q0 23 -16.5 39t-40.5 16v2zM200 861v-15h-201v15h201z" />
    <glyph glyph-name="imacron" unicode="&#x12b;" horiz-adv-x="172" 
d="M21 392h130v-2q-12 -1 -22 -6q-8 -5 -15 -13t-7 -23v-303q0 -15 7 -23t15 -13q10 -5 22 -6v-3h-130v3q12 1 22 6q8 4 14.5 11t6.5 21v307q0 15 -6.5 23t-14.5 13q-10 5 -22 6v2zM186 450v-15h-201v15h201z" />
    <glyph glyph-name="Ibreve" unicode="&#x12c;" horiz-adv-x="200" 
d="M21 788h158v-2q-24 0 -40.5 -16t-16.5 -40v-677q0 -22 17 -36t40 -14v-3h-158v3q23 0 40 14.5t17 37.5v676q0 23 -16.5 39t-40.5 16v2zM-1 892q29 -15 50 -23t51 -8q29 0 50 8t50 23v-15q-29 -15 -50 -23t-50 -8q-30 0 -51 8t-50 23v15z" />
    <glyph glyph-name="ibreve" unicode="&#x12d;" horiz-adv-x="172" 
d="M21 392h130v-2q-12 -1 -22 -6q-8 -5 -15 -13t-7 -23v-303q0 -15 7 -23t15 -13q10 -5 22 -6v-3h-130v3q12 1 22 6q8 4 14.5 11t6.5 21v307q0 15 -6.5 23t-14.5 13q-10 5 -22 6v2zM-15 481q29 -15 50 -23t51 -8q29 0 50 8t50 23v-15q-29 -15 -50 -23t-50 -8q-30 0 -51 8
t-50 23v15z" />
    <glyph glyph-name="Iogonek" unicode="&#x12e;" horiz-adv-x="200" 
d="M179 788v-2q-24 0 -40.5 -16t-16.5 -40v-677q0 -22 17 -36t40 -14v-3h-158q-29 0 -45.5 -24.5t-16.5 -59.5q0 -42 15 -69.5t47 -27.5q29 0 45 27.5t16 69.5q0 19 6.5 26t17.5 7q8 0 11.5 -5t5.5 -12t2 -16q0 -48 -28 -79.5t-75 -31.5h-1q-50 0 -77.5 31.5t-27.5 79.5
q0 42 28.5 70.5t76.5 28.5q23 0 40 14.5t18 37.5v663q0 24 -17 40t-41 16v2h158z" />
    <glyph glyph-name="iogonek" unicode="&#x12f;" horiz-adv-x="172" 
d="M21 -195q-50 0 -77.5 31.5t-27.5 79.5q0 42 28.5 70.5t76.5 28.5q12 1 22 6q8 4 14.5 11t6.5 21v294q0 15 -6.5 23.5t-14.5 12.5q-10 5 -22 6v3h130v-3q-12 -1 -22 -6q-8 -4 -15 -12.5t-7 -23.5v-303q0 -14 7 -22.5t15 -13.5q10 -5 22 -6v-2h-130q-29 0 -45.5 -24.5
t-16.5 -59.5q0 -42 15 -69.5t47 -27.5q29 0 45 27.5t16 69.5q0 19 6.5 26t17.5 7q8 0 11.5 -5t5.5 -12t2 -16q0 -48 -28 -79.5t-75 -31.5h-1zM86 463q-9 0 -15.5 6.5t-6.5 15.5q0 8 6.5 14.5t15.5 6.5t15 -6.5t6 -14.5q0 -9 -6 -15.5t-15 -6.5z" />
    <glyph glyph-name="Idotaccent" unicode="&#x130;" horiz-adv-x="200" 
d="M21 788h158v-2q-24 0 -40.5 -16t-16.5 -40v-677q0 -22 17 -36t40 -14v-3h-158v3q23 0 40 14.5t17 37.5v676q0 23 -16.5 39t-40.5 16v2zM78 867q0 9 6.5 15.5t15.5 6.5q8 0 14.5 -6.5t6.5 -14.5q0 -9 -6.5 -15.5t-14.5 -6.5q-9 0 -15.5 6.5t-6.5 14.5z" />
    <glyph glyph-name="dotlessi" unicode="&#x131;" horiz-adv-x="172" 
d="M21 392h130v-2q-12 -1 -22 -6q-8 -5 -15 -13t-7 -23v-303q0 -15 7 -23t15 -13q10 -5 22 -6v-3h-130v3q12 1 22 6q8 4 14.5 11t6.5 21v307q0 15 -6.5 23t-14.5 13q-10 5 -22 6v2z" />
    <glyph glyph-name="IJ" unicode="&#x132;" horiz-adv-x="400" 
d="M21 788h158v-2q-24 0 -40.5 -16t-16.5 -40v-677q0 -22 17 -36t40 -14v-3h-158v3q23 0 40 14.5t17 37.5v676q0 23 -16.5 39t-40.5 16v2zM379 788v-3q-24 0 -40.5 -15.5t-16.5 -39.5v-730q0 -17 -8.5 -30t-19.5 -22q-12 -11 -28 -20l-2 2q4 4 7 12t5 21.5t2 36.5v730
q0 24 -16.5 39.5t-40.5 15.5v3h158z" />
    <glyph glyph-name="ij" unicode="&#x133;" horiz-adv-x="314" 
d="M151 392v-2q-12 -1 -22 -6q-8 -5 -14.5 -13t-7.5 -23v-303q1 -15 7.5 -23t14.5 -13q10 -5 22 -6v-3h-130v3q12 1 22 6q8 4 14.5 11t6.5 21v307q0 15 -6.5 23t-14.5 13q-10 5 -22 6v2h130zM64 485q0 9 6.5 15t15.5 6t15 -6t6 -15t-6 -15.5t-15 -6.5t-15.5 6.5t-6.5 15.5z
M163 392h130v-2q-12 -1 -21 -6q-8 -5 -15 -13.5t-7 -23.5v-349q0 -17 -8.5 -30t-19.5 -22q-12 -11 -28 -20l-2 2q4 4 8 13q2 8 4.5 21t2.5 36v349q0 15 -7 23.5t-15 13.5q-10 5 -22 6v2zM207 485q0 9 6 15.5t15 6.5t15.5 -6.5t6.5 -15.5t-6.5 -15t-15.5 -6t-15 6t-6 15z" />
    <glyph glyph-name="Jcircumflex" unicode="&#x134;" horiz-adv-x="200" 
d="M179 788v-3q-24 0 -40.5 -15.5t-16.5 -39.5v-730q0 -17 -8.5 -30t-19.5 -22q-12 -11 -28 -20l-2 2q4 4 7 12t5 21.5t2 36.5v730q0 24 -16.5 39.5t-40.5 15.5v3h158zM100 877l-101 -31v15l101 31l100 -31v-15z" />
    <glyph glyph-name="jcircumflex" unicode="&#x135;" horiz-adv-x="172" 
d="M21 392h130v-2q-12 -1 -21 -6q-8 -5 -15 -13.5t-7 -23.5v-349q0 -17 -8.5 -30t-19.5 -22q-12 -11 -28 -20l-2 2q4 4 8 13q2 8 4.5 21t2.5 36v349q0 15 -7 23.5t-15 13.5q-10 5 -22 6v2zM-15 435v15l101 31l101 -31v-15l-101 31z" />
    <glyph glyph-name="uni0136" unicode="&#x136;" horiz-adv-x="472" 
d="M78 58v672q0 24 -16.5 39.5t-40.5 15.5v3h158v-3q-24 0 -40.5 -15.5t-16.5 -39.5v-291q17 0 39 -3l142 280q10 20 24 36q12 14 30 25t41 11v-72h-3q0 11 -13.5 21.5t-31.5 5.5q-19 -5 -31 -27l-144 -283q35 -7 73.5 -28t70.5 -64t53.5 -111.5t21.5 -172.5q0 -23 17 -39
t40 -16v-2h-79q-8 0 -14.5 6.5t-6.5 15.5v95q0 49 -14.5 103t-43 99.5t-71.5 75t-100 29.5v-367q0 -23 16.5 -39t40.5 -16v-2h-158v2q24 0 40.5 16t16.5 40zM236 -44q9 0 15.5 -6t6.5 -16q0 -8 -4 -16.5t-9 -16.5q-6 -8 -14 -16l-6 5q4 4 5 9q1 4 0 9t-8 10q-7 7 -7 17
q0 9 6 15t15 6z" />
    <glyph glyph-name="uni0137" unicode="&#x137;" horiz-adv-x="329" 
d="M64 45v499q0 15 -6.5 23t-14.5 13q-10 5 -22 6v2h129v-2q-12 -1 -21 -6q-8 -5 -15 -13t-7 -23v-341l60 118q10 20 24 36q12 13 29.5 24t40.5 11v-71h-3q0 12 -12.5 22t-31.5 5q-9 -2 -17.5 -9t-13.5 -18l-60 -119q56 0 85 -20.5t42 -45.5q15 -30 15 -67v-25
q0 -14 7 -22.5t15 -12.5q9 -5 21 -6v-3h-65q-9 0 -15 6.5t-6 14.5v48q0 38 -14.5 61.5t-33.5 36.5t-38 17.5t-29 4.5v-144q0 -15 7 -23t15 -13q9 -5 21 -6v-3h-129v3q12 1 22 6q8 5 14.5 13t6.5 23zM143 -65q0 9 6.5 15t14.5 6q9 0 15.5 -6t6.5 -16q0 -8 -4 -16.5t-9 -16.5
q-6 -8 -14 -16l-5 5q3 4 5 9q2 10 -8 19q-8 6 -8 17z" />
    <glyph glyph-name="kgreenlandic" unicode="&#x138;" horiz-adv-x="329" 
d="M21 3q12 1 22 6q8 5 14.5 13t6.5 23v499q0 15 -6.5 23t-14.5 13q-10 5 -22 6v2h129v-2q-12 -1 -21 -6q-8 -5 -15 -13t-7 -23v-341l60 118q10 20 24 36q12 13 29.5 24t40.5 11v-71h-3q0 12 -12.5 22t-31.5 5q-9 -2 -17.5 -9t-13.5 -18l-60 -119q56 0 85 -20.5t42 -45.5
q15 -30 15 -67v-25q0 -14 7 -22.5t15 -12.5q9 -5 21 -6v-3h-65q-9 0 -15 6.5t-6 14.5v48q0 38 -14.5 61.5t-33.5 36.5t-38 17.5t-29 4.5v-144q0 -15 7 -23t15 -13q9 -5 21 -6v-3h-129v3z" />
    <glyph glyph-name="Lacute" unicode="&#x139;" horiz-adv-x="443" 
d="M179 788v-2q-24 0 -40.5 -16t-16.5 -39v-684q0 -14 9.5 -23.5t23.5 -9.5h192q26 1 47.5 17t25.5 41h3l-10 -86h-2q0 5 -4.5 9.5t-9.5 4.5h-376v3q24 0 40.5 15.5t16.5 39.5v672q0 24 -16.5 40t-40.5 16v2h158zM157 946h17l-60 -100h-18z" />
    <glyph glyph-name="lacute" unicode="&#x13a;" horiz-adv-x="172" 
d="M21 588h130v-2q-12 -1 -22 -6q-8 -5 -15 -13t-7 -23v-499q0 -15 7 -23t15 -13q10 -5 22 -6v-3h-130v3q12 1 22 6q8 4 14.5 11t6.5 21v503q0 15 -6.5 23t-14.5 13q-10 5 -22 6v2zM142 731h17l-60 -100h-18z" />
    <glyph glyph-name="uni013B" unicode="&#x13b;" horiz-adv-x="443" 
d="M21 788h158v-2q-24 0 -40.5 -16t-16.5 -39v-684q0 -14 9.5 -23.5t23.5 -9.5h192q26 1 47.5 17t25.5 41h3l-10 -86h-2q0 5 -4.5 9.5t-9.5 4.5h-376v3q24 0 40.5 15.5t16.5 39.5v672q0 24 -16.5 40t-40.5 16v2zM236 -44q9 0 15.5 -6t6.5 -16q0 -8 -4 -16.5t-9 -16.5
q-6 -8 -14 -16l-6 5q4 4 5 9q1 4 0 9t-8 10q-7 7 -7 17q0 9 6 15t15 6z" />
    <glyph glyph-name="uni013C" unicode="&#x13c;" horiz-adv-x="172" 
d="M151 588v-2q-12 -1 -22 -6q-8 -5 -15 -13t-7 -23v-499q0 -15 7 -23t15 -13q10 -5 22 -6v-3h-130v3q12 1 22 6q8 4 14.5 11t6.5 21v503q0 15 -6.5 23t-14.5 13q-10 5 -22 6v2h130zM86 -44q9 0 15 -6t6 -16q0 -8 -4 -16.5t-9 -16.5q-6 -8 -13 -16l-6 5q4 4 5 9q1 4 0 9
t-8 10q-8 6 -8 17q0 9 6.5 15t15.5 6z" />
    <glyph glyph-name="Lcaron" unicode="&#x13d;" horiz-adv-x="443" 
d="M179 788v-2q-24 0 -40.5 -16t-16.5 -39v-684q0 -14 9.5 -23.5t23.5 -9.5h192q26 1 47.5 17t25.5 41h3l-10 -86h-2q0 5 -4.5 9.5t-9.5 4.5h-376v3q24 0 40.5 15.5t16.5 39.5v672q0 24 -16.5 40t-40.5 16v2h158zM200 782q0 8 6.5 14.5t15.5 6.5t15 -6.5t6 -16.5
q0 -8 -4 -16t-9 -16q-6 -8 -14 -16l-5 5q4 4 5 9q1 4 0 9t-8 10q-8 6 -8 17z" />
    <glyph glyph-name="lcaron" unicode="&#x13e;" horiz-adv-x="194" 
d="M151 588v-2q-12 -1 -22 -6q-8 -5 -15 -13t-7 -23v-499q0 -15 7 -23t15 -13q10 -5 22 -6v-3h-130v3q12 1 22 6q8 4 14.5 11t6.5 21v503q0 15 -6.5 23t-14.5 13q-10 5 -22 6v2h130zM129 371q0 8 6.5 14.5t15.5 6.5t15.5 -6.5t6.5 -16.5q0 -8 -4 -16t-9 -16q-6 -8 -14 -16
l-6 5q4 4 5 9q1 4 0 9t-8 10q-8 6 -8 17z" />
    <glyph glyph-name="Ldot" unicode="&#x13f;" horiz-adv-x="443" 
d="M179 788v-2q-24 0 -40.5 -16t-16.5 -39v-684q0 -14 9.5 -23.5t23.5 -9.5h192q26 1 47.5 17t25.5 41h3l-10 -86h-2q0 5 -4.5 9.5t-9.5 4.5h-376v3q24 0 40.5 15.5t16.5 39.5v672q0 24 -16.5 40t-40.5 16v2h158zM143 198q0 9 6.5 15.5t15.5 6.5t15 -6.5t6 -15.5t-6 -15
t-15 -6t-15.5 6t-6.5 15z" />
    <glyph glyph-name="ldot" unicode="&#x140;" horiz-adv-x="193" 
d="M151 588v-2q-12 -1 -22 -6q-8 -5 -15 -13t-7 -23v-499q0 -15 7 -23t15 -13q10 -5 22 -6v-3h-130v3q12 1 22 6q8 4 14.5 11t6.5 21v503q0 15 -6.5 23t-14.5 13q-10 5 -22 6v2h130zM129 198q0 9 6.5 15.5t14.5 6.5q9 0 15.5 -6.5t6.5 -15.5t-6.5 -15t-15.5 -6q-8 0 -14.5 6
t-6.5 15z" />
    <glyph glyph-name="Lslash" unicode="&#x141;" horiz-adv-x="443" 
d="M21 788h158v-2q-24 0 -40.5 -16t-16.5 -40v-520l80 40l7 -14l-87 -42v-147q0 -14 9 -23.5t23 -9.5h193q26 1 47.5 17t25.5 41h2l-9 -86h-2q0 5 -4.5 9.5t-9.5 4.5h-376v3q24 0 40.5 15.5t16.5 39.5v115l-50 -25l-7 13l57 28v541q0 24 -16.5 40t-40.5 16v2z" />
    <glyph glyph-name="lslash" unicode="&#x142;" horiz-adv-x="171" 
d="M21 588h130v-2q-12 -1 -22 -6q-8 -5 -15 -13t-7 -23v-334l81 40l6 -14l-87 -42v-150q0 -14 7 -22.5t15 -13.5q10 -5 22 -6v-2h-130v2q12 1 22 6q8 4 14.5 11.5t6.5 21.5v132l-50 -25l-7 13l57 28v355q0 15 -6.5 23t-14.5 13q-10 5 -22 6v2z" />
    <glyph glyph-name="Nacute" unicode="&#x143;" horiz-adv-x="545" 
d="M524 788v-3q-23 0 -40 -14.5t-17 -37.5v-733h-14l-360 732v-678q0 -23 17 -37.5t40 -14.5v-2h-129v2q23 0 40 14.5t17 37.5v676q0 24 -16.5 39.5t-40.5 15.5v3h87l345 -702v648q0 23 -17.5 37t-40.5 14v3h129zM294 946h17l-60 -100h-18z" />
    <glyph glyph-name="nacute" unicode="&#x144;" horiz-adv-x="344" 
d="M64 45v303q0 15 -6.5 23.5t-14.5 12.5q-10 5 -22 6v2h65q9 0 15 -6t6 -15v-22q11 17 29 31.5t37 14.5q22 0 41.5 -11.5t34 -31.5t23 -46.5t8.5 -56.5v-205q0 -14 7 -22.5t15 -12.5q9 -5 21 -6v-3h-129v3q12 1 22 6q8 4 14.5 12.5t6.5 22.5v205q0 27 -5 51t-14 42
t-20.5 28.5t-24.5 10.5t-25 -10.5t-21 -28.5t-14.5 -42t-5.5 -51v-205q0 -14 7 -22.5t15 -12.5q9 -5 21 -6v-3h-129v3q12 1 22 6q8 5 14.5 13t6.5 23zM194 535h17l-60 -100h-18z" />
    <glyph glyph-name="uni0145" unicode="&#x145;" horiz-adv-x="545" 
d="M524 788v-3q-23 0 -40 -14.5t-17 -37.5v-733h-14l-360 732v-678q0 -23 17 -37.5t40 -14.5v-2h-129v2q23 0 40 14.5t17 37.5v676q0 24 -16.5 39.5t-40.5 15.5v3h87l345 -702v648q0 23 -17.5 37t-40.5 14v3h129zM273 -44q9 0 15 -6t6 -16q0 -8 -4 -16.5t-9 -16.5
q-6 -8 -14 -16l-5 5q3 4 5 9q2 10 -8 19q-8 6 -8 17q0 9 6.5 15t15.5 6z" />
    <glyph glyph-name="uni0146" unicode="&#x146;" horiz-adv-x="344" 
d="M21 0v3q12 1 22 6q8 5 14.5 13t6.5 23v303q0 15 -6.5 23.5t-14.5 12.5q-10 5 -22 6v2h65q9 0 15 -6t6 -15v-22q11 17 29 31.5t37 14.5q22 0 41.5 -11.5t34 -31.5t23 -46.5t8.5 -56.5v-205q0 -14 7 -22.5t15 -12.5q9 -5 21 -6v-3h-129v3q12 1 22 6q8 4 14.5 12.5t6.5 22.5
v205q0 27 -5 51t-14 42t-20.5 28.5t-24.5 10.5t-25 -10.5t-21 -28.5t-14.5 -42t-5.5 -51v-205q0 -14 7 -22.5t15 -12.5q9 -5 21 -6v-3h-129zM172 -44q9 0 15.5 -6t6.5 -16q0 -8 -4 -16.5t-9 -16.5q-6 -8 -14 -16l-6 5q4 4 5 9q1 4 0 9t-8 10q-7 7 -7 17q0 9 6 15t15 6z" />
    <glyph glyph-name="Ncaron" unicode="&#x147;" horiz-adv-x="545" 
d="M524 788v-3q-23 0 -40 -14.5t-17 -37.5v-733h-14l-360 732v-678q0 -23 17 -37.5t40 -14.5v-2h-129v2q23 0 40 14.5t17 37.5v676q0 24 -16.5 39.5t-40.5 15.5v3h87l345 -702v648q0 23 -17.5 37t-40.5 14v3h129zM273 861l100 31v-15l-100 -31l-101 31v15z" />
    <glyph glyph-name="ncaron" unicode="&#x148;" horiz-adv-x="344" 
d="M64 45v303q0 15 -6.5 23.5t-14.5 12.5q-10 5 -22 6v2h65q9 0 15 -6t6 -15v-22q11 17 29 31.5t37 14.5q22 0 41.5 -11.5t34 -31.5t23 -46.5t8.5 -56.5v-205q0 -14 7 -22.5t15 -12.5q9 -5 21 -6v-3h-129v3q12 1 22 6q8 4 14.5 12.5t6.5 22.5v205q0 27 -5 51t-14 42
t-20.5 28.5t-24.5 10.5t-25 -10.5t-21 -28.5t-14.5 -42t-5.5 -51v-205q0 -14 7 -22.5t15 -12.5q9 -5 21 -6v-3h-129v3q12 1 22 6q8 5 14.5 13t6.5 23zM173 450l100 31v-15l-100 -31l-101 31v15z" />
    <glyph glyph-name="napostrophe" unicode="&#x149;" horiz-adv-x="344" 
d="M64 45v303q0 15 -6.5 23.5t-14.5 12.5q-10 5 -22 6v2h65q9 0 15 -6t6 -15v-22q11 17 29 31.5t37 14.5q22 0 41.5 -11.5t34 -31.5t23 -46.5t8.5 -56.5v-205q0 -14 7 -22.5t15 -12.5q9 -5 21 -6v-3h-129v3q12 1 22 6q8 4 14.5 12.5t6.5 22.5v205q0 27 -5 51t-14 42
t-20.5 28.5t-24.5 10.5t-25 -10.5t-21 -28.5t-14.5 -42t-5.5 -51v-205q0 -14 7 -22.5t15 -12.5q9 -5 21 -6v-3h-129v3q12 1 22 6q8 5 14.5 13t6.5 23zM0 486q0 8 6.5 14.5t15.5 6.5t15 -6.5t6 -16.5q0 -8 -4 -16t-9 -16q-6 -8 -14 -16l-5 5q4 4 5 9q1 4 0 9t-8 10
q-8 6 -8 17z" />
    <glyph glyph-name="Eng" unicode="&#x14a;" horiz-adv-x="545" 
d="M93 732v-678q0 -23 17 -37t40 -14v-3h-129v3q23 0 40 14t17 37v676q0 24 -16.5 40t-40.5 16v2h87l345 -702v291v357q0 23 -17.5 37.5t-40.5 14.5v2h129v-2q-23 0 -40 -14.5t-17 -37.5v-734q0 -21 -4.5 -54t-15 -64.5t-28.5 -54t-44 -22.5v0q-18 0 -34.5 10.5t-29.5 26.5
t-21 33t-8 31q0 11 6 17.5t15 6.5q8 0 14.5 -5t6.5 -13q2 -42 13.5 -67t32.5 -25q26 0 48.5 38t30.5 97q3 18 -1.5 41.5t-15.5 44.5z" />
    <glyph glyph-name="eng" unicode="&#x14b;" horiz-adv-x="301" 
d="M21 0v3q12 1 22 6q8 4 14.5 12.5t6.5 22.5v304q0 15 -6.5 23.5t-14.5 12.5q-10 5 -22 6v2h65q9 0 15 -6t6 -15v-22q11 17 29 31.5t36 14.5q23 0 42.5 -11.5t34 -31.5t23 -46.5t8.5 -56.5v-205v-28q0 -29 -3 -57q-8 -66 -30.5 -110t-58.5 -44q-18 0 -34.5 10.5t-29.5 26
t-21 33t-8 31.5q0 11 6.5 17.5t14.5 6.5q9 0 15 -5t7 -13q2 -42 13.5 -67.5t31.5 -25.5q15 0 25.5 14.5t17 39t9 57.5t2.5 71v248q0 27 -5 51t-14 42t-20.5 28.5t-25.5 10.5q-13 0 -25 -10.5t-21 -28.5t-14 -42t-5 -51v-205q0 -14 7 -22.5t15 -12.5q9 -5 21 -6v-3h-129z" />
    <glyph glyph-name="Omacron" unicode="&#x14c;" 
d="M286 788q55 0 103.5 -31t84.5 -84.5t56.5 -125.5t20.5 -153q0 -82 -20.5 -153.5t-56.5 -125t-84.5 -84.5t-103.5 -31t-103 31t-84 84.5t-57 125t-21 153.5q0 81 21 153t57 125.5t84 84.5t103 31zM286 14q46 0 85.5 30t68 81.5t45 120.5t16.5 148t-16.5 148t-45 120.5
t-68 81.5t-85.5 30t-85 -30t-68 -81.5t-45.5 -120.5t-16.5 -148t16.5 -148t45.5 -120.5t68 -81.5t85 -30zM387 861v-15h-201v15h201z" />
    <glyph glyph-name="omacron" unicode="&#x14d;" horiz-adv-x="291" 
d="M146 395q26 0 48.5 -16t39 -43t26.5 -63t10 -77q0 -40 -10 -76.5t-26.5 -63.5t-39 -43t-48.5 -16t-48.5 16t-39.5 43t-27 63.5t-10 76.5q0 41 10 77t27 63t39.5 43t48.5 16zM146 12q17 0 32 14.5t26 40t17.5 59t6.5 70.5q0 38 -6.5 71.5t-17.5 58.5t-26 39.5t-32 14.5
t-32 -14.5t-26 -39.5t-17.5 -58.5t-6.5 -71.5q0 -37 6.5 -70.5t17.5 -59t26 -40t32 -14.5zM246 450v-15h-201v15h201z" />
    <glyph glyph-name="Obreve" unicode="&#x14e;" 
d="M286 788q55 0 103.5 -31t84.5 -84.5t56.5 -125.5t20.5 -153q0 -82 -20.5 -153.5t-56.5 -125t-84.5 -84.5t-103.5 -31t-103 31t-84 84.5t-57 125t-21 153.5q0 81 21 153t57 125.5t84 84.5t103 31zM286 14q46 0 85.5 30t68 81.5t45 120.5t16.5 148t-16.5 148t-45 120.5
t-68 81.5t-85.5 30t-85 -30t-68 -81.5t-45.5 -120.5t-16.5 -148t16.5 -148t45.5 -120.5t68 -81.5t85 -30zM186 892q29 -15 50 -23t51 -8q29 0 50 8t50 23v-15q-29 -15 -50 -23t-50 -8q-30 0 -51 8t-50 23v15z" />
    <glyph glyph-name="obreve" unicode="&#x14f;" horiz-adv-x="291" 
d="M146 395q26 0 48.5 -16t39 -43t26.5 -63t10 -77q0 -40 -10 -76.5t-26.5 -63.5t-39 -43t-48.5 -16t-48.5 16t-39.5 43t-27 63.5t-10 76.5q0 41 10 77t27 63t39.5 43t48.5 16zM146 12q17 0 32 14.5t26 40t17.5 59t6.5 70.5q0 38 -6.5 71.5t-17.5 58.5t-26 39.5t-32 14.5
t-32 -14.5t-26 -39.5t-17.5 -58.5t-6.5 -71.5q0 -37 6.5 -70.5t17.5 -59t26 -40t32 -14.5zM45 481q29 -15 50 -23t51 -8q29 0 50 8t50 23v-15q-29 -15 -50 -23t-50 -8q-30 0 -51 8t-50 23v15z" />
    <glyph glyph-name="Ohungarumlaut" unicode="&#x150;" 
d="M286 788q55 0 103.5 -31t84.5 -84.5t56.5 -125.5t20.5 -153q0 -82 -20.5 -153.5t-56.5 -125t-84.5 -84.5t-103.5 -31t-103 31t-84 84.5t-57 125t-21 153.5q0 81 21 153t57 125.5t84 84.5t103 31zM286 14q46 0 85.5 30t68 81.5t45 120.5t16.5 148t-16.5 148t-45 120.5
t-68 81.5t-85.5 30t-85 -30t-68 -81.5t-45.5 -120.5t-16.5 -148t16.5 -148t45.5 -120.5t68 -81.5t85 -30zM282 846l61 100h18l-61 -100h-18zM212 846l61 100h17l-60 -100h-18z" />
    <glyph glyph-name="ohungarumlaut" unicode="&#x151;" horiz-adv-x="291" 
d="M146 395q26 0 48.5 -16t39 -43t26.5 -63t10 -77q0 -40 -10 -76.5t-26.5 -63.5t-39 -43t-48.5 -16t-48.5 16t-39.5 43t-27 63.5t-10 76.5q0 41 10 77t27 63t39.5 43t48.5 16zM146 12q17 0 32 14.5t26 40t17.5 59t6.5 70.5q0 38 -6.5 71.5t-17.5 58.5t-26 39.5t-32 14.5
t-32 -14.5t-26 -39.5t-17.5 -58.5t-6.5 -71.5q0 -37 6.5 -70.5t17.5 -59t26 -40t32 -14.5zM169 435l61 100h18l-61 -100h-18zM99 435l61 100h17l-60 -100h-18z" />
    <glyph glyph-name="OE" unicode="&#x152;" horiz-adv-x="838" 
d="M71 394q0 -77 22 -146t60.5 -121t91.5 -82.5t114 -30.5h20q24 0 41 16t17 40v649q0 24 -17 39.5t-40 15.5h-13q-63 0 -117 -30t-93.5 -81.5t-62.5 -121t-23 -147.5zM817 72l-9 -86h-3q0 5 -4 9.5t-10 4.5h-447q-67 0 -126 31t-102.5 84.5t-69 125t-25.5 152.5
q0 82 26 154t71 125.5t105 84.5t128 31h403q14 2 14 15h3l9 -86l-3 -1q-3 26 -24.5 42t-47.5 16h-194q-14 0 -22.5 -9.5t-8.5 -23.5v-340h176q22 0 36 17.5t14 40.5h3v-129h-3q0 23 -14 40t-36 17h-176v-340q0 -14 9.5 -23.5t23.5 -9.5h228q27 0 49 16t24 42h3z" />
    <glyph glyph-name="oe" unicode="&#x153;" horiz-adv-x="471" 
d="M146 12q17 0 32 14.5t26 40t17.5 59t6.5 70.5q0 38 -6.5 71.5t-17.5 58.5t-26 39.5t-32 14.5t-32 -14.5t-26 -39.5t-17.5 -58.5t-6.5 -71.5q0 -37 6.5 -70.5t17.5 -59t26 -40t32 -14.5zM450 94q-17 -45 -39 -71t-56 -26q-33 0 -61 24.5t-45 65.5q-17 -41 -44 -65.5
t-59 -24.5q-26 0 -48.5 16t-39.5 43t-27 63.5t-10 76.5q0 41 10 77t27 63t39.5 42.5t48.5 15.5q32 0 59 -24t44 -64q17 40 43.5 64.5t58.5 24.5q11 0 20 -3t17 -5l8 -3q9 -3 17 -3.5t7 11.5h2l7 -71l-3 -1q-2 26 -25 43t-50 17q-16 0 -29.5 -12.5t-24 -34.5t-17 -51.5
t-8.5 -64.5h98q15 0 23.5 7t12.5 15q5 10 6 22h3v-102h-3q-1 12 -6 22q-4 8 -12.5 15t-23.5 7h-99q0 -38 6 -72.5t17.5 -61t27 -42t33.5 -15.5q25 0 47.5 24.5t33.5 62.5z" />
    <glyph glyph-name="Racute" unicode="&#x154;" horiz-adv-x="472" 
d="M21 785v3h133q41 0 76.5 -14.5t62.5 -39.5t42.5 -58t15.5 -70q0 -32 -12 -61.5t-33.5 -52.5t-51 -39.5t-63.5 -23.5q34 -10 69.5 -32.5t65 -65.5t49 -109.5t19.5 -163.5v-1q-1 -23 16.5 -39t40.5 -16v-2h-79q-9 0 -15.5 6.5t-6.5 15.5v95q0 26 -4 59t-13.5 67t-26 66.5
t-41.5 58t-60.5 41t-82.5 15.5v-369q0 -23 17 -38t40 -15v-2h-158v2q23 0 40 15t17 37v676q0 24 -16.5 39.5t-40.5 15.5zM122 439q40 -2 74 8.5t59 32.5t39 54t14 72q0 35 -10.5 65.5t-30.5 53t-49 36t-65 13.5q-13 0 -22 -9t-9 -21v-305zM258 946h17l-60 -100h-18z" />
    <glyph glyph-name="racute" unicode="&#x155;" horiz-adv-x="227" 
d="M86 392q9 0 15 -6.5t6 -14.5v-22q12 20 32.5 33t44.5 13q9 0 15.5 -6.5t6.5 -15.5t-6 -15t-15 -6q-11 0 -17 8t-4 18q-24 -7 -40.5 -28.5t-16.5 -47.5v-258q0 -14 7 -22.5t15 -12.5q9 -5 21 -6v-3h-129v3q12 1 22 6q8 4 14.5 12.5t6.5 22.5v304q0 15 -6.5 23t-14.5 12
q-10 5 -22 6v3h65zM135 535h17l-60 -100h-18z" />
    <glyph glyph-name="uni0156" unicode="&#x156;" horiz-adv-x="472" 
d="M21 785v3h133q41 0 76.5 -14.5t62.5 -39.5t42.5 -58t15.5 -70q0 -32 -12 -61.5t-33.5 -52.5t-51 -39.5t-63.5 -23.5q34 -10 69.5 -32.5t65 -65.5t49 -109.5t19.5 -163.5v-1q-1 -23 16.5 -39t40.5 -16v-2h-79q-9 0 -15.5 6.5t-6.5 15.5v95q0 26 -4 59t-13.5 67t-26 66.5
t-41.5 58t-60.5 41t-82.5 15.5v-369q0 -23 17 -38t40 -15v-2h-158v2q23 0 40 15t17 37v676q0 24 -16.5 39.5t-40.5 15.5zM122 439q40 -2 74 8.5t59 32.5t39 54t14 72q0 35 -10.5 65.5t-30.5 53t-49 36t-65 13.5q-13 0 -22 -9t-9 -21v-305zM214 -65q0 9 6.5 15t15.5 6
t15.5 -6t6.5 -16q0 -8 -4 -16.5t-9 -16.5q-6 -8 -14 -16l-6 5q4 4 5 9q1 4 0 9t-8 10q-8 6 -8 17z" />
    <glyph glyph-name="uni0157" unicode="&#x157;" horiz-adv-x="227" 
d="M21 0v3q12 1 22 6q8 4 14.5 12.5t6.5 22.5v304q0 15 -6.5 23t-14.5 12q-10 5 -22 6v3h65q9 0 15 -6.5t6 -14.5v-22q12 20 32.5 33t44.5 13q9 0 15.5 -6.5t6.5 -15.5t-6 -15t-15 -6q-11 0 -17 8t-4 18q-24 -7 -40.5 -28.5t-16.5 -47.5v-258q0 -14 7 -22.5t15 -12.5
q9 -5 21 -6v-3h-129zM64 -65q0 9 6.5 15t15.5 6t15 -6t6 -16q0 -8 -4 -16.5t-9 -16.5q-6 -8 -14 -16l-5 5q3 4 5 9q2 10 -8 19q-8 6 -8 17z" />
    <glyph glyph-name="Rcaron" unicode="&#x158;" horiz-adv-x="472" 
d="M21 785v3h133q41 0 76.5 -14.5t62.5 -39.5t42.5 -58t15.5 -70q0 -32 -12 -61.5t-33.5 -52.5t-51 -39.5t-63.5 -23.5q34 -10 69.5 -32.5t65 -65.5t49 -109.5t19.5 -163.5v-1q-1 -23 16.5 -39t40.5 -16v-2h-79q-9 0 -15.5 6.5t-6.5 15.5v95q0 26 -4 59t-13.5 67t-26 66.5
t-41.5 58t-60.5 41t-82.5 15.5v-369q0 -23 17 -38t40 -15v-2h-158v2q23 0 40 15t17 37v676q0 24 -16.5 39.5t-40.5 15.5zM122 439q40 -2 74 8.5t59 32.5t39 54t14 72q0 35 -10.5 65.5t-30.5 53t-49 36t-65 13.5q-13 0 -22 -9t-9 -21v-305zM236 861l100 31v-15l-100 -31
l-101 31v15z" />
    <glyph glyph-name="rcaron" unicode="&#x159;" horiz-adv-x="227" 
d="M86 392q9 0 15 -6.5t6 -14.5v-22q12 20 32.5 33t44.5 13q9 0 15.5 -6.5t6.5 -15.5t-6 -15t-15 -6q-11 0 -17 8t-4 18q-24 -7 -40.5 -28.5t-16.5 -47.5v-258q0 -14 7 -22.5t15 -12.5q9 -5 21 -6v-3h-129v3q12 1 22 6q8 4 14.5 12.5t6.5 22.5v304q0 15 -6.5 23t-14.5 12
q-10 5 -22 6v3h65zM114 450l100 31v-15l-100 -31l-101 31v15z" />
    <glyph glyph-name="Sacute" unicode="&#x15a;" horiz-adv-x="468" 
d="M23 74q38 -37 73 -48t58 -11h70q36 0 67.5 15.5t55 41.5t36.5 60.5t13 72.5q0 39 -14 73t-39 59.5t-58 40.5t-71 16q-43 1 -78.5 17t-61 43t-39.5 62.5t-14 74.5q0 41 16 77t43 62.5t63.5 42t78.5 15.5h78q8 0 12 4.5t4 10.5h3l77 -86l-1 -2q-38 37 -73 48t-58 11h-25
q-46 0 -78 -15t-52 -40t-28.5 -58t-8.5 -69q0 -31 10.5 -64t28.5 -59t43 -43t55 -17h37q42 0 78.5 -16t63.5 -43.5t43 -65t16 -80.5q0 -42 -15.5 -79.5t-42.5 -65t-62 -43.5t-74 -16h-138q-7 0 -10.5 -4.5t-3.5 -9.5h-2l-78 86zM256 946h17l-60 -100h-18z" />
    <glyph glyph-name="sacute" unicode="&#x15b;" horiz-adv-x="220" 
d="M17 72q3 -25 24.5 -42.5t47.5 -17.5q13 0 25 7.5t21.5 19.5t15 28.5t5.5 34.5q0 35 -18 56.5t-48 35.5q-31 15 -51.5 38t-20.5 58q0 21 8 40t21.5 33.5t32 23t39.5 8.5q18 0 34 -7t24 -7t7 11h2l8 -71l-3 -1q-4 25 -25 42.5t-47 17.5t-42 -27t-16 -63q0 -32 12 -55
t41 -32q35 -11 60 -38t25 -63q0 -21 -9 -40t-24.5 -33.5t-35.5 -23t-41 -8.5q-16 0 -32 8t-26 8q-9 0 -8 -13h-2l-7 71zM132 535h17l-60 -100h-18z" />
    <glyph glyph-name="Scircumflex" unicode="&#x15c;" horiz-adv-x="468" 
d="M23 74q38 -37 73 -48t58 -11h70q36 0 67.5 15.5t55 41.5t36.5 60.5t13 72.5q0 39 -14 73t-39 59.5t-58 40.5t-71 16q-43 1 -78.5 17t-61 43t-39.5 62.5t-14 74.5q0 41 16 77t43 62.5t63.5 42t78.5 15.5h78q8 0 12 4.5t4 10.5h3l77 -86l-1 -2q-38 37 -73 48t-58 11h-25
q-46 0 -78 -15t-52 -40t-28.5 -58t-8.5 -69q0 -31 10.5 -64t28.5 -59t43 -43t55 -17h37q42 0 78.5 -16t63.5 -43.5t43 -65t16 -80.5q0 -42 -15.5 -79.5t-42.5 -65t-62 -43.5t-74 -16h-138q-7 0 -10.5 -4.5t-3.5 -9.5h-2l-78 86zM234 877l-101 -31v15l101 31l100 -31v-15z
" />
    <glyph glyph-name="scircumflex" unicode="&#x15d;" horiz-adv-x="220" 
d="M17 72q3 -25 24.5 -42.5t47.5 -17.5q13 0 25 7.5t21.5 19.5t15 28.5t5.5 34.5q0 35 -18 56.5t-48 35.5q-31 15 -51.5 38t-20.5 58q0 21 8 40t21.5 33.5t32 23t39.5 8.5q18 0 34 -7t24 -7t7 11h2l8 -71l-3 -1q-4 25 -25 42.5t-47 17.5t-42 -27t-16 -63q0 -32 12 -55
t41 -32q35 -11 60 -38t25 -63q0 -21 -9 -40t-24.5 -33.5t-35.5 -23t-41 -8.5q-16 0 -32 8t-26 8q-9 0 -8 -13h-2l-7 71zM111 466l-101 -31v15l101 31l100 -31v-15z" />
    <glyph glyph-name="Scedilla" unicode="&#x15e;" horiz-adv-x="461" 
d="M440 204q0 -42 -16.5 -79.5t-44 -65t-63.5 -43.5t-75 -16v0v-15q42 0 66 -22.5t24 -60.5q0 -48 -27.5 -72.5t-77.5 -24.5q-48 0 -75.5 24.5t-27.5 72.5q0 9 2 16t5.5 12t10.5 5q11 0 17.5 -7t6.5 -26q0 -83 61 -83q63 0 63 83q0 35 -17 52t-46 17v29h-118
q-7 0 -10.5 -4.5t-3.5 -9.5h-2l-78 86l2 2q38 -37 73 -48t58 -11h70q36 0 67.5 15.5t55 41.5t36.5 60.5t13 71.5q0 39 -14 73t-39 59.5t-58 41t-71 16.5q-43 1 -78.5 17t-61 43t-39.5 62t-14 74q0 41 16 77t43 63t63.5 42.5t77.5 15.5h79q8 0 12 4.5t4 10.5h3l77 -86l-1 -2
q-38 37 -73.5 48t-58.5 11h-24q-46 0 -78 -15t-52 -40t-28.5 -58.5t-8.5 -69.5q0 -31 10 -63.5t28 -58.5t43.5 -43t55.5 -17h37q42 0 78.5 -16t63.5 -44t43 -65.5t16 -79.5z" />
    <glyph glyph-name="scedilla" unicode="&#x15f;" horiz-adv-x="244" 
d="M198 392l7 -71l-2 -1q-4 25 -25.5 41.5t-47.5 16.5t-42 -26t-16 -62q0 -32 12.5 -55t41.5 -32q35 -11 60 -38t25 -63q0 -35 -23 -61t-56 -36v-20q42 0 66.5 -22.5t24.5 -60.5q0 -48 -28 -72.5t-78 -24.5q-47 0 -75 24.5t-28 72.5v0q0 9 2 16t6 12t11 5q10 0 17 -7t7 -26
q0 -82 60 -82q63 0 63 82q0 35 -16.5 52.5t-46.5 16.5v30q-4 0 -8 -0.5t-8 -0.5q-9 0 -17.5 2.5t-16.5 5.5q-13 4 -23 5t-9 -13h-2l-7 71l2 1q4 -25 25.5 -41.5t47.5 -16.5q13 0 25 7t21.5 19t15 28t5.5 34q0 35 -18.5 56t-48.5 36q-32 12 -51.5 36.5t-19.5 59.5
q0 21 8 39.5t21.5 32.5t31.5 22t39 8q11 0 21 -2.5t18 -5.5q11 -4 19.5 -3.5t7.5 11.5h2z" />
    <glyph glyph-name="Scaron" unicode="&#x160;" horiz-adv-x="468" 
d="M23 74q38 -37 73 -48t58 -11h70q36 0 67.5 15.5t55 41.5t36.5 60.5t13 72.5q0 39 -14 73t-39 59.5t-58 40.5t-71 16q-43 1 -78.5 17t-61 43t-39.5 62.5t-14 74.5q0 41 16 77t43 62.5t63.5 42t78.5 15.5h78q8 0 12 4.5t4 10.5h3l77 -86l-1 -2q-38 37 -73 48t-58 11h-25
q-46 0 -78 -15t-52 -40t-28.5 -58t-8.5 -69q0 -31 10.5 -64t28.5 -59t43 -43t55 -17h37q42 0 78.5 -16t63.5 -43.5t43 -65t16 -80.5q0 -42 -15.5 -79.5t-42.5 -65t-62 -43.5t-74 -16h-138q-7 0 -10.5 -4.5t-3.5 -9.5h-2l-78 86zM234 861l100 31v-15l-100 -31l-101 31v15z
" />
    <glyph glyph-name="scaron" unicode="&#x161;" horiz-adv-x="220" 
d="M17 72q3 -25 24.5 -42.5t47.5 -17.5q13 0 25 7.5t21.5 19.5t15 28.5t5.5 34.5q0 35 -18 56.5t-48 35.5q-31 15 -51.5 38t-20.5 58q0 21 8 40t21.5 33.5t32 23t39.5 8.5q18 0 34 -7t24 -7t7 11h2l8 -71l-3 -1q-4 25 -25 42.5t-47 17.5t-42 -27t-16 -63q0 -32 12 -55
t41 -32q35 -11 60 -38t25 -63q0 -21 -9 -40t-24.5 -33.5t-35.5 -23t-41 -8.5q-16 0 -32 8t-26 8q-9 0 -8 -13h-2l-7 71zM119 450l100 31v-15l-100 -31l-101 31v15z" />
    <glyph glyph-name="uni0162" unicode="&#x162;" horiz-adv-x="543" 
d="M266 -195q-48 0 -76 24.5t-28 72.5q0 9 2 16t6 12t11 5q11 0 17.5 -7t6.5 -26q0 -82 61 -82q63 0 63 82q0 35 -17 52.5t-46 16.5v29h-73v3q23 0 40.5 17t17.5 38v683q0 14 -9.5 23.5t-23.5 9.5h-121q-27 0 -47 -16.5t-26 -41.5l-3 1l9 86h3q0 -14 14 -14h450q14 0 14 14
h2l9 -86l-2 -1q-6 25 -26.5 41.5t-46.5 16.5h-120q-14 0 -23.5 -9.5t-9.5 -23.5v-683q0 -23 17 -39t40 -16v-3h-70v-15q42 0 66 -22.5t24 -60.5q0 -48 -27.5 -72.5t-77.5 -24.5v0z" />
    <glyph glyph-name="uni0163" unicode="&#x163;" horiz-adv-x="242" 
d="M107 470v-78h114v-15h-114v-333q0 -14 7 -22.5t15 -13.5q9 -5 21 -6v-2h-43v-15q42 0 66.5 -22.5t24.5 -60.5q0 -48 -27.5 -72.5t-77.5 -24.5h-1q-47 0 -75 24.5t-28 72.5v0q0 9 2 16t5.5 12t11.5 5q10 0 17 -7t7 -26q0 -82 60 -82q63 0 63 82q0 35 -16.5 52.5
t-46.5 16.5v29h-6q-9 0 -15.5 6.5t-6.5 14.5v356h-43v15q32 0 49 12.5t25 26.5q9 17 10 39h2z" />
    <glyph glyph-name="Tcaron" unicode="&#x164;" horiz-adv-x="543" 
d="M30 803h3q0 -14 14 -14h450q14 0 14 14h2l10 -86l-3 -1q-6 25 -26 41.5t-47 16.5h-120q-14 0 -23.5 -9.5t-9.5 -23.5v-683q0 -23 17 -39t40 -16v-3h-158v3q23 0 40.5 17t17.5 38v683q0 14 -9.5 23.5t-23.5 9.5h-121q-27 0 -47 -16.5t-26 -41.5l-3 1zM272 861l100 31v-15
l-100 -31l-101 31v15z" />
    <glyph glyph-name="tcaron" unicode="&#x165;" horiz-adv-x="242" 
d="M21 392q32 0 49 12.5t25 26.5q9 17 10 39h2v-78h114v-15h-114v-333q0 -14 7 -22.5t15 -12.5q9 -5 21 -6v-3h-64q-9 0 -15.5 6.5t-6.5 14.5v356h-43v15zM175 470q0 8 6.5 14.5t15.5 6.5t15 -6.5t6 -16.5q0 -8 -4 -16t-9 -16q-6 -8 -14 -16l-5 5q4 4 5 9q1 4 0 9t-8 10
q-8 6 -8 17z" />
    <glyph glyph-name="Tbar" unicode="&#x166;" horiz-adv-x="543" 
d="M513 803l9 -86l-2 -1q-6 25 -26.5 41.5t-46.5 16.5h-120q-14 0 -23.5 -9.5t-9.5 -23.5v-153h78v-15h-78v-515q0 -23 17 -39t40 -16v-3h-158v3q23 0 40.5 17t17.5 38v515h-80v15h80v153q0 14 -9.5 23.5t-23.5 9.5h-121q-27 0 -47 -16.5t-26 -41.5l-3 1l9 86h3
q0 -14 14 -14h450q14 0 14 14h2z" />
    <glyph glyph-name="tbar" unicode="&#x167;" horiz-adv-x="243" 
d="M151 0h-65q-9 0 -15 6.5t-6 14.5v169h-44v15h44v172h-43v15q32 0 49 12.5t25 26.5q9 17 9 39h3v-78h114v-15h-114v-172h114v-15h-114v-146q0 -14 7 -22.5t15 -13.5q9 -5 21 -6v-2z" />
    <glyph glyph-name="Utilde" unicode="&#x168;" horiz-adv-x="558" 
d="M21 788h158v-3q-24 0 -40.5 -15.5t-16.5 -39.5v-522q0 -40 13.5 -75.5t37 -61.5t54.5 -41.5t66 -15.5q36 0 67 15.5t54.5 41.5t37 61.5t13.5 75.5v526q0 23 -17 37t-40 14v3h129v-3q-23 0 -40 -14t-17 -37v-534q0 -41 -16 -77.5t-43 -63.5t-63.5 -43t-78.5 -16t-78.5 16
t-63.5 43t-43 63.5t-16 77.5v531q0 23 -16.5 38.5t-40.5 15.5v3zM400 891q-9 -18 -23 -28t-31 -14t-35.5 -2.5t-36.5 6.5q-14 4 -29 9.5t-29.5 7t-27 -3t-22.5 -20.5l-9 8q9 18 23 28.5t31 15t35.5 3.5t36.5 -6q14 -4 29 -10t29.5 -8t27 2t22.5 20z" />
    <glyph glyph-name="utilde" unicode="&#x169;" horiz-adv-x="344" 
d="M21 390v2h65q9 0 15 -6.5t6 -14.5v-228q0 -27 5 -51t14 -42t21 -28.5t25 -10.5q26 0 45.5 29.5t19.5 102.5v205q0 15 -6.5 23t-14.5 13q-10 5 -22 6v2h129v-2q-12 -1 -21 -6q-8 -5 -15 -13t-7 -23v-303q0 -15 7 -23t15 -13q9 -5 21 -6v-3h-64q-9 0 -15.5 6.5t-6.5 15.5
v24q-10 -21 -26 -35t-39 -14q-22 0 -42 11.5t-34.5 31.5t-23 46.5t-8.5 56.5v205q0 15 -6.5 23t-14.5 13q-10 5 -22 6zM293 480q-9 -18 -23 -28t-31 -14t-35.5 -2.5t-36.5 6.5q-14 4 -29 9.5t-29.5 7t-27 -3t-22.5 -20.5l-9 8q9 18 23 28.5t31 15t35.5 3.5t36.5 -6
q14 -4 29 -10t29.5 -8t27 2t22.5 20z" />
    <glyph glyph-name="Umacron" unicode="&#x16a;" horiz-adv-x="558" 
d="M21 788h158v-3q-24 0 -40.5 -15.5t-16.5 -39.5v-522q0 -40 13.5 -75.5t37 -61.5t54.5 -41.5t66 -15.5q36 0 67 15.5t54.5 41.5t37 61.5t13.5 75.5v526q0 23 -17 37t-40 14v3h129v-3q-23 0 -40 -14t-17 -37v-534q0 -41 -16 -77.5t-43 -63.5t-63.5 -43t-78.5 -16t-78.5 16
t-63.5 43t-43 63.5t-16 77.5v531q0 23 -16.5 38.5t-40.5 15.5v3zM379 861v-15h-201v15h201z" />
    <glyph glyph-name="umacron" unicode="&#x16b;" horiz-adv-x="344" 
d="M21 390v2h65q9 0 15 -6.5t6 -14.5v-228q0 -27 5 -51t14 -42t21 -28.5t25 -10.5q26 0 45.5 29.5t19.5 102.5v205q0 15 -6.5 23t-14.5 13q-10 5 -22 6v2h129v-2q-12 -1 -21 -6q-8 -5 -15 -13t-7 -23v-303q0 -15 7 -23t15 -13q9 -5 21 -6v-3h-64q-9 0 -15.5 6.5t-6.5 15.5
v24q-10 -21 -26 -35t-39 -14q-22 0 -42 11.5t-34.5 31.5t-23 46.5t-8.5 56.5v205q0 15 -6.5 23t-14.5 13q-10 5 -22 6zM273 450v-15h-201v15h201z" />
    <glyph glyph-name="Ubreve" unicode="&#x16c;" horiz-adv-x="558" 
d="M21 788h158v-3q-24 0 -40.5 -15.5t-16.5 -39.5v-522q0 -40 13.5 -75.5t37 -61.5t54.5 -41.5t66 -15.5q36 0 67 15.5t54.5 41.5t37 61.5t13.5 75.5v526q0 23 -17 37t-40 14v3h129v-3q-23 0 -40 -14t-17 -37v-534q0 -41 -16 -77.5t-43 -63.5t-63.5 -43t-78.5 -16t-78.5 16
t-63.5 43t-43 63.5t-16 77.5v531q0 23 -16.5 38.5t-40.5 15.5v3zM178 892q29 -15 50 -23t51 -8q29 0 50 8t50 23v-15q-29 -15 -50 -23t-50 -8q-30 0 -51 8t-50 23v15z" />
    <glyph glyph-name="ubreve" unicode="&#x16d;" horiz-adv-x="344" 
d="M21 390v2h65q9 0 15 -6.5t6 -14.5v-228q0 -27 5 -51t14 -42t21 -28.5t25 -10.5q26 0 45.5 29.5t19.5 102.5v205q0 15 -6.5 23t-14.5 13q-10 5 -22 6v2h129v-2q-12 -1 -21 -6q-8 -5 -15 -13t-7 -23v-303q0 -15 7 -23t15 -13q9 -5 21 -6v-3h-64q-9 0 -15.5 6.5t-6.5 15.5
v24q-10 -21 -26 -35t-39 -14q-22 0 -42 11.5t-34.5 31.5t-23 46.5t-8.5 56.5v205q0 15 -6.5 23t-14.5 13q-10 5 -22 6zM72 481q29 -15 50 -23t51 -8q29 0 50 8t50 23v-15q-29 -15 -50 -23t-50 -8q-30 0 -51 8t-50 23v15z" />
    <glyph glyph-name="Uring" unicode="&#x16e;" horiz-adv-x="558" 
d="M21 788h158v-3q-24 0 -40.5 -15.5t-16.5 -39.5v-522q0 -40 13.5 -75.5t37 -61.5t54.5 -41.5t66 -15.5q36 0 67 15.5t54.5 41.5t37 61.5t13.5 75.5v526q0 23 -17 37t-40 14v3h129v-3q-23 0 -40 -14t-17 -37v-534q0 -41 -16 -77.5t-43 -63.5t-63.5 -43t-78.5 -16t-78.5 16
t-63.5 43t-43 63.5t-16 77.5v531q0 23 -16.5 38.5t-40.5 15.5v3zM279 861q14 0 24.5 10.5t10.5 24.5t-10.5 24.5t-24.5 10.5t-24.5 -10.5t-10.5 -24.5q0 -15 10.5 -25t24.5 -10zM279 945q20 0 35 -14.5t15 -34.5t-15 -35t-35 -15q-21 0 -35.5 14.5t-14.5 35.5
q0 20 14.5 34.5t35.5 14.5z" />
    <glyph glyph-name="uring" unicode="&#x16f;" horiz-adv-x="344" 
d="M21 390v2h65q9 0 15 -6.5t6 -14.5v-228q0 -27 5 -51t14 -42t21 -28.5t25 -10.5q26 0 45.5 29.5t19.5 102.5v205q0 15 -6.5 23t-14.5 13q-10 5 -22 6v2h129v-2q-12 -1 -21 -6q-8 -5 -15 -13t-7 -23v-303q0 -15 7 -23t15 -13q9 -5 21 -6v-3h-64q-9 0 -15.5 6.5t-6.5 15.5
v24q-10 -21 -26 -35t-39 -14q-22 0 -42 11.5t-34.5 31.5t-23 46.5t-8.5 56.5v205q0 15 -6.5 23t-14.5 13q-10 5 -22 6zM172 450q14 0 24.5 10.5t10.5 24.5t-10.5 24.5t-24.5 10.5t-24.5 -10.5t-10.5 -24.5q0 -15 10.5 -25t24.5 -10zM172 534q20 0 35 -14.5t15 -34.5t-15 -35
t-35 -15q-21 0 -35.5 14.5t-14.5 35.5q0 20 14.5 34.5t35.5 14.5z" />
    <glyph glyph-name="Uhungarumlaut" unicode="&#x170;" horiz-adv-x="558" 
d="M21 788h158v-3q-24 0 -40.5 -15.5t-16.5 -39.5v-522q0 -40 13.5 -75.5t37 -61.5t54.5 -41.5t66 -15.5q36 0 67 15.5t54.5 41.5t37 61.5t13.5 75.5v526q0 23 -17 37t-40 14v3h129v-3q-23 0 -40 -14t-17 -37v-534q0 -41 -16 -77.5t-43 -63.5t-63.5 -43t-78.5 -16t-78.5 16
t-63.5 43t-43 63.5t-16 77.5v531q0 23 -16.5 38.5t-40.5 15.5v3zM313 846l61 100h18l-61 -100h-18zM243 846l61 100h17l-60 -100h-18z" />
    <glyph glyph-name="uhungarumlaut" unicode="&#x171;" horiz-adv-x="344" 
d="M21 390v2h65q9 0 15 -6.5t6 -14.5v-228q0 -27 5 -51t14 -42t21 -28.5t25 -10.5q26 0 45.5 29.5t19.5 102.5v205q0 15 -6.5 23t-14.5 13q-10 5 -22 6v2h129v-2q-12 -1 -21 -6q-8 -5 -15 -13t-7 -23v-303q0 -15 7 -23t15 -13q9 -5 21 -6v-3h-64q-9 0 -15.5 6.5t-6.5 15.5
v24q-10 -21 -26 -35t-39 -14q-22 0 -42 11.5t-34.5 31.5t-23 46.5t-8.5 56.5v205q0 15 -6.5 23t-14.5 13q-10 5 -22 6zM191 435l61 100h18l-61 -100h-18zM121 435l61 100h17l-60 -100h-18z" />
    <glyph glyph-name="Uogonek" unicode="&#x172;" horiz-adv-x="558" 
d="M21 788h158v-3q-24 0 -40.5 -15.5t-16.5 -39.5v-523q0 -36 12 -71t34.5 -62t54 -43.5t70.5 -16.5q36 0 67 15.5t54.5 41.5t37 61t13.5 75v527q0 23 -17 37t-40 14v3h129v-3q-23 0 -40 -14t-17 -37v-534q0 -41 -16 -77.5t-43 -63.5t-63.5 -43t-78.5 -16h-5
q-27 0 -42.5 -25t-15.5 -59q0 -42 15.5 -69.5t47.5 -27.5q29 0 44.5 27.5t15.5 69.5q0 19 7 26t17 7q8 0 11.5 -5t5.5 -12t2 -16q0 -48 -28 -79.5t-75 -31.5q-51 0 -78.5 31.5t-27.5 79.5q0 30 15.5 54t43.5 35q-33 8 -61 26.5t-49 44t-32.5 57.5t-11.5 67v530
q0 24 -16.5 39.5t-40.5 15.5v3z" />
    <glyph glyph-name="uogonek" unicode="&#x173;" horiz-adv-x="344" 
d="M280 -195q-50 0 -77.5 31.5t-27.5 79.5q0 32 17.5 57t48.5 36q-4 6 -4 12v25q-10 -21 -26 -35t-39 -14q-22 0 -42 11.5t-34.5 31.5t-23 46.5t-8.5 56.5v205q0 15 -6.5 23t-14.5 13q-10 5 -22 6v2h65q9 0 15 -6.5t6 -14.5v-228q0 -27 5 -51t14 -42t21 -28.5t25 -10.5
q26 0 45.5 29.5t19.5 102.5v205q0 15 -6.5 23t-14.5 13q-10 5 -22 6v2h129v-2q-12 -1 -21 -6q-8 -5 -15 -13t-7 -23v-303q0 -15 7 -23t15 -13q9 -5 21 -6v-3h-43q-30 0 -46.5 -24.5t-16.5 -59.5q0 -42 15.5 -69.5t47.5 -27.5q29 0 45 27.5t16 69.5q0 19 6.5 26t17.5 7
q7 0 10.5 -5t5.5 -12t2 -16q0 -48 -27.5 -79.5t-75.5 -31.5v0z" />
    <glyph glyph-name="Wcircumflex" unicode="&#x174;" horiz-adv-x="766" 
d="M21 786v2h143v-2q-11 -1 -19 -6q-7 -4 -11.5 -11.5t-1.5 -21.5l168 -640l83 314l-82 310q-1 2 -5 11t-12.5 19t-21.5 17.5t-33 7.5v2h143v-2q-11 -1 -19 -6q-7 -4 -11.5 -11.5t-1.5 -21.5l64 -245l64 242q4 13 -0.5 21t-12.5 13t-19 8v2h115v-2q-19 0 -32.5 -7.5
t-22 -16.5t-12.5 -18t-5 -12l-67 -257l96 -368l161 609q5 20 14 36q9 14 24 25t38 11v-72l-3 1q0 11 -8 19t-19 8q-12 0 -20.5 -8.5t-11.5 -19.5l-162 -614q-2 -8 -2.5 -15t-0.5 -13l2 -12l16 -62h-56q4 15 5 23t-1 16l-94 355l-77 -292q-2 -8 -2.5 -15t-0.5 -13l2 -12
l16 -62h-56q1 1 1 4q3 9 4.5 16.5t-1.5 18.5l-183 692q-1 2 -5 11t-12.5 19t-21.5 17.5t-33 7.5zM405 877l-101 -31v15l101 31l100 -31v-15z" />
    <glyph glyph-name="wcircumflex" unicode="&#x175;" horiz-adv-x="484" 
d="M21 389v3h129v-3q-11 -1 -19 -6q-7 -4 -11.5 -11t-1.5 -21l64 -244l48 182q6 20 2 38t-10 38l-8 27h57q-3 -12 -4 -21.5t1 -21.5q9 -49 22 -96.5t27 -95.5l14 -50l57 215q8 27 27 48.5t48 21.5v-71h-3q0 11 -8 19t-19 8t-19.5 -8t-11.5 -19l-59 -226q-5 -17 -0.5 -36
t10.5 -37l7 -22h-57q5 16 5 24.5t-2 17.5l-64 242l-49 -189q-2 -5 -2 -13t2 -16l17 -66h-57q5 17 5.5 24.5t-1.5 17.5l-78 293q-6 23 -19 38.5t-39 15.5zM242 466l-101 -31v15l101 31l100 -31v-15z" />
    <glyph glyph-name="Ycircumflex" unicode="&#x176;" horiz-adv-x="558" 
d="M21 786v2h143v-2q-11 -1 -19 -6q-7 -4 -11.5 -11.5t-1.5 -21.5l168 -640l161 609q5 20 14 36q9 14 24 25t38 11v-72h-3q0 12 -8 20t-19 8q-12 0 -20.5 -8.5t-11.5 -19.5l-186 -707q-4 -14 -10 -28.5t-14 -26t-19.5 -19t-25.5 -7.5q-13 0 -20 6.5t-7 15.5q0 8 6.5 14.5
t14.5 6.5q11 0 17 -7.5t5 -17.5q8 5 15 13.5t12 18.5q6 11 11.5 28.5t1.5 32.5l-183 692q-1 2 -4.5 11t-12 19t-22 17.5t-33.5 7.5zM302 877l-101 -31v15l101 31l100 -31v-15z" />
    <glyph glyph-name="ycircumflex" unicode="&#x177;" horiz-adv-x="333" 
d="M149 392v-2q-12 -1 -20 -6q-7 -4 -11.5 -11.5t-0.5 -21.5l64 -243l56 214q7 27 26 48.5t50 21.5v-71h-3q0 11 -8.5 19.5t-19.5 8.5t-19.5 -8.5t-11.5 -19.5l-84 -321q-4 -14 -10.5 -30t-15.5 -29.5t-21.5 -23t-29.5 -9.5q-9 0 -15.5 6t-6.5 15t6.5 15.5t15.5 6.5
q11 0 16.5 -7.5t4.5 -18.5q9 5 18.5 19.5t16.5 32t10 35.5t0 30l-78 293q-6 22 -19 38.5t-38 16.5v2h128zM181 466l-101 -31v15l101 31l100 -31v-15z" />
    <glyph glyph-name="Ydieresis" unicode="&#x178;" horiz-adv-x="558" 
d="M21 786v2h143v-2q-11 -1 -19 -6q-7 -4 -11.5 -11.5t-1.5 -21.5l168 -640l161 609q5 20 14 36q9 14 24 25t38 11v-72h-3q0 12 -8 20t-19 8q-12 0 -20.5 -8.5t-11.5 -19.5l-186 -707q-4 -14 -10 -28.5t-14 -26t-19.5 -19t-25.5 -7.5q-13 0 -20 6.5t-7 15.5q0 8 6.5 14.5
t14.5 6.5q11 0 17 -7.5t5 -17.5q8 5 15 13.5t12 18.5q6 11 11.5 28.5t1.5 32.5l-183 692q-1 2 -4.5 11t-12 19t-22 17.5t-33.5 7.5zM345 889q9 0 15.5 -6.5t6.5 -14.5q0 -9 -6.5 -15.5t-15.5 -6.5t-15 6.5t-6 14.5q0 9 6 15.5t15 6.5zM237 867q0 9 6.5 15.5t15.5 6.5
q8 0 14.5 -6.5t6.5 -14.5q0 -9 -6.5 -15.5t-14.5 -6.5q-9 0 -15.5 6.5t-6.5 14.5z" />
    <glyph glyph-name="Zacute" unicode="&#x179;" 
d="M21 0v3q19 0 33.5 7t25 16t16.5 17.5t8 12.5l322 690q5 9 -1 18.5t-17 9.5h-297q-27 0 -48.5 -16t-24.5 -42l-3 1l9 86h3q0 -6 4 -10.5t10 -4.5h490v-2q-23 0 -38.5 -8.5t-25.5 -18.5q-12 -13 -20 -28l-322 -690q-4 -8 2 -17.5t16 -9.5h313q26 0 48 16t24 42h3l-9 -86h-3
q0 5 -4 9.5t-10 4.5h-504zM308 946h17l-60 -100h-18z" />
    <glyph glyph-name="zacute" unicode="&#x17a;" horiz-adv-x="356" 
d="M21 0v3q15 0 27.5 7t21 16.5t14 18.5t6.5 12l136 293q5 10 -0.5 19t-16.5 9h-99q-26 0 -47.5 -16.5t-24.5 -41.5l-3 1l9 85h3q-1 -5 3.5 -9.5t10.5 -4.5h274v-2q-14 0 -25 -5.5t-19.5 -13.5t-14 -16.5t-8.5 -14.5l-138 -298q-5 -10 0.5 -19t16.5 -9h113q26 0 47.5 16
t24.5 42l3 -1l-10 -85h-2q0 14 -14 14h-288zM200 535h17l-60 -100h-18z" />
    <glyph glyph-name="Zdotaccent" unicode="&#x17b;" 
d="M21 0v3q19 0 33.5 7t25 16t16.5 17.5t8 12.5l322 690q5 9 -1 18.5t-17 9.5h-297q-27 0 -48.5 -16t-24.5 -42l-3 1l9 86h3q0 -6 4 -10.5t10 -4.5h490v-2q-23 0 -38.5 -8.5t-25.5 -18.5q-12 -13 -20 -28l-322 -690q-4 -8 2 -17.5t16 -9.5h313q26 0 48 16t24 42h3l-9 -86h-3
q0 5 -4 9.5t-10 4.5h-504zM264 867q0 9 6.5 15.5t15.5 6.5q8 0 14.5 -6.5t6.5 -14.5q0 -9 -6.5 -15.5t-14.5 -6.5q-9 0 -15.5 6.5t-6.5 14.5z" />
    <glyph glyph-name="zdotaccent" unicode="&#x17c;" horiz-adv-x="356" 
d="M21 0v3q15 0 27.5 7t21 16.5t14 18.5t6.5 12l136 293q5 10 -0.5 19t-16.5 9h-99q-26 0 -47.5 -16.5t-24.5 -41.5l-3 1l9 85h3q-1 -5 3.5 -9.5t10.5 -4.5h274v-2q-14 0 -25 -5.5t-19.5 -13.5t-14 -16.5t-8.5 -14.5l-138 -298q-5 -10 0.5 -19t16.5 -9h113q26 0 47.5 16
t24.5 42l3 -1l-10 -85h-2q0 14 -14 14h-288zM156 456q0 9 6.5 15.5t15.5 6.5q8 0 14.5 -6.5t6.5 -14.5q0 -9 -6.5 -15.5t-14.5 -6.5q-9 0 -15.5 6.5t-6.5 14.5z" />
    <glyph glyph-name="Zcaron" unicode="&#x17d;" 
d="M21 0v3q19 0 33.5 7t25 16t16.5 17.5t8 12.5l322 690q5 9 -1 18.5t-17 9.5h-297q-27 0 -48.5 -16t-24.5 -42l-3 1l9 86h3q0 -6 4 -10.5t10 -4.5h490v-2q-23 0 -38.5 -8.5t-25.5 -18.5q-12 -13 -20 -28l-322 -690q-4 -8 2 -17.5t16 -9.5h313q26 0 48 16t24 42h3l-9 -86h-3
q0 5 -4 9.5t-10 4.5h-504zM286 861l100 31v-15l-100 -31l-101 31v15z" />
    <glyph glyph-name="zcaron" unicode="&#x17e;" horiz-adv-x="356" 
d="M21 0v3q15 0 27.5 7t21 16.5t14 18.5t6.5 12l136 293q5 10 -0.5 19t-16.5 9h-99q-26 0 -47.5 -16.5t-24.5 -41.5l-3 1l9 85h3q-1 -5 3.5 -9.5t10.5 -4.5h274v-2q-14 0 -25 -5.5t-19.5 -13.5t-14 -16.5t-8.5 -14.5l-138 -298q-5 -10 0.5 -19t16.5 -9h113q26 0 47.5 16
t24.5 42l3 -1l-10 -85h-2q0 14 -14 14h-288zM178 450l100 31v-15l-100 -31l-101 31v15z" />
    <glyph glyph-name="longs" unicode="&#x17f;" horiz-adv-x="172" 
d="M21 377v15q40 0 46 42q5 33 14.5 61t23.5 49t30.5 32.5t34.5 11.5t37 -10.5t35.5 -26.5t27 -33t10.5 -31q0 -11 -6.5 -17.5t-15.5 -6.5q-8 0 -14.5 5t-6.5 13q0 21 -6 38t-15 29t-20 18.5t-22 6.5q-15 0 -27.5 -14t-21 -39t-13.5 -57.5t-5 -70.5v-347q0 -19 13 -30.5
t31 -11.5v-3h-130v3q12 1 22 6q8 4 14.5 12.5t6.5 22.5v333h-43z" />
    <glyph glyph-name="florin" unicode="&#x192;" horiz-adv-x="400" 
d="M21 -94q0 11 6.5 17.5t15.5 6.5q8 0 14 -5t7 -13q2 -42 13.5 -67.5t31.5 -25.5q15 0 25.5 14.5t17 39t9 57.5t2.5 71v376h-43v15q40 0 46 42v-1q4 33 13.5 61.5t23.5 49.5t31 32.5t35 11.5t37 -10.5t35.5 -26.5t27 -33t10.5 -31q0 -11 -6.5 -17.5t-15.5 -6.5
q-8 0 -14.5 5t-6.5 13q-1 21 -7 38t-15 29t-19.5 18.5t-21.5 6.5q-15 0 -27.5 -14t-21 -39t-13.5 -57.5t-5 -70.5h114v-15h-114v-361q0 -14 -0.5 -28.5t-1.5 -28.5q-8 -66 -31 -110t-59 -44q-18 0 -34.5 10.5t-29.5 26t-21 33t-8 31.5z" />
    <glyph glyph-name="circumflex" unicode="&#x2c6;" horiz-adv-x="243" 
d="M122 466l-101 -31v15l101 31l100 -31v-15z" />
    <glyph glyph-name="caron" unicode="&#x2c7;" horiz-adv-x="243" 
d="M122 450l100 31v-15l-100 -31l-101 31v15z" />
    <glyph glyph-name="breve" unicode="&#x2d8;" horiz-adv-x="243" 
d="M21 481q29 -15 50 -23t51 -8q29 0 50 8t50 23v-15q-29 -15 -50 -23t-50 -8q-30 0 -51 8t-50 23v15z" />
    <glyph glyph-name="dotaccent" unicode="&#x2d9;" horiz-adv-x="85" 
d="M21 456q0 9 6.5 15.5t15.5 6.5q8 0 14.5 -6.5t6.5 -14.5q0 -9 -6.5 -15.5t-14.5 -6.5q-9 0 -15.5 6.5t-6.5 14.5z" />
    <glyph glyph-name="ring" unicode="&#x2da;" horiz-adv-x="142" 
d="M71 450q14 0 24.5 10.5t10.5 24.5t-10.5 24.5t-24.5 10.5t-24.5 -10.5t-10.5 -24.5q0 -15 10.5 -25t24.5 -10zM71 534q20 0 35 -14.5t15 -34.5t-15 -35t-35 -15q-21 0 -35.5 14.5t-14.5 35.5q0 20 14.5 34.5t35.5 14.5z" />
    <glyph glyph-name="ogonek" unicode="&#x2db;" horiz-adv-x="251" 
d="M126 15v-15q-29 0 -45.5 -24.5t-16.5 -59.5q0 -42 15 -69.5t47 -27.5q29 0 45 27.5t16 69.5q0 19 6.5 26t17.5 7q8 0 11.5 -5t5.5 -12t2 -16q0 -48 -28 -79.5t-76 -31.5q-50 0 -77.5 31.5t-27.5 79.5q0 42 28.5 70.5t76.5 28.5z" />
    <glyph glyph-name="tilde" unicode="&#x2dc;" horiz-adv-x="285" 
d="M264 480q-9 -18 -23 -28t-31 -14t-35.5 -2.5t-36.5 6.5q-14 4 -29 9.5t-29.5 7t-27 -3t-22.5 -20.5l-9 8q9 18 23 28.5t31 15t35.5 3.5t36.5 -6q14 -4 29 -10t29.5 -8t27 2t22.5 20z" />
    <glyph glyph-name="hungarumlaut" unicode="&#x2dd;" horiz-adv-x="191" 
d="M91 435l61 100h18l-61 -100h-18zM21 435l61 100h17l-60 -100h-18z" />
    <glyph glyph-name="uni03BC" unicode="&#x3bc;" horiz-adv-x="344" 
d="M21 392h65q9 0 15 -6.5t6 -14.5v-233q0 -26 5.5 -49t14.5 -40.5t20.5 -27.5t24.5 -10q26 0 45.5 29.5t19.5 102.5v205q0 15 -6.5 23t-14.5 13q-10 5 -22 6v2h129v-2q-12 -1 -21 -6q-8 -5 -15 -13t-7 -23v-303q0 -15 7 -23t15 -13q9 -5 21 -6v-3h-64q-9 0 -15.5 6.5
t-6.5 14.5v25q-10 -21 -26 -35t-39 -14q-19 0 -35 13t-30 33v-194q0 -15 7 -23t15 -13q10 -5 22 -6v-2h-130v2q12 1 22 6q8 4 14.5 11.5t6.5 21.5v297v205q0 15 -6.5 23t-14.5 13q-10 5 -22 6v2z" />
    <glyph glyph-name="uni0401" unicode="&#x401;" horiz-adv-x="479" 
d="M21 0v3q24 0 40.5 16t16.5 39v672q0 25 -16.5 40.5t-40.5 15.5v2h165v-14h-33q-14 0 -22.5 -9.5t-8.5 -23.5v-342h175q23 0 37 17t14 40h3v-128h-3q0 23 -14 40t-37 17h-175v-338q0 -14 9.5 -23.5t23.5 -9.5h228q26 0 47.5 16.5t25.5 41.5h3l-10 -86h-2q0 5 -4 9.5
t-10 4.5h-412zM316 788h80q14 2 14 15h2l10 -86l-3 -1q-3 26 -25 42t-48 16h-30v14zM201 781q0 9 6 15.5t15 6.5t15.5 -6.5t6.5 -15.5q0 -8 -6.5 -14.5t-15.5 -6.5t-15 6t-6 15zM258 781q0 9 6.5 15.5t15.5 6.5q8 0 14.5 -6.5t6.5 -15.5q0 -8 -6.5 -14.5t-14.5 -6.5
q-9 0 -15.5 6t-6.5 15z" />
    <glyph glyph-name="uni0402" unicode="&#x402;" horiz-adv-x="543" 
d="M327 774q-14 0 -23.5 -9.5t-9.5 -23.5v-358q56 20 96.5 12t67 -35.5t39 -70t12.5 -93.5q0 -40 -10 -76.5t-26.5 -63.5t-39 -43t-48.5 -16q-17 0 -32 8t-28 19l10 12q11 -11 25 -17.5t24 -6.5q18 0 33 14.5t26 40t17 59t6 70.5q0 58 -12.5 93.5t-32 54t-41.5 25.5
q-38 13 -86 0v-325q0 -14 7 -22.5t15 -13.5q9 -5 21 -6v-2h-129v2q12 1 22 6q8 5 14.5 13.5t6.5 22.5v697q0 14 -9.5 23.5t-23.5 9.5h-121q-27 0 -48 -16.5t-25 -41.5l-3 1l9 86h3q0 -6 4 -10.5t10 -4.5h450q6 0 10 4.5t4 10.5h2l9 -86l-2 -1q-4 25 -25.5 41.5t-47.5 16.5
h-120z" />
    <glyph glyph-name="uni0403" unicode="&#x403;" horiz-adv-x="443" 
d="M79 58l-1 673q0 24 -16.5 39.5t-40.5 15.5v3h376q5 -1 9.5 4t4.5 10h2l10 -86l-3 -1q-3 26 -25 42t-48 16h-192q-14 0 -23.5 -9.5t-9.5 -23.5v-683q0 -24 16.5 -39.5t40.5 -15.5v-3h-158v3q26 0 42 15t16 40zM244 946h17l-60 -100h-18z" />
    <glyph glyph-name="uni0404" unicode="&#x404;" horiz-adv-x="565" 
d="M445 803l76 -85l-1 -2q-36 38 -72 48t-59 10h-12q-62 0 -117 -28.5t-96 -78.5t-66 -116.5t-27 -143.5h287v-15h-287q1 -78 25 -147t65.5 -120t97 -81t118.5 -30q46 0 88 16t77 45l2 -2q-40 -35 -88 -54t-101 -19q-68 0 -128.5 31t-106.5 84.5t-72.5 125.5t-26.5 153
q0 82 27 154t73.5 125t107.5 84t129 31h67q8 0 12.5 4.5t4.5 10.5h3z" />
    <glyph glyph-name="uni0405" unicode="&#x405;" horiz-adv-x="468" 
d="M23 74q36 -38 72 -48.5t59 -10.5h70q36 0 67.5 15.5t55 41.5t36.5 60.5t13 72.5q0 39 -14.5 73t-39 60t-57.5 41t-71 15q-40 0 -75 16t-61 43t-41.5 63t-15.5 75q0 41 16 77t43 62.5t63.5 42t78.5 15.5h78q8 0 12 4.5t4 10.5h3l77 -86l-1 -2q-37 38 -72.5 48.5
t-58.5 10.5h-25q-46 0 -78 -15t-52 -40t-28.5 -58t-8.5 -69q0 -31 10.5 -64t28.5 -59t43 -43t55 -17h37q42 0 78.5 -16t63.5 -43.5t43 -65t16 -80.5q0 -42 -15.5 -79.5t-42.5 -65t-62 -43.5t-74 -16h-138q-7 0 -10.5 -4.5t-3.5 -9.5h-2l-78 86z" />
    <glyph glyph-name="uni0406" unicode="&#x406;" horiz-adv-x="200" 
d="M21 788h158v-2q-24 0 -40.5 -16t-16.5 -40v-677q0 -22 17 -36t40 -14v-3h-158v3q23 0 40 14.5t17 37.5v676q0 23 -16.5 39t-40.5 16v2z" />
    <glyph glyph-name="uni0407" unicode="&#x407;" horiz-adv-x="200" 
d="M21 788h158v-2q-24 0 -40.5 -16t-16.5 -40v-677q0 -22 17 -36t40 -14v-3h-158v3q23 0 40 14.5t17 37.5v676q0 23 -16.5 39t-40.5 16v2zM143 889q9 0 15.5 -6.5t6.5 -14.5q0 -9 -6.5 -15.5t-15.5 -6.5t-15 6.5t-6 14.5q0 9 6 15.5t15 6.5zM35 867q0 9 6.5 15.5t15.5 6.5
q8 0 14.5 -6.5t6.5 -14.5q0 -9 -6.5 -15.5t-14.5 -6.5q-9 0 -15.5 6.5t-6.5 14.5z" />
    <glyph glyph-name="uni0408" unicode="&#x408;" horiz-adv-x="200" 
d="M179 788v-3q-24 0 -40.5 -15.5t-16.5 -39.5v-730q0 -17 -8.5 -30t-19.5 -22q-12 -11 -28 -20l-2 2q4 4 7 12t5 21.5t2 36.5v730q0 24 -16.5 39.5t-40.5 15.5v3h158z" />
    <glyph glyph-name="uni0409" unicode="&#x409;" horiz-adv-x="719" 
d="M219 788h129v-2q-12 -1 -21 -5q-8 -4 -15 -11t-7 -20v-703q1 -14 10 -23.5t23 -9.5h128q39 0 72 14.5t57 39t38 58t14 70.5q0 38 -14.5 71.5t-39 58.5t-56.5 39.5t-67 14.5q-11 0 -22.5 -1t-20.5 -3q-11 -2 -20 -4l-1 2q23 9 45 14.5t46 5.5q41 0 77.5 -15.5t64 -42
t43.5 -62t16 -76.5v0v-1q0 -40 -16 -76t-43 -63t-63.5 -42.5t-78.5 -15.5h-292v3q23 0 40 15.5t17 39.5v585l-159 -602q-3 -12 1.5 -19.5t12.5 -11.5q8 -6 19 -8v-2h-115v2q23 0 37 8.5t21.5 19t10.5 19.5l3 9l166 628q3 11 3 22v0v35q0 15 -6.5 23.5t-14.5 13.5
q-10 5 -22 6v2z" />
    <glyph glyph-name="uni040A" unicode="&#x40a;" horiz-adv-x="907" 
d="M551 788v-2q-23 0 -40 -16t-17 -39v-679q0 -14 9.5 -26t23.5 -12h128q38 0 71 14.5t57.5 39t38.5 58t14 70.5q0 38 -14.5 71.5t-39 58.5t-56.5 39.5t-68 14.5q-11 0 -22.5 -1t-20.5 -3q-11 -2 -20 -4v2q22 9 44 14.5t47 5.5q41 0 77.5 -15.5t63.5 -42t43 -62t16 -76.5
q0 -40 -16 -76t-43 -63t-63.5 -43t-77.5 -16h-293v3q23 0 40.5 15t17.5 39v321h-329v-325q0 -22 17 -36t40 -14v-3h-158v3q23 0 40 14.5t17 37.5v675q0 24 -16.5 40t-40.5 16v2h158v-2q-24 0 -40.5 -16t-16.5 -40v-338h329v345q0 21 -17.5 35t-40.5 14v2h158z" />
    <glyph glyph-name="uni040B" unicode="&#x40b;" horiz-adv-x="543" 
d="M327 774q-14 0 -23.5 -9.5t-9.5 -23.5v-358q33 11 58.5 11t43.5 -7.5t30.5 -20.5t20.5 -28q19 -36 20 -89v-205q0 -14 7 -22.5t15 -13.5q9 -5 21 -6v-2h-129v2q12 1 22 6q8 5 14.5 13.5t6.5 22.5v205q0 35 -5.5 58.5t-14.5 38.5t-21 22.5t-24 9.5q-29 6 -65 -9v-325
q0 -14 7 -22.5t15 -12.5q9 -5 21 -6v-3h-129v3q12 1 22 6q8 4 14.5 12.5t6.5 22.5v697q0 14 -9.5 23.5t-23.5 9.5h-121q-27 0 -48 -16.5t-25 -41.5l-3 1l9 86l3 -1q0 -5 4 -9.5t10 -4.5h450q6 0 10 4.5t4 9.5l2 1l9 -86l-2 -1q-4 25 -25.5 41.5t-47.5 16.5h-120z" />
    <glyph glyph-name="uni040C" unicode="&#x40c;" horiz-adv-x="472" 
d="M21 1v2q24 0 40.5 16t16.5 39v673q0 24 -16.5 39.5t-40.5 15.5v3h158v-3q-24 0 -41 -15.5t-16 -39.5v-292l141 278q10 20 24 36q12 14 30 25t41 11v-72h-3q0 11 -13 21.5t-30 6.5q-21 -5 -33 -28l-141 -278q75 0 124 -35.5t78.5 -90.5t41.5 -122.5t12 -132.5
q0 -23 17 -39t40 -16v-2h-79q-8 0 -14.5 6t-6.5 15v96q0 26 -4 59t-13.5 67t-26 66.5t-42 58t-60.5 41t-83 15.5v-367q0 -23 16.5 -39t40.5 -16v-2h-158zM258 946h17l-60 -100h-18z" />
    <glyph glyph-name="uni040E" unicode="&#x40e;" horiz-adv-x="558" 
d="M21 786v2h143v-2q-11 -1 -19 -6q-7 -4 -11.5 -11.5t-1.5 -21.5l168 -640l161 609q5 20 14 36q9 14 24 25t38 11v-72h-3q0 12 -8 20t-19 8q-12 0 -20.5 -8.5t-11.5 -19.5l-186 -707q-4 -14 -10 -28.5t-14 -26t-19.5 -19t-25.5 -7.5q-13 0 -20 6.5t-7 15.5q0 8 6.5 14.5
t14.5 6.5q11 0 17.5 -7.5t4.5 -17.5q8 5 15 13.5t12 18.5q6 11 11.5 28.5t1.5 32.5l-183 692q-1 3 -5 12t-12.5 18.5t-21.5 17t-33 7.5zM201 892q29 -15 50 -23t51 -8q29 0 50 8t50 23v-15q-29 -15 -50 -23t-50 -8q-30 0 -51 8t-50 23v15z" />
    <glyph glyph-name="uni040F" unicode="&#x40f;" 
d="M21 788h158v-2q-24 0 -40.5 -16t-16.5 -40v-683q-1 -14 8.5 -23.5t23.5 -9.5h264q14 0 23.5 9.5t9.5 23.5v688q0 22 -17 36.5t-40 14.5v2h157v-2q-23 0 -40 -15t-17 -38v-676q0 -23 17 -38.5t40 -15.5v-3h-212q-23 0 -37 -17t-14 -40h-2q0 23 -15 40t-37 17h-213v3
q24 0 40.5 15.5t16.5 39.5v678q0 22 -17 36t-40 14v2z" />
    <glyph glyph-name="uni0410" unicode="&#x410;" 
d="M21 2q27 0 46 15t26 41l167 630q6 24 -1.5 50.5t-14.5 49.5h56q-3 -11 -5 -19t1 -20l183 -692q2 -8 6.5 -17.5t12.5 -18t21 -14t32 -5.5v-2h-143v2q11 2 19 6q8 5 12.5 12.5t0.5 20.5l-89 337h-158l-89 -334q-4 -14 0.5 -22.5t11.5 -13.5q8 -5 20 -6v-2h-115v2zM196 392
h151l-75 289z" />
    <glyph glyph-name="uni0411" unicode="&#x411;" horiz-adv-x="535" 
d="M433 789q14 0 14 14h2l10 -86l-3 -1q-3 25 -25 42t-48 16h-228q-14 0 -23.5 -9.5t-9.5 -23.5v-694q0 -14 9.5 -23t23.5 -9h138q38 0 69.5 14t54 38.5t35 56.5t12.5 68q0 40 -14.5 74t-39 59.5t-57 40t-67.5 14.5q-11 0 -22.5 -1t-20.5 -3q-11 -2 -20 -4l-1 2
q23 9 45 14.5t46 5.5q42 0 78.5 -15.5t63.5 -42t43 -62.5t16 -77t-16 -77t-43 -62.5t-63.5 -42t-77.5 -15.5h-293v3q24 0 40.5 15.5t16.5 39.5v672q0 24 -16.5 40t-40.5 16v3h412z" />
    <glyph glyph-name="uni0412" unicode="&#x412;" horiz-adv-x="535" 
d="M21 2q24 0 40.5 16t16.5 40v672q0 24 -16.5 40t-40.5 16v2h241q42 0 79 -15.5t64 -42t42.5 -62t15.5 -76.5q-1 -63 -35.5 -112.5t-90.5 -71.5q37 -4 69.5 -22t56.5 -45t37.5 -62t13.5 -74q0 -42 -16 -79.5t-43 -65.5t-63.5 -44t-78.5 -16h-292v2zM122 741v-694
q0 -14 9.5 -23.5t23.5 -9.5h114q39 0 74 15t62 41t42.5 60t15.5 73q0 40 -17 76t-44.5 63t-63 41t-73.5 11q-8 -1 -15 -2t-13 -3q-8 -1 -14 -3l-1 3q8 3 15 6q7 2 15 4.5t15 4.5q32 8 58.5 26t46 43t30.5 55t11 63q0 36 -13.5 69t-36.5 58.5t-54 40.5t-67 15h-87
q-14 0 -23.5 -9.5t-9.5 -23.5z" />
    <glyph glyph-name="uni0413" unicode="&#x413;" horiz-adv-x="443" 
d="M79 58l-1 673q0 24 -16.5 39.5t-40.5 15.5v3h376q5 -1 9.5 4t4.5 10h2l10 -86l-3 -1q-3 26 -25 42t-48 16h-192q-14 0 -23.5 -9.5t-9.5 -23.5v-683q0 -24 16.5 -39.5t40.5 -15.5v-3h-158v3q26 0 42 15t16 40z" />
    <glyph glyph-name="uni0414" unicode="&#x414;" horiz-adv-x="573" 
d="M96 69l163 617q5 20 1 41.5t-10 41.5l-6 19h56l-1 -5q-2 -8 -3.5 -16t0.5 -18l180 -680q7 -26 28.5 -40.5t47.5 -14.5l-22 -85h-3q9 40 -3 55.5t-30 15.5h-416q-17 0 -29 -16t-3 -55h-3l-22 85q21 0 34.5 6t22 15t13 18.5t5.5 15.5zM122 14h300q6 0 13.5 6.5t4.5 22.5
l-168 638l-168 -639q-4 -14 4 -21t14 -7z" />
    <glyph glyph-name="uni0415" unicode="&#x415;" horiz-adv-x="479" 
d="M396 788q6 0 10.5 4.5t3.5 9.5h2l10 -85l-3 -1q-3 25 -25 41.5t-48 16.5h-193q-14 0 -22.5 -10t-8.5 -23v-340h175q23 0 37 17.5t14 40.5h3v-129h-3q0 23 -14 40t-37 17h-175v-340q0 -14 9.5 -23.5t23.5 -9.5h228q26 0 47 16.5t26 41.5l3 -1l-10 -86h-2q0 6 -4.5 10.5
t-9.5 4.5h-412v3q24 0 40.5 16t16.5 39v672q0 25 -16.5 40.5t-40.5 15.5v2h375z" />
    <glyph glyph-name="uni0416" unicode="&#x416;" horiz-adv-x="573" 
d="M21 0v3q24 0 40.5 15.5t16.5 39.5q0 94 17.5 157t42 101.5t52 57t47.5 23.5q0 30 -2.5 68.5t-9.5 78.5t-19.5 79t-32 71t-46.5 53t-64 26q3 -11 -3 -19.5t-17 -8.5q-9 0 -15.5 6.5t-6.5 15.5t6.5 15t15.5 6q43 0 75.5 -19.5t55.5 -51t38 -72.5t23.5 -84.5t12 -85
t3.5 -75.5q4 1 14 1v329q0 24 -17 40t-40 16v2h158v-2q-24 0 -41 -15.5t-17 -38.5v-331q9 0 14 -1q0 33 3 74.5t11.5 84.5t23 84t38 73.5t56 52t76.5 19.5q9 0 15 -6t7 -15t-5 -16t-15 -7q-17 0 -22 9.5t-1 19.5q-37 -5 -64 -26.5t-46.5 -53t-31.5 -70.5t-19 -79t-9.5 -78.5
t-2.5 -68.5q20 -6 47.5 -22.5t52 -54t41.5 -101t17 -161.5q0 -24 17 -39.5t41 -15.5v-3h-158v3q23 0 40 15.5t17 39.5q0 46 -4 103t-19 107.5t-43.5 84.5t-76.5 34v-342q0 -15 7 -23t15 -13q10 -5 22 -6v-3h-131v3q12 1 22 6q8 5 15 13t7 23v342q-48 0 -76.5 -34
t-43.5 -84.5t-19 -107.5t-4 -103q0 -24 16.5 -39.5t40.5 -15.5v-3h-158z" />
    <glyph glyph-name="uni0417" unicode="&#x417;" horiz-adv-x="468" 
d="M21 72l2 2q18 -19 36.5 -30.5t35.5 -18t32.5 -8.5t26.5 -2h60q38 0 71.5 15t58 41t38.5 60.5t14 73.5t-15 74t-40 60.5t-58.5 40.5t-72.5 15q-9 0 -18.5 -1t-17.5 -3q-10 -2 -18 -4l-1 2q8 3 15 6q7 2 15 4.5t15 4.5q31 8 58 26t46.5 43t30.5 55.5t11 63.5q0 36 -9 69
t-28.5 58t-51.5 40t-78 15h-25q-11 0 -26.5 -2t-33 -8.5t-36 -18t-35.5 -30.5l-2 2l78 86h3q0 -6 4 -10.5t12 -4.5h77q42 0 79 -15.5t64 -42t42.5 -62t15.5 -76.5q-1 -63 -35.5 -112.5t-90.5 -71.5q37 -4 69.5 -22t56.5 -45t37.5 -62t13.5 -74q0 -42 -15.5 -79.5
t-42.5 -65.5t-63 -44t-76 -16h-134q-8 0 -11.5 -4.5t-3.5 -9.5h-2z" />
    <glyph glyph-name="uni0418" unicode="&#x418;" 
d="M21 786v2h158v-2q-24 0 -40.5 -16t-16.5 -40v-643l358 701h14v-736q0 -22 17.5 -35.5t39.5 -13.5v-3h-157v3q23 0 40 15.5t17 39.5v643l-358 -701h-15v731q0 23 -16.5 39t-40.5 16z" />
    <glyph glyph-name="uni0419" unicode="&#x419;" 
d="M179 788v-2q-24 0 -40.5 -16t-16.5 -40v-643l358 701h14v-736q0 -22 17.5 -35.5t39.5 -13.5v-3h-157v3q23 0 40 15.5t17 39.5v643l-358 -701h-15v731q0 23 -16.5 39t-40.5 16v2h158zM258 810q8 0 14.5 -6.5t6.5 -15.5t-6.5 -15t-14.5 -6q10 -15 28 -15q19 0 29 15
q-9 0 -15.5 6t-6.5 15t6.5 15.5t15.5 6.5t15 -6.5t6 -15.5q0 -20 -15 -35t-35 -15t-35 15t-15 35q0 9 6.5 15.5t15.5 6.5z" />
    <glyph glyph-name="uni041A" unicode="&#x41a;" horiz-adv-x="472" 
d="M21 1v2q24 0 40.5 16t16.5 39v673q0 24 -16.5 39.5t-40.5 15.5v3h158v-3q-24 0 -41 -15.5t-16 -39.5v-292l141 278q10 20 24 36q12 14 30 25t41 11v-72h-3q0 11 -13 21.5t-30 6.5q-21 -5 -33 -28l-141 -278q75 0 124 -35.5t78.5 -90.5t41.5 -122.5t12 -132.5
q0 -23 17 -39t40 -16v-2h-79q-8 0 -14.5 6t-6.5 15v96q0 26 -4 59t-13.5 67t-26 66.5t-42 58t-60.5 41t-83 15.5v-367q0 -23 16.5 -39t40.5 -16v-2h-158z" />
    <glyph glyph-name="uni041B" unicode="&#x41b;" 
d="M21 0v3q23 0 37 8.5t21.5 18.5t10.5 19l3 9l166 628q7 26 -1 52.5t-14 49.5h56q-2 -10 -4.5 -19t0.5 -20l183 -692q1 -4 5 -13t12.5 -18t22 -16t32.5 -7v-3h-143v3q11 1 19 6q8 4 12.5 11t0.5 21l-168 640l-169 -640q-3 -12 1.5 -19t12.5 -12t19 -7v-3h-115z" />
    <glyph glyph-name="uni041C" unicode="&#x41c;" horiz-adv-x="559" 
d="M21 788h87l179 -681l180 681h14v-736q0 -22 17.5 -35.5t39.5 -13.5v-3h-157v3q23 0 40 15.5t17 39.5v567l-138 -523q-7 -26 1 -52t15 -50h-57q2 9 4 19t0 20l-170 645v-629q0 -23 17 -37.5t40 -14.5v-3h-129v3q23 0 40 14t17 37v676q0 24 -16.5 40t-40.5 16v2z" />
    <glyph glyph-name="uni041D" unicode="&#x41d;" 
d="M179 788v-2q-24 0 -40.5 -16t-16.5 -40v-338h329v339q0 23 -17 39t-40 16v2h157v-2q-23 0 -40 -16t-17 -40v-678q0 -22 17.5 -35.5t39.5 -13.5v-3h-157v3q23 0 40 15.5t17 39.5v320h-329v-325q0 -22 17 -36t40 -14v-3h-158v3q23 0 40 14.5t17 37.5v675q0 24 -16.5 40
t-40.5 16v2h158z" />
    <glyph glyph-name="uni041E" unicode="&#x41e;" 
d="M286 788q55 0 103.5 -31t84.5 -84.5t56.5 -125.5t20.5 -153q0 -82 -20.5 -153.5t-56.5 -125t-84.5 -84.5t-103.5 -31t-103 31t-84 84.5t-57 125t-21 153.5q0 81 21 153t57 125.5t84 84.5t103 31zM286 14q46 0 85.5 30t68 81.5t45 120.5t16.5 148t-16.5 148t-45 120.5
t-68 81.5t-85.5 30t-85 -30t-68 -81.5t-45.5 -120.5t-16.5 -148t16.5 -148t45.5 -120.5t68 -81.5t85 -30z" />
    <glyph glyph-name="uni041F" unicode="&#x41f;" 
d="M21 786v2h530v-2q-23 0 -40 -16t-17 -40v-678q0 -22 17.5 -35.5t39.5 -13.5v-3h-157v3q23 0 40 15.5t17 39.5v683q0 14 -9.5 23.5t-23.5 9.5h-263q-14 0 -23.5 -9.5t-9.5 -23.5v-688q0 -22 17 -36t40 -14v-3h-158v3q23 0 40 14.5t17 37.5v676q0 23 -16.5 39t-40.5 16z
" />
    <glyph glyph-name="uni0420" unicode="&#x420;" horiz-adv-x="515" 
d="M21 2q23 0 40 15t17 37v526q0 43 16.5 81t44.5 66t66 44.5t81 16.5t81 -16.5t66 -44.5t44.5 -66t16.5 -81t-16.5 -80.5t-44.5 -65.5t-66 -44.5t-81 -16.5t-80.5 16t-66.5 44l3 3q23 -23 58.5 -36t85.5 -13q34 0 64 15t52.5 41.5t35.5 61.5t13 75t-13 75.5t-35.5 61.5
t-52.5 41.5t-64 15.5t-64 -15.5t-52 -41.5t-35 -61.5t-13 -75.5v-525q0 -23 17 -38t40 -15v-2h-158v2z" />
    <glyph glyph-name="uni0421" unicode="&#x421;" horiz-adv-x="558" 
d="M21 394q0 82 26 153.5t71 125t105 84.5t128 31h68q8 0 12 4.5t4 10.5h3l77 -86l-2 -1q-18 19 -36.5 30.5t-35.5 17.5t-32 8t-26 2h-13q-63 0 -119 -30t-97 -81.5t-65.5 -120.5t-24.5 -148t24 -148t65.5 -120.5t97.5 -81.5t119 -30q46 0 88 16t78 45l1 -3
q-40 -34 -87.5 -53t-101.5 -19q-67 0 -127 31t-104 84.5t-70 125t-26 153.5z" />
    <glyph glyph-name="uni0422" unicode="&#x422;" horiz-adv-x="543" 
d="M30 803h3q0 -6 4 -10.5t10 -3.5h450q6 -1 10 3.5t4 10.5h2l10 -86l-3 -1q-4 26 -25.5 42t-47.5 16h-120q-14 0 -23.5 -9.5t-9.5 -23.5v-683q0 -23 17 -39t40 -16v-3h-158v3q23 0 40.5 17t17.5 38v683q0 14 -9.5 23.5t-23.5 9.5h-121q-27 0 -48 -16.5t-25 -41.5l-3 1z" />
    <glyph glyph-name="uni0423" unicode="&#x423;" horiz-adv-x="558" 
d="M21 786v2h143v-2q-11 -1 -19 -6q-7 -4 -11.5 -11.5t-1.5 -21.5l168 -640l161 609q5 20 14 36q9 14 24 25t38 11v-72h-3q0 12 -8 20t-19 8q-12 0 -20.5 -8.5t-11.5 -19.5l-186 -707q-4 -14 -10 -28.5t-14 -26t-19.5 -19t-25.5 -7.5q-13 0 -20 6.5t-7 15.5q0 8 6.5 14.5
t14.5 6.5q11 0 17.5 -7.5t4.5 -17.5q8 5 15 13.5t12 18.5q6 11 11.5 28.5t1.5 32.5l-183 692q-1 3 -5 12t-12.5 18.5t-21.5 17t-33 7.5z" />
    <glyph glyph-name="uni0424" unicode="&#x424;" horiz-adv-x="573" 
d="M501 394q0 49 -14.5 92.5t-40 77t-61 55t-77.5 25.5v-500q42 5 77.5 26.5t61 55t40 76.5t14.5 92zM265 644q-42 -4 -78 -25.5t-61.5 -55t-40 -77t-14.5 -92.5t14.5 -92.5t40 -77t61.5 -54.5t78 -26v500zM366 0h-158v3q23 0 40 14.5t17 37.5v75q-51 4 -95.5 26t-77.5 57.5
t-52 82t-19 98.5q0 53 19 99t52 81.5t77.5 58t95.5 26.5v71q0 24 -17 40t-40 16v2h57h37h6h58v-2q-24 0 -41 -16t-17 -40v-71q51 -4 95.5 -26.5t77.5 -58t52 -82t19 -98.5t-19 -98.5t-52 -81.5t-77.5 -57.5t-95.5 -26.5v-72q0 -24 17 -39.5t41 -15.5v-3z" />
    <glyph glyph-name="uni0425" unicode="&#x425;" 
d="M21 2q27 0 50.5 16t35.5 39l163 321l-164 350q-9 16 -21 29q-11 11 -27 20t-37 9v2h158v-3q-18 0 -28.5 -13.5t-2.5 -29.5l147 -316l147 290q10 20 24 36q12 14 30 25t41 11v-72h-3q0 11 -13.5 21.5t-31.5 5.5q-20 -5 -31 -27l-156 -306l165 -352q9 -16 21 -28
q11 -11 26.5 -19.5t36.5 -8.5v-2h-157v2q17 1 27.5 15.5t2.5 30.5l-146 314l-161 -316q-8 -16 2.5 -29.5t27.5 -14.5v-2h-126v2z" />
    <glyph glyph-name="uni0426" unicode="&#x426;" 
d="M21 3q24 0 40.5 15.5t16.5 39.5v675q0 23 -17 38t-40 15v2h158v-2q-23 0 -40 -14t-17 -37v-688q0 -14 9.5 -23.5t23.5 -9.5h263q14 0 23.5 9.5t9.5 23.5v683q0 24 -17 40t-40 16v2h157v-2q-22 0 -39.5 -14t-17.5 -36v-666q0 -24 17 -40t40 -16l-22 -85h-3q8 39 -3 55
t-29 16h-473v3z" />
    <glyph glyph-name="uni0427" unicode="&#x427;" 
d="M21 788h158v-2q-24 0 -40.5 -16t-16.5 -40v-144q0 -37 10 -71t30.5 -59t51.5 -40t73 -15q53 0 96 23.5t68 62.5v243q0 24 -17 40t-41 16v2h158v-2q-23 0 -40 -16t-17 -40v-672q0 -24 17 -39.5t40 -15.5v-3h-158v3q23 0 40.5 14.5t17.5 37.5v408q-30 -38 -74 -57t-92 -19
q-43 0 -80.5 16t-65.5 44t-44 65.5t-16 80.5l-1 137q0 24 -16.5 40t-40.5 16v2z" />
    <glyph glyph-name="uni0428" unicode="&#x428;" horiz-adv-x="658" 
d="M21 0v3q24 0 40.5 15.5t16.5 39.5v675q0 23 -17 38t-40 15v2h158v-2q-23 0 -40 -14t-17 -37v-688q0 -14 9.5 -23.5t23.5 -9.5h120q14 0 23.5 9.5t9.5 23.5v686q0 23 -17.5 38t-40.5 15v2h158v-2q-23 0 -40 -14t-17 -37v-688q0 -14 9.5 -23.5t23.5 -9.5h120q14 0 23.5 9.5
t9.5 23.5v683q0 24 -17 40t-41 16v2h158v-2q-23 0 -40 -14t-17 -36v-678q0 -24 17 -39.5t40 -15.5v-3h-616z" />
    <glyph glyph-name="uni0429" unicode="&#x429;" horiz-adv-x="658" 
d="M21 0v3q24 0 40.5 15.5t16.5 39.5v675q0 23 -17 38t-40 15v2h158v-2q-23 0 -40 -14.5t-17 -36.5v-688q0 -14 9.5 -23.5t23.5 -9.5h120q14 0 23.5 9.5t9.5 23.5v686q0 23 -17.5 38t-40.5 15v2h158v-2q-23 0 -40 -14.5t-17 -36.5v-688q0 -14 9.5 -23.5t23.5 -9.5h120
q14 0 23.5 9.5t9.5 23.5v683q0 24 -17 40t-41 16v2h158v-2q-23 0 -40 -14t-17 -36v-666q0 -24 17 -40t40 -16l-22 -85h-3q3 13 3.5 26t-3 23t-11.5 16t-21 6h-559z" />
    <glyph glyph-name="uni042A" unicode="&#x42a;" horiz-adv-x="535" 
d="M21 716v87h3q0 -5 4.5 -10t9.5 -5h126v-2q-12 -1 -21 -5q-8 -4 -14.5 -10.5t-6.5 -19.5v-704q0 -14 9.5 -23.5t23.5 -9.5h132q39 0 71.5 14.5t55.5 39t36 57t13 69.5q0 39 -14.5 73t-39 59t-56.5 39.5t-67 14.5q-11 0 -22.5 -1t-20.5 -3q-11 -2 -20 -4l-1 2q23 9 45 14.5
t46 5.5q42 0 78.5 -15.5t63.5 -42t43 -62.5t16 -77t-16 -77t-43 -62.5t-63.5 -42t-77.5 -15.5h-293v3q24 0 40.5 15.5t16.5 39.5v716q-22 0 -38 -17.5t-16 -40.5h-3z" />
    <glyph glyph-name="uni042B" unicode="&#x42b;" horiz-adv-x="730" 
d="M21 0v3q24 0 40.5 15.5t16.5 39.5v685q0 15 -6.5 23.5t-14.5 13.5q-10 5 -22 6v2h129v-2q-12 -1 -21 -5q-8 -4 -14.5 -10.5t-6.5 -19.5v-704q0 -14 9.5 -23.5t23.5 -9.5h128q38 0 71 14.5t57.5 39t38 58t13.5 70.5q0 38 -14.5 71.5t-39 58.5t-56.5 39.5t-67 14.5
q-11 0 -22.5 -1t-20.5 -3q-11 -2 -20 -4l-1 2q23 9 45 14.5t46 5.5q42 0 78.5 -15.5t63.5 -42t43 -62.5t16 -77t-16 -77t-43 -62.5t-63.5 -42t-77.5 -15.5h-293zM551 3q24 0 41 15.5t17 39.5v685q0 15 -7 23t-15 13q-10 5 -22 7v2h130v-2q-12 -1 -21 -5q-8 -4 -15 -10.5
t-7 -19.5v-693q0 -24 17 -39.5t40 -15.5v-3h-158v3z" />
    <glyph glyph-name="uni042C" unicode="&#x42c;" horiz-adv-x="535" 
d="M21 0v3q24 0 40.5 15.5t16.5 39.5v685q0 15 -6.5 23.5t-14.5 13.5q-10 5 -22 6v2h129v-2q-12 -1 -21 -5q-8 -4 -14.5 -10.5t-6.5 -19.5v-704q0 -14 9.5 -23.5t23.5 -9.5h127q39 0 72 14.5t57.5 39t38 58t13.5 70.5q0 38 -14.5 71.5t-39 58.5t-56.5 39.5t-67 14.5
q-11 0 -22.5 -1t-20.5 -3q-11 -2 -20 -4l-1 2q23 9 45 14.5t46 5.5q42 0 78.5 -15.5t63.5 -42t43 -62t16 -76.5t-16 -77t-43 -63t-63.5 -42.5t-77.5 -15.5h-293z" />
    <glyph glyph-name="uni042D" unicode="&#x42d;" horiz-adv-x="565" 
d="M23 75q35 -29 77 -45t89 -16q63 0 118 29.5t96.5 80.5t65.5 119.5t25 146.5q-15 -14 -43.5 -26.5t-61.5 -12.5q-17 0 -32.5 4t-31.5 14q-20 13 -39 22t-39 9q-17 0 -38 -9l-2 3q7 5 16 9q8 4 19 6.5t25 2.5q16 0 36.5 -5.5t58.5 -22.5q13 -5 29 -10.5t30 -5.5
q22 0 42 13.5t31 22.5q-1 77 -25.5 144.5t-66 117.5t-96.5 79t-117 29h-13q-23 0 -59 -10t-72 -48l-1 2l77 85h2q0 -6 4.5 -10.5t12.5 -4.5h68q68 0 128.5 -31t107 -84.5t73.5 -125.5t27 -154q0 -81 -26.5 -153t-72.5 -125t-106.5 -84t-128.5 -31q-53 0 -101 19t-88 54z" />
    <glyph glyph-name="uni042E" unicode="&#x42e;" horiz-adv-x="768" 
d="M482 14q41 0 72.5 19.5t55.5 51.5t40.5 73t27 83t15 82t4.5 71t-4.5 71t-15 82t-27 83t-40.5 73t-55.5 51.5t-72.5 19.5q-46 0 -85.5 -30t-68 -81.5t-45 -120.5t-16.5 -148t16.5 -148t45 -120.5t68 -81.5t85.5 -30zM179 0h-158v3q23 0 40 14.5t17 37.5v676q0 23 -16.5 39
t-40.5 16v2h158v-2q-24 0 -40.5 -16t-16.5 -40v-338h94q1 79 22.5 150.5t58 126t84.5 87t101 32.5q56 0 104 -31t84 -84.5t56.5 -125t20.5 -153.5q0 -60 -11.5 -114.5t-32.5 -101.5l-1 -4q-29 -64 -71 -106l-4 -3q-32 -31 -68.5 -48t-76.5 -17q-54 0 -102 29t-84 79.5
t-57.5 119.5t-22.5 150h-94v-325q0 -22 17 -36t40 -14v-3z" />
    <glyph glyph-name="uni042F" unicode="&#x42f;" horiz-adv-x="472" 
d="M21 3q24 0 40.5 15.5t16.5 39.5q0 97 19.5 163.5t49 109.5t65 65.5t69.5 32.5q-34 7 -63.5 23.5t-51 40t-33.5 52.5t-12 62q0 37 15.5 70t42 57.5t62.5 39t77 14.5h133v-2q-24 0 -40.5 -16t-16.5 -40v-675q-1 -23 16.5 -37.5t40.5 -14.5v-3h-158v3q23 0 40 14.5t17 37.5
v370q-71 0 -115.5 -33.5t-69.5 -81.5t-34 -101t-9 -92v-95q0 -9 -6.5 -15.5t-15.5 -6.5h-79v3zM350 439v305q0 12 -9 21t-22 9q-36 0 -65 -13.5t-49 -36t-30.5 -53t-10.5 -64.5q0 -89 48 -128.5t138 -39.5z" />
    <glyph glyph-name="uni0430" unicode="&#x430;" horiz-adv-x="334" 
d="M21 3q15 0 25 6.5t17 14.5t10.5 17t4.5 13l64 242q2 5 2 13.5t-2 16.5l-18 66h57q-5 -17 -5.5 -24t2.5 -18l77 -293q5 -22 19.5 -38t38.5 -16v-3h-128v3q11 1 19 6q7 4 11.5 11t1.5 21l-29 108h-71l-29 -108q-3 -14 1.5 -22t12.5 -12t19 -4v-3h-100v3zM185 163l-32 122
l-32 -122h64z" />
    <glyph glyph-name="uni0431" unicode="&#x431;" horiz-adv-x="293" 
d="M21 197q0 114 8.5 180.5t25.5 100t44.5 43t64.5 9.5q39 0 60 4.5t31 10.5q11 6 12 14h5q0 -31 -33.5 -51.5t-113.5 -20.5q-24 0 -40 -18.5t-26 -47t-15 -62.5t-7 -66q16 45 45 73.5t64 28.5q26 0 49 -15.5t40 -42.5t27 -63t10 -77t-10 -77.5t-27 -63.5t-40 -43t-49 -16
t-48.5 16t-39.5 43t-27 63.5t-10 77.5zM146 12q17 0 32.5 14.5t26.5 40t17.5 59t6.5 71.5t-6.5 71.5t-17.5 58t-26.5 39t-32.5 14.5t-32 -14.5t-26 -39t-17.5 -58t-6.5 -71.5t6.5 -71.5t17.5 -59t26 -40t32 -14.5z" />
    <glyph glyph-name="uni0432" unicode="&#x432;" horiz-adv-x="322" 
d="M21 2l6.5 1t15 4.5t15 10.5t6.5 20v316q0 13 -6.5 20t-14.5 11q-10 4 -22 5v2h133q21 0 40 -8t33.5 -22.5t22.5 -33t8 -39.5q0 -28 -14 -50t-37 -36q39 -4 66.5 -32.5t27.5 -68.5q0 -21 -8 -40t-22.5 -32.5t-33.5 -21.5t-40 -8h-176v2zM107 345v-298q0 -14 9.5 -23.5
t23.5 -9.5h55q26 0 44.5 25.5t18.5 62.5q0 18 -4.5 33.5t-13 27.5t-19.5 19t-23 7h-48v14q26 0 45 25t19 61t-18 62.5t-44 26.5h-12q-14 0 -23.5 -9.5t-9.5 -23.5z" />
    <glyph glyph-name="uni0433" unicode="&#x433;" horiz-adv-x="293" 
d="M21 0v3q12 1 22 6q8 5 15 13t7 23v309q0 14 -7 21.5t-15 10.5q-10 3 -22 3v3h226q5 0 9.5 4.5t4.5 9.5h2l9 -86h-2q-4 25 -25.5 41.5t-47.5 16.5h-56q-14 0 -23.5 -9.5t-9.5 -23.5v-300q0 -15 7 -23t15 -13q9 -5 21 -6v-3h-130z" />
    <glyph glyph-name="uni0434" unicode="&#x434;" horiz-adv-x="366" 
d="M97 68l61 230q5 23 -3 47t-14 47h57q-3 -11 -5 -19.5t1 -20.5l75 -283q8 -26 28.5 -40.5t47.5 -14.5l-23 -85h-3q2 10 3 22.5t-2 23t-10 18t-22 7.5h-210q-14 0 -21.5 -7.5t-10.5 -18.5t-2.5 -23.5t2.5 -21.5h-3l-22 85q21 0 35 6.5t22.5 15t13 17.5t5.5 15zM127 14h83
q10 0 18.5 7.5t4.5 21.5l-64 243l-64 -243q-3 -11 -0.5 -17t6.5 -8.5t9 -3t7 -0.5z" />
    <glyph glyph-name="uni0435" unicode="&#x435;" horiz-adv-x="264" 
d="M21 197q0 41 10 77t26.5 62.5t39 42.5t47.5 16q15 0 26.5 -3.5t20 -7t13.5 -4.5t7 4q1 2 1 4t1 4h2l7 -71l-3 -1q-2 25 -24 42.5t-49 17.5q-16 0 -30 -12.5t-25 -34.5t-18 -51.5t-9 -64.5h99q15 0 23 7t13 15q5 10 6 22h2v-101h-2q-1 12 -6 22q-5 8 -13 14.5t-23 6.5h-99
q0 -38 6.5 -72.5t18 -61t27.5 -42t35 -15.5q24 0 45.5 24.5t32.5 62.5l14 -5q-17 -45 -39 -71t-56 -26q-27 0 -50 16t-40 43t-27 63.5t-10 77.5z" />
    <glyph glyph-name="uni0436" unicode="&#x436;" horiz-adv-x="489" 
d="M65 45v25q0 34 11 59t30.5 41.5t45.5 25t56 8.5l-61 117q-12 23 -33 27q-17 4 -30 -6t-13 -21h-3v71q23 0 41 -11t30 -24q14 -16 24 -36l60 -117v143q0 15 -7 23.5t-15 13.5q-10 5 -22 6v2h131v-2q-12 -1 -22 -6q-8 -5 -15 -13.5t-7 -23.5v-143l60 117q10 20 24 36
q12 13 30 24t41 11v-71h-3q0 5 -3.5 11t-9.5 10t-14 6t-16 0q-22 -6 -33 -27l-61 -117q28 0 49 -5.5t36 -15t25.5 -21.5t17.5 -25q15 -29 16 -67v-25q0 -15 7 -23t15 -13q9 -5 21 -6v-3h-130v3q12 1 22 6q8 5 14.5 13t6.5 23v25q0 47 -18 71t-39 35q-26 13 -58 14v-145
q0 -15 7 -23t15 -13q10 -5 22 -6v-3h-131v3q12 1 22 6q8 5 15 13t7 23v145q-32 -1 -57 -14q-22 -11 -40 -35t-18 -71v-25q0 -15 7 -23t15 -13q9 -5 21 -6v-3h-130v3q12 1 22 6q8 5 15 13t7 23z" />
    <glyph glyph-name="uni0437" unicode="&#x437;" horiz-adv-x="240" 
d="M35 99q11 -38 32.5 -62.5t49.5 -24.5q12 0 22.5 7.5t19 20t13 29t4.5 33.5q0 37 -18.5 62.5t-44.5 25.5v14q26 0 41 24.5t15 61.5q0 36 -14.5 63t-40.5 27t-48 -17t-25 -43l-3 1l8 71h2q2 -21 21 -11q11 6 24.5 10t24.5 4q20 0 37 -8.5t30 -23t20 -33.5t7 -40
q0 -32 -16.5 -57t-43.5 -36q29 -11 48 -36.5t19 -58.5q0 -21 -8.5 -40t-22.5 -33.5t-33 -23t-40 -8.5q-34 0 -56 26.5t-38 70.5z" />
    <glyph glyph-name="uni0438" unicode="&#x438;" horiz-adv-x="346" 
d="M21 390v2h130v-2q-12 -1 -21 -6q-8 -5 -15 -13t-7 -23v-263l158 307h15v-347q0 -15 7 -23t15 -13q10 -5 22 -6v-3h-130v3q12 1 22 6q8 5 14.5 13t6.5 23v263l-158 -308h-15v348q0 15 -7 23t-15 13q-10 5 -22 6z" />
    <glyph glyph-name="uni0439" unicode="&#x439;" horiz-adv-x="346" 
d="M151 392v-2q-12 -1 -21 -6q-8 -5 -15 -13t-7 -23v-263l158 307h15v-347q0 -15 7 -23t15 -13q10 -5 22 -6v-3h-130v3q12 1 22 6q8 5 14.5 13t6.5 23v265l-158 -310h-15v348q0 15 -7 23t-15 13q-10 5 -22 6v2h130zM123 487q0 9 6 15.5t15 6.5t15.5 -6.5t6.5 -15.5
q0 -8 -6.5 -14.5t-15.5 -6.5q10 -15 29 -15q17 0 29 15q-10 0 -16 6.5t-6 14.5q0 9 6.5 15.5t14.5 6.5q9 0 15.5 -6.5t6.5 -15.5q0 -20 -15 -35t-35 -15t-35 15t-15 35z" />
    <glyph glyph-name="uni043A" unicode="&#x43a;" horiz-adv-x="331" 
d="M21 0v3q12 1 22 6q8 5 15 13t7 23v302q0 15 -7 23.5t-15 13.5q-10 5 -22 6v2h130v-2q-12 -1 -21 -6q-8 -5 -15 -13.5t-7 -23.5v-143l61 117q10 20 24 36q12 13 29.5 24t40.5 11v-71h-2q0 5 -4 10.5t-10 10t-14.5 6t-17.5 -0.5q-8 -2 -16.5 -8.5t-14.5 -17.5l-60 -117
q65 1 103.5 -33t38.5 -101v-25q0 -15 7 -23t15 -13q10 -5 22 -6v-3h-65q-9 0 -15.5 6.5t-6.5 15.5v48q0 47 -18 71t-39 35q-26 13 -58 14v-145q0 -15 7 -23t15 -13q9 -5 21 -6v-3h-130z" />
    <glyph glyph-name="uni043B" unicode="&#x43b;" horiz-adv-x="336" 
d="M21 0v3q15 0 25 6.5t17 15t10.5 17.5t4.5 13l64 243q5 23 -3.5 48.5t-13.5 45.5h57q-3 -11 -4.5 -19.5t1.5 -20.5l78 -295q1 -2 3.5 -11t9 -18.5t17.5 -17t28 -7.5v-3h-129v3q12 2 20 7q7 4 11.5 11.5t0.5 19.5l-64 245l-64 -242q-4 -15 0.5 -23t11.5 -12q8 -5 20 -6v-3
h-101z" />
    <glyph glyph-name="uni043C" unicode="&#x43c;" horiz-adv-x="487" 
d="M21 0v3q15 0 25.5 7t17 16t10.5 18.5t5 13.5l63 238q5 23 -3.5 49.5t-13.5 46.5h57q-3 -11 -4.5 -20.5t1.5 -21.5l64 -241l50 187q2 5 2 13.5t-2 16.5l-17 66h57q-3 -11 -4.5 -20.5t1.5 -21.5l77 -293q6 -23 19.5 -39t39.5 -15v-3h-130v3q11 1 20 6q7 4 11.5 11t1.5 21
l-65 243l-48 -181q-2 -8 -3.5 -15.5t0.5 -15.5l19 -72h-58q4 14 5 22t-2 22l-63 240l-64 -240q-4 -14 0.5 -22.5t11.5 -12.5q8 -5 20 -6v-3h-101z" />
    <glyph glyph-name="uni043D" unicode="&#x43d;" horiz-adv-x="346" 
d="M21 3q12 1 22 6q8 5 15 13t7 23v303q0 15 -7 23t-15 13q-10 5 -22 6v2h130v-2q-12 -1 -21 -6q-8 -5 -15 -13t-7 -23v-143h130v143q0 15 -6.5 23t-14.5 13q-10 5 -22 6v2h130v-2q-12 -1 -22 -6q-8 -5 -15 -13t-7 -23v-303q0 -15 7 -23t15 -13q10 -5 22 -6v-3h-130v3
q12 1 22 6q8 5 14.5 13t6.5 23v145h-130v-145q0 -15 7 -23t15 -13q9 -5 21 -6v-3h-130v3z" />
    <glyph glyph-name="uni043E" unicode="&#x43e;" horiz-adv-x="293" 
d="M146 395q26 0 49 -15.5t40 -42.5t27 -63t10 -77t-10 -77.5t-27 -63.5t-40 -43t-49 -16t-48.5 16t-39.5 43t-27 63.5t-10 77.5t10 77t27 63t39.5 42.5t48.5 15.5zM146 12q17 0 32.5 14.5t26.5 40t17.5 59t6.5 71.5t-6.5 71.5t-17.5 58t-26.5 39t-32.5 14.5t-32 -14.5
t-26 -39t-17.5 -58t-6.5 -71.5t6.5 -71.5t17.5 -59t26 -40t32 -14.5z" />
    <glyph glyph-name="uni043F" unicode="&#x43f;" horiz-adv-x="346" 
d="M21 0v3q12 1 22 6q8 5 15 13t7 23v303q0 15 -7 23t-15 13q-10 5 -22 6v2h304v-2q-12 -1 -22 -6q-8 -5 -15 -13t-7 -23v-303q0 -15 7 -23t15 -13q10 -5 22 -6v-3h-130v3q12 1 22 6q8 5 14.5 13t6.5 23v301q0 14 -9.5 22.5t-23.5 8.5h-64q-14 0 -23.5 -9.5t-9.5 -23.5v-299
q0 -15 7 -23t15 -13q9 -5 21 -6v-3h-130z" />
    <glyph glyph-name="uni0440" unicode="&#x440;" horiz-adv-x="323" 
d="M8 -195v2q12 1 22 6q8 5 15 13.5t7 23.5v347q0 41 10 77t27 63t39.5 42.5t48.5 15.5t49 -16t40 -43t26.5 -63t9.5 -77t-10 -77t-27 -63t-39.5 -43t-48.5 -16q-17 0 -31.5 7.5t-28.5 18.5l10 12q11 -11 24.5 -17t23.5 -6q18 0 33.5 14.5t26.5 39.5t18 58.5t7 70.5
q0 38 -6.5 71.5t-17.5 59t-26.5 40t-32.5 14.5t-32 -14.5t-26 -39.5t-17.5 -58t-6.5 -71v-347q0 -15 7 -23.5t15 -13.5q9 -5 21 -6v-2h-130z" />
    <glyph glyph-name="uni0441" unicode="&#x441;" horiz-adv-x="262" 
d="M21 196q0 41 9.5 77t26.5 63t40 43t49 16q8 0 21 -4.5t24 -9.5q22 -11 20 11h2l8 -71l-3 -1q-3 26 -24.5 43t-47.5 17q-17 0 -32 -14.5t-26.5 -40t-17.5 -58.5t-6 -71q0 -37 6.5 -70.5t17.5 -58.5t26 -40t32 -15q27 0 48.5 24.5t32.5 62.5l14 -5q-16 -45 -38 -71t-57 -26
q-26 0 -48.5 16t-39.5 43t-27 63.5t-10 76.5z" />
    <glyph glyph-name="uni0442" unicode="&#x442;" horiz-adv-x="320" 
d="M30 407h3q0 -6 4 -10.5t10 -4.5h227q6 0 10 4.5t4 10.5h2l10 -86l-4 -1q-2 24 -22.5 41t-45.5 17h-13q-14 0 -23.5 -9.5t-9.5 -23.5v-300q0 -15 7 -23t15 -13q9 -5 21 -6v-3h-130v3q12 1 22 6q8 4 15 11t7 21v304q0 14 -9.5 23.5t-23.5 9.5h-14q-25 0 -45 -17t-23 -41
l-3 1z" />
    <glyph glyph-name="uni0443" unicode="&#x443;" horiz-adv-x="333" 
d="M149 392v-3q-11 -1 -19 -5q-7 -4 -11.5 -11.5t-1.5 -21.5l64 -244l56 215q7 27 26 48.5t50 21.5v-71h-3q0 11 -8.5 19t-19.5 8t-19.5 -8t-11.5 -19l-84 -321q-4 -14 -10.5 -30t-15.5 -30t-21.5 -23.5t-29.5 -9.5q-9 0 -15.5 6.5t-6.5 15.5t6.5 15t15.5 6q11 0 16.5 -7
t4.5 -18q9 5 18.5 19.5t16.5 32t10 35.5t0 30l-78 293q-1 2 -3.5 11t-9 18.5t-17 17t-27.5 7.5v3h128z" />
    <glyph glyph-name="uni0444" unicode="&#x444;" horiz-adv-x="436" 
d="M21 196q0 38 13.5 72t37.5 60t56 43t69 21v49q0 15 -7 23.5t-15 13.5q-10 5 -22 6v2h130v-2q-12 -1 -21 -6q-8 -5 -15 -13.5t-7 -23.5v-49q37 -4 69 -21t55.5 -43t37 -60t13.5 -72t-13.5 -71.5t-37 -60t-55.5 -43.5t-69 -21v-50q0 -15 7 -23t15 -13q9 -5 21 -6v-2h-130v2
q12 1 22 6q8 5 15 13t7 23v50q-37 4 -69 21t-56 43t-37.5 60t-13.5 72zM197 15v363q-28 -5 -52 -22t-42 -41.5t-28 -55t-10 -63.5t10 -63.5t28 -55t42 -41t52 -21.5zM240 15q28 5 52 21.5t41.5 41t27.5 55t10 63.5t-10.5 63.5t-28 55t-41 41.5t-51.5 22v-363z" />
    <glyph glyph-name="uni0445" unicode="&#x445;" horiz-adv-x="357" 
d="M21 0v3q14 0 26 6.5t21.5 15.5t15.5 18t8 13l67 132l-71 152q-2 5 -7.5 13t-14 16t-20 14t-25.5 6v3h143v-3q-8 0 -15 -4t-11.5 -11t-6 -14.5t1.5 -15.5l51 -108l46 91q13 26 37 45.5t54 19.5v-71h-3q0 5 -3.5 10.5t-10 10t-14.5 6t-17 -0.5q-8 -2 -15.5 -7t-12.5 -15
l-54 -105l77 -164q2 -3 7 -12t13.5 -18t20.5 -16t27 -7v-3h-142v3q17 0 27.5 14.5t2.5 30.5l-58 124l-64 -126q-7 -16 3 -29.5t27 -13.5v-3h-111z" />
    <glyph glyph-name="uni0446" unicode="&#x446;" horiz-adv-x="362" 
d="M21 390v2h130v-2q-12 -1 -21 -6q-8 -5 -15 -13t-7 -23v-301q0 -14 9.5 -23.5t23.5 -9.5h64q14 0 23.5 9.5t9.5 23.5v301q0 15 -6.5 23t-14.5 13q-10 5 -22 6v2h130v-2q-12 -1 -22 -6q-8 -5 -15 -13t-7 -23v-292q0 -14 5.5 -22t14 -12.5t19.5 -6t21 -1.5l-22 -85h-3
q8 40 -3.5 55.5t-28.5 15.5h-263v3q12 1 22 6q8 5 15 13t7 23v303q0 15 -7 23t-15 13q-10 5 -22 6z" />
    <glyph glyph-name="uni0447" unicode="&#x447;" horiz-adv-x="331" 
d="M86 392q9 0 15.5 -6t6.5 -15v-48q0 -40 7 -65t17.5 -39.5t24 -19.5t25.5 -5q8 0 15.5 1.5t13.5 3.5t12 5v143q0 15 -7 23.5t-15 13.5q-10 5 -22 6v2h131v-2q-12 -1 -22 -6q-8 -5 -15 -13.5t-7 -23.5v-302q0 -15 7 -23t15 -13q10 -5 22 -6v-3h-131v3q12 1 22 6q8 5 15 13
t7 23v145q-30 -9 -53 -9q-21 0 -36 6t-26.5 16t-19 23t-12.5 26q-11 31 -11 71v24q0 15 -7 23.5t-15 13.5q-10 5 -22 6v2h65z" />
    <glyph glyph-name="uni0448" unicode="&#x448;" horiz-adv-x="516" 
d="M21 392h130v-3q-12 -1 -21 -6q-8 -4 -15 -12.5t-7 -23.5v-300q0 -14 9.5 -23.5t23.5 -9.5h63q14 0 23.5 9.5t9.5 23.5v300q0 15 -7 23.5t-15 12.5q-10 5 -22 6v3h130v-3q-12 -1 -21 -6q-8 -4 -15 -12.5t-7 -23.5v-300q0 -14 9.5 -23.5t23.5 -9.5h63q14 0 23.5 9.5
t9.5 23.5v300q0 15 -7 23.5t-15 12.5q-10 5 -22 6v3h130v-3q-12 -1 -21 -6q-8 -4 -15 -12.5t-7 -23.5v-302q0 -15 7 -23t15 -13q9 -5 21 -6v-3h-474v3q12 1 22 6q8 5 15 13t7 23v302q0 15 -7 23.5t-15 12.5q-10 5 -22 6v3z" />
    <glyph glyph-name="uni0449" unicode="&#x449;" horiz-adv-x="533" 
d="M21 390v2h130v-2q-12 -1 -21 -6q-8 -5 -15 -13.5t-7 -23.5v-300q0 -14 9.5 -23.5t23.5 -9.5h63q14 0 23.5 9.5t9.5 23.5v300q0 15 -7 23.5t-15 13.5q-10 5 -22 6v2h130v-2q-12 -1 -21 -6q-8 -5 -15 -13.5t-7 -23.5v-300q0 -14 9.5 -23.5t23.5 -9.5h63q14 0 23.5 9.5
t9.5 23.5v300q0 15 -7 23.5t-15 13.5q-10 5 -22 6v2h130v-2q-12 -1 -21 -6q-8 -5 -15 -13.5t-7 -23.5v-294q0 -13 5.5 -21t14.5 -12t19.5 -5t20.5 -1l-23 -85h-3q2 9 2.5 21t-2.5 23.5t-10 19t-21 7.5h-434v3q12 1 22 6q8 5 15 13t7 23v302q0 15 -7 23.5t-15 13.5
q-10 5 -22 6z" />
    <glyph glyph-name="uni044A" unicode="&#x44a;" horiz-adv-x="293" 
d="M65 45v333q-14 0 -22.5 -7t-12.5 -15q-5 -10 -6 -22h-2v72h2q0 -5 5 -9.5t10 -4.5h112v-2q-12 -1 -21 -6q-8 -5 -15 -13.5t-7 -23.5v-144h59q21 0 40.5 -8t33.5 -21.5t22.5 -32t8.5 -39.5t-8 -39.5t-22 -32.5t-33 -22t-40 -8h-148v3q12 1 22 6q8 5 15 13t7 23zM108 47
q0 -14 9.5 -23.5t23.5 -9.5h26q26 0 44 26t18 62t-18.5 61.5t-44.5 25.5h-58v-142z" />
    <glyph glyph-name="uni044B" unicode="&#x44b;" horiz-adv-x="444" 
d="M21 390v2h130v-2q-12 -1 -21 -6q-8 -5 -15 -13.5t-7 -23.5v-144h59q21 0 40.5 -8t33.5 -21.5t22.5 -32t8.5 -39.5t-8 -39.5t-22 -32.5t-33 -22t-40 -8h-148v3q12 1 22 6q8 5 15 13t7 23v302q0 15 -7 23.5t-15 13.5q-10 5 -22 6zM108 189v-142q0 -14 9.5 -23.5t23.5 -9.5
h26q26 0 44 26t18 62t-18.5 61.5t-44.5 25.5h-58zM336 45v302q0 15 -6.5 23.5t-14.5 13.5q-10 5 -22 6v2h130v-2q-12 -1 -21 -6q-8 -5 -15 -13.5t-7 -23.5v-302q0 -15 7 -23t15 -13q9 -5 21 -6v-3h-130v3q12 1 22 6q8 5 14.5 13t6.5 23z" />
    <glyph glyph-name="uni044C" unicode="&#x44c;" horiz-adv-x="292" 
d="M21 3q12 1 22 6q8 5 15 13t7 23v302q0 15 -7 23.5t-15 13.5q-10 5 -22 6v2h130v-2q-12 -1 -21 -6q-8 -5 -15 -13.5t-7 -23.5v-144h59q21 0 40 -8t33.5 -21.5t22.5 -32t8 -39.5t-8 -39.5t-21.5 -32.5t-32.5 -22t-40 -8h-148v3zM108 47q0 -14 9.5 -23.5t23.5 -9.5h25
q26 0 44 26t18 62t-18.5 61.5t-44.5 25.5h-57v-142z" />
    <glyph glyph-name="uni044D" unicode="&#x44d;" horiz-adv-x="264" 
d="M35 99q11 -38 32 -62.5t46 -24.5q19 0 35 15.5t27.5 42t18 61t6.5 72.5q-7 -8 -23 -19.5t-36 -11.5q-12 0 -24 5.5t-20 13.5q-9 9 -21 14t-26 -2l-1 2q4 4 8 7q5 2 10.5 4.5t12.5 2.5q8 0 18.5 -3.5t27.5 -13.5q9 -5 17 -9t14 -4q13 0 25.5 11.5t16.5 16.5q-1 34 -8 64
t-18 52t-25.5 34.5t-30.5 12.5q-26 0 -47.5 -17.5t-24.5 -41.5h-3l7 71h2q-2 -22 22 -10q11 5 24 9t24 4q25 0 47 -15.5t38.5 -42.5t26.5 -63t10 -77t-10 -77.5t-27 -63.5t-40 -43t-50 -16q-34 0 -56 26t-39 71z" />
    <glyph glyph-name="uni044E" unicode="&#x44e;" horiz-adv-x="444" 
d="M151 392v-2q-12 -1 -21 -6q-8 -5 -15 -13t-7 -23v-143h64q1 39 11.5 74t27.5 60.5t39.5 40.5t47.5 15q26 0 48.5 -15.5t39.5 -42.5t27 -63t10 -77t-10 -77.5t-27 -63.5t-39.5 -43t-48.5 -16q-25 0 -47.5 15.5t-39.5 41.5t-27.5 61t-11.5 75h-64v-145q0 -15 7 -23t15 -13
q9 -5 21 -6v-3h-130v3q12 1 22 6q8 5 15 13t7 23v303q0 15 -7 23t-15 13q-10 5 -22 6v2h130zM298 12q17 0 32 14.5t26 40t17.5 59t6.5 71.5t-6.5 71.5t-17.5 58t-26 39t-32 14.5t-32 -14.5t-26.5 -39t-18 -58t-6.5 -71.5t6.5 -71.5t18 -59t26.5 -40t32 -14.5z" />
    <glyph glyph-name="uni044F" unicode="&#x44f;" horiz-adv-x="331" 
d="M21 0v3q12 1 22 6q8 5 15 13t7 23v25q0 25 8 48q7 20 24 40.5t49 32.5q-35 8 -58.5 35.5t-22.5 64.5q1 42 30.5 71.5t72.5 29.5h142v-2q-12 -1 -22 -6q-8 -5 -15 -13.5t-7 -23.5v-302q0 -15 7 -23t15 -13q10 -5 22 -6v-3h-131v3q12 1 22 6q8 5 15 13t7 23v145
q-32 -1 -57 -14q-22 -11 -40 -35t-18 -71v-48q0 -9 -6.5 -15.5t-15.5 -6.5h-65zM178 203q11 0 22.5 0.5t22.5 0.5v141q0 14 -9.5 23.5t-23.5 9.5h-20q-26 0 -44 -25.5t-18 -61.5t19.5 -62t50.5 -26z" />
    <glyph glyph-name="uni0451" unicode="&#x451;" horiz-adv-x="264" 
d="M21 197q0 41 10 77t26.5 62.5t39 42.5t47.5 16q15 0 26.5 -3.5t20 -7t13.5 -4.5t7 4q1 2 1 4t1 4h2l7 -71l-3 -1q-2 25 -24 42.5t-49 17.5q-16 0 -30 -12.5t-25 -34.5t-18 -51.5t-9 -64.5h99q15 0 23 7t13 15q5 10 6 22h2v-101h-2q-1 12 -6 22q-5 8 -13 14.5t-23 6.5h-99
q0 -38 6.5 -72.5t18 -61t27.5 -42t35 -15.5q24 0 45.5 24.5t32.5 62.5l14 -5q-17 -45 -39 -71t-56 -26q-27 0 -50 16t-40 43t-27 63.5t-10 77.5zM168 509q9 0 15 -6.5t6 -15.5q0 -8 -6 -14.5t-15 -6.5t-15.5 6.5t-6.5 14.5q0 9 6.5 15.5t15.5 6.5zM89 487q0 9 6 15.5t15 6.5
t15.5 -6.5t6.5 -15.5q0 -8 -6.5 -14.5t-15.5 -6.5t-15 6.5t-6 14.5z" />
    <glyph glyph-name="uni0452" unicode="&#x452;" horiz-adv-x="301" 
d="M21 588h129v-3q-12 -1 -21 -6q-8 -4 -15 -12t-7 -23v-94h115v-15h-115v-52q42 14 71 11t48.5 -16t30 -32.5t16 -39t6.5 -35t1 -20.5v-235q0 -29 -3 -57q-8 -66 -30.5 -110t-58.5 -44q-18 0 -34.5 10.5t-29.5 26t-21 33t-8 31.5q0 11 6.5 17.5t14.5 6.5q9 0 15 -5t7 -13
q2 -42 13.5 -67.5t31.5 -25.5q15 0 25.5 14.5t17 39t9 57.5t2.5 71v248q0 35 -5.5 58.5t-14.5 38.5t-21 22.5t-24 9.5q-29 6 -65 -9v-325q0 -14 7 -22.5t15 -13.5q9 -5 21 -6v-2h-129v2q12 1 22 6q8 5 14.5 13.5t6.5 22.5v391h-43v15h43v94q0 15 -6.5 23t-14.5 12
q-10 5 -22 6v3z" />
    <glyph glyph-name="uni0453" unicode="&#x453;" horiz-adv-x="293" 
d="M21 0v3q12 1 22 6q8 5 15 13t7 23v309q0 14 -7 21.5t-15 10.5q-10 3 -22 3v3h226q5 0 9.5 4.5t4.5 9.5h2l9 -86h-2q-4 25 -25.5 41.5t-47.5 16.5h-56q-14 0 -23.5 -9.5t-9.5 -23.5v-300q0 -15 7 -23t15 -13q9 -5 21 -6v-3h-130zM184 535h17l-60 -100h-18z" />
    <glyph glyph-name="uni0454" unicode="&#x454;" horiz-adv-x="259" 
d="M226 133q13 -16 12 -39t-12.5 -44.5t-31.5 -37t-46 -15.5q-27 0 -50 16t-40 43t-27 63.5t-10 77.5v0q0 41 10 77t26.5 62.5t39 42.5t47.5 16q15 0 26.5 -3.5t20 -7t13.5 -4.5t7 4q1 3 1 8h3l7 -71l-3 -1q-2 25 -24 42.5t-49 17.5q-16 0 -30 -12.5t-25 -34.5t-18 -51.5
t-9 -64.5h99q15 0 23 7t13 15q5 10 6 22h2v-102h-2q-1 12 -6 22q-5 8 -13 15t-23 7h-99q0 -38 6.5 -72.5t18 -61t27.5 -42t35 -15.5q18 0 32.5 9.5t24.5 24t14 30.5t2 28q-8 -7 -17 -7t-16 8q-6 7 -5 16t8 14t17 5t15 -7z" />
    <glyph glyph-name="uni0455" unicode="&#x455;" horiz-adv-x="220" 
d="M17 72q3 -25 24.5 -42.5t47.5 -17.5q13 0 25 7.5t21.5 19.5t15 28.5t5.5 34.5q0 35 -18 56.5t-48 35.5q-31 15 -51.5 38t-20.5 58q0 21 8 40t21.5 33.5t32 23t39.5 8.5q18 0 34 -7t24 -7t7 11h2l8 -71l-3 -1q-4 25 -25 42.5t-47 17.5t-42 -27t-16 -63q0 -32 12 -55
t41 -32q35 -11 60 -38t25 -63q0 -21 -9 -40t-24.5 -33.5t-35.5 -23t-41 -8.5q-16 0 -32 8t-26 8q-9 0 -8 -13h-2l-7 71z" />
    <glyph glyph-name="uni0456" unicode="&#x456;" horiz-adv-x="172" 
d="M151 392v-2q-12 -1 -22 -6q-8 -5 -14.5 -13t-7.5 -23v-303q1 -15 7.5 -23t14.5 -13q10 -5 22 -6v-3h-130v3q12 1 22 6q8 4 14.5 11t6.5 21v307q0 15 -6.5 23t-14.5 13q-10 5 -22 6v2h130zM64 485q0 9 6.5 15t15.5 6t15 -6t6 -15t-6 -15.5t-15 -6.5t-15.5 6.5t-6.5 15.5z
" />
    <glyph glyph-name="uni0457" unicode="&#x457;" horiz-adv-x="172" 
d="M21 390v2h130v-2q-12 -1 -22 -6q-8 -5 -15 -13t-7 -23v-303q0 -15 7 -23t15 -13q10 -5 22 -6v-3h-130v3q12 1 22 6q8 4 14.5 11t6.5 21v307q0 15 -6.5 23t-14.5 13q-10 5 -22 6zM129 478q9 0 15.5 -6.5t6.5 -14.5q0 -9 -6.5 -15.5t-15.5 -6.5t-15 6.5t-6 14.5q0 9 6 15.5
t15 6.5zM43 478q9 0 15 -6.5t6 -14.5q0 -9 -6 -15.5t-15 -6.5t-15.5 6.5t-6.5 14.5q0 9 6.5 15.5t15.5 6.5z" />
    <glyph glyph-name="uni0458" unicode="&#x458;" horiz-adv-x="172" 
d="M21 392h130v-2q-12 -1 -21 -6q-8 -5 -15 -13.5t-7 -23.5v-349q0 -17 -8.5 -30t-19.5 -22q-12 -11 -28 -20l-2 2q4 4 8 13q2 8 4.5 21t2.5 36v349q0 15 -7 23.5t-15 13.5q-10 5 -22 6v2zM65 485q0 9 6 15.5t15 6.5t15.5 -6.5t6.5 -15.5t-6.5 -15t-15.5 -6t-15 6t-6 15z
" />
    <glyph glyph-name="uni0459" unicode="&#x459;" horiz-adv-x="457" 
d="M330 14q26 0 44.5 25.5t18.5 62.5q0 36 -18.5 61.5t-44.5 25.5h-58v-142q1 -14 10 -23.5t23 -9.5h25zM228 355q-2 13 -8.5 19.5t-14.5 10.5q-9 4 -19 5v2h130v-2q-12 -1 -22 -6q-8 -5 -15 -13.5t-7 -23.5v-144h60q21 0 40 -8t33 -21.5t22.5 -32t8.5 -39.5t-8 -39.5
t-22 -32.5t-32.5 -22t-39.5 -8h-148v0v2q12 1 22 7q8 4 14.5 12.5t6.5 23.5v269l-139 -270q-7 -14 -3 -22t12 -13q9 -5 23 -7v-2h-101v2q12 0 22 6.5t17 15.5t11.5 18l6.5 13l148 285q4 9 2 15z" />
    <glyph glyph-name="uni045A" unicode="&#x45a;" horiz-adv-x="466" 
d="M339 14q26 0 44.5 25.5t18.5 62.5q0 36 -18.5 61.5t-44.5 25.5h-58v-142q1 -14 10 -23.5t23 -9.5h25zM195 0h-1v2v0v0q11 1 20 6q8 4 15 11t9 19v7v145h-130v-145q0 -15 7 -23.5t15 -12.5q9 -6 21 -7v-2h-130v2q12 1 22 7q8 4 15 12.5t7 23.5v303q0 15 -7 23t-15 13
q-10 5 -22 6v2h130v-2q-12 -1 -21 -6q-8 -5 -15 -13t-7 -23v-143h130v142q0 15 -7 23.5t-15 13.5q-10 5 -22 6v2v0v0h131v-2v0v0q-12 -1 -21 -6q-8 -4 -14.5 -11.5t-8.5 -21.5v-3v-145h59q21 0 40.5 -8t33.5 -21.5t22.5 -32t8.5 -39.5t-8 -39.5t-22 -32.5t-32.5 -22
t-39.5 -8h-148z" />
    <glyph glyph-name="uni045B" unicode="&#x45b;" horiz-adv-x="344" 
d="M323 0h-129v2q12 1 22 6q8 5 14.5 13.5t6.5 22.5v205q0 35 -5.5 58.5t-14.5 38.5t-21 22.5t-24 9.5q-29 6 -65 -9v-325q0 -14 7 -22.5t15 -13.5q9 -5 21 -6v-2h-129v2q12 1 22 6q8 5 14.5 13.5t6.5 22.5v391h-43v15h43v94q0 15 -6.5 23t-14.5 12q-10 5 -22 6v3h129v-3
q-12 -1 -21 -6q-8 -4 -15 -12t-7 -23v-94h115v-15h-115v-52q33 11 58.5 11t43.5 -7.5t30.5 -20.5t20.5 -28q19 -36 20 -89v-205q0 -14 7 -22.5t15 -13.5q9 -5 21 -6v-2z" />
    <glyph glyph-name="uni045C" unicode="&#x45c;" horiz-adv-x="331" 
d="M21 0v3q12 1 22 6q8 5 15 13t7 23v302q0 15 -7 23.5t-15 13.5q-10 5 -22 6v2h130v-2q-12 -1 -21 -6q-8 -5 -15 -13.5t-7 -23.5v-143l61 117q10 20 24 36q12 13 29.5 24t40.5 11v-71h-2q0 5 -4 10.5t-10 10t-14.5 6t-17.5 -0.5q-8 -2 -16.5 -8.5t-14.5 -17.5l-60 -117
q65 1 103.5 -33t38.5 -101v-25q0 -15 7 -23t15 -13q10 -5 22 -6v-3h-65q-9 0 -15.5 6.5t-6.5 15.5v48q0 47 -18 71t-39 35q-26 13 -58 14v-145q0 -15 7 -23t15 -13q9 -5 21 -6v-3h-130zM195 535h17l-60 -100h-18z" />
    <glyph glyph-name="uni045E" unicode="&#x45e;" horiz-adv-x="333" 
d="M149 392v-3q-11 -1 -19 -5q-7 -4 -11.5 -11.5t-1.5 -21.5l64 -244l56 215q7 27 26 48.5t50 21.5v-71h-3q0 11 -8.5 19t-19.5 8t-19.5 -8t-11.5 -19l-84 -321q-4 -14 -10.5 -30t-15.5 -30t-21.5 -23.5t-29.5 -9.5q-9 0 -15.5 6.5t-6.5 15.5t6.5 15t15.5 6q11 0 16.5 -7
t4.5 -18q9 5 18.5 19.5t16.5 32t10 35.5t0 30l-78 293q-1 2 -3.5 11t-9 18.5t-17 17t-27.5 7.5v3h128zM81 480q29 -15 50 -23t51 -8q29 0 50 8t50 23v-15q-29 -15 -50 -23t-50 -8q-30 0 -51 8t-50 23v15z" />
    <glyph glyph-name="uni045F" unicode="&#x45f;" horiz-adv-x="346" 
d="M21 392h130v-3q-12 -1 -21 -6q-8 -4 -15 -12.5t-7 -23.5v-301q0 -13 9.5 -22t23.5 -9h64q14 0 23.5 9.5t9.5 23.5v299q0 15 -7 23.5t-15 12.5q-10 5 -22 6v3h131v-3q-12 -1 -22 -6q-8 -4 -15 -12.5t-7 -23.5v-302q0 -15 7 -23.5t15 -12.5q10 -6 22 -7v-2h-109
q-14 0 -22.5 -7t-13.5 -15q-5 -10 -6 -22h-2q-1 12 -6 22q-5 8 -13.5 15t-23.5 7h-108v2q12 1 22 7q8 4 15 12.5t7 23.5v302q0 15 -7 23.5t-15 12.5q-10 5 -22 6v3z" />
    <glyph glyph-name="uni0490" unicode="&#x490;" horiz-adv-x="434" 
d="M413 846v-72h-3h-54h-202q-14 0 -23 -9.5t-9 -23.5v-683q0 -24 16.5 -39.5t40.5 -15.5v-3h-158v3q25 0 41 15t16 40v673q0 23 -16.5 39t-40.5 16v3h335q23 0 39 16.5t16 40.5h2z" />
    <glyph glyph-name="uni0491" unicode="&#x491;" horiz-adv-x="284" 
d="M263 436v-58h-122q-14 0 -23.5 -9.5t-9.5 -23.5v-300q0 -15 7 -23.5t15 -12.5q9 -6 21 -7v-2h-130v2q12 1 22 7q8 4 15 12.5t7 23.5v309q0 14 -7 21.5t-15 10.5q-10 3 -22 3v3h204q13 0 20 7t10 15q5 10 6 22h2z" />
    <glyph glyph-name="endash" unicode="&#x2013;" horiz-adv-x="243" 
d="M222 205v-15h-201v15h201z" />
    <glyph glyph-name="emdash" unicode="&#x2014;" horiz-adv-x="430" 
d="M409 205v-15h-388v15h388z" />
    <glyph glyph-name="quoteleft" unicode="&#x2018;" horiz-adv-x="85" 
d="M21 343q0 8 4.5 16.5t9.5 16.5t13 16l6 -5q-4 -4 -5 -9q-1 -4 0 -9t7 -10q8 -6 8 -17q0 -9 -6 -15t-15 -6t-15.5 6t-6.5 16z" />
    <glyph glyph-name="quoteright" unicode="&#x2019;" horiz-adv-x="85" 
d="M21 371q0 8 6.5 14.5t15.5 6.5t15 -6.5t6 -16.5q0 -8 -4 -16t-9 -16q-6 -8 -14 -16l-5 5q4 4 5 9q1 4 0 9t-8 10q-8 6 -8 17z" />
    <glyph glyph-name="quotesinglbase" unicode="&#x201a;" horiz-adv-x="85" 
d="M21 22q0 8 6.5 14.5t15.5 6.5t15 -6.5t6 -16.5q0 -8 -4 -16.5t-9 -16.5q-6 -8 -14 -16l-5 5q3 4 5 9q2 11 -8 20q-8 6 -8 17z" />
    <glyph glyph-name="quotedblleft" unicode="&#x201c;" horiz-adv-x="171" 
d="M21 343q0 8 4.5 16.5t9.5 16.5t13 16l6 -5q-4 -4 -5 -9q-1 -4 0 -9t7 -10q8 -6 8 -17q0 -9 -6 -15t-15 -6t-15.5 6t-6.5 16zM134 392l6 -5q-4 -4 -5 -9q-2 -10 8 -19q7 -7 7 -17q0 -9 -6 -15t-15 -6t-15.5 6t-6.5 16q0 8 4.5 16.5t9.5 16.5t13 16z" />
    <glyph glyph-name="quotedblright" unicode="&#x201d;" horiz-adv-x="171" 
d="M107 370q0 9 6.5 15.5t15.5 6.5t15 -6.5t6 -16.5q0 -8 -4 -16t-9 -16q-6 -8 -14 -16l-5 5q3 4 5 9q2 10 -8 19q-8 6 -8 16zM21 370q0 9 6.5 15.5t15.5 6.5t15 -6.5t6 -16.5q0 -8 -4 -16t-9 -16q-6 -8 -14 -16l-5 5q3 4 5 9q2 10 -8 19q-8 6 -8 16z" />
    <glyph glyph-name="quotedblbase" unicode="&#x201e;" horiz-adv-x="171" 
d="M43 43q9 0 15 -6.5t6 -16.5q0 -8 -4 -16.5t-9 -16.5q-6 -8 -14 -16l-5 5q3 4 5 9q2 11 -8 20q-8 6 -8 17q0 8 6.5 14.5t15.5 6.5zM129 41q9 0 15 -6.5t6 -16.5q0 -8 -4 -16.5t-9 -16.5q-6 -8 -13 -16l-6 5q4 4 5 9q1 4 0 9t-8 11q-3 3 -5.5 7t-2.5 9q0 9 6.5 15.5
t15.5 6.5z" />
    <glyph glyph-name="dagger" unicode="&#x2020;" horiz-adv-x="243" 
d="M57 588h129v-2q-12 -1 -21 -6q-8 -5 -15 -13t-7 -23v-152h79v-15h-79v-333q0 -14 7 -22.5t15 -13.5q9 -5 21 -6v-2h-129v2q12 1 22 6q8 4 14.5 11.5t6.5 21.5v336h-79v15h79v152q0 15 -6.5 23t-14.5 13q-10 5 -22 6v2z" />
    <glyph glyph-name="daggerdbl" unicode="&#x2021;" horiz-adv-x="243" 
d="M57 588h129v-2q-12 -1 -21 -6q-8 -5 -15 -13t-7 -23v-152h79v-15h-79v-172h79v-15h-79v-146q0 -14 7 -22.5t15 -13.5q9 -5 21 -6v-2h-129v2q12 1 22 6q8 4 14.5 11.5t6.5 21.5v149h-79v15h79v172h-79v15h79v152q0 15 -6.5 23t-14.5 13q-10 5 -22 6v2z" />
    <glyph glyph-name="bullet" unicode="&#x2022;" horiz-adv-x="142" 
d="M21 199q0 21 14.5 35.5t35.5 14.5q20 0 35 -14.5t15 -34.5t-15 -35t-35 -15q-21 0 -35.5 14.5t-14.5 34.5z" />
    <glyph glyph-name="ellipsis" unicode="&#x2026;" horiz-adv-x="255" 
d="M21 22q0 9 6.5 15t15.5 6q8 0 14.5 -6t6.5 -15t-6.5 -15.5t-14.5 -6.5q-9 0 -15.5 6.5t-6.5 15.5zM106 22q0 9 6.5 15t15.5 6q8 0 14.5 -6t6.5 -15t-6.5 -15.5t-14.5 -6.5q-9 0 -15.5 6.5t-6.5 15.5zM191 22q0 9 6.5 15t15.5 6q8 0 14.5 -6t6.5 -15t-6.5 -15.5
t-14.5 -6.5q-9 0 -15.5 6.5t-6.5 15.5z" />
    <glyph glyph-name="perthousand" unicode="&#x2030;" horiz-adv-x="759" 
d="M305 147q0 30 8 57t22 47t32 31.5t37 11.5t37 -11.5t31.5 -31.5t22 -47t8.5 -57t-8.5 -57t-22 -47t-31.5 -31.5t-37 -11.5t-37 11.5t-32 31.5t-22 47t-8 57zM541 147q0 30 8 57t21.5 47t31.5 31.5t37 11.5q20 0 37.5 -11.5t31.5 -31.5t22 -47t8 -57t-8 -57t-22 -47
t-31.5 -31.5t-37.5 -11.5q-19 0 -37 11.5t-31.5 31.5t-21.5 47t-8 57zM21 245q0 30 8 57t22 47t32 31.5t37 11.5t37 -11.5t31.5 -31.5t22 -47t8.5 -57t-8.5 -57t-22 -47t-31.5 -31.5t-38 -11.5q-19 0 -37 11.5t-31.5 31.5t-21.5 47t-8 57zM583 147q0 -57 15 -94.5t41 -37.5
t41.5 37.5t15.5 94.5t-15.5 94.5t-41.5 37.5t-41 -37.5t-15 -94.5zM119 113q26 0 41.5 37.5t15.5 94.5t-15.5 94.5t-41.5 37.5t-40.5 -37.5t-14.5 -94.5t14.5 -94.5t40.5 -37.5zM348 147q0 -28 4 -52t11 -42t17.5 -28t23.5 -10q26 0 41 37.5t15 94.5t-15 94.5t-41 37.5
t-41 -37.5t-15 -94.5zM133 0l240 392h18l-240 -392h-18z" />
    <glyph glyph-name="guilsinglleft" unicode="&#x2039;" horiz-adv-x="162" 
d="M141 317v-30l-89 -90l89 -90v-30l-120 120z" />
    <glyph glyph-name="guilsinglright" unicode="&#x203a;" horiz-adv-x="162" 
d="M141 197l-120 -120v30l90 90l-90 90v30z" />
    <glyph glyph-name="fraction" unicode="&#x2044;" horiz-adv-x="299" 
d="M261 392h17l-239 -392h-18z" />
    <glyph glyph-name="franc" unicode="&#x20a3;" horiz-adv-x="443" 
d="M21 0v3q24 0 40.5 15.5t16.5 39.5v672q0 24 -16.5 40t-40.5 16v2h375q6 0 10 4.5t4 10.5h2l10 -86l-3 -1q-1 9 -7.5 19t-16.5 18.5t-23 14.5t-26 6h-193q-14 0 -22.5 -10t-8.5 -23v-340h175q23 0 37 17.5t14 40.5h3v-129h-3q0 23 -14 40t-37 17h-175v-329
q0 -24 16.5 -39.5t40.5 -15.5v-3h-158zM222 205v-15h-201v15h201z" />
    <glyph glyph-name="lira" unicode="&#x20a4;" horiz-adv-x="301" 
d="M21 159v15h43v16h-43v15h43v172q0 14 0.5 24.5t2.5 32.5v-1q4 33 14 61.5t23.5 49.5t30.5 32.5t35 11.5t37 -10.5t35.5 -26.5t27 -33t10.5 -31q0 -11 -6.5 -17.5t-15.5 -6.5q-8 0 -14.5 5t-6.5 13q-1 21 -7 38t-15 29t-19.5 18.5t-21.5 6.5q-15 0 -27.5 -14t-21 -39
t-13.5 -57.5t-5 -70.5v-187h115v-15h-115v-16h115v-15h-115v-112q0 -14 9.5 -23.5t23.5 -9.5h64q26 1 47.5 17t25.5 41h2l-9 -86h-2q0 5 -4.5 9.5t-9.5 4.5h-233v2q12 1 22 6q8 5 14.5 13.5t6.5 22.5v115h-43z" />
    <glyph glyph-name="Euro" unicode="&#x20ac;" horiz-adv-x="579" 
d="M92 400v-6v-9h130v-15h-129q3 -75 27.5 -140t64 -113t92.5 -75.5t114 -27.5q46 0 88 16t78 45l1 -3q-40 -34 -87.5 -53t-101.5 -19q-65 0 -122.5 29t-101.5 79t-71 117.5t-31 144.5h-22v15h21v9v6h-21v15h21q4 78 31.5 146t72 118.5t102.5 79.5t124 29h68q8 0 12 4.5
t4 10.5h3l77 -86l-2 -1q-18 19 -36.5 30.5t-35.5 17.5t-32 8t-26 2h-13q-61 0 -114 -28t-93 -76.5t-64 -114t-27 -140.5h129v-15h-130z" />
    <glyph glyph-name="trademark" unicode="&#x2122;" horiz-adv-x="596" 
d="M30 406h3q0 -5 4 -9.5t10 -4.5h227q5 0 9.5 4.5t4.5 9.5h2l9 -85l-3 -1q-2 24 -22.5 41t-45.5 17h-13q-14 0 -23.5 -9.5t-9.5 -23.5v-108q0 -14 7 -22.5t15 -13.5q9 -5 21 -6v-2h-130v2q12 1 22 6q8 4 15 11.5t7 20.5v112q0 14 -9.5 23.5t-23.5 9.5h-14q-25 0 -45 -17
t-23 -41l-3 1zM425 193h-57q4 14 5 21.5t-2 21.5l-28 108l-28 -108q-4 -14 0.5 -22t11.5 -13q8 -5 20 -6v-2h-101v2q15 0 25.5 7t17 16.5t10.5 18.5t5 13l27 101q2 9 2 20t-3 20v1h57q-3 -11 -5 -20.5t2 -21.5q6 -25 12.5 -49t12.5 -49l27 99q5 20 0 40v1h57
q-3 -11 -5 -20.5t2 -21.5l27 -100q6 -23 19 -39t39 -16v-2h-129v2q11 1 19 6q8 4 12.5 11.5t0.5 21.5q-7 28 -14.5 55.5t-15.5 55.5l-26 -100q-2 -9 -2.5 -20t2.5 -20z" />
    <glyph glyph-name="minus" unicode="&#x2212;" horiz-adv-x="339" 
d="M318 219v-43h-297v43h297z" />
    <glyph glyph-name="t_r" horiz-adv-x="398" 
d="M377 370q0 -9 -6.5 -15t-15.5 -6q-10 0 -16.5 8t-4.5 18q-24 -7 -40 -27t-16 -46v-258q0 -14 7 -22.5t15 -12.5q9 -5 21 -6v-3h-129v3q12 1 22 6q8 5 14.5 13t6.5 23v290q0 17 -6.5 25t-14.5 12q-10 5 -22 5h-85v-332q0 -15 7 -23t15 -13q9 -5 21 -6v-3h-64
q-9 0 -15.5 6.5t-6.5 15.5v355h-43v15q32 0 49 12.5t25 26.5q9 17 10 39h2v-78h149q9 0 15.5 -6.5t6.5 -15.5v-21q12 19 33 31t44 12q10 0 16 -6.5t6 -14.5v-1z" />
    <glyph glyph-name="t_w" horiz-adv-x="590" 
d="M107 470v-78h149v-3q-18 0 -27.5 -10.5t-4.5 -27.5l64 -244l48 182q2 7 3 13t1 13q0 18 -7 38.5t-13 38.5h57q-3 -12 -4 -22t1 -22q8 -45 17.5 -80t20.5 -70l26 -91l56 215q8 27 27 48.5t48 21.5v-71h-2q0 11 -8.5 19t-19.5 8t-19.5 -8t-11.5 -19l-59 -226q-2 -3 -2 -7
v-8q0 -16 5 -33.5t10 -32.5l4 -14h-56q4 20 4 28v6.5t-1 7.5l-64 242l-50 -189q-1 -4 -1 -15q0 -15 3.5 -30.5t8.5 -29.5l6 -20h-56l1 5q2 6 3 11t1 11q0 3 -0.5 6.5t-1.5 8.5l-74 281q-6 23 -19 38.5t-39 15.5h-24v-332q0 -15 6 -23.5t14 -12.5t15 -5t9 -1v-3h-65
q-9 0 -15.5 6.5t-6.5 15.5v355h-43v15q31 0 48 10t25 23t9.5 25.5t1.5 17.5v2h2z" />
    <glyph glyph-name="t_i" horiz-adv-x="343" 
d="M257 463q-9 0 -15.5 6.5t-6.5 15.5q0 8 6.5 14.5t15.5 6.5t15 -6.5t6 -14.5q0 -9 -6 -15.5t-15 -6.5zM322 0h-130v2q12 1 22 6q8 4 14.5 11.5t6.5 21.5v294q0 16 -6.5 24.5t-14.5 12.5q-10 4 -22 5h-85v-332q0 -15 7 -23t15 -13q9 -5 21 -6v-3h-64q-9 0 -15.5 6.5
t-6.5 15.5v355h-43v15q32 0 49 12.5t25 26.5q9 17 10 39h2v-78h215v-3q-12 -1 -22 -6q-8 -4 -15 -12.5t-7 -23.5v-303q0 -14 7 -22.5t15 -13.5q10 -5 22 -6v-2z" />
    <glyph glyph-name="t_u" horiz-adv-x="501" 
d="M480 392v-2q-12 -1 -22 -6q-8 -5 -15 -13t-7 -23v-304q0 -14 7 -22.5t15 -13.5q10 -5 22 -6v-2h-65v0q-9 0 -15 6.5t-6 14.5v25q-10 -21 -26 -35t-40 -14q-22 0 -42 11.5t-34 31.5t-22.5 46.5t-8.5 56.5v193q0 17 -7 25t-15 12q-10 4 -22 4h-70v-332q0 -15 7 -23t15 -13
q9 -5 21 -6v-3h-64q-9 0 -15.5 6.5t-6.5 15.5v355h-43v15q32 0 49 12.5t25 26.5q9 17 10 39h2v-78h135q9 0 15.5 -6.5t6.5 -14.5v-228q0 -27 5 -51t14 -42t20.5 -28.5t24.5 -10.5q26 0 46 29.5t20 102.5v205q0 15 -7 23t-15 13q-10 5 -22 6v2h130z" />
    <glyph glyph-name="t_y" horiz-adv-x="476" 
d="M455 321h-3q0 11 -8 19.5t-19 8.5q-12 0 -20 -8.5t-11 -19.5l-85 -320q-4 -14 -10 -30t-15.5 -30t-22 -23.5t-29.5 -9.5v0q-9 0 -15 6.5t-6 14.5q0 9 6 15.5t15 6.5q11 0 16.5 -7.5t4.5 -17.5q10 5 19.5 19.5t16 32t9.5 35t0 29.5l-74 281q-6 22 -19 38t-39 16h-59v-332
q0 -15 7 -23t15 -13q9 -5 21 -6v-3h-64q-9 0 -15.5 6.5t-6.5 15.5v355h-43v15q32 0 49 12.5t25 26.5q9 17 10 39h2v-78h185v-3q-12 -1 -20 -5q-7 -4 -11.5 -11.5t-1.5 -21.5l64 -243l57 214q6 27 25.5 48.5t49.5 21.5v-71z" />
    <glyph glyph-name="f_y" horiz-adv-x="476" 
d="M232 -92q-9 0 -15 6.5t-6 14.5q0 9 6 15.5t15 6.5q11 0 16.5 -7.5t4.5 -17.5q10 5 19.5 19.5t16 32t9.5 35t0 29.5l-74 281q-6 22 -19 38t-39 16h-59v-333q0 -14 7 -22.5t15 -13.5q9 -5 21 -6v-2h-129v2v0q12 1 22 6q8 5 14.5 13.5t6.5 22.5v333h-43v15q42 0 46 42
q4 33 14 61t23.5 49t30.5 32.5t35 11.5t37 -10.5t35.5 -26.5t27 -33t10.5 -31q0 -11 -6.5 -17.5t-15.5 -6.5q-8 0 -14.5 5t-6.5 13q0 21 -6 38.5t-15 29.5t-20 18t-22 6q-15 0 -27.5 -14t-21 -39t-13.5 -57.5t-5 -70.5h185v-3q-12 -1 -20 -5q-7 -4 -11.5 -11.5t-1.5 -21.5
l64 -243l57 214q6 27 25.5 48.5t49.5 21.5v-71h-3q0 11 -8 19.5t-19 8.5q-12 0 -20 -8.5t-11 -19.5l-85 -320q-4 -14 -10 -30t-15.5 -30t-22 -23.5t-29.5 -9.5v0z" />
    <glyph glyph-name="f_r" horiz-adv-x="398" 
d="M377 371q0 -10 -6.5 -16t-15.5 -6q-10 0 -16.5 8t-4.5 18q-24 -7 -40 -27t-16 -46v-258q0 -14 7 -22.5t15 -12.5q9 -5 21 -6v-3h-129v3q12 1 22 6q8 5 14.5 13t6.5 23v290q0 17 -6.5 25t-14.5 12q-10 5 -22 5h-85v-333q0 -18 13 -30t30 -12v-2h-129v2q12 1 22 6
q8 5 14.5 13.5t6.5 22.5v333h-43v15q42 0 46 42v-1q4 33 14 61.5t23.5 49.5t30.5 32.5t35 11.5t37 -10.5t35.5 -26.5t27 -33t10.5 -31q0 -11 -6.5 -17.5t-15.5 -6.5q-8 0 -14.5 5t-6.5 13q-1 21 -7 38t-15 29t-19.5 18.5t-21.5 6.5q-15 0 -27.5 -14t-21 -39t-13.5 -57.5
t-5 -70.5h149q9 0 15.5 -6.5t6.5 -14.5v-22q12 20 33 31.5t44 11.5q10 0 16 -6t6 -15v0z" />
    <glyph glyph-name="t_z" horiz-adv-x="527" 
d="M21 377v15q31 0 48 10t25 23t9.5 25.5t1.5 17.5v2h2v-78h399v-3q-13 0 -24.5 -5.5t-20 -13.5t-14 -16.5t-7.5 -13.5l-138 -298q-2 -3 -2 -9q0 -8 5 -13.5t14 -5.5h112q26 0 47.5 16.5t24.5 41.5l3 -1l-9 -85h-3q1 6 -3 10t-10 4h-288v3q15 0 27 7.5t20.5 16.5t14 18
t7.5 12l136 293q2 6 2 9q0 8 -5 13t-15 5h-273v-333q0 -15 6 -23t14 -12t15 -5.5t9 -1.5v-2h-65q-9 0 -15.5 6.5t-6.5 14.5v356h-43z" />
    <glyph glyph-name="f_u" horiz-adv-x="501" 
d="M480 0h-65v0h65zM480 392v-3q-12 -1 -22 -6q-8 -4 -15 -12.5t-7 -23.5v-303q0 -14 7 -22.5t15 -13.5q10 -5 22 -6v-2h-65v0q-9 0 -15 6.5t-6 14.5v25q-10 -21 -26.5 -34.5t-39.5 -14.5q-22 0 -42 12t-34 32t-22.5 46t-8.5 56v192q0 13 -4.5 21t-10.5 12.5t-12.5 6.5
t-11.5 2h-75v-333q0 -18 13 -30t30 -12v-2h-129v2q12 1 22 6q8 5 14.5 13.5t6.5 22.5v333h-43v15q42 0 46 42v-1q4 33 14 61.5t23.5 49.5t30.5 32.5t35 11.5t37 -10.5t35.5 -26.5t27 -33t10.5 -31q0 -11 -6.5 -17.5t-15.5 -6.5q-8 0 -14.5 5t-6.5 13q-1 21 -7 38t-15 29
t-19.5 18.5t-21.5 6.5q-15 0 -27.5 -14t-21 -39t-13.5 -57.5t-5 -70.5h135q9 0 15.5 -6.5t6.5 -14.5v-228q0 -27 5 -51t14 -42t20.5 -28.5t24.5 -10.5q26 0 46 29.5t20 102.5v205q0 15 -7 23t-15 12q-10 5 -22 6v3h130z" />
    <glyph glyph-name="t_m" horiz-adv-x="687" 
d="M107 470v-78h150q9 0 15 -6t6 -15v-23q11 18 29 32t37 14q26 1 48.5 -16t37.5 -43q14 26 36.5 42.5t49.5 16.5q22 0 41.5 -11.5t34 -31.5t23 -46.5t8.5 -56.5v-204q0 -14 7 -22.5t15 -13.5q9 -5 21 -6v-2h-129v2q12 1 22 6q8 5 14.5 13.5t6.5 22.5v204q0 27 -5 51
t-14 42.5t-20.5 29t-24.5 10.5t-25 -10.5t-21 -29t-14 -42.5t-5 -51v-204q0 -14 7 -22.5t15 -13.5q9 -5 21 -6v-2h-129v2q12 1 22 6q8 5 14.5 13.5t6.5 22.5v204q0 27 -5 51t-14 42.5t-20.5 29t-24.5 10.5t-25 -10.5t-21 -29t-14.5 -42.5t-5.5 -51v-204q0 -14 7 -22.5
t15 -13.5q10 -5 22 -6v-2h-130v2q12 1 22 6q8 5 14.5 13.5t6.5 22.5v291q0 15 -6 23.5t-14 12.5t-14.5 5t-8.5 1h-85v-332q0 -15 7 -23t15 -13q9 -5 21 -6v-3h-64q-9 0 -15.5 6.5t-6.5 15.5v355h-43v15q32 0 49 12.5t25 26.5q9 17 10 39h2z" />
    <glyph glyph-name="t_n" horiz-adv-x="515" 
d="M494 0h-130v2q12 1 22 6q8 5 14.5 13.5t6.5 22.5v205q0 27 -5 51t-13.5 42t-20 28.5t-25.5 10.5q-13 0 -25 -10.5t-21 -28.5t-14.5 -42t-5.5 -51v-205q0 -14 7 -22.5t15 -12.5q10 -5 22 -6v-3h-130v3q12 1 22 6q8 4 15 12.5t7 22.5v291q0 17 -7 26t-15 12q-10 4 -22 4
h-84v-333q0 -14 7 -22.5t15 -13.5q9 -5 21 -6v-2h-64q-9 0 -15.5 6.5t-6.5 14.5v356h-43v15q32 0 49 12.5t25 26.5q9 17 10 39h2v-78h149q9 0 15 -6t6 -15v-22q11 17 29 31t37 14q22 0 41.5 -11.5t34 -31t23 -46t8.5 -56.5v-205q0 -14 7 -22.5t15 -13.5q10 -5 22 -6v-2z" />
    <glyph glyph-name="f_m" horiz-adv-x="687" 
d="M666 -1h-129v3q12 1 22 6q8 5 14.5 13t6.5 23v204q0 27 -5 51t-14 42.5t-20.5 29t-24.5 10.5t-25 -10.5t-21 -29t-14 -42.5t-5 -51v-204q0 -15 7 -23t15 -13q9 -5 21 -6v-2h-129v2q12 1 22 6q8 5 14.5 13t6.5 23v204q0 27 -5 51t-14 42.5t-20.5 29t-24.5 10.5t-25 -10.5
t-21 -29t-14.5 -42.5t-5.5 -51v-204q0 -14 7 -22.5t15 -13.5q10 -5 22 -6v-2h-130v2q12 1 22 6q8 5 14.5 13t6.5 23v291q0 17 -6.5 25.5t-14.5 12.5q-10 4 -22 4h-85v-333q0 -18 13 -30t30 -12v-2h-129v2q12 1 22 6q8 5 14.5 13.5t6.5 22.5v333h-43v15q42 0 46 42v-1
q4 33 14 61.5t23.5 49.5t30.5 32.5t35 11.5t37 -10.5t35.5 -26.5t27 -33t10.5 -31q0 -11 -6.5 -17.5t-15.5 -6.5q-8 0 -14.5 5t-6.5 13q-1 21 -7 38t-15 29t-19.5 18.5t-21.5 6.5q-15 0 -27.5 -14t-21 -39t-13.5 -57.5t-5 -70.5h150q9 0 15 -6t6 -15v-22q11 16 29 30.5
t37 15.5q26 0 48.5 -17t37.5 -43q14 26 36.5 42.5t49.5 17.5q22 0 41.5 -12t34 -32t23 -46.5t8.5 -56.5v-204q0 -15 7 -23t15 -13q9 -5 21 -6v-3z" />
    <glyph glyph-name="f_n" horiz-adv-x="517" 
d="M496 0h-130v2q12 1 22 6q8 5 14.5 13.5t6.5 22.5v205q0 27 -5 51t-13.5 42t-20 28.5t-25.5 10.5q-13 0 -25 -10.5t-21 -28.5t-14.5 -42t-5.5 -51v-205q0 -14 7 -22.5t15 -13.5q10 -5 22 -6v-2h-130v2q12 1 22 6q8 5 15 13.5t7 22.5v291q0 17 -7 25.5t-15 12.5
q-10 4 -22 4h-86v-333q0 -18 13 -30t30 -12v-2h-129v2q12 1 22 6q8 5 14.5 13.5t6.5 22.5v333h-43v15q42 0 46 42v-1q4 33 14 61.5t23.5 49.5t30.5 32.5t35 11.5t37 -10.5t35.5 -26.5t27 -33t10.5 -31q0 -11 -6.5 -17.5t-15.5 -6.5q-8 0 -14.5 5t-6.5 13q-1 21 -7 38t-15 29
t-19.5 18.5t-21.5 6.5q-15 0 -27.5 -14t-21 -39t-13.5 -57.5t-5 -70.5h151q9 0 15 -6t6 -15v-22q12 17 29.5 31.5t36.5 14.5q22 0 41.5 -11.5t34 -31.5t23 -46.5t8.5 -56.5v-205q0 -14 7 -22.5t15 -13.5q10 -5 22 -6v-2z" />
    </font>
</defs>
</svg>
