<?xml version="1.0" standalone="no"?>
<!DOCTYPE svg PUBLIC "-//W3C//DTD SVG 1.1//EN" "http://www.w3.org/Graphics/SVG/1.1/DTD/svg11.dtd" >
<svg xmlns="http://www.w3.org/2000/svg" xmlns:xlink="http://www.w3.org/1999/xlink" version="1.1">
<metadata>
Created by FontForge 20170812 at Wed Mar  9 16:51:30 2022
 By www-data
Copyright \(c\) 2014-2022 Typodermic Fonts Inc. All rights reserved.
</metadata>
<defs>
<font id="Breamcatcher-Regular" horiz-adv-x="364" >
  <font-face 
    font-family="Breamcatcher"
    font-weight="400"
    font-stretch="normal"
    units-per-em="1000"
    panose-1="4 9 6 4 8 11 2 2 10 4"
    ascent="768"
    descent="-232"
    cap-height="779"
    bbox="-348 -232 630 968"
    underline-thickness="20"
    underline-position="-143"
    stemh="48"
    stemv="64"
    unicode-range="U+0017-25CA"
  />
<missing-glyph horiz-adv-x="514" 
d="M341 -80h-169c-66 0 -103 30 -103 92v770c0 59 37 91 103 91h169c68 0 104 -32 104 -91v-770c0 -62 -36 -92 -104 -92zM210 236h56c1 139 92 175 92 369c0 114 -52 185 -139 185c-31 0 -46 -10 -55 -16v-64c7 9 26 17 46 17c54 0 85 -39 85 -129
c0 -162 -81 -214 -85 -362zM194 42c0 -33 12 -51 43 -51s43 18 43 51c0 31 -12 51 -43 51c-33 0 -42 -21 -43 -51z" />
    <glyph glyph-name=".notdef" horiz-adv-x="514" 
d="M341 -80h-169c-66 0 -103 30 -103 92v770c0 59 37 91 103 91h169c68 0 104 -32 104 -91v-770c0 -62 -36 -92 -104 -92zM210 236h56c1 139 92 175 92 369c0 114 -52 185 -139 185c-31 0 -46 -10 -55 -16v-64c7 9 26 17 46 17c54 0 85 -39 85 -129
c0 -162 -81 -214 -85 -362zM194 42c0 -33 12 -51 43 -51s43 18 43 51c0 31 -12 51 -43 51c-33 0 -42 -21 -43 -51z" />
    <glyph glyph-name="uni0017" horiz-adv-x="196" 
 />
    <glyph glyph-name="space" unicode=" " horiz-adv-x="196" 
 />
    <glyph glyph-name="exclam" unicode="!" horiz-adv-x="225" 
d="M140 236h-57l-13 543h84zM112 -9c-28 0 -43 15 -43 51c0 34 15 52 43 52c30 0 44 -18 44 -52c0 -36 -14 -51 -44 -51z" />
    <glyph glyph-name="quotedbl" unicode="&#x22;" horiz-adv-x="224" 
d="M76 521h-40l-11 258h62zM188 521h-40l-11 258h62z" />
    <glyph glyph-name="numbersign" unicode="#" horiz-adv-x="478" 
d="M245 0h-45l60 245h-116l-58 -245h-45l58 245h-71v40h79l52 213h-101v40h111l57 241h45l-57 -241h115l57 241h44l-57 -241h77v-40h-86l-52 -213h110v-40h-117zM267 285l52 213h-115l-51 -213h114z" />
    <glyph glyph-name="dollar" unicode="$" horiz-adv-x="318" 
d="M182 0h-43v88c-15 -2 -30 -3 -46 -3c-12 0 -29 2 -41 3v58c12 -3 24 -5 38 -5c83 0 111 18 111 104c0 124 -147 156 -147 305c0 59 18 104 85 122v107h43v-99c9 1 19 2 29 2c11 0 29 -2 42 -3v-60c-10 2 -23 3 -33 3c-70 0 -99 -25 -99 -75c0 -127 149 -141 149 -306
c0 -65 -17 -120 -88 -144v-97z" />
    <glyph glyph-name="percent" unicode="%" horiz-adv-x="496" 
d="M194 562c0 -118 -23 -217 -75 -217s-74 100 -74 217s22 224 74 224s75 -107 75 -224zM89 562c0 -79 5 -181 30 -181s30 102 30 181c0 78 -4 188 -30 188s-30 -110 -30 -188zM109 0h-50l330 779h49zM451 211c0 -118 -23 -217 -75 -217s-74 100 -74 217s22 224 74 224
s75 -107 75 -224zM346 211c0 -79 5 -181 30 -181s30 102 30 181c0 78 -4 188 -30 188s-30 -110 -30 -188z" />
    <glyph glyph-name="ampersand" unicode="&#x26;" horiz-adv-x="367" 
d="M369 0h-99c-7 4 -14 12 -23 21c-27 -20 -60 -31 -99 -31c-51 0 -104 37 -104 116c0 53 19 85 63 145c-39 88 -64 185 -64 294c0 187 62 245 124 245c60 0 113 -58 113 -237c0 -151 -45 -227 -112 -306c22 -50 51 -98 87 -142c15 31 25 76 30 138h53
c-1 -71 -19 -133 -49 -178c27 -28 57 -52 80 -65zM106 551c0 -89 13 -171 40 -249c56 79 70 131 70 247c0 131 -19 174 -49 174c-32 0 -61 -31 -61 -172zM164 49c20 0 37 3 52 12l-2 4c-31 43 -58 89 -83 136c-19 -30 -26 -60 -26 -96c0 -31 19 -56 59 -56z" />
    <glyph glyph-name="quotesingle" unicode="'" horiz-adv-x="112" 
d="M76 521h-40l-11 258h62z" />
    <glyph glyph-name="parenleft" unicode="(" horiz-adv-x="344" 
d="M325 -99l-24 -39c-158 61 -217 221 -217 508c0 272 42 445 199 522l27 -38c-141 -78 -174 -247 -174 -484c0 -247 45 -410 189 -469z" />
    <glyph glyph-name="parenright" unicode=")" horiz-adv-x="343" 
d="M43 -138l-24 39c144 59 188 222 188 469c0 237 -33 406 -174 484l28 38c156 -77 198 -250 198 -522c0 -287 -58 -447 -216 -508z" />
    <glyph glyph-name="asterisk" unicode="*" horiz-adv-x="444" 
d="M358 450l-47 -34l-88 138l-92 -137l-45 34l105 129l-162 44l19 50l155 -61l-11 166h60l-11 -167l157 62l17 -52l-162 -42z" />
    <glyph glyph-name="plus" unicode="+" horiz-adv-x="579" 
d="M314 159h-49v197h-196v49h196v194h49v-194h196v-49h-196v-197z" />
    <glyph glyph-name="comma" unicode="," horiz-adv-x="137" 
d="M70 -9c-30 0 -45 15 -45 51c0 34 15 52 43 52c29 0 44 -18 44 -52c0 -42 -25 -118 -46 -154h-41c13 17 29 54 45 103z" />
    <glyph glyph-name="hyphen" unicode="-" horiz-adv-x="187" 
d="M170 195h-154v48h154v-48z" />
    <glyph glyph-name="period" unicode="." horiz-adv-x="137" 
d="M68 -9c-28 0 -43 15 -43 51c0 34 15 52 43 52c29 0 44 -18 44 -52c0 -36 -15 -51 -44 -51z" />
    <glyph glyph-name="slash" unicode="/" horiz-adv-x="330" 
d="M47 -42h-47l283 833h47z" />
    <glyph glyph-name="zero" unicode="0" horiz-adv-x="343" 
d="M298 383c0 -209 -41 -393 -127 -393s-126 184 -126 393s40 407 126 407s127 -198 127 -407zM108 383c0 -152 14 -331 63 -331s63 179 63 331s-14 344 -63 344s-63 -192 -63 -344z" />
    <glyph glyph-name="one" unicode="1" horiz-adv-x="201" 
d="M132 0h-63v689l63 101v-790z" />
    <glyph glyph-name="two" unicode="2" horiz-adv-x="339" 
d="M289 0h-231v114c0 75 15 132 46 187c31 58 68 110 96 165c22 41 33 92 33 132c0 90 -32 129 -85 129c-20 0 -40 -8 -46 -17v64c8 6 24 16 54 16c87 0 139 -71 139 -185c0 -65 -17 -129 -45 -178c-29 -52 -64 -100 -93 -154c-27 -51 -35 -95 -35 -161v-52h167v-60z" />
    <glyph glyph-name="three" unicode="3" horiz-adv-x="323" 
d="M113 507l79 209h-131v63h221l-96 -236c57 -37 84 -113 84 -233c0 -202 -51 -320 -150 -320c-32 0 -48 6 -59 15v64c12 -9 26 -17 52 -17c61 0 93 97 93 258c0 127 -32 197 -93 197z" />
    <glyph glyph-name="four" unicode="4" horiz-adv-x="350" 
d="M280 0h-63v195h-197l260 595v-547h28v-48h-28v-195zM217 243v250h-5l-108 -250h113z" />
    <glyph glyph-name="five" unicode="5" horiz-adv-x="312" 
d="M206 301c0 155 -42 222 -149 211l9 267h183v-63h-124l-5 -154c118 -17 150 -122 150 -261c0 -193 -51 -311 -151 -311c-31 0 -48 6 -58 15v64c11 -9 26 -17 52 -17c61 0 93 97 93 249z" />
    <glyph glyph-name="six" unicode="6" horiz-adv-x="361" 
d="M319 255c0 -190 -51 -265 -137 -265s-137 75 -137 314c0 288 21 486 151 486c31 0 48 -6 58 -16v-64c-11 10 -26 17 -52 17c-46 0 -81 -88 -93 -241h4c16 22 45 44 82 44c73 0 124 -84 124 -275zM109 255c0 -128 24 -203 73 -203s73 75 73 203c0 130 -24 213 -73 213
s-73 -83 -73 -213z" />
    <glyph glyph-name="seven" unicode="7" horiz-adv-x="266" 
d="M124 0h-67l111 716h-148v63h218z" />
    <glyph glyph-name="eight" unicode="8" horiz-adv-x="377" 
d="M336 488c0 -209 -39 -268 -91 -292v-5c40 -7 78 -47 78 -93c0 -68 -54 -108 -135 -108s-135 40 -135 108c0 46 38 86 79 93v5c-53 24 -91 83 -91 292c0 215 73 305 147 305s148 -90 148 -305zM104 488c0 -213 37 -270 84 -270s84 57 84 270c0 152 -37 238 -84 238
s-84 -86 -84 -238zM115 109c0 -36 41 -59 73 -59s73 23 73 59c0 37 -41 60 -73 60s-73 -23 -73 -60z" />
    <glyph glyph-name="nine" unicode="9" horiz-adv-x="358" 
d="M193 0h-79c80 98 126 199 135 293h-4c-16 -22 -45 -44 -82 -44c-73 0 -124 85 -124 275c0 191 51 266 137 266s137 -75 137 -315c0 -213 -44 -379 -120 -475zM249 524c0 129 -24 203 -73 203s-73 -74 -73 -203c0 -130 24 -212 73 -212s73 82 73 212z" />
    <glyph glyph-name="colon" unicode=":" horiz-adv-x="225" 
d="M112 -9c-28 0 -43 15 -43 51c0 34 15 52 43 52c29 0 44 -18 44 -52c0 -36 -15 -51 -44 -51zM112 370c-28 0 -43 17 -43 53c0 34 15 52 43 52c29 0 44 -18 44 -52c0 -36 -15 -53 -44 -53z" />
    <glyph glyph-name="semicolon" unicode=";" horiz-adv-x="224" 
d="M122 -63h-35l20 59c-21 1 -38 14 -38 46c0 34 14 52 42 52c29 0 44 -18 44 -52c0 -13 -2 -25 -8 -42zM111 370c-28 0 -42 17 -42 53c0 34 14 52 42 52c29 0 44 -18 44 -52c0 -36 -15 -53 -44 -53z" />
    <glyph glyph-name="less" unicode="&#x3c;" horiz-adv-x="579" 
d="M510 85l-441 278v41l441 278v-62l-375 -236l375 -238v-61z" />
    <glyph glyph-name="equal" unicode="=" horiz-adv-x="579" 
d="M510 248h-441v49h441v-49zM510 462h-441v51h441v-51z" />
    <glyph glyph-name="greater" unicode="&#x3e;" horiz-adv-x="579" 
d="M510 363l-441 -278v61l376 238l-376 236v62l441 -278v-41z" />
    <glyph glyph-name="question" unicode="?" horiz-adv-x="275" 
d="M139 236h-55c3 148 85 200 85 362c0 90 -32 129 -85 129c-20 0 -40 -8 -46 -17v64c8 6 24 16 54 16c87 0 139 -71 139 -185c0 -194 -91 -230 -92 -369zM67 42c1 30 11 51 43 51c31 0 44 -20 44 -51c0 -33 -13 -51 -44 -51c-30 0 -43 18 -43 51z" />
    <glyph glyph-name="at" unicode="@" horiz-adv-x="432" 
d="M387 -26v-57c-24 -30 -79 -47 -134 -47c-195 0 -208 190 -208 467c0 226 12 397 179 397c149 0 163 -112 163 -266v-369h-38v64c-12 -42 -41 -73 -82 -73c-56 0 -94 66 -94 206c0 141 38 209 94 209c42 0 69 -30 82 -76v48c0 111 -17 211 -125 211
c-127 0 -136 -148 -136 -352c0 -281 22 -418 165 -418c57 0 103 19 134 56zM346 218v159c-9 46 -33 77 -69 77c-39 0 -63 -48 -63 -158c0 -109 24 -156 63 -156c31 0 61 37 69 78z" />
    <glyph glyph-name="B" unicode="B" horiz-adv-x="344" 
d="M69 785c179 -5 240 -137 240 -291c0 -118 -48 -199 -113 -246v-3c63 -10 101 -56 101 -110c0 -79 -44 -140 -228 -140v790zM132 252c77 56 114 125 114 232c0 108 -35 213 -114 233v-465zM132 202v-149c72 0 103 37 103 79c0 34 -29 72 -82 72c-6 0 -14 -1 -21 -2z" />
    <glyph glyph-name="B" unicode="&#x432;" horiz-adv-x="344" 
d="M69 785c179 -5 240 -137 240 -291c0 -118 -48 -199 -113 -246v-3c63 -10 101 -56 101 -110c0 -79 -44 -140 -228 -140v790zM132 252c77 56 114 125 114 232c0 108 -35 213 -114 233v-465zM132 202v-149c72 0 103 37 103 79c0 34 -29 72 -82 72c-6 0 -14 -1 -21 -2z" />
    <glyph glyph-name="B" unicode="&#x412;" horiz-adv-x="344" 
d="M69 785c179 -5 240 -137 240 -291c0 -118 -48 -199 -113 -246v-3c63 -10 101 -56 101 -110c0 -79 -44 -140 -228 -140v790zM132 252c77 56 114 125 114 232c0 108 -35 213 -114 233v-465zM132 202v-149c72 0 103 37 103 79c0 34 -29 72 -82 72c-6 0 -14 -1 -21 -2z" />
    <glyph glyph-name="B" unicode="&#x3b2;" horiz-adv-x="344" 
d="M69 785c179 -5 240 -137 240 -291c0 -118 -48 -199 -113 -246v-3c63 -10 101 -56 101 -110c0 -79 -44 -140 -228 -140v790zM132 252c77 56 114 125 114 232c0 108 -35 213 -114 233v-465zM132 202v-149c72 0 103 37 103 79c0 34 -29 72 -82 72c-6 0 -14 -1 -21 -2z" />
    <glyph glyph-name="B" unicode="&#x392;" horiz-adv-x="344" 
d="M69 785c179 -5 240 -137 240 -291c0 -118 -48 -199 -113 -246v-3c63 -10 101 -56 101 -110c0 -79 -44 -140 -228 -140v790zM132 252c77 56 114 125 114 232c0 108 -35 213 -114 233v-465zM132 202v-149c72 0 103 37 103 79c0 34 -29 72 -82 72c-6 0 -14 -1 -21 -2z" />
    <glyph glyph-name="B" unicode="b" horiz-adv-x="344" 
d="M69 785c179 -5 240 -137 240 -291c0 -118 -48 -199 -113 -246v-3c63 -10 101 -56 101 -110c0 -79 -44 -140 -228 -140v790zM132 252c77 56 114 125 114 232c0 108 -35 213 -114 233v-465zM132 202v-149c72 0 103 37 103 79c0 34 -29 72 -82 72c-6 0 -14 -1 -21 -2z" />
    <glyph glyph-name="C" unicode="C" horiz-adv-x="296" 
d="M45 389c0 282 51 401 151 401c31 0 48 -6 58 -16v-64c-11 10 -26 17 -52 17c-61 0 -93 -97 -93 -338c0 -240 32 -337 93 -337c26 0 41 8 52 17v-64c-10 -9 -27 -15 -58 -15c-100 0 -151 118 -151 399z" />
    <glyph glyph-name="C" unicode="&#x441;" horiz-adv-x="296" 
d="M45 389c0 282 51 401 151 401c31 0 48 -6 58 -16v-64c-11 10 -26 17 -52 17c-61 0 -93 -97 -93 -338c0 -240 32 -337 93 -337c26 0 41 8 52 17v-64c-10 -9 -27 -15 -58 -15c-100 0 -151 118 -151 399z" />
    <glyph glyph-name="C" unicode="&#x421;" horiz-adv-x="296" 
d="M45 389c0 282 51 401 151 401c31 0 48 -6 58 -16v-64c-11 10 -26 17 -52 17c-61 0 -93 -97 -93 -338c0 -240 32 -337 93 -337c26 0 41 8 52 17v-64c-10 -9 -27 -15 -58 -15c-100 0 -151 118 -151 399z" />
    <glyph glyph-name="C" unicode="c" horiz-adv-x="296" 
d="M45 389c0 282 51 401 151 401c31 0 48 -6 58 -16v-64c-11 10 -26 17 -52 17c-61 0 -93 -97 -93 -338c0 -240 32 -337 93 -337c26 0 41 8 52 17v-64c-10 -9 -27 -15 -58 -15c-100 0 -151 118 -151 399z" />
    <glyph glyph-name="D" unicode="D" horiz-adv-x="354" 
d="M69 -5v790c179 -6 240 -187 240 -396s-61 -389 -240 -394zM132 717v-654c79 28 114 174 114 326s-35 299 -114 328z" />
    <glyph glyph-name="D" unicode="d" horiz-adv-x="354" 
d="M69 -5v790c179 -6 240 -187 240 -396s-61 -389 -240 -394zM132 717v-654c79 28 114 174 114 326s-35 299 -114 328z" />
    <glyph glyph-name="F" unicode="F" horiz-adv-x="277" 
d="M133 0h-64v779h166v-63h-102v-473h95v-48h-95v-195z" />
    <glyph glyph-name="F" unicode="f" horiz-adv-x="277" 
d="M133 0h-64v779h166v-63h-102v-473h95v-48h-95v-195z" />
    <glyph glyph-name="G" unicode="G" horiz-adv-x="333" 
d="M220 432h56v-391c-18 -22 -55 -41 -89 -41c-91 0 -142 108 -142 389c0 282 51 401 151 401c31 0 48 -6 58 -16v-64c-11 10 -26 17 -52 17c-61 0 -93 -97 -93 -338c0 -209 24 -329 77 -329c14 0 28 4 34 10v362z" />
    <glyph glyph-name="G" unicode="g" horiz-adv-x="333" 
d="M220 432h56v-391c-18 -22 -55 -41 -89 -41c-91 0 -142 108 -142 389c0 282 51 401 151 401c31 0 48 -6 58 -16v-64c-11 10 -26 17 -52 17c-61 0 -93 -97 -93 -338c0 -209 24 -329 77 -329c14 0 28 4 34 10v362z" />
    <glyph glyph-name="H" unicode="H" horiz-adv-x="389" 
d="M320 0h-65v195h-122v-195h-64v779h64v-536h122v536h65v-779z" />
    <glyph glyph-name="H" unicode="&#x43d;" horiz-adv-x="389" 
d="M320 0h-65v195h-122v-195h-64v779h64v-536h122v536h65v-779z" />
    <glyph glyph-name="H" unicode="&#x41d;" horiz-adv-x="389" 
d="M320 0h-65v195h-122v-195h-64v779h64v-536h122v536h65v-779z" />
    <glyph glyph-name="H" unicode="&#x3b7;" horiz-adv-x="389" 
d="M320 0h-65v195h-122v-195h-64v779h64v-536h122v536h65v-779z" />
    <glyph glyph-name="H" unicode="&#x3ae;" horiz-adv-x="389" 
d="M320 0h-65v195h-122v-195h-64v779h64v-536h122v536h65v-779z" />
    <glyph glyph-name="H" unicode="&#x397;" horiz-adv-x="389" 
d="M320 0h-65v195h-122v-195h-64v779h64v-536h122v536h65v-779z" />
    <glyph glyph-name="H" unicode="h" horiz-adv-x="389" 
d="M320 0h-65v195h-122v-195h-64v779h64v-536h122v536h65v-779z" />
    <glyph glyph-name="J" unicode="J" horiz-adv-x="221" 
d="M152 779v-369c0 -313 -34 -428 -83 -506h-79c73 90 98 192 98 506v369h64z" />
    <glyph glyph-name="J" unicode="&#x458;" horiz-adv-x="221" 
d="M152 779v-369c0 -313 -34 -428 -83 -506h-79c73 90 98 192 98 506v369h64z" />
    <glyph glyph-name="J" unicode="&#x408;" horiz-adv-x="221" 
d="M152 779v-369c0 -313 -34 -428 -83 -506h-79c73 90 98 192 98 506v369h64z" />
    <glyph glyph-name="J" unicode="j" horiz-adv-x="221" 
d="M152 779v-369c0 -313 -34 -428 -83 -506h-79c73 90 98 192 98 506v369h64z" />
    <glyph glyph-name="K" unicode="K" horiz-adv-x="383" 
d="M393 0h-105c-43 26 -108 112 -154 194l-2 -5v-189h-63v779h63v-423h4l157 423h65l-201 -525c42 -76 156 -215 236 -254z" />
    <glyph glyph-name="K" unicode="&#x43a;" horiz-adv-x="383" 
d="M393 0h-105c-43 26 -108 112 -154 194l-2 -5v-189h-63v779h63v-423h4l157 423h65l-201 -525c42 -76 156 -215 236 -254z" />
    <glyph glyph-name="K" unicode="&#x41a;" horiz-adv-x="383" 
d="M393 0h-105c-43 26 -108 112 -154 194l-2 -5v-189h-63v779h63v-423h4l157 423h65l-201 -525c42 -76 156 -215 236 -254z" />
    <glyph glyph-name="K" unicode="&#x3ba;" horiz-adv-x="383" 
d="M393 0h-105c-43 26 -108 112 -154 194l-2 -5v-189h-63v779h63v-423h4l157 423h65l-201 -525c42 -76 156 -215 236 -254z" />
    <glyph glyph-name="K" unicode="&#x39a;" horiz-adv-x="383" 
d="M393 0h-105c-43 26 -108 112 -154 194l-2 -5v-189h-63v779h63v-423h4l157 423h65l-201 -525c42 -76 156 -215 236 -254z" />
    <glyph glyph-name="K" unicode="k" horiz-adv-x="383" 
d="M393 0h-105c-43 26 -108 112 -154 194l-2 -5v-189h-63v779h63v-423h4l157 423h65l-201 -525c42 -76 156 -215 236 -254z" />
    <glyph glyph-name="L" unicode="L" horiz-adv-x="263" 
d="M243 0h-174v779h64v-719h110v-60z" />
    <glyph glyph-name="L" unicode="l" horiz-adv-x="263" 
d="M243 0h-174v779h64v-719h110v-60z" />
    <glyph glyph-name="N" unicode="N" horiz-adv-x="391" 
d="M322 -36l-188 502h-4v-466h-61v815l190 -529h4v493h59v-815z" />
    <glyph glyph-name="N" unicode="&#x3bd;" horiz-adv-x="391" 
d="M322 -36l-188 502h-4v-466h-61v815l190 -529h4v493h59v-815z" />
    <glyph glyph-name="N" unicode="&#x39d;" horiz-adv-x="391" 
d="M322 -36l-188 502h-4v-466h-61v815l190 -529h4v493h59v-815z" />
    <glyph glyph-name="N" unicode="n" horiz-adv-x="391" 
d="M322 -36l-188 502h-4v-466h-61v815l190 -529h4v493h59v-815z" />
    <glyph glyph-name="P" unicode="P" horiz-adv-x="351" 
d="M132 194v-194h-63v785c179 -5 240 -137 240 -291c0 -148 -61 -232 -177 -300zM132 252c77 56 114 125 114 232c0 108 -35 213 -114 233v-465z" />
    <glyph glyph-name="P" unicode="&#x440;" horiz-adv-x="351" 
d="M132 194v-194h-63v785c179 -5 240 -137 240 -291c0 -148 -61 -232 -177 -300zM132 252c77 56 114 125 114 232c0 108 -35 213 -114 233v-465z" />
    <glyph glyph-name="P" unicode="&#x420;" horiz-adv-x="351" 
d="M132 194v-194h-63v785c179 -5 240 -137 240 -291c0 -148 -61 -232 -177 -300zM132 252c77 56 114 125 114 232c0 108 -35 213 -114 233v-465z" />
    <glyph glyph-name="P" unicode="&#x3c1;" horiz-adv-x="351" 
d="M132 194v-194h-63v785c179 -5 240 -137 240 -291c0 -148 -61 -232 -177 -300zM132 252c77 56 114 125 114 232c0 108 -35 213 -114 233v-465z" />
    <glyph glyph-name="P" unicode="&#x3a1;" horiz-adv-x="351" 
d="M132 194v-194h-63v785c179 -5 240 -137 240 -291c0 -148 -61 -232 -177 -300zM132 252c77 56 114 125 114 232c0 108 -35 213 -114 233v-465z" />
    <glyph glyph-name="P" unicode="p" horiz-adv-x="351" 
d="M132 194v-194h-63v785c179 -5 240 -137 240 -291c0 -148 -61 -232 -177 -300zM132 252c77 56 114 125 114 232c0 108 -35 213 -114 233v-465z" />
    <glyph glyph-name="Q" unicode="Q" 
d="M385 -96h-105c-152 122 -235 195 -235 518c0 259 51 376 137 376s137 -117 137 -376c0 -249 -49 -352 -117 -366c36 -51 139 -126 183 -152zM109 422c0 -191 24 -302 73 -302s73 111 73 302c0 189 -24 313 -73 313s-73 -124 -73 -313z" />
    <glyph glyph-name="Q" unicode="q" 
d="M385 -96h-105c-152 122 -235 195 -235 518c0 259 51 376 137 376s137 -117 137 -376c0 -249 -49 -352 -117 -366c36 -51 139 -126 183 -152zM109 422c0 -191 24 -302 73 -302s73 111 73 302c0 189 -24 313 -73 313s-73 -124 -73 -313z" />
    <glyph glyph-name="R" unicode="R" horiz-adv-x="383" 
d="M132 194v-194h-63v785c179 -5 240 -138 240 -289c0 -131 -46 -210 -133 -274c70 -104 155 -191 217 -222h-105c-44 26 -106 113 -152 195zM132 252c77 56 114 124 114 233c0 106 -35 212 -114 232v-465z" />
    <glyph glyph-name="R" unicode="r" horiz-adv-x="383" 
d="M132 194v-194h-63v785c179 -5 240 -138 240 -289c0 -131 -46 -210 -133 -274c70 -104 155 -191 217 -222h-105c-44 26 -106 113 -152 195zM132 252c77 56 114 124 114 233c0 106 -35 212 -114 232v-465z" />
    <glyph glyph-name="S" unicode="S" horiz-adv-x="315" 
d="M53 5v64c13 -11 26 -17 50 -17c71 0 104 52 104 136c0 50 -12 83 -29 117c-26 51 -66 104 -89 143c-27 45 -46 95 -46 160c0 109 53 182 139 182c31 0 46 -10 55 -16v-64c-7 9 -25 17 -48 17c-52 0 -83 -43 -83 -122c0 -51 13 -84 32 -119c24 -44 50 -74 80 -123
c30 -50 54 -98 54 -175c0 -120 -59 -198 -161 -198c-31 0 -49 7 -58 15z" />
    <glyph glyph-name="S" unicode="&#x455;" horiz-adv-x="315" 
d="M53 5v64c13 -11 26 -17 50 -17c71 0 104 52 104 136c0 50 -12 83 -29 117c-26 51 -66 104 -89 143c-27 45 -46 95 -46 160c0 109 53 182 139 182c31 0 46 -10 55 -16v-64c-7 9 -25 17 -48 17c-52 0 -83 -43 -83 -122c0 -51 13 -84 32 -119c24 -44 50 -74 80 -123
c30 -50 54 -98 54 -175c0 -120 -59 -198 -161 -198c-31 0 -49 7 -58 15z" />
    <glyph glyph-name="S" unicode="&#x405;" horiz-adv-x="315" 
d="M53 5v64c13 -11 26 -17 50 -17c71 0 104 52 104 136c0 50 -12 83 -29 117c-26 51 -66 104 -89 143c-27 45 -46 95 -46 160c0 109 53 182 139 182c31 0 46 -10 55 -16v-64c-7 9 -25 17 -48 17c-52 0 -83 -43 -83 -122c0 -51 13 -84 32 -119c24 -44 50 -74 80 -123
c30 -50 54 -98 54 -175c0 -120 -59 -198 -161 -198c-31 0 -49 7 -58 15z" />
    <glyph glyph-name="S" unicode="s" horiz-adv-x="315" 
d="M53 5v64c13 -11 26 -17 50 -17c71 0 104 52 104 136c0 50 -12 83 -29 117c-26 51 -66 104 -89 143c-27 45 -46 95 -46 160c0 109 53 182 139 182c31 0 46 -10 55 -16v-64c-7 9 -25 17 -48 17c-52 0 -83 -43 -83 -122c0 -51 13 -84 32 -119c24 -44 50 -74 80 -123
c30 -50 54 -98 54 -175c0 -120 -59 -198 -161 -198c-31 0 -49 7 -58 15z" />
    <glyph glyph-name="T" unicode="T" horiz-adv-x="267" 
d="M166 0h-63v716h-83v63h227v-63h-81v-716z" />
    <glyph glyph-name="T" unicode="&#x442;" horiz-adv-x="267" 
d="M166 0h-63v716h-83v63h227v-63h-81v-716z" />
    <glyph glyph-name="T" unicode="&#x422;" horiz-adv-x="267" 
d="M166 0h-63v716h-83v63h227v-63h-81v-716z" />
    <glyph glyph-name="T" unicode="&#x3c4;" horiz-adv-x="267" 
d="M166 0h-63v716h-83v63h227v-63h-81v-716z" />
    <glyph glyph-name="T" unicode="&#x3a4;" horiz-adv-x="267" 
d="M166 0h-63v716h-83v63h227v-63h-81v-716z" />
    <glyph glyph-name="T" unicode="t" horiz-adv-x="267" 
d="M166 0h-63v716h-83v63h227v-63h-81v-716z" />
    <glyph glyph-name="U" unicode="U" horiz-adv-x="404" 
d="M202 -10c-102 0 -136 100 -136 266v523h65v-526c0 -134 18 -199 71 -199c54 0 71 65 71 199v526h65v-523c0 -166 -33 -266 -136 -266z" />
    <glyph glyph-name="U" unicode="u" horiz-adv-x="404" 
d="M202 -10c-102 0 -136 100 -136 266v523h65v-526c0 -134 18 -199 71 -199c54 0 71 65 71 199v526h65v-523c0 -166 -33 -266 -136 -266z" />
    <glyph glyph-name="V" unicode="V" horiz-adv-x="362" 
d="M95 779l84 -498h4l87 498h64l-156 -815l-150 815h67z" />
    <glyph glyph-name="V" unicode="v" horiz-adv-x="362" 
d="M95 779l84 -498h4l87 498h64l-156 -815l-150 815h67z" />
    <glyph glyph-name="W" unicode="W" horiz-adv-x="602" 
d="M411 -36l-109 548h-4l-119 -548l-151 815h68l85 -518h4l116 554l110 -554h4l96 518h63z" />
    <glyph glyph-name="W" unicode="w" horiz-adv-x="602" 
d="M411 -36l-109 548h-4l-119 -548l-151 815h68l85 -518h4l116 554l110 -554h4l96 518h63z" />
    <glyph glyph-name="X" unicode="X" horiz-adv-x="366" 
d="M346 0h-68l-92 339h-4l-99 -339h-63l131 421l-104 358h63l77 -275h4l79 275h60l-109 -352z" />
    <glyph glyph-name="X" unicode="&#x445;" horiz-adv-x="366" 
d="M346 0h-68l-92 339h-4l-99 -339h-63l131 421l-104 358h63l77 -275h4l79 275h60l-109 -352z" />
    <glyph glyph-name="X" unicode="&#x425;" horiz-adv-x="366" 
d="M346 0h-68l-92 339h-4l-99 -339h-63l131 421l-104 358h63l77 -275h4l79 275h60l-109 -352z" />
    <glyph glyph-name="X" unicode="&#x3c7;" horiz-adv-x="366" 
d="M346 0h-68l-92 339h-4l-99 -339h-63l131 421l-104 358h63l77 -275h4l79 275h60l-109 -352z" />
    <glyph glyph-name="X" unicode="&#x3a7;" horiz-adv-x="366" 
d="M346 0h-68l-92 339h-4l-99 -339h-63l131 421l-104 358h63l77 -275h4l79 275h60l-109 -352z" />
    <glyph glyph-name="X" unicode="x" horiz-adv-x="366" 
d="M346 0h-68l-92 339h-4l-99 -339h-63l131 421l-104 358h63l77 -275h4l79 275h60l-109 -352z" />
    <glyph glyph-name="Z" unicode="Z" horiz-adv-x="307" 
d="M264 0h-221l148 716h-148v63h221l-140 -719h140v-60z" />
    <glyph glyph-name="Z" unicode="&#x3b6;" horiz-adv-x="307" 
d="M264 0h-221l148 716h-148v63h221l-140 -719h140v-60z" />
    <glyph glyph-name="Z" unicode="&#x396;" horiz-adv-x="307" 
d="M264 0h-221l148 716h-148v63h221l-140 -719h140v-60z" />
    <glyph glyph-name="Z" unicode="z" horiz-adv-x="307" 
d="M264 0h-221l148 716h-148v63h221l-140 -719h140v-60z" />
    <glyph glyph-name="bracketleft" unicode="[" horiz-adv-x="323" 
d="M294 -137h-185v1029h185v-45h-134v-939h134v-45z" />
    <glyph glyph-name="backslash" unicode="\" horiz-adv-x="331" 
d="M331 -42h-47l-284 833h48z" />
    <glyph glyph-name="bracketright" unicode="]" horiz-adv-x="323" 
d="M214 -137h-185v45h135v939h-135v45h185v-1029z" />
    <glyph glyph-name="asciicircum" unicode="^" horiz-adv-x="427" 
d="M401 410h-52l-137 275l-136 -275h-50l186 380z" />
    <glyph glyph-name="underscore" unicode="_" horiz-adv-x="273" 
d="M274 -109h-274v40h274v-40z" />
    <glyph glyph-name="grave" unicode="`" horiz-adv-x="215" 
d="M198 805h-65l-117 163h70z" />
    <glyph glyph-name="E" unicode="E" horiz-adv-x="278" 
d="M239 0h-170v779h161v-63h-97v-473h95v-48h-95v-135h106v-60z" />
    <glyph glyph-name="E" unicode="&#x435;" horiz-adv-x="278" 
d="M239 0h-170v779h161v-63h-97v-473h95v-48h-95v-135h106v-60z" />
    <glyph glyph-name="E" unicode="&#x415;" horiz-adv-x="278" 
d="M239 0h-170v779h161v-63h-97v-473h95v-48h-95v-135h106v-60z" />
    <glyph glyph-name="E" unicode="&#x3b5;" horiz-adv-x="278" 
d="M239 0h-170v779h161v-63h-97v-473h95v-48h-95v-135h106v-60z" />
    <glyph glyph-name="E" unicode="&#x3ad;" horiz-adv-x="278" 
d="M239 0h-170v779h161v-63h-97v-473h95v-48h-95v-135h106v-60z" />
    <glyph glyph-name="E" unicode="&#x395;" horiz-adv-x="278" 
d="M239 0h-170v779h161v-63h-97v-473h95v-48h-95v-135h106v-60z" />
    <glyph glyph-name="E" unicode="e" horiz-adv-x="278" 
d="M239 0h-170v779h161v-63h-97v-473h95v-48h-95v-135h106v-60z" />
    <glyph glyph-name="braceleft" unicode="{" horiz-adv-x="316" 
d="M287 -138h-56c-58 0 -119 30 -119 136v277c0 55 -11 77 -40 77h-28v50h28c31 0 40 25 40 76v285c0 100 60 129 119 129h56v-46h-53c-39 0 -72 -25 -72 -107v-281c0 -44 -15 -71 -45 -81c33 -14 45 -42 45 -87v-276c0 -87 33 -106 72 -106h53v-46z" />
    <glyph glyph-name="bar" unicode="|" horiz-adv-x="369" 
d="M210 -182h-51v1081h51v-1081z" />
    <glyph glyph-name="braceright" unicode="}" horiz-adv-x="317" 
d="M85 -138h-56v46h53c39 0 72 19 72 106v276c0 45 13 73 46 87c-30 10 -46 37 -46 81v281c0 82 -33 107 -72 107h-53v46h56c59 0 120 -29 120 -129v-285c0 -51 8 -76 39 -76h28v-50h-28c-29 0 -39 -22 -39 -77v-277c0 -106 -62 -136 -120 -136z" />
    <glyph glyph-name="asciitilde" unicode="~" horiz-adv-x="579" 
d="M510 415v-53c-33 -40 -68 -53 -111 -53c-81 0 -147 56 -220 56c-53 0 -77 -20 -110 -61v53c34 41 69 53 112 53c79 0 142 -55 220 -55c53 0 77 18 109 60z" />
    <glyph glyph-name="nbspace" unicode="&#xa0;" horiz-adv-x="196" 
 />
    <glyph glyph-name="exclamdown" unicode="&#xa1;" horiz-adv-x="225" 
d="M85 434h57l13 -543h-84zM113 679c28 0 43 -15 43 -51c0 -34 -15 -52 -43 -52c-30 0 -44 18 -44 52c0 36 14 51 44 51z" />
    <glyph glyph-name="cent" unicode="&#xa2;" horiz-adv-x="345" 
d="M238 0h-43v88c-100 17 -150 107 -150 296s50 280 150 296v99h43v-96c33 -1 52 -6 63 -11v-60c-14 6 -32 12 -63 12c-75 0 -114 -71 -114 -240c0 -170 39 -239 114 -239c31 0 49 6 63 12v-60c-11 -6 -30 -11 -63 -11v-86z" />
    <glyph glyph-name="sterling" unicode="&#xa3;" horiz-adv-x="371" 
d="M338 195h-115c0 -37 -2 -62 -6 -85c39 -29 62 -50 97 -50h25v-60h-14c-43 0 -76 19 -122 60c-17 -42 -47 -69 -94 -69c-55 0 -87 28 -87 84c0 45 29 80 76 80c27 0 50 -4 75 -17c2 15 3 29 3 57h-79v48h74c-11 110 -52 214 -52 355c0 109 45 192 140 192
c24 0 42 -6 54 -16v-64c-13 14 -33 17 -53 17c-56 0 -78 -60 -78 -136c0 -124 30 -231 39 -348h117v-48zM102 33c34 0 54 22 64 60c-24 18 -45 22 -62 22c-24 0 -35 -14 -35 -40c0 -28 6 -42 33 -42z" />
    <glyph glyph-name="currency" unicode="&#xa4;" horiz-adv-x="568" 
d="M490 117l-72 76c-38 -29 -84 -47 -133 -47c-51 0 -97 18 -134 47l-73 -76l-44 44l75 72c-28 37 -46 84 -46 134c0 51 17 98 46 134l-74 72l44 43l71 -74c37 29 83 47 135 47c50 0 96 -18 134 -47l70 74l43 -43l-73 -71c30 -37 47 -84 47 -135s-18 -98 -47 -134l74 -72z
M445 367c0 90 -72 161 -160 161c-90 0 -161 -71 -161 -161c0 -88 71 -159 161 -159c88 0 160 71 160 159z" />
    <glyph glyph-name="yen" unicode="&#xa5;" horiz-adv-x="382" 
d="M225 0h-63v195h-134v48h134v77h-134v48h129l-129 411h64l101 -357h5l96 357h60l-124 -411h124v-48h-129v-77h129v-48h-129v-195z" />
    <glyph glyph-name="brokenbar" unicode="&#xa6;" horiz-adv-x="369" 
d="M210 -182h-51v463h51v-463zM210 467h-51v432h51v-432z" />
    <glyph glyph-name="section" unicode="&#xa7;" horiz-adv-x="421" 
d="M53 -189v63c9 -8 24 -16 48 -16c73 0 106 46 106 142c0 40 -11 76 -29 111c-25 50 -60 96 -89 142c-27 45 -46 96 -46 157c0 98 39 165 106 181c0 128 52 199 139 199c30 0 46 -10 54 -16v-64c-6 9 -26 17 -46 17c-53 0 -84 -39 -84 -129c0 -40 13 -77 32 -112
c23 -41 53 -80 80 -123c30 -50 54 -102 54 -168c0 -105 -39 -173 -106 -196c-1 -129 -60 -204 -161 -204c-31 0 -49 7 -58 16zM195 448c-15 24 -27 50 -36 79c-34 -13 -53 -52 -53 -123c0 -41 14 -78 32 -112c23 -42 54 -81 80 -124c19 -32 37 -65 46 -102
c33 20 49 63 49 129c0 39 -11 76 -29 110c-25 51 -61 97 -89 143z" />
    <glyph glyph-name="dieresis" unicode="&#xa8;" horiz-adv-x="292" 
d="M224 829c-24 0 -38 14 -38 46c0 29 14 46 38 46c25 0 38 -17 38 -46c0 -32 -13 -46 -38 -46zM66 829c-24 0 -37 14 -37 46c0 29 13 46 37 46c26 0 38 -17 38 -46c0 -32 -12 -46 -38 -46z" />
    <glyph glyph-name="copyright" unicode="&#xa9;" horiz-adv-x="589" 
d="M292 37c128 0 210 99 210 354c0 258 -82 352 -204 352s-211 -94 -211 -344c0 -251 76 -362 205 -362zM291 -10c-155 0 -246 129 -246 408c0 278 101 392 251 392s248 -114 248 -399c0 -282 -98 -401 -253 -401zM212 398c0 172 32 245 93 245c19 0 30 -4 36 -9v-40
c-7 7 -16 11 -32 11c-37 0 -57 -60 -57 -207c0 -148 20 -207 57 -207c16 0 25 5 32 10v-39c-6 -5 -17 -9 -36 -9c-61 0 -93 72 -93 245z" />
    <glyph glyph-name="ordfeminine" unicode="&#xaa;" horiz-adv-x="229" 
d="M153 400l-16 86h-47l-15 -86h-55l96 448l92 -448h-55zM129 534l-15 83l-15 -83h30z" />
    <glyph glyph-name="guillemotleft" unicode="&#xab;" horiz-adv-x="262" 
d="M72 437h62l-56 -218l56 -219h-62l-56 219zM183 437h62l-56 -218l56 -219h-62l-56 219z" />
    <glyph glyph-name="logicalnot" unicode="&#xac;" horiz-adv-x="536" 
d="M467 154h-58v262h-340v72h398v-334z" />
    <glyph glyph-name="registered" unicode="&#xae;" horiz-adv-x="589" 
d="M291 -10c-155 0 -246 129 -246 408c0 278 101 392 251 392s248 -114 248 -399c0 -282 -98 -401 -253 -401zM292 37c128 0 210 99 210 354c0 258 -82 352 -204 352s-211 -94 -211 -344c0 -251 76 -362 205 -362zM259 277v-118h-38v481c110 -2 147 -83 147 -179
c0 -77 -28 -127 -81 -166c42 -64 95 -117 132 -136h-63c-28 16 -64 71 -93 121zM259 314c49 33 70 76 70 142s-21 130 -70 142v-284z" />
    <glyph glyph-name="macron" unicode="&#xaf;" horiz-adv-x="307" 
d="M290 852h-274v49h274v-49z" />
    <glyph glyph-name="degree" unicode="&#xb0;" horiz-adv-x="248" 
d="M123 522c-55 0 -79 62 -79 134c0 75 24 135 79 135c60 0 81 -60 81 -135c0 -72 -21 -134 -81 -134zM123 558c30 0 42 44 42 98s-11 98 -42 98c-28 0 -39 -44 -39 -98s11 -98 39 -98z" />
    <glyph glyph-name="plusminus" unicode="&#xb1;" horiz-adv-x="579" 
d="M314 159h-49v197h-196v49h196v194h49v-194h196v-49h-196v-197zM510 -1h-441v49h441v-49z" />
    <glyph glyph-name="twosuperior" unicode="&#xb2;" horiz-adv-x="216" 
d="M179 351h-137v63c0 117 96 174 96 266c0 46 -15 71 -42 71c-15 0 -23 -3 -30 -9v35c5 3 13 9 34 9c54 0 82 -40 82 -102c0 -117 -95 -155 -95 -271v-29h92v-33z" />
    <glyph glyph-name="threesuperior" unicode="&#xb3;" horiz-adv-x="208" 
d="M72 630l44 115h-72v34h131l-53 -129c32 -21 46 -62 46 -129c0 -111 -28 -176 -92 -176c-18 0 -26 4 -32 9v35c6 -5 14 -9 28 -9c34 0 51 53 51 141c0 70 -17 109 -51 109z" />
    <glyph glyph-name="acute" unicode="&#xb4;" horiz-adv-x="215" 
d="M81 805h-65l112 163h70z" />
    <glyph glyph-name="paragraph" unicode="&#xb6;" horiz-adv-x="417" 
d="M345 -205h-48v921h-105v-920h-48v651c-76 3 -115 66 -115 167c0 88 23 165 96 165h273v-63h-53v-921z" />
    <glyph glyph-name="periodcentered" unicode="&#xb7;" horiz-adv-x="137" 
d="M68 161c-28 0 -43 15 -43 51c0 34 15 52 43 52c29 0 44 -18 44 -52c0 -36 -15 -51 -44 -51z" />
    <glyph glyph-name="cedilla" unicode="&#xb8;" horiz-adv-x="119" 
d="M61 -130c-31 0 -45 16 -45 52c0 34 14 52 42 52c30 0 44 -18 44 -52c0 -42 -25 -119 -46 -154h-40c12 16 29 54 45 102z" />
    <glyph glyph-name="onesuperior" unicode="&#xb9;" horiz-adv-x="141" 
d="M93 351h-45v377l45 58v-435z" />
    <glyph glyph-name="ordmasculine" unicode="&#xba;" horiz-adv-x="230" 
d="M200 610c0 -170 -22 -216 -90 -216s-90 46 -90 216c0 172 21 224 90 224s90 -54 90 -224zM85 610c0 -139 6 -174 25 -174s25 35 25 174s-6 179 -25 179s-25 -40 -25 -179z" />
    <glyph glyph-name="guillemotright" unicode="&#xbb;" horiz-adv-x="262" 
d="M16 437h61l57 -218l-57 -219h-61l55 219zM127 437h61l57 -218l-57 -219h-61l55 219z" />
    <glyph glyph-name="onequarter" unicode="&#xbc;" horiz-adv-x="477" 
d="M107 351h-45v377l45 58v-435zM95 0h-50l330 779h49zM417 0h-45v107h-108l153 328v-301h15v-27h-15v-107zM372 134v118l-52 -118h52z" />
    <glyph glyph-name="onehalf" unicode="&#xbd;" horiz-adv-x="510" 
d="M107 351h-45v377l45 58v-435zM95 0h-50l330 779h49zM462 0h-137v63c0 117 96 174 96 266c0 46 -15 71 -42 71c-15 0 -23 -3 -30 -9v35c5 3 13 9 34 9c54 0 82 -40 82 -102c0 -117 -95 -155 -95 -271v-29h92v-33z" />
    <glyph glyph-name="threequarters" unicode="&#xbe;" horiz-adv-x="499" 
d="M73 630l44 115h-72v34h131l-53 -129c32 -21 46 -62 46 -129c0 -111 -28 -176 -92 -176c-18 0 -26 4 -32 9v35c6 -5 14 -9 28 -9c34 0 51 53 51 141c0 70 -17 109 -51 109zM109 0h-50l330 779h49zM439 0h-45v107h-108l153 328v-301h15v-27h-15v-107zM394 134v118l-52 -118
h52z" />
    <glyph glyph-name="questiondown" unicode="&#xbf;" horiz-adv-x="275" 
d="M130 434h55c-3 -148 -85 -200 -85 -362c0 -90 32 -129 85 -129c20 0 40 8 46 17v-64c-8 -6 -24 -16 -54 -16c-87 0 -139 71 -139 185c0 194 91 230 92 369zM202 628c-1 -30 -11 -51 -43 -51c-31 0 -44 20 -44 51c0 33 13 51 44 51c30 0 43 -18 43 -51z" />
    <glyph glyph-name="Agrave" unicode="&#xc0;" horiz-adv-x="361" 
d="M229 805h-43l147 -805h-64l-34 195h-111l-34 -195h-62l154 805h-18l-117 163h70zM178 505l-46 -262h95l-45 262h-4z" />
    <glyph glyph-name="Agrave" unicode="&#xe0;" horiz-adv-x="361" 
d="M229 805h-43l147 -805h-64l-34 195h-111l-34 -195h-62l154 805h-18l-117 163h70zM178 505l-46 -262h95l-45 262h-4z" />
    <glyph glyph-name="Aacute" unicode="&#xc1;" horiz-adv-x="361" 
d="M214 805h-28l147 -805h-64l-34 195h-111l-34 -195h-62l154 805h-33l112 163h70zM178 505l-46 -262h95l-45 262h-4z" />
    <glyph glyph-name="Aacute" unicode="&#xe1;" horiz-adv-x="361" 
d="M214 805h-28l147 -805h-64l-34 195h-111l-34 -195h-62l154 805h-33l112 163h70zM178 505l-46 -262h95l-45 262h-4z" />
    <glyph glyph-name="Acircumflex" unicode="&#xc2;" horiz-adv-x="361" 
d="M269 0l-34 195h-111l-34 -195h-62l156 815l149 -815h-64zM178 505l-46 -262h95l-45 262h-4zM181 893l-81 -88h-72l153 163l152 -163h-72z" />
    <glyph glyph-name="Acircumflex" unicode="&#xe2;" horiz-adv-x="361" 
d="M269 0l-34 195h-111l-34 -195h-62l156 815l149 -815h-64zM178 505l-46 -262h95l-45 262h-4zM181 893l-81 -88h-72l153 163l152 -163h-72z" />
    <glyph glyph-name="Atilde" unicode="&#xc3;" horiz-adv-x="361" 
d="M269 0l-34 195h-111l-34 -195h-62l156 815l149 -815h-64zM178 505l-46 -262h95l-45 262h-4zM317 920v-57c-18 -19 -43 -29 -71 -29c-48 0 -84 39 -133 39c-31 0 -51 -12 -70 -37v57c19 19 44 30 72 30c48 0 84 -39 133 -39c31 0 51 12 69 36z" />
    <glyph glyph-name="Atilde" unicode="&#xe3;" horiz-adv-x="361" 
d="M269 0l-34 195h-111l-34 -195h-62l156 815l149 -815h-64zM178 505l-46 -262h95l-45 262h-4zM317 920v-57c-18 -19 -43 -29 -71 -29c-48 0 -84 39 -133 39c-31 0 -51 -12 -70 -37v57c19 19 44 30 72 30c48 0 84 -39 133 -39c31 0 51 12 69 36z" />
    <glyph glyph-name="Adieresis" unicode="&#xc4;" horiz-adv-x="361" 
d="M269 0l-34 195h-111l-34 -195h-62l156 815l149 -815h-64zM178 505l-46 -262h95l-45 262h-4zM259 829c-24 0 -38 14 -38 46c0 29 14 46 38 46c25 0 38 -17 38 -46c0 -32 -13 -46 -38 -46zM101 829c-24 0 -37 14 -37 46c0 29 13 46 37 46c26 0 38 -17 38 -46
c0 -32 -12 -46 -38 -46z" />
    <glyph glyph-name="Adieresis" unicode="&#xe4;" horiz-adv-x="361" 
d="M269 0l-34 195h-111l-34 -195h-62l156 815l149 -815h-64zM178 505l-46 -262h95l-45 262h-4zM259 829c-24 0 -38 14 -38 46c0 29 14 46 38 46c25 0 38 -17 38 -46c0 -32 -13 -46 -38 -46zM101 829c-24 0 -37 14 -37 46c0 29 13 46 37 46c26 0 38 -17 38 -46
c0 -32 -12 -46 -38 -46z" />
    <glyph glyph-name="Aring" unicode="&#xc5;" horiz-adv-x="361" 
d="M269 0l-34 195h-111l-34 -195h-62l150 783c-65 3 -86 51 -86 92s23 93 92 93s91 -52 91 -93s-21 -89 -85 -92l143 -783h-64zM178 505l-46 -262h95l-45 262h-4zM184 817c26 0 43 30 43 58c0 27 -17 58 -43 58s-43 -31 -43 -58c0 -28 17 -58 43 -58z" />
    <glyph glyph-name="Aring" unicode="&#xe5;" horiz-adv-x="361" 
d="M269 0l-34 195h-111l-34 -195h-62l150 783c-65 3 -86 51 -86 92s23 93 92 93s91 -52 91 -93s-21 -89 -85 -92l143 -783h-64zM178 505l-46 -262h95l-45 262h-4zM184 817c26 0 43 30 43 58c0 27 -17 58 -43 58s-43 -31 -43 -58c0 -28 17 -58 43 -58z" />
    <glyph glyph-name="AE" unicode="&#xc6;" horiz-adv-x="440" 
d="M392 0h-170v195h-96l-33 -195h-65l147 779h208v-63h-97v-473h95v-48h-95v-135h106v-60zM218 716l-84 -473h88v473h-4z" />
    <glyph glyph-name="AE" unicode="&#xe6;" horiz-adv-x="440" 
d="M392 0h-170v195h-96l-33 -195h-65l147 779h208v-63h-97v-473h95v-48h-95v-135h106v-60zM218 716l-84 -473h88v473h-4z" />
    <glyph glyph-name="Ccedilla" unicode="&#xc7;" horiz-adv-x="296" 
d="M45 389c0 282 51 401 151 401c31 0 48 -6 58 -16v-64c-11 10 -26 17 -52 17c-61 0 -93 -97 -93 -338c0 -240 32 -337 93 -337c26 0 41 8 52 17v-64c-10 -9 -27 -15 -58 -15c-100 0 -151 118 -151 399zM195 -130c-31 0 -45 16 -45 52c0 34 14 52 42 52c30 0 44 -18 44 -52
c0 -42 -25 -119 -46 -154h-40c12 16 29 54 45 102z" />
    <glyph glyph-name="Ccedilla" unicode="&#xe7;" horiz-adv-x="296" 
d="M45 389c0 282 51 401 151 401c31 0 48 -6 58 -16v-64c-11 10 -26 17 -52 17c-61 0 -93 -97 -93 -338c0 -240 32 -337 93 -337c26 0 41 8 52 17v-64c-10 -9 -27 -15 -58 -15c-100 0 -151 118 -151 399zM195 -130c-31 0 -45 16 -45 52c0 34 14 52 42 52c30 0 44 -18 44 -52
c0 -42 -25 -119 -46 -154h-40c12 16 29 54 45 102z" />
    <glyph glyph-name="Egrave" unicode="&#xc8;" horiz-adv-x="278" 
d="M239 0h-170v779h161v-63h-97v-473h95v-48h-95v-135h106v-60zM210 805h-65l-117 163h70z" />
    <glyph glyph-name="Egrave" unicode="&#x450;" horiz-adv-x="278" 
d="M239 0h-170v779h161v-63h-97v-473h95v-48h-95v-135h106v-60zM210 805h-65l-117 163h70z" />
    <glyph glyph-name="Egrave" unicode="&#x400;" horiz-adv-x="278" 
d="M239 0h-170v779h161v-63h-97v-473h95v-48h-95v-135h106v-60zM210 805h-65l-117 163h70z" />
    <glyph glyph-name="Egrave" unicode="&#xe8;" horiz-adv-x="278" 
d="M239 0h-170v779h161v-63h-97v-473h95v-48h-95v-135h106v-60zM210 805h-65l-117 163h70z" />
    <glyph glyph-name="Eacute" unicode="&#xc9;" horiz-adv-x="278" 
d="M239 0h-170v779h161v-63h-97v-473h95v-48h-95v-135h106v-60zM153 805h-65l112 163h70z" />
    <glyph glyph-name="Eacute" unicode="&#xe9;" horiz-adv-x="278" 
d="M239 0h-170v779h161v-63h-97v-473h95v-48h-95v-135h106v-60zM153 805h-65l112 163h70z" />
    <glyph glyph-name="Ecircumflex" unicode="&#xca;" horiz-adv-x="278" 
d="M239 0h-170v779h161v-63h-97v-473h95v-48h-95v-135h106v-60zM150 893l-81 -88h-72l153 163l152 -163h-72z" />
    <glyph glyph-name="Ecircumflex" unicode="&#xea;" horiz-adv-x="278" 
d="M239 0h-170v779h161v-63h-97v-473h95v-48h-95v-135h106v-60zM150 893l-81 -88h-72l153 163l152 -163h-72z" />
    <glyph glyph-name="Edieresis" unicode="&#xcb;" horiz-adv-x="278" 
d="M239 0h-170v779h161v-63h-97v-473h95v-48h-95v-135h106v-60zM228 829c-24 0 -38 14 -38 46c0 29 14 46 38 46c25 0 38 -17 38 -46c0 -32 -13 -46 -38 -46zM70 829c-24 0 -37 14 -37 46c0 29 13 46 37 46c26 0 38 -17 38 -46c0 -32 -12 -46 -38 -46z" />
    <glyph glyph-name="Edieresis" unicode="&#x451;" horiz-adv-x="278" 
d="M239 0h-170v779h161v-63h-97v-473h95v-48h-95v-135h106v-60zM228 829c-24 0 -38 14 -38 46c0 29 14 46 38 46c25 0 38 -17 38 -46c0 -32 -13 -46 -38 -46zM70 829c-24 0 -37 14 -37 46c0 29 13 46 37 46c26 0 38 -17 38 -46c0 -32 -12 -46 -38 -46z" />
    <glyph glyph-name="Edieresis" unicode="&#x401;" horiz-adv-x="278" 
d="M239 0h-170v779h161v-63h-97v-473h95v-48h-95v-135h106v-60zM228 829c-24 0 -38 14 -38 46c0 29 14 46 38 46c25 0 38 -17 38 -46c0 -32 -13 -46 -38 -46zM70 829c-24 0 -37 14 -37 46c0 29 13 46 37 46c26 0 38 -17 38 -46c0 -32 -12 -46 -38 -46z" />
    <glyph glyph-name="Edieresis" unicode="&#xeb;" horiz-adv-x="278" 
d="M239 0h-170v779h161v-63h-97v-473h95v-48h-95v-135h106v-60zM228 829c-24 0 -38 14 -38 46c0 29 14 46 38 46c25 0 38 -17 38 -46c0 -32 -13 -46 -38 -46zM70 829c-24 0 -37 14 -37 46c0 29 13 46 37 46c26 0 38 -17 38 -46c0 -32 -12 -46 -38 -46z" />
    <glyph glyph-name="Igrave" unicode="&#xcc;" horiz-adv-x="231" 
d="M162 0h-64v779h64v-779zM191 805h-65l-117 163h70z" />
    <glyph glyph-name="Igrave" unicode="&#xec;" horiz-adv-x="231" 
d="M162 0h-64v779h64v-779zM191 805h-65l-117 163h70z" />
    <glyph glyph-name="Iacute" unicode="&#xcd;" horiz-adv-x="233" 
d="M133 0h-64v779h64v-779zM105 805h-65l112 163h70z" />
    <glyph glyph-name="Iacute" unicode="&#xed;" horiz-adv-x="233" 
d="M133 0h-64v779h64v-779zM105 805h-65l112 163h70z" />
    <glyph glyph-name="Icircumflex" unicode="&#xce;" horiz-adv-x="257" 
d="M160 0h-64v779h64v-779zM129 893l-81 -88h-72l153 163l152 -163h-72z" />
    <glyph glyph-name="Icircumflex" unicode="&#xee;" horiz-adv-x="257" 
d="M160 0h-64v779h64v-779zM129 893l-81 -88h-72l153 163l152 -163h-72z" />
    <glyph glyph-name="Idieresis" unicode="&#xcf;" horiz-adv-x="216" 
d="M140 0h-64v779h64v-779zM187 829c-24 0 -38 14 -38 46c0 29 14 46 38 46c25 0 38 -17 38 -46c0 -32 -13 -46 -38 -46zM29 829c-24 0 -37 14 -37 46c0 29 13 46 37 46c26 0 38 -17 38 -46c0 -32 -12 -46 -38 -46z" />
    <glyph glyph-name="Idieresis" unicode="&#x457;" horiz-adv-x="216" 
d="M140 0h-64v779h64v-779zM187 829c-24 0 -38 14 -38 46c0 29 14 46 38 46c25 0 38 -17 38 -46c0 -32 -13 -46 -38 -46zM29 829c-24 0 -37 14 -37 46c0 29 13 46 37 46c26 0 38 -17 38 -46c0 -32 -12 -46 -38 -46z" />
    <glyph glyph-name="Idieresis" unicode="&#x407;" horiz-adv-x="216" 
d="M140 0h-64v779h64v-779zM187 829c-24 0 -38 14 -38 46c0 29 14 46 38 46c25 0 38 -17 38 -46c0 -32 -13 -46 -38 -46zM29 829c-24 0 -37 14 -37 46c0 29 13 46 37 46c26 0 38 -17 38 -46c0 -32 -12 -46 -38 -46z" />
    <glyph glyph-name="Idieresis" unicode="&#x3ca;" horiz-adv-x="216" 
d="M140 0h-64v779h64v-779zM187 829c-24 0 -38 14 -38 46c0 29 14 46 38 46c25 0 38 -17 38 -46c0 -32 -13 -46 -38 -46zM29 829c-24 0 -37 14 -37 46c0 29 13 46 37 46c26 0 38 -17 38 -46c0 -32 -12 -46 -38 -46z" />
    <glyph glyph-name="Idieresis" unicode="&#x3aa;" horiz-adv-x="216" 
d="M140 0h-64v779h64v-779zM187 829c-24 0 -38 14 -38 46c0 29 14 46 38 46c25 0 38 -17 38 -46c0 -32 -13 -46 -38 -46zM29 829c-24 0 -37 14 -37 46c0 29 13 46 37 46c26 0 38 -17 38 -46c0 -32 -12 -46 -38 -46z" />
    <glyph glyph-name="Idieresis" unicode="&#xef;" horiz-adv-x="216" 
d="M140 0h-64v779h64v-779zM187 829c-24 0 -38 14 -38 46c0 29 14 46 38 46c25 0 38 -17 38 -46c0 -32 -13 -46 -38 -46zM29 829c-24 0 -37 14 -37 46c0 29 13 46 37 46c26 0 38 -17 38 -46c0 -32 -12 -46 -38 -46z" />
    <glyph glyph-name="Ntilde" unicode="&#xd1;" horiz-adv-x="391" 
d="M322 -36l-188 502h-4v-466h-61v815l190 -529h4v493h59v-815zM327 920v-57c-18 -19 -43 -29 -71 -29c-48 0 -84 39 -133 39c-31 0 -51 -12 -70 -37v57c19 19 44 30 72 30c48 0 84 -39 133 -39c31 0 51 12 69 36z" />
    <glyph glyph-name="Ntilde" unicode="&#xf1;" horiz-adv-x="391" 
d="M322 -36l-188 502h-4v-466h-61v815l190 -529h4v493h59v-815zM327 920v-57c-18 -19 -43 -29 -71 -29c-48 0 -84 39 -133 39c-31 0 -51 -12 -70 -37v57c19 19 44 30 72 30c48 0 84 -39 133 -39c31 0 51 12 69 36z" />
    <glyph glyph-name="Ograve" unicode="&#xd2;" 
d="M319 382c0 -282 -51 -393 -137 -393s-137 111 -137 393c0 281 51 407 137 407s137 -126 137 -407zM109 382c0 -209 24 -331 73 -331s73 122 73 331s-24 344 -73 344s-73 -135 -73 -344zM243 805h-65l-117 163h70z" />
    <glyph glyph-name="Ograve" unicode="&#xf2;" 
d="M319 382c0 -282 -51 -393 -137 -393s-137 111 -137 393c0 281 51 407 137 407s137 -126 137 -407zM109 382c0 -209 24 -331 73 -331s73 122 73 331s-24 344 -73 344s-73 -135 -73 -344zM243 805h-65l-117 163h70z" />
    <glyph glyph-name="Oacute" unicode="&#xd3;" 
d="M319 382c0 -282 -51 -393 -137 -393s-137 111 -137 393c0 281 51 407 137 407s137 -126 137 -407zM109 382c0 -209 24 -331 73 -331s73 122 73 331s-24 344 -73 344s-73 -135 -73 -344zM186 805h-65l112 163h70z" />
    <glyph glyph-name="Oacute" unicode="&#xf3;" 
d="M319 382c0 -282 -51 -393 -137 -393s-137 111 -137 393c0 281 51 407 137 407s137 -126 137 -407zM109 382c0 -209 24 -331 73 -331s73 122 73 331s-24 344 -73 344s-73 -135 -73 -344zM186 805h-65l112 163h70z" />
    <glyph glyph-name="Ocircumflex" unicode="&#xd4;" 
d="M319 382c0 -282 -51 -393 -137 -393s-137 111 -137 393c0 281 51 407 137 407s137 -126 137 -407zM109 382c0 -209 24 -331 73 -331s73 122 73 331s-24 344 -73 344s-73 -135 -73 -344zM183 893l-81 -88h-72l153 163l152 -163h-72z" />
    <glyph glyph-name="Ocircumflex" unicode="&#xf4;" 
d="M319 382c0 -282 -51 -393 -137 -393s-137 111 -137 393c0 281 51 407 137 407s137 -126 137 -407zM109 382c0 -209 24 -331 73 -331s73 122 73 331s-24 344 -73 344s-73 -135 -73 -344zM183 893l-81 -88h-72l153 163l152 -163h-72z" />
    <glyph glyph-name="Otilde" unicode="&#xd5;" 
d="M319 382c0 -282 -51 -393 -137 -393s-137 111 -137 393c0 281 51 407 137 407s137 -126 137 -407zM109 382c0 -209 24 -331 73 -331s73 122 73 331s-24 344 -73 344s-73 -135 -73 -344zM319 920v-57c-18 -19 -43 -29 -71 -29c-48 0 -84 39 -133 39c-31 0 -51 -12 -70 -37
v57c19 19 44 30 72 30c48 0 84 -39 133 -39c31 0 51 12 69 36z" />
    <glyph glyph-name="Otilde" unicode="&#xf5;" 
d="M319 382c0 -282 -51 -393 -137 -393s-137 111 -137 393c0 281 51 407 137 407s137 -126 137 -407zM109 382c0 -209 24 -331 73 -331s73 122 73 331s-24 344 -73 344s-73 -135 -73 -344zM319 920v-57c-18 -19 -43 -29 -71 -29c-48 0 -84 39 -133 39c-31 0 -51 -12 -70 -37
v57c19 19 44 30 72 30c48 0 84 -39 133 -39c31 0 51 12 69 36z" />
    <glyph glyph-name="Odieresis" unicode="&#xd6;" 
d="M319 382c0 -282 -51 -393 -137 -393s-137 111 -137 393c0 281 51 407 137 407s137 -126 137 -407zM109 382c0 -209 24 -331 73 -331s73 122 73 331s-24 344 -73 344s-73 -135 -73 -344zM260 829c-24 0 -38 14 -38 46c0 29 14 46 38 46c25 0 38 -17 38 -46
c0 -32 -13 -46 -38 -46zM102 829c-24 0 -37 14 -37 46c0 29 13 46 37 46c26 0 38 -17 38 -46c0 -32 -12 -46 -38 -46z" />
    <glyph glyph-name="Odieresis" unicode="&#xf6;" 
d="M319 382c0 -282 -51 -393 -137 -393s-137 111 -137 393c0 281 51 407 137 407s137 -126 137 -407zM109 382c0 -209 24 -331 73 -331s73 122 73 331s-24 344 -73 344s-73 -135 -73 -344zM260 829c-24 0 -38 14 -38 46c0 29 14 46 38 46c25 0 38 -17 38 -46
c0 -32 -13 -46 -38 -46zM102 829c-24 0 -37 14 -37 46c0 29 13 46 37 46c26 0 38 -17 38 -46c0 -32 -12 -46 -38 -46z" />
    <glyph glyph-name="multiply" unicode="&#xd7;" horiz-adv-x="484" 
d="M381 206l-140 138l-138 -137l-34 35l138 138l-138 138l35 34l137 -138l140 138l34 -34l-138 -138l138 -139z" />
    <glyph glyph-name="Oslash" unicode="&#xd8;" 
d="M79 -78l-33 9l38 143c-25 63 -39 162 -39 309c0 281 51 407 137 407c30 0 57 -16 78 -49l27 103l32 -8l-37 -141c24 -67 37 -170 37 -312c0 -282 -51 -393 -137 -393c-29 0 -54 12 -75 40zM109 383c0 -71 2 -132 8 -182l117 445c-12 52 -29 81 -52 81
c-49 0 -73 -135 -73 -344zM255 383c0 69 -3 130 -8 180l-116 -442c12 -45 29 -69 51 -69c49 0 73 122 73 331z" />
    <glyph glyph-name="Oslash" unicode="&#xf8;" 
d="M79 -78l-33 9l38 143c-25 63 -39 162 -39 309c0 281 51 407 137 407c30 0 57 -16 78 -49l27 103l32 -8l-37 -141c24 -67 37 -170 37 -312c0 -282 -51 -393 -137 -393c-29 0 -54 12 -75 40zM109 383c0 -71 2 -132 8 -182l117 445c-12 52 -29 81 -52 81
c-49 0 -73 -135 -73 -344zM255 383c0 69 -3 130 -8 180l-116 -442c12 -45 29 -69 51 -69c49 0 73 122 73 331z" />
    <glyph glyph-name="Ugrave" unicode="&#xd9;" horiz-adv-x="404" 
d="M202 -10c-102 0 -136 100 -136 266v523h65v-526c0 -134 18 -199 71 -199c54 0 71 65 71 199v526h65v-523c0 -166 -33 -266 -136 -266zM263 805h-65l-117 163h70z" />
    <glyph glyph-name="Ugrave" unicode="&#xf9;" horiz-adv-x="404" 
d="M202 -10c-102 0 -136 100 -136 266v523h65v-526c0 -134 18 -199 71 -199c54 0 71 65 71 199v526h65v-523c0 -166 -33 -266 -136 -266zM263 805h-65l-117 163h70z" />
    <glyph glyph-name="Uacute" unicode="&#xda;" horiz-adv-x="404" 
d="M202 -10c-102 0 -136 100 -136 266v523h65v-526c0 -134 18 -199 71 -199c54 0 71 65 71 199v526h65v-523c0 -166 -33 -266 -136 -266zM206 805h-65l112 163h70z" />
    <glyph glyph-name="Uacute" unicode="&#xfa;" horiz-adv-x="404" 
d="M202 -10c-102 0 -136 100 -136 266v523h65v-526c0 -134 18 -199 71 -199c54 0 71 65 71 199v526h65v-523c0 -166 -33 -266 -136 -266zM206 805h-65l112 163h70z" />
    <glyph glyph-name="Ucircumflex" unicode="&#xdb;" horiz-adv-x="404" 
d="M202 -10c-102 0 -136 100 -136 266v523h65v-526c0 -134 18 -199 71 -199c54 0 71 65 71 199v526h65v-523c0 -166 -33 -266 -136 -266zM202 893l-81 -88h-72l153 163l152 -163h-72z" />
    <glyph glyph-name="Ucircumflex" unicode="&#xfb;" horiz-adv-x="404" 
d="M202 -10c-102 0 -136 100 -136 266v523h65v-526c0 -134 18 -199 71 -199c54 0 71 65 71 199v526h65v-523c0 -166 -33 -266 -136 -266zM202 893l-81 -88h-72l153 163l152 -163h-72z" />
    <glyph glyph-name="Udieresis" unicode="&#xdc;" horiz-adv-x="404" 
d="M202 -10c-102 0 -136 100 -136 266v523h65v-526c0 -134 18 -199 71 -199c54 0 71 65 71 199v526h65v-523c0 -166 -33 -266 -136 -266zM280 829c-24 0 -38 14 -38 46c0 29 14 46 38 46c25 0 38 -17 38 -46c0 -32 -13 -46 -38 -46zM122 829c-24 0 -37 14 -37 46
c0 29 13 46 37 46c26 0 38 -17 38 -46c0 -32 -12 -46 -38 -46z" />
    <glyph glyph-name="Udieresis" unicode="&#xfc;" horiz-adv-x="404" 
d="M202 -10c-102 0 -136 100 -136 266v523h65v-526c0 -134 18 -199 71 -199c54 0 71 65 71 199v526h65v-523c0 -166 -33 -266 -136 -266zM280 829c-24 0 -38 14 -38 46c0 29 14 46 38 46c25 0 38 -17 38 -46c0 -32 -13 -46 -38 -46zM122 829c-24 0 -37 14 -37 46
c0 29 13 46 37 46c26 0 38 -17 38 -46c0 -32 -12 -46 -38 -46z" />
    <glyph glyph-name="Yacute" unicode="&#xdd;" horiz-adv-x="374" 
d="M220 0h-64v345l-132 434h65l100 -346h4l99 346h58l-130 -434v-345zM191 805h-65l112 163h70z" />
    <glyph glyph-name="Yacute" unicode="&#xfd;" horiz-adv-x="374" 
d="M220 0h-64v345l-132 434h65l100 -346h4l99 346h58l-130 -434v-345zM191 805h-65l112 163h70z" />
    <glyph glyph-name="Thorn" unicode="&#xde;" horiz-adv-x="351" 
d="M69 0v779h63v-101c116 -65 177 -145 177 -291c0 -145 -61 -226 -177 -291v-96h-63zM132 611v-448c77 51 114 115 114 224s-37 173 -114 224z" />
    <glyph glyph-name="Thorn" unicode="&#xfe;" horiz-adv-x="351" 
d="M69 0v779h63v-101c116 -65 177 -145 177 -291c0 -145 -61 -226 -177 -291v-96h-63zM132 611v-448c77 51 114 115 114 224s-37 173 -114 224z" />
    <glyph glyph-name="germandbls" unicode="&#xdf;" horiz-adv-x="563" 
d="M53 5v64c13 -11 26 -17 50 -17c71 0 104 52 104 136c0 50 -12 83 -29 117c-26 51 -66 104 -89 143c-27 45 -46 95 -46 160c0 109 53 182 139 182c31 0 46 -10 55 -16v-64c-7 9 -25 17 -48 17c-52 0 -83 -43 -83 -122c0 -51 13 -84 32 -119c24 -44 50 -74 80 -123
c30 -50 54 -98 54 -175c0 -120 -59 -198 -161 -198c-31 0 -49 7 -58 15zM301 5v64c13 -11 26 -17 50 -17c71 0 104 52 104 136c0 50 -12 83 -29 117c-26 51 -66 104 -89 143c-27 45 -46 95 -46 160c0 109 53 182 139 182c31 0 46 -10 55 -16v-64c-7 9 -25 17 -48 17
c-52 0 -83 -43 -83 -122c0 -51 13 -84 32 -119c24 -44 50 -74 80 -123c30 -50 54 -98 54 -175c0 -120 -59 -198 -161 -198c-31 0 -49 7 -58 15z" />
    <glyph glyph-name="Eth" unicode="&#xd0;" horiz-adv-x="354" 
d="M21 195v48h48v542c179 -6 240 -187 240 -396s-61 -389 -240 -394v200h-48zM132 717v-474h102c8 45 12 95 12 146c0 152 -35 299 -114 328zM132 63c42 14 72 65 90 132h-90v-132z" />
    <glyph glyph-name="Eth" unicode="&#x111;" horiz-adv-x="354" 
d="M21 195v48h48v542c179 -6 240 -187 240 -396s-61 -389 -240 -394v200h-48zM132 717v-474h102c8 45 12 95 12 146c0 152 -35 299 -114 328zM132 63c42 14 72 65 90 132h-90v-132z" />
    <glyph glyph-name="Eth" unicode="&#x110;" horiz-adv-x="354" 
d="M21 195v48h48v542c179 -6 240 -187 240 -396s-61 -389 -240 -394v200h-48zM132 717v-474h102c8 45 12 95 12 146c0 152 -35 299 -114 328zM132 63c42 14 72 65 90 132h-90v-132z" />
    <glyph glyph-name="Eth" unicode="&#xf0;" horiz-adv-x="354" 
d="M21 195v48h48v542c179 -6 240 -187 240 -396s-61 -389 -240 -394v200h-48zM132 717v-474h102c8 45 12 95 12 146c0 152 -35 299 -114 328zM132 63c42 14 72 65 90 132h-90v-132z" />
    <glyph glyph-name="divide" unicode="&#xf7;" horiz-adv-x="579" 
d="M510 355h-441v49h441v-49zM289 501c-28 0 -43 15 -43 51c0 34 15 52 43 52c29 0 44 -18 44 -52c0 -36 -15 -51 -44 -51zM289 144c-28 0 -43 15 -43 51c0 34 15 52 43 52c29 0 44 -18 44 -52c0 -36 -15 -51 -44 -51z" />
    <glyph glyph-name="Ydieresis" unicode="&#xff;" horiz-adv-x="374" 
d="M220 0h-64v345l-132 434h65l100 -346h4l99 346h58l-130 -434v-345zM265 829c-24 0 -38 14 -38 46c0 29 14 46 38 46c25 0 38 -17 38 -46c0 -32 -13 -46 -38 -46zM107 829c-24 0 -37 14 -37 46c0 29 13 46 37 46c26 0 38 -17 38 -46c0 -32 -12 -46 -38 -46z" />
    <glyph glyph-name="Ydieresis" unicode="&#x3cb;" horiz-adv-x="374" 
d="M220 0h-64v345l-132 434h65l100 -346h4l99 346h58l-130 -434v-345zM265 829c-24 0 -38 14 -38 46c0 29 14 46 38 46c25 0 38 -17 38 -46c0 -32 -13 -46 -38 -46zM107 829c-24 0 -37 14 -37 46c0 29 13 46 37 46c26 0 38 -17 38 -46c0 -32 -12 -46 -38 -46z" />
    <glyph glyph-name="Ydieresis" unicode="&#x3ab;" horiz-adv-x="374" 
d="M220 0h-64v345l-132 434h65l100 -346h4l99 346h58l-130 -434v-345zM265 829c-24 0 -38 14 -38 46c0 29 14 46 38 46c25 0 38 -17 38 -46c0 -32 -13 -46 -38 -46zM107 829c-24 0 -37 14 -37 46c0 29 13 46 37 46c26 0 38 -17 38 -46c0 -32 -12 -46 -38 -46z" />
    <glyph glyph-name="Ydieresis" unicode="&#x178;" horiz-adv-x="374" 
d="M220 0h-64v345l-132 434h65l100 -346h4l99 346h58l-130 -434v-345zM265 829c-24 0 -38 14 -38 46c0 29 14 46 38 46c25 0 38 -17 38 -46c0 -32 -13 -46 -38 -46zM107 829c-24 0 -37 14 -37 46c0 29 13 46 37 46c26 0 38 -17 38 -46c0 -32 -12 -46 -38 -46z" />
    <glyph glyph-name="Amacron" unicode="&#x100;" horiz-adv-x="361" 
d="M269 0l-34 195h-111l-34 -195h-62l156 815l149 -815h-64zM178 505l-46 -262h95l-45 262h-4zM321 852h-274v49h274v-49z" />
    <glyph glyph-name="Amacron" unicode="&#x101;" horiz-adv-x="361" 
d="M269 0l-34 195h-111l-34 -195h-62l156 815l149 -815h-64zM178 505l-46 -262h95l-45 262h-4zM321 852h-274v49h274v-49z" />
    <glyph glyph-name="Abreve" unicode="&#x102;" horiz-adv-x="361" 
d="M266 968h59c-8 -102 -46 -163 -139 -163l147 -805h-64l-34 195h-111l-34 -195h-62l154 805c-93 1 -129 62 -139 163h61c9 -82 25 -124 81 -124c55 0 71 42 81 124zM178 505l-46 -262h95l-45 262h-4z" />
    <glyph glyph-name="Abreve" unicode="&#x103;" horiz-adv-x="361" 
d="M266 968h59c-8 -102 -46 -163 -139 -163l147 -805h-64l-34 195h-111l-34 -195h-62l154 805c-93 1 -129 62 -139 163h61c9 -82 25 -124 81 -124c55 0 71 42 81 124zM178 505l-46 -262h95l-45 262h-4z" />
    <glyph glyph-name="Aogonek" unicode="&#x104;" horiz-adv-x="361" 
d="M333 -155v-61c-12 -9 -44 -16 -81 -16c-72 0 -126 30 -126 100c0 88 76 123 143 132l-34 195h-111l-34 -195h-62l156 815l149 -815c-97 -18 -153 -48 -153 -110c0 -43 23 -59 75 -59c37 0 60 5 78 14zM178 505l-46 -262h95l-45 262h-4z" />
    <glyph glyph-name="Aogonek" unicode="&#x105;" horiz-adv-x="361" 
d="M333 -155v-61c-12 -9 -44 -16 -81 -16c-72 0 -126 30 -126 100c0 88 76 123 143 132l-34 195h-111l-34 -195h-62l156 815l149 -815c-97 -18 -153 -48 -153 -110c0 -43 23 -59 75 -59c37 0 60 5 78 14zM178 505l-46 -262h95l-45 262h-4z" />
    <glyph glyph-name="Cacute" unicode="&#x106;" horiz-adv-x="296" 
d="M45 389c0 282 51 401 151 401c31 0 48 -6 58 -16v-64c-11 10 -26 17 -52 17c-61 0 -93 -97 -93 -338c0 -240 32 -337 93 -337c26 0 41 8 52 17v-64c-10 -9 -27 -15 -58 -15c-100 0 -151 118 -151 399zM185 805h-65l112 163h70z" />
    <glyph glyph-name="Cacute" unicode="&#x107;" horiz-adv-x="296" 
d="M45 389c0 282 51 401 151 401c31 0 48 -6 58 -16v-64c-11 10 -26 17 -52 17c-61 0 -93 -97 -93 -338c0 -240 32 -337 93 -337c26 0 41 8 52 17v-64c-10 -9 -27 -15 -58 -15c-100 0 -151 118 -151 399zM185 805h-65l112 163h70z" />
    <glyph glyph-name="Cdotaccent" unicode="&#x10a;" horiz-adv-x="296" 
d="M45 389c0 282 51 401 151 401c31 0 48 -6 58 -16v-64c-11 10 -26 17 -52 17c-61 0 -93 -97 -93 -338c0 -240 32 -337 93 -337c26 0 41 8 52 17v-64c-10 -9 -27 -15 -58 -15c-100 0 -151 118 -151 399zM187 829c-24 0 -37 14 -37 46c0 29 13 46 37 46c26 0 39 -17 39 -46
c0 -32 -13 -46 -39 -46z" />
    <glyph glyph-name="Cdotaccent" unicode="&#x10b;" horiz-adv-x="296" 
d="M45 389c0 282 51 401 151 401c31 0 48 -6 58 -16v-64c-11 10 -26 17 -52 17c-61 0 -93 -97 -93 -338c0 -240 32 -337 93 -337c26 0 41 8 52 17v-64c-10 -9 -27 -15 -58 -15c-100 0 -151 118 -151 399zM187 829c-24 0 -37 14 -37 46c0 29 13 46 37 46c26 0 39 -17 39 -46
c0 -32 -13 -46 -39 -46z" />
    <glyph glyph-name="Ccaron" unicode="&#x10c;" horiz-adv-x="296" 
d="M45 389c0 282 51 401 151 401c31 0 48 -6 58 -16v-64c-11 10 -26 17 -52 17c-61 0 -93 -97 -93 -338c0 -240 32 -337 93 -337c26 0 41 8 52 17v-64c-10 -9 -27 -15 -58 -15c-100 0 -151 118 -151 399zM181 880l81 88h72l-153 -163l-152 163h72z" />
    <glyph glyph-name="Ccaron" unicode="&#x10d;" horiz-adv-x="296" 
d="M45 389c0 282 51 401 151 401c31 0 48 -6 58 -16v-64c-11 10 -26 17 -52 17c-61 0 -93 -97 -93 -338c0 -240 32 -337 93 -337c26 0 41 8 52 17v-64c-10 -9 -27 -15 -58 -15c-100 0 -151 118 -151 399zM181 880l81 88h72l-153 -163l-152 163h72z" />
    <glyph glyph-name="Dcaron" unicode="&#x10e;" horiz-adv-x="354" 
d="M69 -5v790c179 -6 240 -187 240 -396s-61 -389 -240 -394zM132 717v-654c79 28 114 174 114 326s-35 299 -114 328zM147 880l81 88h72l-153 -163l-152 163h72z" />
    <glyph glyph-name="Dcaron" unicode="&#x10f;" horiz-adv-x="354" 
d="M69 -5v790c179 -6 240 -187 240 -396s-61 -389 -240 -394zM132 717v-654c79 28 114 174 114 326s-35 299 -114 328zM147 880l81 88h72l-153 -163l-152 163h72z" />
    <glyph glyph-name="Emacron" unicode="&#x112;" horiz-adv-x="278" 
d="M239 0h-170v779h161v-63h-97v-473h95v-48h-95v-135h106v-60zM286 852h-274v49h274v-49z" />
    <glyph glyph-name="Emacron" unicode="&#x113;" horiz-adv-x="278" 
d="M239 0h-170v779h161v-63h-97v-473h95v-48h-95v-135h106v-60zM286 852h-274v49h274v-49z" />
    <glyph glyph-name="Edotaccent" unicode="&#x116;" horiz-adv-x="278" 
d="M239 0h-170v779h161v-63h-97v-473h95v-48h-95v-135h106v-60zM148 829c-24 0 -37 14 -37 46c0 29 13 46 37 46c26 0 39 -17 39 -46c0 -32 -13 -46 -39 -46z" />
    <glyph glyph-name="Edotaccent" unicode="&#x117;" horiz-adv-x="278" 
d="M239 0h-170v779h161v-63h-97v-473h95v-48h-95v-135h106v-60zM148 829c-24 0 -37 14 -37 46c0 29 13 46 37 46c26 0 39 -17 39 -46c0 -32 -13 -46 -39 -46z" />
    <glyph glyph-name="Eogonek" unicode="&#x118;" horiz-adv-x="278" 
d="M239 -155v-61c-12 -9 -44 -16 -81 -16c-72 0 -126 30 -126 100c0 88 76 123 143 132h-106v779h161v-63h-97v-473h95v-48h-95v-135h106v-60c-97 -18 -153 -48 -153 -110c0 -43 23 -59 75 -59c37 0 60 5 78 14z" />
    <glyph glyph-name="Eogonek" unicode="&#x119;" horiz-adv-x="278" 
d="M239 -155v-61c-12 -9 -44 -16 -81 -16c-72 0 -126 30 -126 100c0 88 76 123 143 132h-106v779h161v-63h-97v-473h95v-48h-95v-135h106v-60c-97 -18 -153 -48 -153 -110c0 -43 23 -59 75 -59c37 0 60 5 78 14z" />
    <glyph glyph-name="Ecaron" unicode="&#x11a;" horiz-adv-x="278" 
d="M239 0h-170v779h161v-63h-97v-473h95v-48h-95v-135h106v-60zM149 880l81 88h72l-153 -163l-152 163h72z" />
    <glyph glyph-name="Ecaron" unicode="&#x11b;" horiz-adv-x="278" 
d="M239 0h-170v779h161v-63h-97v-473h95v-48h-95v-135h106v-60zM149 880l81 88h72l-153 -163l-152 163h72z" />
    <glyph glyph-name="Gbreve" unicode="&#x11e;" horiz-adv-x="333" 
d="M220 432h56v-391c-18 -22 -55 -41 -89 -41c-91 0 -142 108 -142 389c0 282 51 401 151 401c31 0 48 -6 58 -16v-64c-11 10 -26 17 -52 17c-61 0 -93 -97 -93 -338c0 -209 24 -329 77 -329c14 0 28 4 34 10v362zM274 968h59c-8 -102 -46 -163 -140 -163
c-95 0 -132 61 -142 163h61c9 -82 25 -127 81 -127c55 0 71 45 81 127z" />
    <glyph glyph-name="Gbreve" unicode="&#x11f;" horiz-adv-x="333" 
d="M220 432h56v-391c-18 -22 -55 -41 -89 -41c-91 0 -142 108 -142 389c0 282 51 401 151 401c31 0 48 -6 58 -16v-64c-11 10 -26 17 -52 17c-61 0 -93 -97 -93 -338c0 -209 24 -329 77 -329c14 0 28 4 34 10v362zM274 968h59c-8 -102 -46 -163 -140 -163
c-95 0 -132 61 -142 163h61c9 -82 25 -127 81 -127c55 0 71 45 81 127z" />
    <glyph glyph-name="Gdotaccent" unicode="&#x120;" horiz-adv-x="333" 
d="M220 432h56v-391c-18 -22 -55 -41 -89 -41c-91 0 -142 108 -142 389c0 282 51 401 151 401c31 0 48 -6 58 -16v-64c-11 10 -26 17 -52 17c-61 0 -93 -97 -93 -338c0 -209 24 -329 77 -329c14 0 28 4 34 10v362zM191 829c-24 0 -37 14 -37 46c0 29 13 46 37 46
c26 0 39 -17 39 -46c0 -32 -13 -46 -39 -46z" />
    <glyph glyph-name="Gdotaccent" unicode="&#x121;" horiz-adv-x="333" 
d="M220 432h56v-391c-18 -22 -55 -41 -89 -41c-91 0 -142 108 -142 389c0 282 51 401 151 401c31 0 48 -6 58 -16v-64c-11 10 -26 17 -52 17c-61 0 -93 -97 -93 -338c0 -209 24 -329 77 -329c14 0 28 4 34 10v362zM191 829c-24 0 -37 14 -37 46c0 29 13 46 37 46
c26 0 39 -17 39 -46c0 -32 -13 -46 -39 -46z" />
    <glyph glyph-name="Gcommaaccent" unicode="&#x122;" horiz-adv-x="333" 
d="M220 432h56v-391c-18 -22 -55 -41 -89 -41c-91 0 -142 108 -142 389c0 282 51 401 151 401c31 0 48 -6 58 -16v-64c-11 10 -26 17 -52 17c-61 0 -93 -97 -93 -338c0 -209 24 -329 77 -329c14 0 28 4 34 10v362zM184 -130c-31 0 -45 16 -45 52c0 34 14 52 42 52
c30 0 44 -18 44 -52c0 -42 -25 -119 -46 -154h-40c12 16 29 54 45 102z" />
    <glyph glyph-name="Gcommaaccent" unicode="&#x123;" horiz-adv-x="333" 
d="M220 432h56v-391c-18 -22 -55 -41 -89 -41c-91 0 -142 108 -142 389c0 282 51 401 151 401c31 0 48 -6 58 -16v-64c-11 10 -26 17 -52 17c-61 0 -93 -97 -93 -338c0 -209 24 -329 77 -329c14 0 28 4 34 10v362zM184 -130c-31 0 -45 16 -45 52c0 34 14 52 42 52
c30 0 44 -18 44 -52c0 -42 -25 -119 -46 -154h-40c12 16 29 54 45 102z" />
    <glyph glyph-name="Hbar" unicode="&#x126;" horiz-adv-x="389" 
d="M320 0h-65v195h-122v-195h-64v321h-49v49h49v409h64v-409h122v409h65v-409h49v-49h-49v-321zM133 243h122v78h-122v-78z" />
    <glyph glyph-name="Hbar" unicode="&#x127;" horiz-adv-x="389" 
d="M320 0h-65v195h-122v-195h-64v321h-49v49h49v409h64v-409h122v409h65v-409h49v-49h-49v-321zM133 243h122v78h-122v-78z" />
    <glyph glyph-name="Itilde" unicode="&#x128;" horiz-adv-x="202" 
d="M133 0h-64v779h64v-779zM238 920v-57c-18 -19 -43 -29 -71 -29c-48 0 -84 39 -133 39c-31 0 -51 -12 -70 -37v57c19 19 44 30 72 30c48 0 84 -39 133 -39c31 0 51 12 69 36z" />
    <glyph glyph-name="Itilde" unicode="&#x129;" horiz-adv-x="202" 
d="M133 0h-64v779h64v-779zM238 920v-57c-18 -19 -43 -29 -71 -29c-48 0 -84 39 -133 39c-31 0 -51 -12 -70 -37v57c19 19 44 30 72 30c48 0 84 -39 133 -39c31 0 51 12 69 36z" />
    <glyph glyph-name="Imacron" unicode="&#x12a;" horiz-adv-x="202" 
d="M202 852h-202v49h202v-49zM133 0h-64v779h64v-779z" />
    <glyph glyph-name="Imacron" unicode="&#x12b;" horiz-adv-x="202" 
d="M202 852h-202v49h202v-49zM133 0h-64v779h64v-779z" />
    <glyph glyph-name="Ibreve" unicode="&#x12c;" horiz-adv-x="287" 
d="M176 0h-64v779h64v-779zM226 968h59c-8 -102 -46 -163 -140 -163c-95 0 -132 61 -142 163h61c9 -82 25 -127 81 -127c55 0 71 45 81 127z" />
    <glyph glyph-name="Ibreve" unicode="&#x12d;" horiz-adv-x="287" 
d="M176 0h-64v779h64v-779zM226 968h59c-8 -102 -46 -163 -140 -163c-95 0 -132 61 -142 163h61c9 -82 25 -127 81 -127c55 0 71 45 81 127z" />
    <glyph glyph-name="Iogonek" unicode="&#x12e;" horiz-adv-x="202" 
d="M133 -155v-61c-12 -9 -44 -16 -81 -16c-72 0 -126 30 -126 100c0 88 76 123 143 132v779h64v-779c-97 -18 -153 -48 -153 -110c0 -43 23 -59 75 -59c37 0 60 5 78 14z" />
    <glyph glyph-name="Iogonek" unicode="&#x12f;" horiz-adv-x="202" 
d="M133 -155v-61c-12 -9 -44 -16 -81 -16c-72 0 -126 30 -126 100c0 88 76 123 143 132v779h64v-779c-97 -18 -153 -48 -153 -110c0 -43 23 -59 75 -59c37 0 60 5 78 14z" />
    <glyph glyph-name="Idotaccent" unicode="&#x130;" horiz-adv-x="202" 
d="M133 0h-64v779h64v-779zM100 829c-24 0 -37 14 -37 46c0 29 13 46 37 46c26 0 39 -17 39 -46c0 -32 -13 -46 -39 -46z" />
    <glyph glyph-name="IJ" unicode="&#x132;" horiz-adv-x="423" 
d="M133 0h-64v779h64v-779zM354 779v-369c0 -313 -34 -428 -83 -506h-79c73 90 98 192 98 506v369h64z" />
    <glyph glyph-name="IJ" unicode="&#x133;" horiz-adv-x="423" 
d="M133 0h-64v779h64v-779zM354 779v-369c0 -313 -34 -428 -83 -506h-79c73 90 98 192 98 506v369h64z" />
    <glyph glyph-name="Kcommaaccent" unicode="&#x136;" horiz-adv-x="383" 
d="M393 0h-105c-43 26 -108 112 -154 194l-2 -5v-189h-63v779h63v-423h4l157 423h65l-201 -525c42 -76 156 -215 236 -254zM211 -130c-31 0 -45 16 -45 52c0 34 14 52 42 52c30 0 44 -18 44 -52c0 -42 -25 -119 -46 -154h-40c12 16 29 54 45 102z" />
    <glyph glyph-name="Kcommaaccent" unicode="&#x137;" horiz-adv-x="383" 
d="M393 0h-105c-43 26 -108 112 -154 194l-2 -5v-189h-63v779h63v-423h4l157 423h65l-201 -525c42 -76 156 -215 236 -254zM211 -130c-31 0 -45 16 -45 52c0 34 14 52 42 52c30 0 44 -18 44 -52c0 -42 -25 -119 -46 -154h-40c12 16 29 54 45 102z" />
    <glyph glyph-name="Lacute" unicode="&#x139;" horiz-adv-x="263" 
d="M243 0h-174v779h64v-719h110v-60zM135 805h-65l112 163h70z" />
    <glyph glyph-name="Lacute" unicode="&#x13a;" horiz-adv-x="263" 
d="M243 0h-174v779h64v-719h110v-60zM135 805h-65l112 163h70z" />
    <glyph glyph-name="Lcommaaccent" unicode="&#x13b;" horiz-adv-x="263" 
d="M243 0h-174v779h64v-719h110v-60zM153 -130c-31 0 -45 16 -45 52c0 34 14 52 42 52c30 0 44 -18 44 -52c0 -42 -25 -119 -46 -154h-40c12 16 29 54 45 102z" />
    <glyph glyph-name="Lcommaaccent" unicode="&#x13c;" horiz-adv-x="263" 
d="M243 0h-174v779h64v-719h110v-60zM153 -130c-31 0 -45 16 -45 52c0 34 14 52 42 52c30 0 44 -18 44 -52c0 -42 -25 -119 -46 -154h-40c12 16 29 54 45 102z" />
    <glyph glyph-name="Lcaron" unicode="&#x13d;" horiz-adv-x="263" 
d="M243 0h-174v779h64v-719h110v-60zM214 687c-30 0 -45 16 -45 52c0 34 15 52 43 52c29 0 44 -18 44 -52c0 -42 -25 -119 -46 -154h-41c13 17 29 54 45 102z" />
    <glyph glyph-name="Lcaron" unicode="&#x13e;" horiz-adv-x="263" 
d="M243 0h-174v779h64v-719h110v-60zM214 687c-30 0 -45 16 -45 52c0 34 15 52 43 52c29 0 44 -18 44 -52c0 -42 -25 -119 -46 -154h-41c13 17 29 54 45 102z" />
    <glyph glyph-name="Lslash" unicode="&#x141;" horiz-adv-x="263" 
d="M243 0h-174v359l-37 -13v40l37 13v380h64v-357l86 31v-40l-86 -31v-322h110v-60z" />
    <glyph glyph-name="Lslash" unicode="&#x142;" horiz-adv-x="263" 
d="M243 0h-174v359l-37 -13v40l37 13v380h64v-357l86 31v-40l-86 -31v-322h110v-60z" />
    <glyph glyph-name="Nacute" unicode="&#x143;" horiz-adv-x="391" 
d="M322 -36l-188 502h-4v-466h-61v815l190 -529h4v493h59v-815zM199 805h-65l112 163h70z" />
    <glyph glyph-name="Nacute" unicode="&#x144;" horiz-adv-x="391" 
d="M322 -36l-188 502h-4v-466h-61v815l190 -529h4v493h59v-815zM199 805h-65l112 163h70z" />
    <glyph glyph-name="Ncommaaccent" unicode="&#x145;" horiz-adv-x="391" 
d="M322 -36l-188 502h-4v-466h-61v815l190 -529h4v493h59v-815zM211 -130c-31 0 -45 16 -45 52c0 34 14 52 42 52c30 0 44 -18 44 -52c0 -42 -25 -119 -46 -154h-40c12 16 29 54 45 102z" />
    <glyph glyph-name="Ncommaaccent" unicode="&#x146;" horiz-adv-x="391" 
d="M322 -36l-188 502h-4v-466h-61v815l190 -529h4v493h59v-815zM211 -130c-31 0 -45 16 -45 52c0 34 14 52 42 52c30 0 44 -18 44 -52c0 -42 -25 -119 -46 -154h-40c12 16 29 54 45 102z" />
    <glyph glyph-name="Ncaron" unicode="&#x147;" horiz-adv-x="391" 
d="M322 -36l-188 502h-4v-466h-61v815l190 -529h4v493h59v-815zM195 880l81 88h72l-153 -163l-152 163h72z" />
    <glyph glyph-name="Ncaron" unicode="&#x148;" horiz-adv-x="391" 
d="M322 -36l-188 502h-4v-466h-61v815l190 -529h4v493h59v-815zM195 880l81 88h72l-153 -163l-152 163h72z" />
    <glyph glyph-name="Eng" unicode="&#x14a;" horiz-adv-x="386" 
d="M322 779v-425c-4 -271 -34 -377 -80 -450h-82c48 59 75 130 88 256l-114 306h-4v-466h-61v815l187 -522c1 36 2 74 2 117v369h64z" />
    <glyph glyph-name="Eng" unicode="&#x14b;" horiz-adv-x="386" 
d="M322 779v-425c-4 -271 -34 -377 -80 -450h-82c48 59 75 130 88 256l-114 306h-4v-466h-61v815l187 -522c1 36 2 74 2 117v369h64z" />
    <glyph glyph-name="Omacron" unicode="&#x14c;" 
d="M319 382c0 -282 -51 -393 -137 -393s-137 111 -137 393c0 281 51 407 137 407s137 -126 137 -407zM109 382c0 -209 24 -331 73 -331s73 122 73 331s-24 344 -73 344s-73 -135 -73 -344zM319 852h-274v49h274v-49z" />
    <glyph glyph-name="Omacron" unicode="&#x14d;" 
d="M319 382c0 -282 -51 -393 -137 -393s-137 111 -137 393c0 281 51 407 137 407s137 -126 137 -407zM109 382c0 -209 24 -331 73 -331s73 122 73 331s-24 344 -73 344s-73 -135 -73 -344zM319 852h-274v49h274v-49z" />
    <glyph glyph-name="Ohungarumlaut" unicode="&#x150;" 
d="M319 382c0 -282 -51 -393 -137 -393s-137 111 -137 393c0 281 51 407 137 407s137 -126 137 -407zM109 382c0 -209 24 -331 73 -331s73 122 73 331s-24 344 -73 344s-73 -135 -73 -344zM264 805h-65l112 163h70zM107 805h-65l112 163h70z" />
    <glyph glyph-name="Ohungarumlaut" unicode="&#x151;" 
d="M319 382c0 -282 -51 -393 -137 -393s-137 111 -137 393c0 281 51 407 137 407s137 -126 137 -407zM109 382c0 -209 24 -331 73 -331s73 122 73 331s-24 344 -73 344s-73 -135 -73 -344zM264 805h-65l112 163h70zM107 805h-65l112 163h70z" />
    <glyph glyph-name="OE" unicode="&#x152;" horiz-adv-x="473" 
d="M425 0h-170v28c-21 -27 -45 -38 -73 -38c-86 0 -137 111 -137 393c0 281 51 407 137 407c28 0 52 -14 73 -43v32h161v-63h-97v-473h95v-48h-95v-135h106v-60zM109 383c0 -209 24 -331 73 -331s73 122 73 331s-24 344 -73 344s-73 -135 -73 -344z" />
    <glyph glyph-name="OE" unicode="&#x153;" horiz-adv-x="473" 
d="M425 0h-170v28c-21 -27 -45 -38 -73 -38c-86 0 -137 111 -137 393c0 281 51 407 137 407c28 0 52 -14 73 -43v32h161v-63h-97v-473h95v-48h-95v-135h106v-60zM109 383c0 -209 24 -331 73 -331s73 122 73 331s-24 344 -73 344s-73 -135 -73 -344z" />
    <glyph glyph-name="Racute" unicode="&#x154;" horiz-adv-x="383" 
d="M132 194v-194h-63v785c179 -5 240 -138 240 -289c0 -131 -46 -210 -133 -274c70 -104 155 -191 217 -222h-105c-44 26 -106 113 -152 195zM132 252c77 56 114 124 114 233c0 106 -35 212 -114 232v-465zM175 805h-65l112 163h70z" />
    <glyph glyph-name="Racute" unicode="&#x155;" horiz-adv-x="383" 
d="M132 194v-194h-63v785c179 -5 240 -138 240 -289c0 -131 -46 -210 -133 -274c70 -104 155 -191 217 -222h-105c-44 26 -106 113 -152 195zM132 252c77 56 114 124 114 233c0 106 -35 212 -114 232v-465zM175 805h-65l112 163h70z" />
    <glyph glyph-name="Rcommaaccent" unicode="&#x156;" horiz-adv-x="383" 
d="M132 194v-194h-63v785c179 -5 240 -138 240 -289c0 -131 -46 -210 -133 -274c70 -104 155 -191 217 -222h-105c-44 26 -106 113 -152 195zM132 252c77 56 114 124 114 233c0 106 -35 212 -114 232v-465zM203 -130c-31 0 -45 16 -45 52c0 34 14 52 42 52
c30 0 44 -18 44 -52c0 -42 -25 -119 -46 -154h-40c12 16 29 54 45 102z" />
    <glyph glyph-name="Rcommaaccent" unicode="&#x157;" horiz-adv-x="383" 
d="M132 194v-194h-63v785c179 -5 240 -138 240 -289c0 -131 -46 -210 -133 -274c70 -104 155 -191 217 -222h-105c-44 26 -106 113 -152 195zM132 252c77 56 114 124 114 233c0 106 -35 212 -114 232v-465zM203 -130c-31 0 -45 16 -45 52c0 34 14 52 42 52
c30 0 44 -18 44 -52c0 -42 -25 -119 -46 -154h-40c12 16 29 54 45 102z" />
    <glyph glyph-name="Rcaron" unicode="&#x158;" horiz-adv-x="383" 
d="M132 194v-194h-63v785c179 -5 240 -138 240 -289c0 -131 -46 -210 -133 -274c70 -104 155 -191 217 -222h-105c-44 26 -106 113 -152 195zM132 252c77 56 114 124 114 233c0 106 -35 212 -114 232v-465zM171 880l81 88h72l-153 -163l-152 163h72z" />
    <glyph glyph-name="Rcaron" unicode="&#x159;" horiz-adv-x="383" 
d="M132 194v-194h-63v785c179 -5 240 -138 240 -289c0 -131 -46 -210 -133 -274c70 -104 155 -191 217 -222h-105c-44 26 -106 113 -152 195zM132 252c77 56 114 124 114 233c0 106 -35 212 -114 232v-465zM171 880l81 88h72l-153 -163l-152 163h72z" />
    <glyph glyph-name="Sacute" unicode="&#x15a;" horiz-adv-x="315" 
d="M53 5v64c13 -11 26 -17 50 -17c71 0 104 52 104 136c0 50 -12 83 -29 117c-26 51 -66 104 -89 143c-27 45 -46 95 -46 160c0 109 53 182 139 182c31 0 46 -10 55 -16v-64c-7 9 -25 17 -48 17c-52 0 -83 -43 -83 -122c0 -51 13 -84 32 -119c24 -44 50 -74 80 -123
c30 -50 54 -98 54 -175c0 -120 -59 -198 -161 -198c-31 0 -49 7 -58 15zM181 805h-65l112 163h70z" />
    <glyph glyph-name="Sacute" unicode="&#x15b;" horiz-adv-x="315" 
d="M53 5v64c13 -11 26 -17 50 -17c71 0 104 52 104 136c0 50 -12 83 -29 117c-26 51 -66 104 -89 143c-27 45 -46 95 -46 160c0 109 53 182 139 182c31 0 46 -10 55 -16v-64c-7 9 -25 17 -48 17c-52 0 -83 -43 -83 -122c0 -51 13 -84 32 -119c24 -44 50 -74 80 -123
c30 -50 54 -98 54 -175c0 -120 -59 -198 -161 -198c-31 0 -49 7 -58 15zM181 805h-65l112 163h70z" />
    <glyph glyph-name="Scedilla" unicode="&#x15e;" horiz-adv-x="315" 
d="M53 5v64c13 -11 26 -17 50 -17c71 0 104 52 104 136c0 50 -12 83 -29 117c-26 51 -66 104 -89 143c-27 45 -46 95 -46 160c0 109 53 182 139 182c31 0 46 -10 55 -16v-64c-7 9 -25 17 -48 17c-52 0 -83 -43 -83 -122c0 -51 13 -84 32 -119c24 -44 50 -74 80 -123
c30 -50 54 -98 54 -175c0 -120 -59 -198 -161 -198c-31 0 -49 7 -58 15zM139 -130c-31 0 -45 16 -45 52c0 34 14 52 42 52c30 0 44 -18 44 -52c0 -42 -25 -119 -46 -154h-40c12 16 29 54 45 102z" />
    <glyph glyph-name="Scedilla" unicode="&#x219;" horiz-adv-x="315" 
d="M53 5v64c13 -11 26 -17 50 -17c71 0 104 52 104 136c0 50 -12 83 -29 117c-26 51 -66 104 -89 143c-27 45 -46 95 -46 160c0 109 53 182 139 182c31 0 46 -10 55 -16v-64c-7 9 -25 17 -48 17c-52 0 -83 -43 -83 -122c0 -51 13 -84 32 -119c24 -44 50 -74 80 -123
c30 -50 54 -98 54 -175c0 -120 -59 -198 -161 -198c-31 0 -49 7 -58 15zM139 -130c-31 0 -45 16 -45 52c0 34 14 52 42 52c30 0 44 -18 44 -52c0 -42 -25 -119 -46 -154h-40c12 16 29 54 45 102z" />
    <glyph glyph-name="Scedilla" unicode="&#x218;" horiz-adv-x="315" 
d="M53 5v64c13 -11 26 -17 50 -17c71 0 104 52 104 136c0 50 -12 83 -29 117c-26 51 -66 104 -89 143c-27 45 -46 95 -46 160c0 109 53 182 139 182c31 0 46 -10 55 -16v-64c-7 9 -25 17 -48 17c-52 0 -83 -43 -83 -122c0 -51 13 -84 32 -119c24 -44 50 -74 80 -123
c30 -50 54 -98 54 -175c0 -120 -59 -198 -161 -198c-31 0 -49 7 -58 15zM139 -130c-31 0 -45 16 -45 52c0 34 14 52 42 52c30 0 44 -18 44 -52c0 -42 -25 -119 -46 -154h-40c12 16 29 54 45 102z" />
    <glyph glyph-name="Scedilla" unicode="&#x15f;" horiz-adv-x="315" 
d="M53 5v64c13 -11 26 -17 50 -17c71 0 104 52 104 136c0 50 -12 83 -29 117c-26 51 -66 104 -89 143c-27 45 -46 95 -46 160c0 109 53 182 139 182c31 0 46 -10 55 -16v-64c-7 9 -25 17 -48 17c-52 0 -83 -43 -83 -122c0 -51 13 -84 32 -119c24 -44 50 -74 80 -123
c30 -50 54 -98 54 -175c0 -120 -59 -198 -161 -198c-31 0 -49 7 -58 15zM139 -130c-31 0 -45 16 -45 52c0 34 14 52 42 52c30 0 44 -18 44 -52c0 -42 -25 -119 -46 -154h-40c12 16 29 54 45 102z" />
    <glyph glyph-name="Scaron" unicode="&#x160;" horiz-adv-x="315" 
d="M53 5v64c13 -11 26 -17 50 -17c71 0 104 52 104 136c0 50 -12 83 -29 117c-26 51 -66 104 -89 143c-27 45 -46 95 -46 160c0 109 53 182 139 182c31 0 46 -10 55 -16v-64c-7 9 -25 17 -48 17c-52 0 -83 -43 -83 -122c0 -51 13 -84 32 -119c24 -44 50 -74 80 -123
c30 -50 54 -98 54 -175c0 -120 -59 -198 -161 -198c-31 0 -49 7 -58 15zM159 880l81 88h72l-153 -163l-152 163h72z" />
    <glyph glyph-name="Scaron" unicode="&#x161;" horiz-adv-x="315" 
d="M53 5v64c13 -11 26 -17 50 -17c71 0 104 52 104 136c0 50 -12 83 -29 117c-26 51 -66 104 -89 143c-27 45 -46 95 -46 160c0 109 53 182 139 182c31 0 46 -10 55 -16v-64c-7 9 -25 17 -48 17c-52 0 -83 -43 -83 -122c0 -51 13 -84 32 -119c24 -44 50 -74 80 -123
c30 -50 54 -98 54 -175c0 -120 -59 -198 -161 -198c-31 0 -49 7 -58 15zM159 880l81 88h72l-153 -163l-152 163h72z" />
    <glyph glyph-name="Tcaron" unicode="&#x164;" horiz-adv-x="267" 
d="M166 0h-63v716h-83v63h227v-63h-81v-716zM133 880l81 88h72l-153 -163l-152 163h72z" />
    <glyph glyph-name="Tcaron" unicode="&#x165;" horiz-adv-x="267" 
d="M166 0h-63v716h-83v63h227v-63h-81v-716zM133 880l81 88h72l-153 -163l-152 163h72z" />
    <glyph glyph-name="Tbar" unicode="&#x166;" horiz-adv-x="267" 
d="M166 0h-63v321h-77v49h77v346h-83v63h227v-63h-81v-346h74v-49h-74v-321z" />
    <glyph glyph-name="Tbar" unicode="&#x167;" horiz-adv-x="267" 
d="M166 0h-63v321h-77v49h77v346h-83v63h227v-63h-81v-346h74v-49h-74v-321z" />
    <glyph glyph-name="Utilde" unicode="&#x168;" horiz-adv-x="404" 
d="M202 -10c-102 0 -136 100 -136 266v523h65v-526c0 -134 18 -199 71 -199c54 0 71 65 71 199v526h65v-523c0 -166 -33 -266 -136 -266zM339 920v-57c-18 -19 -43 -29 -71 -29c-48 0 -84 39 -133 39c-31 0 -51 -12 -70 -37v57c19 19 44 30 72 30c48 0 84 -39 133 -39
c31 0 51 12 69 36z" />
    <glyph glyph-name="Utilde" unicode="&#x169;" horiz-adv-x="404" 
d="M202 -10c-102 0 -136 100 -136 266v523h65v-526c0 -134 18 -199 71 -199c54 0 71 65 71 199v526h65v-523c0 -166 -33 -266 -136 -266zM339 920v-57c-18 -19 -43 -29 -71 -29c-48 0 -84 39 -133 39c-31 0 -51 -12 -70 -37v57c19 19 44 30 72 30c48 0 84 -39 133 -39
c31 0 51 12 69 36z" />
    <glyph glyph-name="Umacron" unicode="&#x16a;" horiz-adv-x="404" 
d="M202 -10c-102 0 -136 100 -136 266v523h65v-526c0 -134 18 -199 71 -199c54 0 71 65 71 199v526h65v-523c0 -166 -33 -266 -136 -266zM339 852h-274v49h274v-49z" />
    <glyph glyph-name="Umacron" unicode="&#x16b;" horiz-adv-x="404" 
d="M202 -10c-102 0 -136 100 -136 266v523h65v-526c0 -134 18 -199 71 -199c54 0 71 65 71 199v526h65v-523c0 -166 -33 -266 -136 -266zM339 852h-274v49h274v-49z" />
    <glyph glyph-name="Ubreve" unicode="&#x16c;" horiz-adv-x="404" 
d="M202 -10c-102 0 -136 100 -136 266v523h65v-526c0 -134 18 -199 71 -199c54 0 71 65 71 199v526h65v-523c0 -166 -33 -266 -136 -266zM284 968h59c-8 -102 -46 -163 -140 -163c-95 0 -132 61 -142 163h61c9 -82 25 -127 81 -127c55 0 71 45 81 127z" />
    <glyph glyph-name="Ubreve" unicode="&#x16d;" horiz-adv-x="404" 
d="M202 -10c-102 0 -136 100 -136 266v523h65v-526c0 -134 18 -199 71 -199c54 0 71 65 71 199v526h65v-523c0 -166 -33 -266 -136 -266zM284 968h59c-8 -102 -46 -163 -140 -163c-95 0 -132 61 -142 163h61c9 -82 25 -127 81 -127c55 0 71 45 81 127z" />
    <glyph glyph-name="Uring" unicode="&#x16e;" horiz-adv-x="404" 
d="M202 -10c-102 0 -136 100 -136 266v523h65v-526c0 -134 18 -199 71 -199c54 0 71 65 71 199v526h65v-523c0 -166 -33 -266 -136 -266zM202 783c-69 0 -92 50 -92 92c0 41 23 93 92 93s91 -52 91 -93c0 -42 -22 -92 -91 -92zM202 817c26 0 43 30 43 58c0 27 -17 58 -43 58
s-43 -31 -43 -58c0 -28 17 -58 43 -58z" />
    <glyph glyph-name="Uring" unicode="&#x16f;" horiz-adv-x="404" 
d="M202 -10c-102 0 -136 100 -136 266v523h65v-526c0 -134 18 -199 71 -199c54 0 71 65 71 199v526h65v-523c0 -166 -33 -266 -136 -266zM202 783c-69 0 -92 50 -92 92c0 41 23 93 92 93s91 -52 91 -93c0 -42 -22 -92 -91 -92zM202 817c26 0 43 30 43 58c0 27 -17 58 -43 58
s-43 -31 -43 -58c0 -28 17 -58 43 -58z" />
    <glyph glyph-name="Uhungarumlaut" unicode="&#x170;" horiz-adv-x="404" 
d="M202 -10c-102 0 -136 100 -136 266v523h65v-526c0 -134 18 -199 71 -199c54 0 71 65 71 199v526h65v-523c0 -166 -33 -266 -136 -266zM284 805h-65l112 163h70zM127 805h-65l112 163h70z" />
    <glyph glyph-name="Uhungarumlaut" unicode="&#x171;" horiz-adv-x="404" 
d="M202 -10c-102 0 -136 100 -136 266v523h65v-526c0 -134 18 -199 71 -199c54 0 71 65 71 199v526h65v-523c0 -166 -33 -266 -136 -266zM284 805h-65l112 163h70zM127 805h-65l112 163h70z" />
    <glyph glyph-name="Uogonek" unicode="&#x172;" horiz-adv-x="404" 
d="M285 -155v-61c-12 -9 -44 -16 -81 -16c-72 0 -126 30 -126 100c0 67 43 106 93 126c-78 18 -105 114 -105 262v523h65v-526c0 -134 18 -199 71 -199c54 0 71 65 71 199v526h65v-523c0 -151 -25 -242 -109 -263c-64 -16 -97 -54 -97 -103c0 -43 23 -59 75 -59
c37 0 60 5 78 14z" />
    <glyph glyph-name="Uogonek" unicode="&#x173;" horiz-adv-x="404" 
d="M285 -155v-61c-12 -9 -44 -16 -81 -16c-72 0 -126 30 -126 100c0 67 43 106 93 126c-78 18 -105 114 -105 262v523h65v-526c0 -134 18 -199 71 -199c54 0 71 65 71 199v526h65v-523c0 -151 -25 -242 -109 -263c-64 -16 -97 -54 -97 -103c0 -43 23 -59 75 -59
c37 0 60 5 78 14z" />
    <glyph glyph-name="Wcircumflex" unicode="&#x174;" horiz-adv-x="602" 
d="M411 -36l-109 548h-4l-119 -548l-151 815h68l85 -518h4l116 554l110 -554h4l96 518h63zM301 893l-81 -88h-72l153 163l152 -163h-72z" />
    <glyph glyph-name="Wcircumflex" unicode="&#x175;" horiz-adv-x="602" 
d="M411 -36l-109 548h-4l-119 -548l-151 815h68l85 -518h4l116 554l110 -554h4l96 518h63zM301 893l-81 -88h-72l153 163l152 -163h-72z" />
    <glyph glyph-name="Ycircumflex" unicode="&#x176;" horiz-adv-x="374" 
d="M220 0h-64v345l-132 434h65l100 -346h4l99 346h58l-130 -434v-345zM188 893l-81 -88h-72l153 163l152 -163h-72z" />
    <glyph glyph-name="Ycircumflex" unicode="&#x177;" horiz-adv-x="374" 
d="M220 0h-64v345l-132 434h65l100 -346h4l99 346h58l-130 -434v-345zM188 893l-81 -88h-72l153 163l152 -163h-72z" />
    <glyph glyph-name="Zacute" unicode="&#x179;" horiz-adv-x="307" 
d="M264 0h-221l148 716h-148v63h221l-140 -719h140v-60zM163 805h-65l112 163h70z" />
    <glyph glyph-name="Zacute" unicode="&#x17a;" horiz-adv-x="307" 
d="M264 0h-221l148 716h-148v63h221l-140 -719h140v-60zM163 805h-65l112 163h70z" />
    <glyph glyph-name="Zdotaccent" unicode="&#x17b;" horiz-adv-x="307" 
d="M264 0h-221l148 716h-148v63h221l-140 -719h140v-60zM158 829c-24 0 -37 14 -37 46c0 29 13 46 37 46c26 0 39 -17 39 -46c0 -32 -13 -46 -39 -46z" />
    <glyph glyph-name="Zdotaccent" unicode="&#x17c;" horiz-adv-x="307" 
d="M264 0h-221l148 716h-148v63h221l-140 -719h140v-60zM158 829c-24 0 -37 14 -37 46c0 29 13 46 37 46c26 0 39 -17 39 -46c0 -32 -13 -46 -39 -46z" />
    <glyph glyph-name="Zcaron" unicode="&#x17d;" horiz-adv-x="307" 
d="M264 0h-221l148 716h-148v63h221l-140 -719h140v-60zM163 880l81 88h72l-153 -163l-152 163h72z" />
    <glyph glyph-name="Zcaron" unicode="&#x17e;" horiz-adv-x="307" 
d="M264 0h-221l148 716h-148v63h221l-140 -719h140v-60zM163 880l81 88h72l-153 -163l-152 163h72z" />
    <glyph glyph-name="uni018E" unicode="&#x18e;" horiz-adv-x="278" 
d="M43 779h170v-779h-161v63h97v473h-95v48h95v135h-106v60z" />
    <glyph glyph-name="uni018E" unicode="&#x1dd;" horiz-adv-x="278" 
d="M43 779h170v-779h-161v63h97v473h-95v48h95v135h-106v60z" />
    <glyph glyph-name="uni018F" unicode="&#x18f;" 
d="M319 391c0 -282 -51 -402 -137 -402c-70 0 -117 73 -132 254h200c3 43 5 93 5 148c0 240 -32 337 -93 337c-26 0 -41 -8 -52 -17v64c10 9 27 15 58 15c100 0 151 -118 151 -399zM182 51c31 0 52 52 63 144h-128c11 -95 33 -144 65 -144z" />
    <glyph glyph-name="uni018F" unicode="&#x259;" 
d="M319 391c0 -282 -51 -402 -137 -402c-70 0 -117 73 -132 254h200c3 43 5 93 5 148c0 240 -32 337 -93 337c-26 0 -41 -8 -52 -17v64c10 9 27 15 58 15c100 0 151 -118 151 -399zM182 51c31 0 52 52 63 144h-128c11 -95 33 -144 65 -144z" />
    <glyph glyph-name="uni0191" unicode="&#x191;" horiz-adv-x="277" 
d="M133 195v-205c0 -113 -71 -198 -119 -222h-80c85 51 135 124 135 222v789h166v-63h-102v-473h95v-48h-95z" />
    <glyph glyph-name="florin" unicode="&#x192;" horiz-adv-x="381" 
d="M51 -78h-26v57h24c47 0 76 21 81 79l49 486h-79v53h86l5 55c9 101 55 127 140 127h25v-57h-29c-44 0 -72 -22 -76 -72l-5 -53h86v-53h-92l-49 -495c-11 -102 -56 -127 -140 -127z" />
    <glyph glyph-name="uni0194" unicode="&#x194;" horiz-adv-x="362" 
d="M182 -164c-70 0 -93 67 -93 124c0 47 17 106 67 121l-128 698h67l84 -498h4l87 498h64l-133 -696c54 -12 72 -74 72 -123c0 -57 -22 -124 -91 -124zM182 -118c26 0 43 40 43 78c0 36 -17 78 -43 78c-27 0 -44 -42 -44 -78c0 -38 17 -78 44 -78z" />
    <glyph glyph-name="uni0194" unicode="&#x263;" horiz-adv-x="362" 
d="M182 -164c-70 0 -93 67 -93 124c0 47 17 106 67 121l-128 698h67l84 -498h4l87 498h64l-133 -696c54 -12 72 -74 72 -123c0 -57 -22 -124 -91 -124zM182 -118c26 0 43 40 43 78c0 36 -17 78 -43 78c-27 0 -44 -42 -44 -78c0 -38 17 -78 44 -78z" />
    <glyph glyph-name="uni019D" unicode="&#x19d;" horiz-adv-x="391" 
d="M322 -36l-188 502h-4v-476c0 -113 -68 -198 -113 -222h-77c81 51 129 124 129 222v825l190 -529h4v493h59v-815z" />
    <glyph glyph-name="uni019D" unicode="&#x272;" horiz-adv-x="391" 
d="M322 -36l-188 502h-4v-476c0 -113 -68 -198 -113 -222h-77c81 51 129 124 129 222v825l190 -529h4v493h59v-815z" />
    <glyph glyph-name="uni01A0" unicode="&#x1a0;" 
d="M301 889h64c5 -8 9 -29 9 -47c0 -50 -29 -84 -104 -84h-24c46 -53 73 -175 73 -376c0 -282 -51 -393 -137 -393s-137 111 -137 393c0 281 51 407 137 407c14 0 27 -4 39 -10h44c33 0 45 18 45 58c0 20 -3 40 -9 52zM109 382c0 -209 24 -331 73 -331s73 122 73 331
s-24 344 -73 344s-73 -135 -73 -344z" />
    <glyph glyph-name="uni01A0" unicode="&#x1a1;" 
d="M301 889h64c5 -8 9 -29 9 -47c0 -50 -29 -84 -104 -84h-24c46 -53 73 -175 73 -376c0 -282 -51 -393 -137 -393s-137 111 -137 393c0 281 51 407 137 407c14 0 27 -4 39 -10h44c33 0 45 18 45 58c0 20 -3 40 -9 52zM109 382c0 -209 24 -331 73 -331s73 122 73 331
s-24 344 -73 344s-73 -135 -73 -344z" />
    <glyph glyph-name="uni01AF" unicode="&#x1af;" horiz-adv-x="404" 
d="M341 889h64c5 -8 9 -29 9 -47c0 -45 -23 -77 -76 -83v-503c0 -166 -33 -266 -136 -266c-102 0 -136 100 -136 266v523h65v-526c0 -134 18 -199 71 -199c54 0 71 65 71 199v526h38c27 0 39 18 39 58c0 20 -3 40 -9 52z" />
    <glyph glyph-name="uni01AF" unicode="&#x1b0;" horiz-adv-x="404" 
d="M341 889h64c5 -8 9 -29 9 -47c0 -45 -23 -77 -76 -83v-503c0 -166 -33 -266 -136 -266c-102 0 -136 100 -136 266v523h65v-526c0 -134 18 -199 71 -199c54 0 71 65 71 199v526h38c27 0 39 18 39 58c0 20 -3 40 -9 52z" />
    <glyph glyph-name="uni01E6" unicode="&#x1e6;" horiz-adv-x="333" 
d="M220 432h56v-391c-18 -22 -55 -41 -89 -41c-91 0 -142 108 -142 389c0 282 51 401 151 401c31 0 48 -6 58 -16v-64c-11 10 -26 17 -52 17c-61 0 -93 -97 -93 -338c0 -209 24 -329 77 -329c14 0 28 4 34 10v362zM186 880l81 88h72l-153 -163l-152 163h72z" />
    <glyph glyph-name="uni01E6" unicode="&#x1e7;" horiz-adv-x="333" 
d="M220 432h56v-391c-18 -22 -55 -41 -89 -41c-91 0 -142 108 -142 389c0 282 51 401 151 401c31 0 48 -6 58 -16v-64c-11 10 -26 17 -52 17c-61 0 -93 -97 -93 -338c0 -209 24 -329 77 -329c14 0 28 4 34 10v362zM186 880l81 88h72l-153 -163l-152 163h72z" />
    <glyph glyph-name="uni01F4" unicode="&#x1f4;" horiz-adv-x="333" 
d="M220 432h56v-391c-18 -22 -55 -41 -89 -41c-91 0 -142 108 -142 389c0 282 51 401 151 401c31 0 48 -6 58 -16v-64c-11 10 -26 17 -52 17c-61 0 -93 -97 -93 -338c0 -209 24 -329 77 -329c14 0 28 4 34 10v362zM190 805h-65l112 163h70z" />
    <glyph glyph-name="uni01F4" unicode="&#x1f5;" horiz-adv-x="333" 
d="M220 432h56v-391c-18 -22 -55 -41 -89 -41c-91 0 -142 108 -142 389c0 282 51 401 151 401c31 0 48 -6 58 -16v-64c-11 10 -26 17 -52 17c-61 0 -93 -97 -93 -338c0 -209 24 -329 77 -329c14 0 28 4 34 10v362zM190 805h-65l112 163h70z" />
    <glyph glyph-name="uni01F8" unicode="&#x1f8;" horiz-adv-x="391" 
d="M322 -36l-188 502h-4v-466h-61v815l190 -529h4v493h59v-815zM256 805h-65l-117 163h70z" />
    <glyph glyph-name="uni01F8" unicode="&#x1f9;" horiz-adv-x="391" 
d="M322 -36l-188 502h-4v-466h-61v815l190 -529h4v493h59v-815zM256 805h-65l-117 163h70z" />
    <glyph glyph-name="uni021A" unicode="&#x21a;" horiz-adv-x="267" 
d="M166 0h-63v716h-83v63h227v-63h-81v-716zM135 -130c-31 0 -45 16 -45 52c0 34 14 52 42 52c30 0 44 -18 44 -52c0 -42 -25 -119 -46 -154h-40c12 16 29 54 45 102z" />
    <glyph glyph-name="uni021A" unicode="&#x21b;" horiz-adv-x="267" 
d="M166 0h-63v716h-83v63h227v-63h-81v-716zM135 -130c-31 0 -45 16 -45 52c0 34 14 52 42 52c30 0 44 -18 44 -52c0 -42 -25 -119 -46 -154h-40c12 16 29 54 45 102z" />
    <glyph glyph-name="uni024C" unicode="&#x24c;" horiz-adv-x="383" 
d="M132 194v-194h-63v197h-66v53h66v535c179 -5 240 -138 240 -289c0 -131 -46 -210 -133 -274c70 -104 155 -191 217 -222h-105c-44 26 -106 113 -152 195zM132 252c77 56 114 124 114 233c0 106 -35 212 -114 232v-465z" />
    <glyph glyph-name="uni024C" unicode="&#x24d;" horiz-adv-x="383" 
d="M132 194v-194h-63v197h-66v53h66v535c179 -5 240 -138 240 -289c0 -131 -46 -210 -133 -274c70 -104 155 -191 217 -222h-105c-44 26 -106 113 -152 195zM132 252c77 56 114 124 114 233c0 106 -35 212 -114 232v-465z" />
    <glyph glyph-name="uni0294" unicode="&#x294;" horiz-adv-x="275" 
d="M81 0v236c0 148 88 200 88 362c0 90 -32 129 -85 129c-20 0 -40 -8 -46 -17v64c8 6 24 16 54 16c87 0 139 -71 139 -185c0 -194 -86 -230 -86 -369v-236h-64z" />
    <glyph glyph-name="circumflex" unicode="&#x2c6;" horiz-adv-x="378" 
d="M189 893l-81 -88h-72l153 163l152 -163h-72z" />
    <glyph glyph-name="caron" unicode="&#x2c7;" horiz-adv-x="378" 
d="M188 880l81 88h72l-153 -163l-152 163h72z" />
    <glyph glyph-name="breve" unicode="&#x2d8;" horiz-adv-x="355" 
d="M259 968h59c-8 -102 -46 -163 -140 -163c-95 0 -132 61 -142 163h61c9 -82 25 -127 81 -127c55 0 71 45 81 127z" />
    <glyph glyph-name="dotaccent" unicode="&#x2d9;" horiz-adv-x="109" 
d="M53 829c-24 0 -37 14 -37 46c0 29 13 46 37 46c26 0 39 -17 39 -46c0 -32 -13 -46 -39 -46z" />
    <glyph glyph-name="ring" unicode="&#x2da;" horiz-adv-x="216" 
d="M108 783c-69 0 -92 50 -92 92c0 41 23 93 92 93s91 -52 91 -93c0 -42 -22 -92 -91 -92zM108 817c26 0 43 30 43 58c0 27 -17 58 -43 58s-43 -31 -43 -58c0 -28 17 -58 43 -58z" />
    <glyph glyph-name="ogonek" unicode="&#x2db;" horiz-adv-x="240" 
d="M223 -155v-61c-12 -9 -44 -16 -81 -16c-72 0 -126 30 -126 100c0 88 76 123 143 132h64c-97 -18 -153 -48 -153 -110c0 -43 23 -59 75 -59c37 0 60 5 78 14z" />
    <glyph glyph-name="tilde" unicode="&#x2dc;" horiz-adv-x="307" 
d="M290 920v-57c-18 -19 -43 -29 -71 -29c-48 0 -84 39 -133 39c-31 0 -51 -12 -70 -37v57c19 19 44 30 72 30c48 0 84 -39 133 -39c31 0 51 12 69 36z" />
    <glyph glyph-name="hungarumlaut" unicode="&#x2dd;" horiz-adv-x="372" 
d="M238 805h-65l112 163h70zM81 805h-65l112 163h70z" />
    <glyph glyph-name="gravecomb" unicode="&#x300;" horiz-adv-x="0" 
d="M-134 805h-65l-117 163h70z" />
    <glyph glyph-name="acutecomb" unicode="&#x301;" horiz-adv-x="0" 
d="M-191 805h-65l112 163h70z" />
    <glyph glyph-name="circumflexcomb" unicode="&#x302;" horiz-adv-x="0" 
d="M-195 893l-81 -88h-72l153 163l152 -163h-72z" />
    <glyph glyph-name="tildecomb" unicode="&#x303;" horiz-adv-x="0" 
d="M-57 920v-57c-18 -19 -43 -29 -71 -29c-48 0 -84 39 -133 39c-31 0 -51 -12 -70 -37v57c19 19 44 30 72 30c48 0 84 -39 133 -39c31 0 51 12 69 36z" />
    <glyph glyph-name="macroncomb" unicode="&#x304;" horiz-adv-x="0" 
d="M-58 852h-274v49h274v-49z" />
    <glyph glyph-name="brevecomb" unicode="&#x306;" horiz-adv-x="0" 
d="M-113 968h59c-8 -102 -46 -163 -140 -163c-95 0 -132 61 -142 163h61c9 -82 25 -127 81 -127c55 0 71 45 81 127z" />
    <glyph glyph-name="dotaccentcomb" unicode="&#x307;" horiz-adv-x="0" 
d="M-196 829c-24 0 -37 14 -37 46c0 29 13 46 37 46c26 0 39 -17 39 -46c0 -32 -13 -46 -39 -46z" />
    <glyph glyph-name="dieresiscomb" unicode="&#x308;" horiz-adv-x="0" 
d="M-116 829c-24 0 -38 14 -38 46c0 29 14 46 38 46c25 0 38 -17 38 -46c0 -32 -13 -46 -38 -46zM-274 829c-24 0 -37 14 -37 46c0 29 13 46 37 46c26 0 38 -17 38 -46c0 -32 -12 -46 -38 -46z" />
    <glyph glyph-name="hookabovecomb" unicode="&#x309;" horiz-adv-x="0" 
d="M-187 801h-45c1 60 50 61 50 93c0 13 -8 21 -40 21c-23 0 -30 -4 -39 -10v53c10 6 30 10 53 10c59 0 89 -26 89 -62c0 -54 -67 -54 -68 -105z" />
    <glyph glyph-name="uni030A" unicode="&#x30a;" horiz-adv-x="0" 
d="M-194 783c-69 0 -92 50 -92 92c0 41 23 93 92 93s91 -52 91 -93c0 -42 -22 -92 -91 -92zM-194 817c26 0 43 30 43 58c0 27 -17 58 -43 58s-43 -31 -43 -58c0 -28 17 -58 43 -58z" />
    <glyph glyph-name="uni030B" unicode="&#x30b;" horiz-adv-x="0" 
d="M-113 805h-65l112 163h70zM-270 805h-65l112 163h70z" />
    <glyph glyph-name="uni030C" unicode="&#x30c;" horiz-adv-x="0" 
d="M-195 880l81 88h72l-153 -163l-152 163h72z" />
    <glyph glyph-name="uni0313" unicode="&#x313;" horiz-adv-x="0" 
d="M-197 882c30 0 45 -13 45 -43c0 -29 -15 -44 -43 -44c-29 0 -44 15 -44 44c0 35 25 99 46 129h41c-13 -14 -29 -45 -45 -86z" />
    <glyph glyph-name="uni031B" unicode="&#x31b;" horiz-adv-x="0" 
d="M-7 812h64c5 -8 9 -29 9 -47c0 -50 -29 -84 -96 -84h-42v21h35c27 0 39 18 39 58c0 20 -3 40 -9 52z" />
    <glyph glyph-name="dotbelowcomb" unicode="&#x323;" horiz-adv-x="0" 
d="M-196 -160c-24 0 -37 14 -37 46c0 29 13 46 37 46c26 0 39 -17 39 -46c0 -32 -13 -46 -39 -46z" />
    <glyph glyph-name="uni0326" unicode="&#x326;" horiz-adv-x="0" 
d="M-193 -130c-31 0 -45 16 -45 52c0 34 14 52 42 52c30 0 44 -18 44 -52c0 -42 -25 -119 -46 -154h-40c12 16 29 54 45 102z" />
    <glyph glyph-name="uni0327" unicode="&#x327;" horiz-adv-x="0" 
d="M-193 -130c-31 0 -45 16 -45 52c0 34 14 52 42 52c30 0 44 -18 44 -52c0 -42 -25 -119 -46 -154h-40c12 16 29 54 45 102z" />
    <glyph glyph-name="uni0328" unicode="&#x328;" horiz-adv-x="0" 
d="M-92 -155v-61c-12 -9 -44 -16 -81 -16c-72 0 -126 30 -126 100c0 88 76 123 143 132h64c-97 -18 -153 -48 -153 -110c0 -43 23 -59 75 -59c37 0 60 5 78 14z" />
    <glyph glyph-name="uni032D" unicode="&#x32d;" horiz-adv-x="0" 
d="M-195 -111l-81 -88h-72l153 163l152 -163h-72z" />
    <glyph glyph-name="tonos" unicode="&#x384;" horiz-adv-x="43" 
d="M64 586h-41l-23 193h64v-193z" />
    <glyph glyph-name="Alphatonos" unicode="&#x386;" horiz-adv-x="373" 
d="M64 586h-41l-23 193h64v-193zM281 0l-34 195h-111l-34 -195h-62l156 815l149 -815h-64zM190 505l-46 -262h95l-45 262h-4z" />
    <glyph glyph-name="anoteleia" unicode="&#x387;" horiz-adv-x="137" 
d="M68 440c-28 0 -43 15 -43 51c0 34 15 52 43 52c29 0 44 -18 44 -52c0 -36 -15 -51 -44 -51z" />
    <glyph glyph-name="Epsilontonos" unicode="&#x388;" horiz-adv-x="321" 
d="M64 586h-41l-23 193h64v-193zM282 0h-170v779h161v-63h-97v-473h95v-48h-95v-135h106v-60z" />
    <glyph glyph-name="Etatonos" unicode="&#x389;" horiz-adv-x="432" 
d="M64 586h-41l-23 193h64v-193zM363 0h-65v195h-122v-195h-64v779h64v-536h122v536h65v-779z" />
    <glyph glyph-name="Iotatonos" unicode="&#x38a;" horiz-adv-x="245" 
d="M64 586h-41l-23 193h64v-193zM176 0h-64v779h64v-779z" />
    <glyph glyph-name="Omicrontonos" unicode="&#x38c;" horiz-adv-x="393" 
d="M64 586h-41l-23 193h64v-193zM348 382c0 -282 -51 -393 -137 -393s-137 111 -137 393c0 281 51 407 137 407s137 -126 137 -407zM138 382c0 -209 24 -331 73 -331s73 122 73 331s-24 344 -73 344s-73 -135 -73 -344z" />
    <glyph glyph-name="Upsilontonos" unicode="&#x38e;" horiz-adv-x="429" 
d="M64 586h-41l-23 193h64v-193zM275 0h-64v345l-132 434h65l100 -346h4l99 346h58l-130 -434v-345z" />
    <glyph glyph-name="Omegatonos" unicode="&#x38f;" horiz-adv-x="449" 
d="M64 586h-41l-23 193h64v-193zM239 790c116 0 165 -139 165 -325c0 -145 -30 -277 -85 -405h75v-60h-148c56 106 90 293 90 475c0 149 -23 252 -97 252s-97 -103 -97 -252c0 -182 34 -369 90 -475h-148v60h75c-52 122 -85 257 -85 407c0 183 49 323 165 323z" />
    <glyph glyph-name="uni0413" unicode="&#x393;" horiz-adv-x="263" 
d="M69 779h174v-60h-110v-719h-64v779z" />
    <glyph glyph-name="uni0413" unicode="&#x433;" horiz-adv-x="263" 
d="M69 779h174v-60h-110v-719h-64v779z" />
    <glyph glyph-name="uni0413" unicode="&#x413;" horiz-adv-x="263" 
d="M69 779h174v-60h-110v-719h-64v779z" />
    <glyph glyph-name="uni0413" unicode="&#x3b3;" horiz-adv-x="263" 
d="M69 779h174v-60h-110v-719h-64v779z" />
    <glyph glyph-name="Delta" unicode="&#x394;" horiz-adv-x="361" 
d="M333 0h-305l156 815zM178 505l-78 -445h158l-76 445h-4z" />
    <glyph glyph-name="Delta" unicode="&#x3b4;" horiz-adv-x="361" 
d="M333 0h-305l156 815zM178 505l-78 -445h158l-76 445h-4z" />
    <glyph glyph-name="Theta" unicode="&#x398;" 
d="M133 195v48h97v-48h-97zM319 382c0 -282 -51 -393 -137 -393s-137 111 -137 393c0 281 51 407 137 407s137 -126 137 -407zM109 382c0 -209 24 -331 73 -331s73 122 73 331s-24 344 -73 344s-73 -135 -73 -344z" />
    <glyph glyph-name="Theta" unicode="&#x3b8;" 
d="M133 195v48h97v-48h-97zM319 382c0 -282 -51 -393 -137 -393s-137 111 -137 393c0 281 51 407 137 407s137 -126 137 -407zM109 382c0 -209 24 -331 73 -331s73 122 73 331s-24 344 -73 344s-73 -135 -73 -344z" />
    <glyph glyph-name="Lambda" unicode="&#x39b;" horiz-adv-x="389" 
d="M280 0l-84 498h-4l-87 -498h-64l156 815l150 -815h-67z" />
    <glyph glyph-name="Lambda" unicode="&#x3bb;" horiz-adv-x="389" 
d="M280 0l-84 498h-4l-87 -498h-64l156 815l150 -815h-67z" />
    <glyph glyph-name="Xi" unicode="&#x39e;" horiz-adv-x="278" 
d="M239 0h-200v60h200v-60zM230 716h-182v63h182v-63zM228 195h-178v48h178v-48z" />
    <glyph glyph-name="Xi" unicode="&#x3be;" horiz-adv-x="278" 
d="M239 0h-200v60h200v-60zM230 716h-182v63h182v-63zM228 195h-178v48h178v-48z" />
    <glyph glyph-name="O" unicode="O" 
d="M319 382c0 -282 -51 -393 -137 -393s-137 111 -137 393c0 281 51 407 137 407s137 -126 137 -407zM109 382c0 -209 24 -331 73 -331s73 122 73 331s-24 344 -73 344s-73 -135 -73 -344z" />
    <glyph glyph-name="O" unicode="&#x43e;" 
d="M319 382c0 -282 -51 -393 -137 -393s-137 111 -137 393c0 281 51 407 137 407s137 -126 137 -407zM109 382c0 -209 24 -331 73 -331s73 122 73 331s-24 344 -73 344s-73 -135 -73 -344z" />
    <glyph glyph-name="O" unicode="&#x41e;" 
d="M319 382c0 -282 -51 -393 -137 -393s-137 111 -137 393c0 281 51 407 137 407s137 -126 137 -407zM109 382c0 -209 24 -331 73 -331s73 122 73 331s-24 344 -73 344s-73 -135 -73 -344z" />
    <glyph glyph-name="O" unicode="&#x3cc;" 
d="M319 382c0 -282 -51 -393 -137 -393s-137 111 -137 393c0 281 51 407 137 407s137 -126 137 -407zM109 382c0 -209 24 -331 73 -331s73 122 73 331s-24 344 -73 344s-73 -135 -73 -344z" />
    <glyph glyph-name="O" unicode="&#x3bf;" 
d="M319 382c0 -282 -51 -393 -137 -393s-137 111 -137 393c0 281 51 407 137 407s137 -126 137 -407zM109 382c0 -209 24 -331 73 -331s73 122 73 331s-24 344 -73 344s-73 -135 -73 -344z" />
    <glyph glyph-name="O" unicode="&#x39f;" 
d="M319 382c0 -282 -51 -393 -137 -393s-137 111 -137 393c0 281 51 407 137 407s137 -126 137 -407zM109 382c0 -209 24 -331 73 -331s73 122 73 331s-24 344 -73 344s-73 -135 -73 -344z" />
    <glyph glyph-name="O" unicode="o" 
d="M319 382c0 -282 -51 -393 -137 -393s-137 111 -137 393c0 281 51 407 137 407s137 -126 137 -407zM109 382c0 -209 24 -331 73 -331s73 122 73 331s-24 344 -73 344s-73 -135 -73 -344z" />
    <glyph glyph-name="uni041F" unicode="&#x3a0;" horiz-adv-x="389" 
d="M320 0h-65v731h-122v-731h-64v779h251v-779z" />
    <glyph glyph-name="uni041F" unicode="&#x43f;" horiz-adv-x="389" 
d="M320 0h-65v731h-122v-731h-64v779h251v-779z" />
    <glyph glyph-name="uni041F" unicode="&#x41f;" horiz-adv-x="389" 
d="M320 0h-65v731h-122v-731h-64v779h251v-779z" />
    <glyph glyph-name="uni041F" unicode="&#x3c0;" horiz-adv-x="389" 
d="M320 0h-65v731h-122v-731h-64v779h251v-779z" />
    <glyph glyph-name="Sigma" unicode="&#x3a3;" horiz-adv-x="272" 
d="M181 215l-75 -155h135v-60h-221l102 212l-99 567h221v-63h-152z" />
    <glyph glyph-name="Sigma" unicode="&#x3c3;" horiz-adv-x="272" 
d="M181 215l-75 -155h135v-60h-221l102 212l-99 567h221v-63h-152z" />
    <glyph glyph-name="Sigma" unicode="&#x3c2;" horiz-adv-x="272" 
d="M181 215l-75 -155h135v-60h-221l102 212l-99 567h221v-63h-152z" />
    <glyph glyph-name="uni0424" unicode="&#x3a6;" horiz-adv-x="408" 
d="M305 383c0 135 -25 232 -71 260v-510c46 26 71 116 71 250zM103 383c0 -134 25 -224 71 -250v510c-46 -28 -71 -125 -71 -260zM236 0h-64v75c-83 18 -130 106 -130 308s47 299 130 319v77h64v-77c82 -20 130 -117 130 -319s-48 -290 -130 -308v-75z" />
    <glyph glyph-name="uni0424" unicode="&#x444;" horiz-adv-x="408" 
d="M305 383c0 135 -25 232 -71 260v-510c46 26 71 116 71 250zM103 383c0 -134 25 -224 71 -250v510c-46 -28 -71 -125 -71 -260zM236 0h-64v75c-83 18 -130 106 -130 308s47 299 130 319v77h64v-77c82 -20 130 -117 130 -319s-48 -290 -130 -308v-75z" />
    <glyph glyph-name="uni0424" unicode="&#x424;" horiz-adv-x="408" 
d="M305 383c0 135 -25 232 -71 260v-510c46 26 71 116 71 250zM103 383c0 -134 25 -224 71 -250v510c-46 -28 -71 -125 -71 -260zM236 0h-64v75c-83 18 -130 106 -130 308s47 299 130 319v77h64v-77c82 -20 130 -117 130 -319s-48 -290 -130 -308v-75z" />
    <glyph glyph-name="uni0424" unicode="&#x3c6;" horiz-adv-x="408" 
d="M305 383c0 135 -25 232 -71 260v-510c46 26 71 116 71 250zM103 383c0 -134 25 -224 71 -250v510c-46 -28 -71 -125 -71 -260zM236 0h-64v75c-83 18 -130 106 -130 308s47 299 130 319v77h64v-77c82 -20 130 -117 130 -319s-48 -290 -130 -308v-75z" />
    <glyph glyph-name="Psi" unicode="&#x3a8;" horiz-adv-x="404" 
d="M234 0h-64v74c-82 19 -128 115 -128 263v442h63v-445c0 -109 23 -175 65 -195v640h64v-640c42 20 65 86 65 195v445h63v-442c0 -148 -46 -244 -128 -263v-74z" />
    <glyph glyph-name="Psi" unicode="&#x3c8;" horiz-adv-x="404" 
d="M234 0h-64v74c-82 19 -128 115 -128 263v442h63v-445c0 -109 23 -175 65 -195v640h64v-640c42 20 65 86 65 195v445h63v-442c0 -148 -46 -244 -128 -263v-74z" />
    <glyph glyph-name="Omega" unicode="&#x3a9;" horiz-adv-x="420" 
d="M210 790c116 0 165 -139 165 -325c0 -145 -30 -277 -85 -405h75v-60h-148c56 106 90 293 90 475c0 149 -23 252 -97 252s-97 -103 -97 -252c0 -182 34 -369 90 -475h-148v60h75c-52 122 -85 257 -85 407c0 183 49 323 165 323z" />
    <glyph glyph-name="Omega" unicode="&#x3ce;" horiz-adv-x="420" 
d="M210 790c116 0 165 -139 165 -325c0 -145 -30 -277 -85 -405h75v-60h-148c56 106 90 293 90 475c0 149 -23 252 -97 252s-97 -103 -97 -252c0 -182 34 -369 90 -475h-148v60h75c-52 122 -85 257 -85 407c0 183 49 323 165 323z" />
    <glyph glyph-name="Omega" unicode="&#x3c9;" horiz-adv-x="420" 
d="M210 790c116 0 165 -139 165 -325c0 -145 -30 -277 -85 -405h75v-60h-148c56 106 90 293 90 475c0 149 -23 252 -97 252s-97 -103 -97 -252c0 -182 34 -369 90 -475h-148v60h75c-52 122 -85 257 -85 407c0 183 49 323 165 323z" />
    <glyph glyph-name="A" unicode="A" horiz-adv-x="361" 
d="M269 0l-34 195h-111l-34 -195h-62l156 815l149 -815h-64zM178 505l-46 -262h95l-45 262h-4z" />
    <glyph glyph-name="A" unicode="&#x430;" horiz-adv-x="361" 
d="M269 0l-34 195h-111l-34 -195h-62l156 815l149 -815h-64zM178 505l-46 -262h95l-45 262h-4z" />
    <glyph glyph-name="A" unicode="&#x410;" horiz-adv-x="361" 
d="M269 0l-34 195h-111l-34 -195h-62l156 815l149 -815h-64zM178 505l-46 -262h95l-45 262h-4z" />
    <glyph glyph-name="A" unicode="&#x3b1;" horiz-adv-x="361" 
d="M269 0l-34 195h-111l-34 -195h-62l156 815l149 -815h-64zM178 505l-46 -262h95l-45 262h-4z" />
    <glyph glyph-name="A" unicode="&#x3ac;" horiz-adv-x="361" 
d="M269 0l-34 195h-111l-34 -195h-62l156 815l149 -815h-64zM178 505l-46 -262h95l-45 262h-4z" />
    <glyph glyph-name="A" unicode="&#x391;" horiz-adv-x="361" 
d="M269 0l-34 195h-111l-34 -195h-62l156 815l149 -815h-64zM178 505l-46 -262h95l-45 262h-4z" />
    <glyph glyph-name="A" unicode="a" horiz-adv-x="361" 
d="M269 0l-34 195h-111l-34 -195h-62l156 815l149 -815h-64zM178 505l-46 -262h95l-45 262h-4z" />
    <glyph glyph-name="M" unicode="M" horiz-adv-x="464" 
d="M395 0h-56v439h-4l-104 -325l-102 325h-4v-439h-56v815l160 -517h4l162 517v-815z" />
    <glyph glyph-name="M" unicode="&#x43c;" horiz-adv-x="464" 
d="M395 0h-56v439h-4l-104 -325l-102 325h-4v-439h-56v815l160 -517h4l162 517v-815z" />
    <glyph glyph-name="M" unicode="&#x41c;" horiz-adv-x="464" 
d="M395 0h-56v439h-4l-104 -325l-102 325h-4v-439h-56v815l160 -517h4l162 517v-815z" />
    <glyph glyph-name="M" unicode="&#x3bc;" horiz-adv-x="464" 
d="M395 0h-56v439h-4l-104 -325l-102 325h-4v-439h-56v815l160 -517h4l162 517v-815z" />
    <glyph glyph-name="M" unicode="&#x39c;" horiz-adv-x="464" 
d="M395 0h-56v439h-4l-104 -325l-102 325h-4v-439h-56v815l160 -517h4l162 517v-815z" />
    <glyph glyph-name="M" unicode="m" horiz-adv-x="464" 
d="M395 0h-56v439h-4l-104 -325l-102 325h-4v-439h-56v815l160 -517h4l162 517v-815z" />
    <glyph glyph-name="uni0402" unicode="&#x402;" horiz-adv-x="411" 
d="M230 589c92 0 127 -100 127 -266v-333c0 -113 -72 -198 -120 -222h-80c85 51 135 124 135 222v336c0 135 -18 199 -63 199c-29 0 -49 -2 -61 -11v-514h-65v719h-83v60h322v-60h-174v-140c15 7 35 10 62 10z" />
    <glyph glyph-name="uni0402" unicode="&#x452;" horiz-adv-x="411" 
d="M230 589c92 0 127 -100 127 -266v-333c0 -113 -72 -198 -120 -222h-80c85 51 135 124 135 222v336c0 135 -18 199 -63 199c-29 0 -49 -2 -61 -11v-514h-65v719h-83v60h322v-60h-174v-140c15 7 35 10 62 10z" />
    <glyph glyph-name="uni0403" unicode="&#x403;" horiz-adv-x="263" 
d="M69 779h174v-60h-110v-719h-64v779zM155 805h-65l112 163h70z" />
    <glyph glyph-name="uni0403" unicode="&#x453;" horiz-adv-x="263" 
d="M69 779h174v-60h-110v-719h-64v779zM155 805h-65l112 163h70z" />
    <glyph glyph-name="uni0404" unicode="&#x404;" horiz-adv-x="296" 
d="M45 389c0 282 51 401 151 401c31 0 48 -6 58 -16v-64c-11 10 -26 17 -52 17c-61 0 -95 -97 -95 -338c0 -57 2 -105 5 -146h118v-48h-112c14 -100 43 -143 84 -143c26 0 41 8 52 17v-64c-10 -9 -27 -15 -58 -15c-100 0 -151 118 -151 399z" />
    <glyph glyph-name="uni0404" unicode="&#x454;" horiz-adv-x="296" 
d="M45 389c0 282 51 401 151 401c31 0 48 -6 58 -16v-64c-11 10 -26 17 -52 17c-61 0 -95 -97 -95 -338c0 -57 2 -105 5 -146h118v-48h-112c14 -100 43 -143 84 -143c26 0 41 8 52 17v-64c-10 -9 -27 -15 -58 -15c-100 0 -151 118 -151 399z" />
    <glyph glyph-name="uni0409" unicode="&#x409;" horiz-adv-x="480" 
d="M257 779l1 -180c118 -69 181 -155 181 -307c0 -157 -61 -292 -244 -297v574h-4l-87 -569h-64l134 779h83zM258 541v-477c81 21 116 128 116 239c0 109 -38 180 -116 238z" />
    <glyph glyph-name="uni0409" unicode="&#x459;" horiz-adv-x="480" 
d="M257 779l1 -180c118 -69 181 -155 181 -307c0 -157 -61 -292 -244 -297v574h-4l-87 -569h-64l134 779h83zM258 541v-477c81 21 116 128 116 239c0 109 -38 180 -116 238z" />
    <glyph glyph-name="uni040A" unicode="&#x40a;" horiz-adv-x="542" 
d="M500 291c0 -162 -68 -285 -245 -297v201h-122v-195h-64v779h64v-536h122v536h64v-181c118 -69 181 -155 181 -307zM319 540v-477c81 21 116 128 116 239c0 109 -38 180 -116 238z" />
    <glyph glyph-name="uni040A" unicode="&#x45a;" horiz-adv-x="542" 
d="M500 291c0 -162 -68 -285 -245 -297v201h-122v-195h-64v779h64v-536h122v536h64v-181c118 -69 181 -155 181 -307zM319 540v-477c81 21 116 128 116 239c0 109 -38 180 -116 238z" />
    <glyph glyph-name="uni040B" unicode="&#x40b;" horiz-adv-x="411" 
d="M230 589c92 0 127 -100 127 -266v-323h-65v326c0 135 -18 199 -63 199c-29 0 -49 -2 -61 -11v-514h-65v719h-83v60h322v-60h-174v-140c15 7 35 10 62 10z" />
    <glyph glyph-name="uni040B" unicode="&#x45b;" horiz-adv-x="411" 
d="M230 589c92 0 127 -100 127 -266v-323h-65v326c0 135 -18 199 -63 199c-29 0 -49 -2 -61 -11v-514h-65v719h-83v60h322v-60h-174v-140c15 7 35 10 62 10z" />
    <glyph glyph-name="uni040C" unicode="&#x40c;" horiz-adv-x="383" 
d="M393 0h-105c-43 26 -108 112 -154 194l-2 -5v-189h-63v779h63v-423h4l157 423h65l-201 -525c42 -76 156 -215 236 -254zM195 805h-65l112 163h70z" />
    <glyph glyph-name="uni040C" unicode="&#x45c;" horiz-adv-x="383" 
d="M393 0h-105c-43 26 -108 112 -154 194l-2 -5v-189h-63v779h63v-423h4l157 423h65l-201 -525c42 -76 156 -215 236 -254zM195 805h-65l112 163h70z" />
    <glyph glyph-name="uni040D" unicode="&#x40d;" horiz-adv-x="389" 
d="M320 0h-65v576h-4l-118 -576h-64v779h64v-576h4l118 576h65v-779zM255 805h-65l-117 163h70z" />
    <glyph glyph-name="uni040D" unicode="&#x45d;" horiz-adv-x="389" 
d="M320 0h-65v576h-4l-118 -576h-64v779h64v-576h4l118 576h65v-779zM255 805h-65l-117 163h70z" />
    <glyph glyph-name="uni040E" unicode="&#x40e;" horiz-adv-x="365" 
d="M341 779l-199 -779h-64l75 292l-129 487h66l92 -374h4l92 374h63zM264 968h59c-8 -102 -46 -163 -140 -163c-95 0 -132 61 -142 163h61c9 -82 25 -127 81 -127c55 0 71 45 81 127z" />
    <glyph glyph-name="uni040E" unicode="&#x45e;" horiz-adv-x="365" 
d="M341 779l-199 -779h-64l75 292l-129 487h66l92 -374h4l92 374h63zM264 968h59c-8 -102 -46 -163 -140 -163c-95 0 -132 61 -142 163h61c9 -82 25 -127 81 -127c55 0 71 45 81 127z" />
    <glyph glyph-name="uni040F" unicode="&#x40f;" horiz-adv-x="389" 
d="M222 -141h-56v141h-97v779h64v-719h122v719h65v-779h-98v-141z" />
    <glyph glyph-name="uni040F" unicode="&#x45f;" horiz-adv-x="389" 
d="M222 -141h-56v141h-97v779h64v-719h122v719h65v-779h-98v-141z" />
    <glyph glyph-name="uni0411" unicode="&#x411;" horiz-adv-x="355" 
d="M243 779v-60h-111v-121c118 -69 181 -155 181 -307c0 -165 -64 -284 -244 -297v785h174zM132 540v-477c81 21 116 128 116 239c0 109 -38 180 -116 238z" />
    <glyph glyph-name="uni0411" unicode="&#x431;" horiz-adv-x="355" 
d="M243 779v-60h-111v-121c118 -69 181 -155 181 -307c0 -165 -64 -284 -244 -297v785h174zM132 540v-477c81 21 116 128 116 239c0 109 -38 180 -116 238z" />
    <glyph glyph-name="uni0414" unicode="&#x414;" horiz-adv-x="398" 
d="M64 -141h-56v201h49l145 755l139 -755h49v-201h-56v141h-270v-141zM197 498l-77 -438h155l-74 438h-4z" />
    <glyph glyph-name="uni0414" unicode="&#x434;" horiz-adv-x="398" 
d="M64 -141h-56v201h49l145 755l139 -755h49v-201h-56v141h-270v-141zM197 498l-77 -438h155l-74 438h-4z" />
    <glyph glyph-name="uni0416" unicode="&#x416;" horiz-adv-x="500" 
d="M90 0h-96c69 44 162 178 198 254l-174 525h65l133 -423h3v423h62v-423h3l133 423h65l-174 -525c36 -76 129 -210 198 -254h-96c-36 28 -87 112 -127 194l-2 -5v-189h-62v189l-2 5c-40 -82 -91 -166 -127 -194z" />
    <glyph glyph-name="uni0416" unicode="&#x436;" horiz-adv-x="500" 
d="M90 0h-96c69 44 162 178 198 254l-174 525h65l133 -423h3v423h62v-423h3l133 423h65l-174 -525c36 -76 129 -210 198 -254h-96c-36 28 -87 112 -127 194l-2 -5v-189h-62v189l-2 5c-40 -82 -91 -166 -127 -194z" />
    <glyph glyph-name="uni0417" unicode="&#x417;" horiz-adv-x="276" 
d="M98 790c119 0 164 -112 164 -278c0 -155 -39 -230 -109 -271v-3c63 -10 97 -57 97 -110c0 -63 -47 -138 -152 -138c-27 0 -44 5 -56 15v64c17 -14 35 -17 55 -17c69 0 91 38 91 77c0 46 -31 75 -103 75v44c88 31 114 125 114 253c0 148 -35 226 -108 226
c-18 0 -36 -5 -49 -17v64c13 13 36 16 56 16z" />
    <glyph glyph-name="uni0417" unicode="&#x437;" horiz-adv-x="276" 
d="M98 790c119 0 164 -112 164 -278c0 -155 -39 -230 -109 -271v-3c63 -10 97 -57 97 -110c0 -63 -47 -138 -152 -138c-27 0 -44 5 -56 15v64c17 -14 35 -17 55 -17c69 0 91 38 91 77c0 46 -31 75 -103 75v44c88 31 114 125 114 253c0 148 -35 226 -108 226
c-18 0 -36 -5 -49 -17v64c13 13 36 16 56 16z" />
    <glyph glyph-name="uni0418" unicode="&#x418;" horiz-adv-x="389" 
d="M320 0h-65v576h-4l-118 -576h-64v779h64v-576h4l118 576h65v-779z" />
    <glyph glyph-name="uni0418" unicode="&#x438;" horiz-adv-x="389" 
d="M320 0h-65v576h-4l-118 -576h-64v779h64v-576h4l118 576h65v-779z" />
    <glyph glyph-name="uni0419" unicode="&#x419;" horiz-adv-x="389" 
d="M320 0h-65v576h-4l-118 -576h-64v779h64v-576h4l118 576h65v-779zM276 968h59c-8 -102 -46 -163 -140 -163c-95 0 -132 61 -142 163h61c9 -82 25 -127 81 -127c55 0 71 45 81 127z" />
    <glyph glyph-name="uni0419" unicode="&#x439;" horiz-adv-x="389" 
d="M320 0h-65v576h-4l-118 -576h-64v779h64v-576h4l118 576h65v-779zM276 968h59c-8 -102 -46 -163 -140 -163c-95 0 -132 61 -142 163h61c9 -82 25 -127 81 -127c55 0 71 45 81 127z" />
    <glyph glyph-name="uni041B" unicode="&#x41b;" horiz-adv-x="389" 
d="M280 0l-84 498h-4l-87 -498h-64l156 815l150 -815h-67z" />
    <glyph glyph-name="uni041B" unicode="&#x43b;" horiz-adv-x="389" 
d="M280 0l-84 498h-4l-87 -498h-64l156 815l150 -815h-67z" />
    <glyph glyph-name="uni0423" unicode="&#x423;" horiz-adv-x="365" 
d="M341 779l-199 -779h-64l75 292l-129 487h66l92 -374h4l92 374h63z" />
    <glyph glyph-name="uni0423" unicode="&#x443;" horiz-adv-x="365" 
d="M341 779l-199 -779h-64l75 292l-129 487h66l92 -374h4l92 374h63z" />
    <glyph glyph-name="uni0426" unicode="&#x426;" horiz-adv-x="376" 
d="M368 -141h-56v141h-243v779h64v-719h122v719h65v-719h48v-201z" />
    <glyph glyph-name="uni0426" unicode="&#x446;" horiz-adv-x="376" 
d="M368 -141h-56v141h-243v779h64v-719h122v719h65v-719h48v-201z" />
    <glyph glyph-name="uni0427" unicode="&#x427;" horiz-adv-x="377" 
d="M181 190c-92 0 -127 100 -127 266v323h65v-326c0 -135 18 -199 63 -199c29 0 48 2 61 10v515h65v-779h-65v199c-16 -6 -35 -9 -62 -9z" />
    <glyph glyph-name="uni0427" unicode="&#x447;" horiz-adv-x="377" 
d="M181 190c-92 0 -127 100 -127 266v323h65v-326c0 -135 18 -199 63 -199c29 0 48 2 61 10v515h65v-779h-65v199c-16 -6 -35 -9 -62 -9z" />
    <glyph glyph-name="uni0428" unicode="&#x428;" horiz-adv-x="526" 
d="M457 0h-388v779h64v-719h98v719h64v-719h98v719h64v-779z" />
    <glyph glyph-name="uni0428" unicode="&#x448;" horiz-adv-x="526" 
d="M457 0h-388v779h64v-719h98v719h64v-719h98v719h64v-779z" />
    <glyph glyph-name="uni0429" unicode="&#x429;" horiz-adv-x="513" 
d="M505 -141h-56v141h-380v779h64v-719h98v719h64v-719h98v719h64v-719h48v-201z" />
    <glyph glyph-name="uni0429" unicode="&#x449;" horiz-adv-x="513" 
d="M505 -141h-56v141h-380v779h64v-719h98v719h64v-719h98v719h64v-719h48v-201z" />
    <glyph glyph-name="uni042A" unicode="&#x42a;" horiz-adv-x="389" 
d="M166 779v-181c118 -69 181 -155 181 -307c0 -157 -61 -292 -244 -297v725h-83v60h146zM166 540v-477c81 21 116 128 116 239c0 109 -38 180 -116 238z" />
    <glyph glyph-name="uni042A" unicode="&#x44a;" horiz-adv-x="389" 
d="M166 779v-181c118 -69 181 -155 181 -307c0 -157 -61 -292 -244 -297v725h-83v60h146zM166 540v-477c81 21 116 128 116 239c0 109 -38 180 -116 238z" />
    <glyph glyph-name="uni042B" unicode="&#x42b;" horiz-adv-x="516" 
d="M132 540v-477c81 21 116 128 116 239c0 109 -38 180 -116 238zM132 779v-181c118 -69 181 -155 181 -307c0 -157 -61 -292 -244 -297v785h63zM447 0h-64v779h64v-779z" />
    <glyph glyph-name="uni042B" unicode="&#x44b;" horiz-adv-x="516" 
d="M132 540v-477c81 21 116 128 116 239c0 109 -38 180 -116 238zM132 779v-181c118 -69 181 -155 181 -307c0 -157 -61 -292 -244 -297v785h63zM447 0h-64v779h64v-779z" />
    <glyph glyph-name="uni042C" unicode="&#x42c;" horiz-adv-x="355" 
d="M132 540v-477c81 21 116 128 116 239c0 109 -38 180 -116 238zM132 779v-181c118 -69 181 -155 181 -307c0 -157 -61 -292 -244 -297v785h63z" />
    <glyph glyph-name="uni042C" unicode="&#x44c;" horiz-adv-x="355" 
d="M132 540v-477c81 21 116 128 116 239c0 109 -38 180 -116 238zM132 779v-181c118 -69 181 -155 181 -307c0 -157 -61 -292 -244 -297v785h63z" />
    <glyph glyph-name="uni042D" unicode="&#x42d;" horiz-adv-x="296" 
d="M251 389c0 -281 -51 -399 -151 -399c-31 0 -48 6 -58 15v64c11 -9 26 -17 52 -17c40 0 69 43 84 143h-112v48h117c4 41 6 89 6 146c0 241 -34 338 -95 338c-26 0 -41 -7 -52 -17v64c10 10 27 16 58 16c100 0 151 -119 151 -401z" />
    <glyph glyph-name="uni042D" unicode="&#x44d;" horiz-adv-x="296" 
d="M251 389c0 -281 -51 -399 -151 -399c-31 0 -48 6 -58 15v64c11 -9 26 -17 52 -17c40 0 69 43 84 143h-112v48h117c4 41 6 89 6 146c0 241 -34 338 -95 338c-26 0 -41 -7 -52 -17v64c10 10 27 16 58 16c100 0 151 -119 151 -401z" />
    <glyph glyph-name="uni042E" unicode="&#x42e;" horiz-adv-x="521" 
d="M133 0h-64v779h64v-536h78c-3 41 -5 87 -5 139c0 281 47 407 133 407s137 -126 137 -407c0 -282 -51 -393 -137 -393c-60 0 -103 64 -122 206h-84v-195zM266 382c0 -209 24 -331 73 -331s73 122 73 331s-24 344 -73 344s-73 -135 -73 -344z" />
    <glyph glyph-name="uni042E" unicode="&#x44e;" horiz-adv-x="521" 
d="M133 0h-64v779h64v-536h78c-3 41 -5 87 -5 139c0 281 47 407 133 407s137 -126 137 -407c0 -282 -51 -393 -137 -393c-60 0 -103 64 -122 206h-84v-195zM266 382c0 -209 24 -331 73 -331s73 122 73 331s-24 344 -73 344s-73 -135 -73 -344z" />
    <glyph glyph-name="uni042F" unicode="&#x42f;" horiz-adv-x="359" 
d="M227 0v173l-4 1c-30 -64 -75 -134 -115 -174h-90c63 55 111 109 165 201c-87 64 -140 164 -140 296c0 150 68 283 247 288v-785h-63zM227 231v486c-79 -20 -121 -126 -121 -232c0 -109 44 -198 121 -254z" />
    <glyph glyph-name="uni042F" unicode="&#x44f;" horiz-adv-x="359" 
d="M227 0v173l-4 1c-30 -64 -75 -134 -115 -174h-90c63 55 111 109 165 201c-87 64 -140 164 -140 296c0 150 68 283 247 288v-785h-63zM227 231v486c-79 -20 -121 -126 -121 -232c0 -109 44 -198 121 -254z" />
    <glyph glyph-name="I" unicode="I" horiz-adv-x="202" 
d="M133 0h-64v779h64v-779z" />
    <glyph glyph-name="I" unicode="&#x4cf;" horiz-adv-x="202" 
d="M133 0h-64v779h64v-779z" />
    <glyph glyph-name="I" unicode="&#x4c0;" horiz-adv-x="202" 
d="M133 0h-64v779h64v-779z" />
    <glyph glyph-name="I" unicode="&#x456;" horiz-adv-x="202" 
d="M133 0h-64v779h64v-779z" />
    <glyph glyph-name="I" unicode="&#x406;" horiz-adv-x="202" 
d="M133 0h-64v779h64v-779z" />
    <glyph glyph-name="I" unicode="&#x3b9;" horiz-adv-x="202" 
d="M133 0h-64v779h64v-779z" />
    <glyph glyph-name="I" unicode="&#x3af;" horiz-adv-x="202" 
d="M133 0h-64v779h64v-779z" />
    <glyph glyph-name="I" unicode="&#x399;" horiz-adv-x="202" 
d="M133 0h-64v779h64v-779z" />
    <glyph glyph-name="I" unicode="&#x131;" horiz-adv-x="202" 
d="M133 0h-64v779h64v-779z" />
    <glyph glyph-name="I" unicode="i" horiz-adv-x="202" 
d="M133 0h-64v779h64v-779z" />
    <glyph glyph-name="uni0490" unicode="&#x490;" horiz-adv-x="263" 
d="M69 779h118v141h56v-201h-110v-719h-64v779z" />
    <glyph glyph-name="uni0490" unicode="&#x491;" horiz-adv-x="263" 
d="M69 779h118v141h56v-201h-110v-719h-64v779z" />
    <glyph glyph-name="uni0492" unicode="&#x492;" horiz-adv-x="289" 
d="M273 195h-114v-195h-64v195h-88v49h88v535h174v-60h-110v-475h114v-49z" />
    <glyph glyph-name="uni0492" unicode="&#x493;" horiz-adv-x="289" 
d="M273 195h-114v-195h-64v195h-88v49h88v535h174v-60h-110v-475h114v-49z" />
    <glyph glyph-name="uni0496" unicode="&#x496;" horiz-adv-x="524" 
d="M516 -141h-56v141h-50c-36 28 -87 112 -127 194l-2 -5v-189h-62v189l-2 5c-40 -82 -91 -166 -127 -194h-96c69 44 162 178 198 254l-174 525h65l133 -423h3v423h62v-423h3l133 423h65l-174 -525c25 -53 78 -135 131 -194h77v-201z" />
    <glyph glyph-name="uni0496" unicode="&#x497;" horiz-adv-x="524" 
d="M516 -141h-56v141h-50c-36 28 -87 112 -127 194l-2 -5v-189h-62v189l-2 5c-40 -82 -91 -166 -127 -194h-96c69 44 162 178 198 254l-174 525h65l133 -423h3v423h62v-423h3l133 423h65l-174 -525c25 -53 78 -135 131 -194h77v-201z" />
    <glyph glyph-name="uni0498" unicode="&#x498;" horiz-adv-x="276" 
d="M98 790c119 0 164 -112 164 -278c0 -155 -39 -230 -109 -271v-3c63 -10 97 -57 97 -110c0 -52 -32 -112 -102 -131c20 -34 33 -74 33 -113c0 -42 -15 -84 -51 -116h-80c58 41 80 83 80 135c0 26 -6 55 -16 88c-5 -1 -11 -1 -16 -1c-27 0 -44 5 -56 15v64
c17 -14 35 -17 55 -17c69 0 91 38 91 77c0 46 -31 75 -103 75v44c88 31 114 125 114 253c0 148 -35 226 -108 226c-18 0 -36 -5 -49 -17v64c13 13 36 16 56 16z" />
    <glyph glyph-name="uni0498" unicode="&#x499;" horiz-adv-x="276" 
d="M98 790c119 0 164 -112 164 -278c0 -155 -39 -230 -109 -271v-3c63 -10 97 -57 97 -110c0 -52 -32 -112 -102 -131c20 -34 33 -74 33 -113c0 -42 -15 -84 -51 -116h-80c58 41 80 83 80 135c0 26 -6 55 -16 88c-5 -1 -11 -1 -16 -1c-27 0 -44 5 -56 15v64
c17 -14 35 -17 55 -17c69 0 91 38 91 77c0 46 -31 75 -103 75v44c88 31 114 125 114 253c0 148 -35 226 -108 226c-18 0 -36 -5 -49 -17v64c13 13 36 16 56 16z" />
    <glyph glyph-name="uni049A" unicode="&#x49a;" horiz-adv-x="409" 
d="M401 -141h-56v141h-57c-43 26 -108 112 -154 194l-2 -5v-189h-63v779h63v-423h4l157 423h65l-201 -525c29 -53 92 -135 155 -194h89v-201z" />
    <glyph glyph-name="uni049A" unicode="&#x49b;" horiz-adv-x="409" 
d="M401 -141h-56v141h-57c-43 26 -108 112 -154 194l-2 -5v-189h-63v779h63v-423h4l157 423h65l-201 -525c29 -53 92 -135 155 -194h89v-201z" />
    <glyph glyph-name="uni04A0" unicode="&#x4a0;" horiz-adv-x="417" 
d="M427 0h-105c-43 26 -108 112 -154 194l-2 -5v-189h-63v719h-83v60h146v-423h4l157 423h65l-201 -525c42 -76 156 -215 236 -254z" />
    <glyph glyph-name="uni04A0" unicode="&#x4a1;" horiz-adv-x="417" 
d="M427 0h-105c-43 26 -108 112 -154 194l-2 -5v-189h-63v719h-83v60h146v-423h4l157 423h65l-201 -525c42 -76 156 -215 236 -254z" />
    <glyph glyph-name="uni04A2" unicode="&#x4a2;" horiz-adv-x="376" 
d="M368 -141h-56v141h-57v195h-122v-195h-64v779h64v-536h122v536h65v-719h48v-201z" />
    <glyph glyph-name="uni04A2" unicode="&#x4a3;" horiz-adv-x="376" 
d="M368 -141h-56v141h-57v195h-122v-195h-64v779h64v-536h122v536h65v-719h48v-201z" />
    <glyph glyph-name="uni04AA" unicode="&#x4aa;" horiz-adv-x="296" 
d="M45 389c0 282 51 401 151 401c31 0 48 -6 58 -16v-64c-11 10 -26 17 -52 17c-61 0 -93 -97 -93 -338c0 -240 32 -337 93 -337c26 0 41 8 52 17v-64c-8 -6 -19 -12 -36 -14c18 -33 30 -70 30 -107c0 -42 -15 -84 -51 -116h-80c58 41 80 83 80 135c0 27 -6 55 -16 88
c-90 11 -136 131 -136 398z" />
    <glyph glyph-name="uni04AA" unicode="&#x4ab;" horiz-adv-x="296" 
d="M45 389c0 282 51 401 151 401c31 0 48 -6 58 -16v-64c-11 10 -26 17 -52 17c-61 0 -93 -97 -93 -338c0 -240 32 -337 93 -337c26 0 41 8 52 17v-64c-8 -6 -19 -12 -36 -14c18 -33 30 -70 30 -107c0 -42 -15 -84 -51 -116h-80c58 41 80 83 80 135c0 27 -6 55 -16 88
c-90 11 -136 131 -136 398z" />
    <glyph glyph-name="Y" unicode="Y" horiz-adv-x="374" 
d="M220 0h-64v345l-132 434h65l100 -346h4l99 346h58l-130 -434v-345z" />
    <glyph glyph-name="Y" unicode="&#x4af;" horiz-adv-x="374" 
d="M220 0h-64v345l-132 434h65l100 -346h4l99 346h58l-130 -434v-345z" />
    <glyph glyph-name="Y" unicode="&#x4ae;" horiz-adv-x="374" 
d="M220 0h-64v345l-132 434h65l100 -346h4l99 346h58l-130 -434v-345z" />
    <glyph glyph-name="Y" unicode="&#x3cd;" horiz-adv-x="374" 
d="M220 0h-64v345l-132 434h65l100 -346h4l99 346h58l-130 -434v-345z" />
    <glyph glyph-name="Y" unicode="&#x3c5;" horiz-adv-x="374" 
d="M220 0h-64v345l-132 434h65l100 -346h4l99 346h58l-130 -434v-345z" />
    <glyph glyph-name="Y" unicode="&#x3a5;" horiz-adv-x="374" 
d="M220 0h-64v345l-132 434h65l100 -346h4l99 346h58l-130 -434v-345z" />
    <glyph glyph-name="Y" unicode="y" horiz-adv-x="374" 
d="M220 0h-64v345l-132 434h65l100 -346h4l99 346h58l-130 -434v-345z" />
    <glyph glyph-name="uni04B0" unicode="&#x4b0;" horiz-adv-x="374" 
d="M220 0h-64v325h-106v49h97l-123 405h65l100 -346h4l99 346h58l-122 -405h96v-49h-104v-325z" />
    <glyph glyph-name="uni04B0" unicode="&#x4b1;" horiz-adv-x="374" 
d="M220 0h-64v325h-106v49h97l-123 405h65l100 -346h4l99 346h58l-122 -405h96v-49h-104v-325z" />
    <glyph glyph-name="uni04B2" unicode="&#x4b2;" horiz-adv-x="382" 
d="M374 -141h-56v141h-40l-92 339h-4l-99 -339h-63l131 421l-104 358h63l77 -275h4l79 275h60l-109 -352l107 -367h46v-201z" />
    <glyph glyph-name="uni04B2" unicode="&#x4b3;" horiz-adv-x="382" 
d="M374 -141h-56v141h-40l-92 339h-4l-99 -339h-63l131 421l-104 358h63l77 -275h4l79 275h60l-109 -352l107 -367h46v-201z" />
    <glyph glyph-name="uni04B6" unicode="&#x4b6;" horiz-adv-x="366" 
d="M183 190c-92 0 -127 100 -127 266v323h65v-326c0 -135 18 -199 63 -199c29 0 48 2 61 10v515h65v-719h48v-201h-56v141h-57v199c-16 -6 -35 -9 -62 -9z" />
    <glyph glyph-name="uni04B6" unicode="&#x4b7;" horiz-adv-x="366" 
d="M183 190c-92 0 -127 100 -127 266v323h65v-326c0 -135 18 -199 63 -199c29 0 48 2 61 10v515h65v-719h48v-201h-56v141h-57v199c-16 -6 -35 -9 -62 -9z" />
    <glyph glyph-name="uni04BA" unicode="&#x4ba;" horiz-adv-x="377" 
d="M196 589c92 0 127 -100 127 -266v-323h-65v326c0 135 -18 199 -63 199c-29 0 -49 -2 -61 -11v-514h-65v779h65v-200c15 7 35 10 62 10z" />
    <glyph glyph-name="uni04BA" unicode="&#x4bb;" horiz-adv-x="377" 
d="M196 589c92 0 127 -100 127 -266v-323h-65v326c0 135 -18 199 -63 199c-29 0 -49 -2 -61 -11v-514h-65v779h65v-200c15 7 35 10 62 10z" />
    <glyph glyph-name="uni04C3" unicode="&#x4c3;" horiz-adv-x="383" 
d="M393 0h-35c21 -35 35 -75 35 -116c0 -42 -15 -84 -51 -116h-80c58 41 80 83 80 135c0 29 -7 60 -18 97h-36c-43 26 -108 112 -154 194l-2 -5v-189h-63v779h63v-423h4l157 423h65l-201 -525c42 -76 156 -215 236 -254z" />
    <glyph glyph-name="uni04C3" unicode="&#x4c4;" horiz-adv-x="383" 
d="M393 0h-35c21 -35 35 -75 35 -116c0 -42 -15 -84 -51 -116h-80c58 41 80 83 80 135c0 29 -7 60 -18 97h-36c-43 26 -108 112 -154 194l-2 -5v-189h-63v779h63v-423h4l157 423h65l-201 -525c42 -76 156 -215 236 -254z" />
    <glyph glyph-name="uni04C7" unicode="&#x4c7;" horiz-adv-x="389" 
d="M320 0h-11c21 -35 35 -75 35 -116c0 -42 -15 -84 -51 -116h-80c58 41 80 83 80 135c0 29 -7 60 -18 97h-20v195h-122v-195h-64v779h64v-536h122v536h65v-779z" />
    <glyph glyph-name="uni04C7" unicode="&#x4c8;" horiz-adv-x="389" 
d="M320 0h-11c21 -35 35 -75 35 -116c0 -42 -15 -84 -51 -116h-80c58 41 80 83 80 135c0 29 -7 60 -18 97h-20v195h-122v-195h-64v779h64v-536h122v536h65v-779z" />
    <glyph glyph-name="uni04E2" unicode="&#x4e2;" horiz-adv-x="389" 
d="M320 0h-65v576h-4l-118 -576h-64v779h64v-576h4l118 576h65v-779zM331 852h-274v49h274v-49z" />
    <glyph glyph-name="uni04E2" unicode="&#x4e3;" horiz-adv-x="389" 
d="M320 0h-65v576h-4l-118 -576h-64v779h64v-576h4l118 576h65v-779zM331 852h-274v49h274v-49z" />
    <glyph glyph-name="uni04E8" unicode="&#x4e8;" 
d="M319 382c0 -282 -51 -393 -137 -393s-137 111 -137 393c0 281 51 407 137 407s137 -126 137 -407zM109 382c0 -52 1 -99 4 -139h137c3 40 5 87 5 139c0 209 -24 344 -73 344s-73 -135 -73 -344zM182 51c31 0 53 51 64 144h-128c11 -93 32 -144 64 -144z" />
    <glyph glyph-name="uni04E8" unicode="&#x4e9;" 
d="M319 382c0 -282 -51 -393 -137 -393s-137 111 -137 393c0 281 51 407 137 407s137 -126 137 -407zM109 382c0 -52 1 -99 4 -139h137c3 40 5 87 5 139c0 209 -24 344 -73 344s-73 -135 -73 -344zM182 51c31 0 53 51 64 144h-128c11 -93 32 -144 64 -144z" />
    <glyph glyph-name="uni04EE" unicode="&#x4ee;" horiz-adv-x="365" 
d="M341 779l-199 -779h-64l75 292l-129 487h66l92 -374h4l92 374h63zM319 852h-274v49h274v-49z" />
    <glyph glyph-name="uni04EE" unicode="&#x4ef;" horiz-adv-x="365" 
d="M341 779l-199 -779h-64l75 292l-129 487h66l92 -374h4l92 374h63zM319 852h-274v49h274v-49z" />
    <glyph glyph-name="uni0512" unicode="&#x512;" horiz-adv-x="389" 
d="M280 0l-84 498h-4l-87 -498h-64l156 815l150 -815h-19c21 -35 35 -75 35 -116c0 -42 -15 -84 -51 -116h-80c58 41 80 83 80 135c0 29 -7 60 -18 97h-14z" />
    <glyph glyph-name="uni0512" unicode="&#x513;" horiz-adv-x="389" 
d="M280 0l-84 498h-4l-87 -498h-64l156 815l150 -815h-19c21 -35 35 -75 35 -116c0 -42 -15 -84 -51 -116h-80c58 41 80 83 80 135c0 29 -7 60 -18 97h-14z" />
    <glyph glyph-name="uni058F" unicode="&#x58f;" horiz-adv-x="351" 
d="M55 250h166v51h-166v49h166v176c0 134 -17 199 -71 199c-53 0 -71 -65 -71 -199v-28h-54v25c0 166 23 266 125 266c103 0 136 -100 136 -266v-173h43v-49h-43v-51h43v-49h-43v-201h-65v201h-166v49z" />
    <glyph glyph-name="uni1E0C" unicode="&#x1e0c;" horiz-adv-x="354" 
d="M69 -5v790c179 -6 240 -187 240 -396s-61 -389 -240 -394zM132 717v-654c79 28 114 174 114 326s-35 299 -114 328zM156 -160c-24 0 -37 14 -37 46c0 29 13 46 37 46c26 0 39 -17 39 -46c0 -32 -13 -46 -39 -46z" />
    <glyph glyph-name="uni1E0C" unicode="&#x1e0d;" horiz-adv-x="354" 
d="M69 -5v790c179 -6 240 -187 240 -396s-61 -389 -240 -394zM132 717v-654c79 28 114 174 114 326s-35 299 -114 328zM156 -160c-24 0 -37 14 -37 46c0 29 13 46 37 46c26 0 39 -17 39 -46c0 -32 -13 -46 -39 -46z" />
    <glyph glyph-name="uni1E12" unicode="&#x1e12;" horiz-adv-x="354" 
d="M69 -5v790c179 -6 240 -187 240 -396s-61 -389 -240 -394zM132 717v-654c79 28 114 174 114 326s-35 299 -114 328zM157 -111l-81 -88h-72l153 163l152 -163h-72z" />
    <glyph glyph-name="uni1E12" unicode="&#x1e13;" horiz-adv-x="354" 
d="M69 -5v790c179 -6 240 -187 240 -396s-61 -389 -240 -394zM132 717v-654c79 28 114 174 114 326s-35 299 -114 328zM157 -111l-81 -88h-72l153 163l152 -163h-72z" />
    <glyph glyph-name="uni1E24" unicode="&#x1e24;" horiz-adv-x="389" 
d="M320 0h-65v195h-122v-195h-64v779h64v-536h122v536h65v-779zM193 -160c-24 0 -37 14 -37 46c0 29 13 46 37 46c26 0 39 -17 39 -46c0 -32 -13 -46 -39 -46z" />
    <glyph glyph-name="uni1E24" unicode="&#x1e25;" horiz-adv-x="389" 
d="M320 0h-65v195h-122v-195h-64v779h64v-536h122v536h65v-779zM193 -160c-24 0 -37 14 -37 46c0 29 13 46 37 46c26 0 39 -17 39 -46c0 -32 -13 -46 -39 -46z" />
    <glyph glyph-name="uni1E3C" unicode="&#x1e3c;" horiz-adv-x="263" 
d="M243 0h-174v779h64v-719h110v-60zM152 -111l-81 -88h-72l153 163l152 -163h-72z" />
    <glyph glyph-name="uni1E3C" unicode="&#x1e3d;" horiz-adv-x="263" 
d="M243 0h-174v779h64v-719h110v-60zM152 -111l-81 -88h-72l153 163l152 -163h-72z" />
    <glyph glyph-name="uni1E44" unicode="&#x1e44;" horiz-adv-x="391" 
d="M322 -36l-188 502h-4v-466h-61v815l190 -529h4v493h59v-815zM194 829c-24 0 -37 14 -37 46c0 29 13 46 37 46c26 0 39 -17 39 -46c0 -32 -13 -46 -39 -46z" />
    <glyph glyph-name="uni1E44" unicode="&#x1e45;" horiz-adv-x="391" 
d="M322 -36l-188 502h-4v-466h-61v815l190 -529h4v493h59v-815zM194 829c-24 0 -37 14 -37 46c0 29 13 46 37 46c26 0 39 -17 39 -46c0 -32 -13 -46 -39 -46z" />
    <glyph glyph-name="uni1E4A" unicode="&#x1e4a;" horiz-adv-x="391" 
d="M322 -36l-188 502h-4v-466h-61v815l190 -529h4v493h59v-815zM196 -111l-81 -88h-72l153 163l152 -163h-72z" />
    <glyph glyph-name="uni1E4A" unicode="&#x1e4b;" horiz-adv-x="391" 
d="M322 -36l-188 502h-4v-466h-61v815l190 -529h4v493h59v-815zM196 -111l-81 -88h-72l153 163l152 -163h-72z" />
    <glyph glyph-name="uni1E5A" unicode="&#x1e5a;" horiz-adv-x="383" 
d="M132 194v-194h-63v785c179 -5 240 -138 240 -289c0 -131 -46 -210 -133 -274c70 -104 155 -191 217 -222h-105c-44 26 -106 113 -152 195zM132 252c77 56 114 124 114 233c0 106 -35 212 -114 232v-465zM190 -160c-24 0 -37 14 -37 46c0 29 13 46 37 46
c26 0 39 -17 39 -46c0 -32 -13 -46 -39 -46z" />
    <glyph glyph-name="uni1E5A" unicode="&#x1e5b;" horiz-adv-x="383" 
d="M132 194v-194h-63v785c179 -5 240 -138 240 -289c0 -131 -46 -210 -133 -274c70 -104 155 -191 217 -222h-105c-44 26 -106 113 -152 195zM132 252c77 56 114 124 114 233c0 106 -35 212 -114 232v-465zM190 -160c-24 0 -37 14 -37 46c0 29 13 46 37 46
c26 0 39 -17 39 -46c0 -32 -13 -46 -39 -46z" />
    <glyph glyph-name="uni1E62" unicode="&#x1e62;" horiz-adv-x="315" 
d="M53 5v64c13 -11 26 -17 50 -17c71 0 104 52 104 136c0 50 -12 83 -29 117c-26 51 -66 104 -89 143c-27 45 -46 95 -46 160c0 109 53 182 139 182c31 0 46 -10 55 -16v-64c-7 9 -25 17 -48 17c-52 0 -83 -43 -83 -122c0 -51 13 -84 32 -119c24 -44 50 -74 80 -123
c30 -50 54 -98 54 -175c0 -120 -59 -198 -161 -198c-31 0 -49 7 -58 15zM136 -160c-24 0 -37 14 -37 46c0 29 13 46 37 46c26 0 39 -17 39 -46c0 -32 -13 -46 -39 -46z" />
    <glyph glyph-name="uni1E62" unicode="&#x1e63;" horiz-adv-x="315" 
d="M53 5v64c13 -11 26 -17 50 -17c71 0 104 52 104 136c0 50 -12 83 -29 117c-26 51 -66 104 -89 143c-27 45 -46 95 -46 160c0 109 53 182 139 182c31 0 46 -10 55 -16v-64c-7 9 -25 17 -48 17c-52 0 -83 -43 -83 -122c0 -51 13 -84 32 -119c24 -44 50 -74 80 -123
c30 -50 54 -98 54 -175c0 -120 -59 -198 -161 -198c-31 0 -49 7 -58 15zM136 -160c-24 0 -37 14 -37 46c0 29 13 46 37 46c26 0 39 -17 39 -46c0 -32 -13 -46 -39 -46z" />
    <glyph glyph-name="uni1E6C" unicode="&#x1e6c;" horiz-adv-x="267" 
d="M166 0h-63v716h-83v63h227v-63h-81v-716zM132 -160c-24 0 -37 14 -37 46c0 29 13 46 37 46c26 0 39 -17 39 -46c0 -32 -13 -46 -39 -46z" />
    <glyph glyph-name="uni1E6C" unicode="&#x1e6d;" horiz-adv-x="267" 
d="M166 0h-63v716h-83v63h227v-63h-81v-716zM132 -160c-24 0 -37 14 -37 46c0 29 13 46 37 46c26 0 39 -17 39 -46c0 -32 -13 -46 -39 -46z" />
    <glyph glyph-name="Wgrave" unicode="&#x1e80;" horiz-adv-x="602" 
d="M338 805h-35l108 -544h4l96 518h63l-163 -815l-109 548h-4l-119 -548l-151 815h68l85 -518h4l114 544h-26l-117 163h70z" />
    <glyph glyph-name="Wgrave" unicode="&#x1e81;" horiz-adv-x="602" 
d="M338 805h-35l108 -544h4l96 518h63l-163 -815l-109 548h-4l-119 -548l-151 815h68l85 -518h4l114 544h-26l-117 163h70z" />
    <glyph glyph-name="Wacute" unicode="&#x1e82;" horiz-adv-x="602" 
d="M326 805h-23l108 -544h4l96 518h63l-163 -815l-109 548h-4l-119 -548l-151 815h68l85 -518h4l114 544h-38l112 163h70z" />
    <glyph glyph-name="Wacute" unicode="&#x1e83;" horiz-adv-x="602" 
d="M326 805h-23l108 -544h4l96 518h63l-163 -815l-109 548h-4l-119 -548l-151 815h68l85 -518h4l114 544h-38l112 163h70z" />
    <glyph glyph-name="Wdieresis" unicode="&#x1e84;" horiz-adv-x="602" 
d="M411 -36l-109 548h-4l-119 -548l-151 815h68l85 -518h4l116 554l110 -554h4l96 518h63zM379 829c-24 0 -38 14 -38 46c0 29 14 46 38 46c25 0 38 -17 38 -46c0 -32 -13 -46 -38 -46zM221 829c-24 0 -37 14 -37 46c0 29 13 46 37 46c26 0 38 -17 38 -46
c0 -32 -12 -46 -38 -46z" />
    <glyph glyph-name="Wdieresis" unicode="&#x1e85;" horiz-adv-x="602" 
d="M411 -36l-109 548h-4l-119 -548l-151 815h68l85 -518h4l116 554l110 -554h4l96 518h63zM379 829c-24 0 -38 14 -38 46c0 29 14 46 38 46c25 0 38 -17 38 -46c0 -32 -13 -46 -38 -46zM221 829c-24 0 -37 14 -37 46c0 29 13 46 37 46c26 0 38 -17 38 -46
c0 -32 -12 -46 -38 -46z" />
    <glyph glyph-name="uni1E92" unicode="&#x1e92;" horiz-adv-x="307" 
d="M264 0h-221l148 716h-148v63h221l-140 -719h140v-60zM152 -160c-24 0 -37 14 -37 46c0 29 13 46 37 46c26 0 39 -17 39 -46c0 -32 -13 -46 -39 -46z" />
    <glyph glyph-name="uni1E92" unicode="&#x1e93;" horiz-adv-x="307" 
d="M264 0h-221l148 716h-148v63h221l-140 -719h140v-60zM152 -160c-24 0 -37 14 -37 46c0 29 13 46 37 46c26 0 39 -17 39 -46c0 -32 -13 -46 -39 -46z" />
    <glyph glyph-name="uni1E9E" unicode="&#x1e9e;" horiz-adv-x="455" 
d="M324 716h-122c-54 0 -71 -66 -71 -200v-516h-65v513c0 166 33 266 136 266h212l-96 -236c57 -39 84 -105 84 -244c0 -191 -51 -309 -155 -309c-23 0 -44 6 -54 15v64c14 -11 32 -17 48 -17c65 0 97 98 97 245c0 140 -29 210 -93 210z" />
    <glyph glyph-name="uni1EA0" unicode="&#x1ea0;" horiz-adv-x="361" 
d="M269 0l-34 195h-111l-34 -195h-62l156 815l149 -815h-64zM178 505l-46 -262h95l-45 262h-4zM179 -160c-24 0 -37 14 -37 46c0 29 13 46 37 46c26 0 39 -17 39 -46c0 -32 -13 -46 -39 -46z" />
    <glyph glyph-name="uni1EA0" unicode="&#x1ea1;" horiz-adv-x="361" 
d="M269 0l-34 195h-111l-34 -195h-62l156 815l149 -815h-64zM178 505l-46 -262h95l-45 262h-4zM179 -160c-24 0 -37 14 -37 46c0 29 13 46 37 46c26 0 39 -17 39 -46c0 -32 -13 -46 -39 -46z" />
    <glyph glyph-name="uni1EA2" unicode="&#x1ea2;" horiz-adv-x="361" 
d="M204 801h-18l147 -801h-64l-34 195h-111l-34 -195h-62l153 801h-22c1 60 50 61 50 93c0 13 -8 21 -40 21c-23 0 -30 -4 -39 -10v53c10 6 30 10 53 10c59 0 89 -26 89 -62c0 -54 -67 -54 -68 -105zM178 505l-46 -262h95l-45 262h-4z" />
    <glyph glyph-name="uni1EA2" unicode="&#x1ea3;" horiz-adv-x="361" 
d="M204 801h-18l147 -801h-64l-34 195h-111l-34 -195h-62l153 801h-22c1 60 50 61 50 93c0 13 -8 21 -40 21c-23 0 -30 -4 -39 -10v53c10 6 30 10 53 10c59 0 89 -26 89 -62c0 -54 -67 -54 -68 -105zM178 505l-46 -262h95l-45 262h-4z" />
    <glyph glyph-name="uni1EA4" unicode="&#x1ea4;" horiz-adv-x="361" 
d="M317 848h-35l40 -43h-71l-66 72l-66 -72h-72l138 147l82 -88l73 104h70zM269 0l-34 195h-111l-34 -195h-62l156 815l149 -815h-64zM178 505l-46 -262h95l-45 262h-4z" />
    <glyph glyph-name="uni1EA4" unicode="&#x1ea5;" horiz-adv-x="361" 
d="M317 848h-35l40 -43h-71l-66 72l-66 -72h-72l138 147l82 -88l73 104h70zM269 0l-34 195h-111l-34 -195h-62l156 815l149 -815h-64zM178 505l-46 -262h95l-45 262h-4z" />
    <glyph glyph-name="uni1EA6" unicode="&#x1ea6;" horiz-adv-x="361" 
d="M252 805l-66 72l-66 -72h-71l40 43h-35l-93 120h70l74 -104l81 88l138 -147h-72zM269 0l-34 195h-111l-34 -195h-62l156 815l149 -815h-64zM178 505l-46 -262h95l-45 262h-4z" />
    <glyph glyph-name="uni1EA6" unicode="&#x1ea7;" horiz-adv-x="361" 
d="M252 805l-66 72l-66 -72h-71l40 43h-35l-93 120h70l74 -104l81 88l138 -147h-72zM269 0l-34 195h-111l-34 -195h-62l156 815l149 -815h-64zM178 505l-46 -262h95l-45 262h-4z" />
    <glyph glyph-name="uni1EA8" unicode="&#x1ea8;" horiz-adv-x="361" 
d="M251 805l-66 72l-66 -72h-71l137 147l108 -115c11 29 35 41 35 64c0 12 -6 19 -33 19c-19 0 -25 -3 -33 -9v48c9 6 25 9 45 9c49 0 74 -23 74 -56c0 -49 -56 -60 -57 -107h-73zM269 0l-34 195h-111l-34 -195h-62l156 815l149 -815h-64zM178 505l-46 -262h95l-45 262h-4z
" />
    <glyph glyph-name="uni1EA8" unicode="&#x1ea9;" horiz-adv-x="361" 
d="M251 805l-66 72l-66 -72h-71l137 147l108 -115c11 29 35 41 35 64c0 12 -6 19 -33 19c-19 0 -25 -3 -33 -9v48c9 6 25 9 45 9c49 0 74 -23 74 -56c0 -49 -56 -60 -57 -107h-73zM269 0l-34 195h-111l-34 -195h-62l156 815l149 -815h-64zM178 505l-46 -262h95l-45 262h-4z
" />
    <glyph glyph-name="uni1EAA" unicode="&#x1eaa;" horiz-adv-x="361" 
d="M311 965v-53c-17 -18 -40 -27 -69 -27l80 -80h-72l-66 72l-66 -72h-71l109 110c-11 3 -22 6 -34 6c-29 0 -48 -11 -65 -34v53c17 18 41 28 67 28c44 0 77 -37 123 -37c29 0 47 12 64 34zM269 0l-34 195h-111l-34 -195h-62l156 815l149 -815h-64zM178 505l-46 -262h95
l-45 262h-4z" />
    <glyph glyph-name="uni1EAA" unicode="&#x1eab;" horiz-adv-x="361" 
d="M311 965v-53c-17 -18 -40 -27 -69 -27l80 -80h-72l-66 72l-66 -72h-71l109 110c-11 3 -22 6 -34 6c-29 0 -48 -11 -65 -34v53c17 18 41 28 67 28c44 0 77 -37 123 -37c29 0 47 12 64 34zM269 0l-34 195h-111l-34 -195h-62l156 815l149 -815h-64zM178 505l-46 -262h95
l-45 262h-4z" />
    <glyph glyph-name="uni1EAC" unicode="&#x1eac;" horiz-adv-x="361" 
d="M269 0l-34 195h-111l-34 -195h-62l156 815l149 -815h-64zM178 505l-46 -262h95l-45 262h-4zM181 893l-81 -88h-72l153 163l152 -163h-72zM179 -160c-24 0 -37 14 -37 46c0 29 13 46 37 46c26 0 39 -17 39 -46c0 -32 -13 -46 -39 -46z" />
    <glyph glyph-name="uni1EAC" unicode="&#x1ead;" horiz-adv-x="361" 
d="M269 0l-34 195h-111l-34 -195h-62l156 815l149 -815h-64zM178 505l-46 -262h95l-45 262h-4zM181 893l-81 -88h-72l153 163l152 -163h-72zM179 -160c-24 0 -37 14 -37 46c0 29 13 46 37 46c26 0 39 -17 39 -46c0 -32 -13 -46 -39 -46z" />
    <glyph glyph-name="uni1EAE" unicode="&#x1eae;" horiz-adv-x="361" 
d="M266 920h59c-8 -78 -46 -124 -138 -125l146 -795h-64l-34 195h-111l-34 -195h-62l152 795c-92 1 -127 48 -137 125h61c9 -63 25 -84 81 -84c55 0 71 21 81 84zM178 505l-46 -262h95l-45 262h-4zM197 853h-57l76 115h70z" />
    <glyph glyph-name="uni1EAE" unicode="&#x1eaf;" horiz-adv-x="361" 
d="M266 920h59c-8 -78 -46 -124 -138 -125l146 -795h-64l-34 195h-111l-34 -195h-62l152 795c-92 1 -127 48 -137 125h61c9 -63 25 -84 81 -84c55 0 71 21 81 84zM178 505l-46 -262h95l-45 262h-4zM197 853h-57l76 115h70z" />
    <glyph glyph-name="uni1EB0" unicode="&#x1eb0;" horiz-adv-x="361" 
d="M43 920h59c10 -63 26 -84 81 -84c56 0 72 21 81 84h61c-10 -77 -46 -124 -138 -125l146 -795h-64l-34 195h-111l-34 -195h-62l152 795c-92 1 -129 48 -137 125zM178 505l-46 -262h95l-45 262h-4zM152 968l76 -115h-57l-89 115h70z" />
    <glyph glyph-name="uni1EB0" unicode="&#x1eb1;" horiz-adv-x="361" 
d="M43 920h59c10 -63 26 -84 81 -84c56 0 72 21 81 84h61c-10 -77 -46 -124 -138 -125l146 -795h-64l-34 195h-111l-34 -195h-62l152 795c-92 1 -129 48 -137 125zM178 505l-46 -262h95l-45 262h-4zM152 968l76 -115h-57l-89 115h70z" />
    <glyph glyph-name="uni1EB2" unicode="&#x1eb2;" horiz-adv-x="361" 
d="M43 920h59c8 -51 20 -74 52 -82c12 29 35 41 35 63c0 12 -6 19 -33 19c-19 0 -25 -3 -33 -9v48c9 6 25 9 45 9c49 0 74 -23 74 -56c0 -36 -30 -52 -47 -76c46 3 60 26 69 84h61c-10 -77 -46 -124 -138 -125l146 -795h-64l-34 195h-111l-34 -195h-62l152 795
c-92 1 -129 48 -137 125zM178 505l-46 -262h95l-45 262h-4z" />
    <glyph glyph-name="uni1EB2" unicode="&#x1eb3;" horiz-adv-x="361" 
d="M43 920h59c8 -51 20 -74 52 -82c12 29 35 41 35 63c0 12 -6 19 -33 19c-19 0 -25 -3 -33 -9v48c9 6 25 9 45 9c49 0 74 -23 74 -56c0 -36 -30 -52 -47 -76c46 3 60 26 69 84h61c-10 -77 -46 -124 -138 -125l146 -795h-64l-34 195h-111l-34 -195h-62l152 795
c-92 1 -129 48 -137 125zM178 505l-46 -262h95l-45 262h-4z" />
    <glyph glyph-name="uni1EB4" unicode="&#x1eb4;" horiz-adv-x="361" 
d="M310 965v-45h15c-10 -77 -46 -124 -138 -125l146 -795h-64l-34 195h-111l-34 -195h-62l152 795c-92 1 -129 48 -137 125h13v20c17 18 41 28 67 28c44 0 77 -37 123 -37c29 0 47 12 64 34zM178 505l-46 -262h95l-45 262h-4zM183 836c44 0 63 13 74 49h-13
c-44 0 -78 36 -123 36c-7 0 -13 -1 -19 -2c10 -62 26 -83 81 -83z" />
    <glyph glyph-name="uni1EB4" unicode="&#x1eb5;" horiz-adv-x="361" 
d="M310 965v-45h15c-10 -77 -46 -124 -138 -125l146 -795h-64l-34 195h-111l-34 -195h-62l152 795c-92 1 -129 48 -137 125h13v20c17 18 41 28 67 28c44 0 77 -37 123 -37c29 0 47 12 64 34zM178 505l-46 -262h95l-45 262h-4zM183 836c44 0 63 13 74 49h-13
c-44 0 -78 36 -123 36c-7 0 -13 -1 -19 -2c10 -62 26 -83 81 -83z" />
    <glyph glyph-name="uni1EB6" unicode="&#x1eb6;" horiz-adv-x="361" 
d="M266 968h59c-8 -102 -46 -163 -139 -163l147 -805h-64l-34 195h-111l-34 -195h-62l154 805c-93 1 -129 62 -139 163h61c9 -82 25 -127 81 -127c55 0 71 45 81 127zM178 505l-46 -262h95l-45 262h-4zM179 -160c-24 0 -37 14 -37 46c0 29 13 46 37 46c26 0 39 -17 39 -46
c0 -32 -13 -46 -39 -46z" />
    <glyph glyph-name="uni1EB6" unicode="&#x1eb7;" horiz-adv-x="361" 
d="M266 968h59c-8 -102 -46 -163 -139 -163l147 -805h-64l-34 195h-111l-34 -195h-62l154 805c-93 1 -129 62 -139 163h61c9 -82 25 -127 81 -127c55 0 71 45 81 127zM178 505l-46 -262h95l-45 262h-4zM179 -160c-24 0 -37 14 -37 46c0 29 13 46 37 46c26 0 39 -17 39 -46
c0 -32 -13 -46 -39 -46z" />
    <glyph glyph-name="uni1EB8" unicode="&#x1eb8;" horiz-adv-x="278" 
d="M239 0h-170v779h161v-63h-97v-473h95v-48h-95v-135h106v-60zM152 -160c-24 0 -37 14 -37 46c0 29 13 46 37 46c26 0 39 -17 39 -46c0 -32 -13 -46 -39 -46z" />
    <glyph glyph-name="uni1EB8" unicode="&#x1eb9;" horiz-adv-x="278" 
d="M239 0h-170v779h161v-63h-97v-473h95v-48h-95v-135h106v-60zM152 -160c-24 0 -37 14 -37 46c0 29 13 46 37 46c26 0 39 -17 39 -46c0 -32 -13 -46 -39 -46z" />
    <glyph glyph-name="uni1EBA" unicode="&#x1eba;" horiz-adv-x="278" 
d="M239 0h-170v779h161v-63h-97v-473h95v-48h-95v-135h106v-60zM164 801h-45c1 60 50 61 50 93c0 13 -8 21 -40 21c-23 0 -30 -4 -39 -10v53c10 6 30 10 53 10c59 0 89 -26 89 -62c0 -54 -67 -54 -68 -105z" />
    <glyph glyph-name="uni1EBA" unicode="&#x1ebb;" horiz-adv-x="278" 
d="M239 0h-170v779h161v-63h-97v-473h95v-48h-95v-135h106v-60zM164 801h-45c1 60 50 61 50 93c0 13 -8 21 -40 21c-23 0 -30 -4 -39 -10v53c10 6 30 10 53 10c59 0 89 -26 89 -62c0 -54 -67 -54 -68 -105z" />
    <glyph glyph-name="uni1EBC" unicode="&#x1ebc;" horiz-adv-x="278" 
d="M239 0h-170v779h161v-63h-97v-473h95v-48h-95v-135h106v-60zM286 920v-57c-18 -19 -43 -29 -71 -29c-48 0 -84 39 -133 39c-31 0 -51 -12 -70 -37v57c19 19 44 30 72 30c48 0 84 -39 133 -39c31 0 51 12 69 36z" />
    <glyph glyph-name="uni1EBC" unicode="&#x1ebd;" horiz-adv-x="278" 
d="M239 0h-170v779h161v-63h-97v-473h95v-48h-95v-135h106v-60zM286 920v-57c-18 -19 -43 -29 -71 -29c-48 0 -84 39 -133 39c-31 0 -51 -12 -70 -37v57c19 19 44 30 72 30c48 0 84 -39 133 -39c31 0 51 12 69 36z" />
    <glyph glyph-name="uni1EBE" unicode="&#x1ebe;" horiz-adv-x="278" 
d="M270 848h-35l40 -43h-71l-66 72l-66 -72h-72l138 147l82 -88l73 104h70zM239 0h-170v779h161v-63h-97v-473h95v-48h-95v-135h106v-60z" />
    <glyph glyph-name="uni1EBE" unicode="&#x1ebf;" horiz-adv-x="278" 
d="M270 848h-35l40 -43h-71l-66 72l-66 -72h-72l138 147l82 -88l73 104h70zM239 0h-170v779h161v-63h-97v-473h95v-48h-95v-135h106v-60z" />
    <glyph glyph-name="uni1EC0" unicode="&#x1ec0;" horiz-adv-x="278" 
d="M219 805l-66 72l-66 -72h-71l40 43h-35l-93 120h70l74 -104l81 88l138 -147h-72zM239 0h-170v779h161v-63h-97v-473h95v-48h-95v-135h106v-60z" />
    <glyph glyph-name="uni1EC0" unicode="&#x1ec1;" horiz-adv-x="278" 
d="M219 805l-66 72l-66 -72h-71l40 43h-35l-93 120h70l74 -104l81 88l138 -147h-72zM239 0h-170v779h161v-63h-97v-473h95v-48h-95v-135h106v-60z" />
    <glyph glyph-name="uni1EC2" unicode="&#x1ec2;" horiz-adv-x="278" 
d="M206 805l-66 72l-66 -72h-71l137 147l108 -115c11 29 35 41 35 64c0 12 -6 19 -33 19c-19 0 -25 -3 -33 -9v48c9 6 25 9 45 9c49 0 74 -23 74 -56c0 -49 -56 -60 -57 -107h-73zM239 0h-170v779h161v-63h-97v-473h95v-48h-95v-135h106v-60z" />
    <glyph glyph-name="uni1EC2" unicode="&#x1ec3;" horiz-adv-x="278" 
d="M206 805l-66 72l-66 -72h-71l137 147l108 -115c11 29 35 41 35 64c0 12 -6 19 -33 19c-19 0 -25 -3 -33 -9v48c9 6 25 9 45 9c49 0 74 -23 74 -56c0 -49 -56 -60 -57 -107h-73zM239 0h-170v779h161v-63h-97v-473h95v-48h-95v-135h106v-60z" />
    <glyph glyph-name="uni1EC4" unicode="&#x1ec4;" horiz-adv-x="278" 
d="M267 965v-53c-17 -18 -40 -27 -69 -27l80 -80h-72l-66 72l-66 -72h-71l109 110c-11 3 -22 6 -34 6c-29 0 -48 -11 -65 -34v53c17 18 41 28 67 28c44 0 77 -37 123 -37c29 0 47 12 64 34zM239 0h-170v779h161v-63h-97v-473h95v-48h-95v-135h106v-60z" />
    <glyph glyph-name="uni1EC4" unicode="&#x1ec5;" horiz-adv-x="278" 
d="M267 965v-53c-17 -18 -40 -27 -69 -27l80 -80h-72l-66 72l-66 -72h-71l109 110c-11 3 -22 6 -34 6c-29 0 -48 -11 -65 -34v53c17 18 41 28 67 28c44 0 77 -37 123 -37c29 0 47 12 64 34zM239 0h-170v779h161v-63h-97v-473h95v-48h-95v-135h106v-60z" />
    <glyph glyph-name="uni1EC6" unicode="&#x1ec6;" horiz-adv-x="278" 
d="M239 0h-170v779h161v-63h-97v-473h95v-48h-95v-135h106v-60zM151 893l-81 -88h-72l153 163l152 -163h-72zM152 -160c-24 0 -37 14 -37 46c0 29 13 46 37 46c26 0 39 -17 39 -46c0 -32 -13 -46 -39 -46z" />
    <glyph glyph-name="uni1EC6" unicode="&#x1ec7;" horiz-adv-x="278" 
d="M239 0h-170v779h161v-63h-97v-473h95v-48h-95v-135h106v-60zM151 893l-81 -88h-72l153 163l152 -163h-72zM152 -160c-24 0 -37 14 -37 46c0 29 13 46 37 46c26 0 39 -17 39 -46c0 -32 -13 -46 -39 -46z" />
    <glyph glyph-name="uni1EC8" unicode="&#x1ec8;" horiz-adv-x="202" 
d="M133 0h-64v779h64v-779zM122 801h-45c1 60 50 61 50 93c0 13 -8 21 -40 21c-23 0 -30 -4 -39 -10v53c10 6 30 10 53 10c59 0 89 -26 89 -62c0 -54 -67 -54 -68 -105z" />
    <glyph glyph-name="uni1EC8" unicode="&#x1ec9;" horiz-adv-x="202" 
d="M133 0h-64v779h64v-779zM122 801h-45c1 60 50 61 50 93c0 13 -8 21 -40 21c-23 0 -30 -4 -39 -10v53c10 6 30 10 53 10c59 0 89 -26 89 -62c0 -54 -67 -54 -68 -105z" />
    <glyph glyph-name="uni1ECA" unicode="&#x1eca;" horiz-adv-x="202" 
d="M133 0h-64v779h64v-779zM100 -160c-24 0 -37 14 -37 46c0 29 13 46 37 46c26 0 39 -17 39 -46c0 -32 -13 -46 -39 -46z" />
    <glyph glyph-name="uni1ECA" unicode="&#x1ecb;" horiz-adv-x="202" 
d="M133 0h-64v779h64v-779zM100 -160c-24 0 -37 14 -37 46c0 29 13 46 37 46c26 0 39 -17 39 -46c0 -32 -13 -46 -39 -46z" />
    <glyph glyph-name="uni1ECC" unicode="&#x1ecc;" 
d="M319 382c0 -282 -51 -393 -137 -393s-137 111 -137 393c0 281 51 407 137 407s137 -126 137 -407zM109 382c0 -209 24 -331 73 -331s73 122 73 331s-24 344 -73 344s-73 -135 -73 -344zM181 -160c-24 0 -37 14 -37 46c0 29 13 46 37 46c26 0 39 -17 39 -46
c0 -32 -13 -46 -39 -46z" />
    <glyph glyph-name="uni1ECC" unicode="&#x1ecd;" 
d="M319 382c0 -282 -51 -393 -137 -393s-137 111 -137 393c0 281 51 407 137 407s137 -126 137 -407zM109 382c0 -209 24 -331 73 -331s73 122 73 331s-24 344 -73 344s-73 -135 -73 -344zM181 -160c-24 0 -37 14 -37 46c0 29 13 46 37 46c26 0 39 -17 39 -46
c0 -32 -13 -46 -39 -46z" />
    <glyph glyph-name="uni1ECE" unicode="&#x1ece;" 
d="M319 382c0 -282 -51 -393 -137 -393s-137 111 -137 393c0 281 51 407 137 407s137 -126 137 -407zM109 382c0 -209 24 -331 73 -331s73 122 73 331s-24 344 -73 344s-73 -135 -73 -344zM205 801h-45c1 60 50 61 50 93c0 13 -8 21 -40 21c-23 0 -30 -4 -39 -10v53
c10 6 30 10 53 10c59 0 89 -26 89 -62c0 -54 -67 -54 -68 -105z" />
    <glyph glyph-name="uni1ECE" unicode="&#x1ecf;" 
d="M319 382c0 -282 -51 -393 -137 -393s-137 111 -137 393c0 281 51 407 137 407s137 -126 137 -407zM109 382c0 -209 24 -331 73 -331s73 122 73 331s-24 344 -73 344s-73 -135 -73 -344zM205 801h-45c1 60 50 61 50 93c0 13 -8 21 -40 21c-23 0 -30 -4 -39 -10v53
c10 6 30 10 53 10c59 0 89 -26 89 -62c0 -54 -67 -54 -68 -105z" />
    <glyph glyph-name="uni1ED0" unicode="&#x1ed0;" 
d="M314 848h-35l40 -43h-71l-66 72l-66 -72h-72l138 147l82 -88l73 104h70zM319 382c0 -282 -51 -393 -137 -393s-137 111 -137 393c0 281 51 407 137 407s137 -126 137 -407zM109 382c0 -209 24 -331 73 -331s73 122 73 331s-24 344 -73 344s-73 -135 -73 -344z" />
    <glyph glyph-name="uni1ED0" unicode="&#x1ed1;" 
d="M314 848h-35l40 -43h-71l-66 72l-66 -72h-72l138 147l82 -88l73 104h70zM319 382c0 -282 -51 -393 -137 -393s-137 111 -137 393c0 281 51 407 137 407s137 -126 137 -407zM109 382c0 -209 24 -331 73 -331s73 122 73 331s-24 344 -73 344s-73 -135 -73 -344z" />
    <glyph glyph-name="uni1ED2" unicode="&#x1ed2;" 
d="M259 805l-66 72l-66 -72h-71l40 43h-35l-93 120h70l74 -104l81 88l138 -147h-72zM319 382c0 -282 -51 -393 -137 -393s-137 111 -137 393c0 281 51 407 137 407s137 -126 137 -407zM109 382c0 -209 24 -331 73 -331s73 122 73 331s-24 344 -73 344s-73 -135 -73 -344z
" />
    <glyph glyph-name="uni1ED2" unicode="&#x1ed3;" 
d="M259 805l-66 72l-66 -72h-71l40 43h-35l-93 120h70l74 -104l81 88l138 -147h-72zM319 382c0 -282 -51 -393 -137 -393s-137 111 -137 393c0 281 51 407 137 407s137 -126 137 -407zM109 382c0 -209 24 -331 73 -331s73 122 73 331s-24 344 -73 344s-73 -135 -73 -344z
" />
    <glyph glyph-name="uni1ED4" unicode="&#x1ed4;" 
d="M256 805l-66 72l-66 -72h-71l137 147l108 -115c11 29 35 41 35 64c0 12 -6 19 -33 19c-19 0 -25 -3 -33 -9v48c9 6 25 9 45 9c49 0 74 -23 74 -56c0 -49 -56 -60 -57 -107h-73zM319 382c0 -282 -51 -393 -137 -393s-137 111 -137 393c0 281 51 407 137 407
s137 -126 137 -407zM109 382c0 -209 24 -331 73 -331s73 122 73 331s-24 344 -73 344s-73 -135 -73 -344z" />
    <glyph glyph-name="uni1ED4" unicode="&#x1ed5;" 
d="M256 805l-66 72l-66 -72h-71l137 147l108 -115c11 29 35 41 35 64c0 12 -6 19 -33 19c-19 0 -25 -3 -33 -9v48c9 6 25 9 45 9c49 0 74 -23 74 -56c0 -49 -56 -60 -57 -107h-73zM319 382c0 -282 -51 -393 -137 -393s-137 111 -137 393c0 281 51 407 137 407
s137 -126 137 -407zM109 382c0 -209 24 -331 73 -331s73 122 73 331s-24 344 -73 344s-73 -135 -73 -344z" />
    <glyph glyph-name="uni1ED6" unicode="&#x1ed6;" 
d="M308 965v-53c-17 -18 -40 -27 -69 -27l80 -80h-72l-66 72l-66 -72h-71l109 110c-11 3 -22 6 -34 6c-29 0 -48 -11 -65 -34v53c17 18 41 28 67 28c44 0 77 -37 123 -37c29 0 47 12 64 34zM319 382c0 -282 -51 -393 -137 -393s-137 111 -137 393c0 281 51 407 137 407
s137 -126 137 -407zM109 382c0 -209 24 -331 73 -331s73 122 73 331s-24 344 -73 344s-73 -135 -73 -344z" />
    <glyph glyph-name="uni1ED6" unicode="&#x1ed7;" 
d="M308 965v-53c-17 -18 -40 -27 -69 -27l80 -80h-72l-66 72l-66 -72h-71l109 110c-11 3 -22 6 -34 6c-29 0 -48 -11 -65 -34v53c17 18 41 28 67 28c44 0 77 -37 123 -37c29 0 47 12 64 34zM319 382c0 -282 -51 -393 -137 -393s-137 111 -137 393c0 281 51 407 137 407
s137 -126 137 -407zM109 382c0 -209 24 -331 73 -331s73 122 73 331s-24 344 -73 344s-73 -135 -73 -344z" />
    <glyph glyph-name="uni1ED8" unicode="&#x1ed8;" 
d="M319 382c0 -282 -51 -393 -137 -393s-137 111 -137 393c0 281 51 407 137 407s137 -126 137 -407zM109 382c0 -209 24 -331 73 -331s73 122 73 331s-24 344 -73 344s-73 -135 -73 -344zM183 893l-81 -88h-72l153 163l152 -163h-72zM181 -160c-24 0 -37 14 -37 46
c0 29 13 46 37 46c26 0 39 -17 39 -46c0 -32 -13 -46 -39 -46z" />
    <glyph glyph-name="uni1ED8" unicode="&#x1ed9;" 
d="M319 382c0 -282 -51 -393 -137 -393s-137 111 -137 393c0 281 51 407 137 407s137 -126 137 -407zM109 382c0 -209 24 -331 73 -331s73 122 73 331s-24 344 -73 344s-73 -135 -73 -344zM183 893l-81 -88h-72l153 163l152 -163h-72zM181 -160c-24 0 -37 14 -37 46
c0 29 13 46 37 46c26 0 39 -17 39 -46c0 -32 -13 -46 -39 -46z" />
    <glyph glyph-name="uni1EDA" unicode="&#x1eda;" 
d="M301 889h64c5 -8 9 -29 9 -47c0 -50 -29 -84 -104 -84h-24c46 -53 73 -175 73 -376c0 -282 -51 -393 -137 -393s-137 111 -137 393c0 281 51 407 137 407c14 0 27 -4 39 -10h44c33 0 45 18 45 58c0 20 -3 40 -9 52zM109 382c0 -209 24 -331 73 -331s73 122 73 331
s-24 344 -73 344s-73 -135 -73 -344zM186 805h-65l112 163h70z" />
    <glyph glyph-name="uni1EDA" unicode="&#x1edb;" 
d="M301 889h64c5 -8 9 -29 9 -47c0 -50 -29 -84 -104 -84h-24c46 -53 73 -175 73 -376c0 -282 -51 -393 -137 -393s-137 111 -137 393c0 281 51 407 137 407c14 0 27 -4 39 -10h44c33 0 45 18 45 58c0 20 -3 40 -9 52zM109 382c0 -209 24 -331 73 -331s73 122 73 331
s-24 344 -73 344s-73 -135 -73 -344zM186 805h-65l112 163h70z" />
    <glyph glyph-name="uni1EDC" unicode="&#x1edc;" 
d="M301 889h64c5 -8 9 -29 9 -47c0 -50 -29 -84 -104 -84h-24c46 -53 73 -175 73 -376c0 -282 -51 -393 -137 -393s-137 111 -137 393c0 281 51 407 137 407c14 0 27 -4 39 -10h44c33 0 45 18 45 58c0 20 -3 40 -9 52zM109 382c0 -209 24 -331 73 -331s73 122 73 331
s-24 344 -73 344s-73 -135 -73 -344zM243 805h-65l-117 163h70z" />
    <glyph glyph-name="uni1EDC" unicode="&#x1edd;" 
d="M301 889h64c5 -8 9 -29 9 -47c0 -50 -29 -84 -104 -84h-24c46 -53 73 -175 73 -376c0 -282 -51 -393 -137 -393s-137 111 -137 393c0 281 51 407 137 407c14 0 27 -4 39 -10h44c33 0 45 18 45 58c0 20 -3 40 -9 52zM109 382c0 -209 24 -331 73 -331s73 122 73 331
s-24 344 -73 344s-73 -135 -73 -344zM243 805h-65l-117 163h70z" />
    <glyph glyph-name="uni1EDE" unicode="&#x1ede;" 
d="M301 889h64c5 -8 9 -29 9 -47c0 -50 -29 -84 -104 -84h-24c46 -53 73 -175 73 -376c0 -282 -51 -393 -137 -393s-137 111 -137 393c0 281 51 407 137 407c14 0 27 -4 39 -10h44c33 0 45 18 45 58c0 20 -3 40 -9 52zM109 382c0 -209 24 -331 73 -331s73 122 73 331
s-24 344 -73 344s-73 -135 -73 -344zM202 801h-45c1 60 50 61 50 93c0 13 -8 21 -40 21c-23 0 -30 -4 -39 -10v53c10 6 30 10 53 10c59 0 89 -26 89 -62c0 -54 -67 -54 -68 -105z" />
    <glyph glyph-name="uni1EDE" unicode="&#x1edf;" 
d="M301 889h64c5 -8 9 -29 9 -47c0 -50 -29 -84 -104 -84h-24c46 -53 73 -175 73 -376c0 -282 -51 -393 -137 -393s-137 111 -137 393c0 281 51 407 137 407c14 0 27 -4 39 -10h44c33 0 45 18 45 58c0 20 -3 40 -9 52zM109 382c0 -209 24 -331 73 -331s73 122 73 331
s-24 344 -73 344s-73 -135 -73 -344zM202 801h-45c1 60 50 61 50 93c0 13 -8 21 -40 21c-23 0 -30 -4 -39 -10v53c10 6 30 10 53 10c59 0 89 -26 89 -62c0 -54 -67 -54 -68 -105z" />
    <glyph glyph-name="uni1EE0" unicode="&#x1ee0;" 
d="M319 920v-31h46c5 -8 9 -29 9 -47c0 -50 -29 -84 -104 -84h-24c46 -53 73 -175 73 -376c0 -282 -51 -393 -137 -393s-137 111 -137 393c0 281 51 407 137 407c14 0 27 -4 39 -10h44c33 0 45 18 45 58c0 5 0 11 -1 17c-17 -14 -38 -20 -61 -20c-48 0 -84 39 -133 39
c-31 0 -51 -12 -70 -37v57c19 19 44 30 72 30c48 0 84 -39 133 -39c31 0 51 12 69 36zM109 382c0 -209 24 -331 73 -331s73 122 73 331s-24 344 -73 344s-73 -135 -73 -344z" />
    <glyph glyph-name="uni1EE0" unicode="&#x1ee1;" 
d="M319 920v-31h46c5 -8 9 -29 9 -47c0 -50 -29 -84 -104 -84h-24c46 -53 73 -175 73 -376c0 -282 -51 -393 -137 -393s-137 111 -137 393c0 281 51 407 137 407c14 0 27 -4 39 -10h44c33 0 45 18 45 58c0 5 0 11 -1 17c-17 -14 -38 -20 -61 -20c-48 0 -84 39 -133 39
c-31 0 -51 -12 -70 -37v57c19 19 44 30 72 30c48 0 84 -39 133 -39c31 0 51 12 69 36zM109 382c0 -209 24 -331 73 -331s73 122 73 331s-24 344 -73 344s-73 -135 -73 -344z" />
    <glyph glyph-name="uni1EE2" unicode="&#x1ee2;" 
d="M301 889h64c5 -8 9 -29 9 -47c0 -50 -29 -84 -104 -84h-24c46 -53 73 -175 73 -376c0 -282 -51 -393 -137 -393s-137 111 -137 393c0 281 51 407 137 407c14 0 27 -4 39 -10h44c33 0 45 18 45 58c0 20 -3 40 -9 52zM109 382c0 -209 24 -331 73 -331s73 122 73 331
s-24 344 -73 344s-73 -135 -73 -344zM181 -160c-24 0 -37 14 -37 46c0 29 13 46 37 46c26 0 39 -17 39 -46c0 -32 -13 -46 -39 -46z" />
    <glyph glyph-name="uni1EE2" unicode="&#x1ee3;" 
d="M301 889h64c5 -8 9 -29 9 -47c0 -50 -29 -84 -104 -84h-24c46 -53 73 -175 73 -376c0 -282 -51 -393 -137 -393s-137 111 -137 393c0 281 51 407 137 407c14 0 27 -4 39 -10h44c33 0 45 18 45 58c0 20 -3 40 -9 52zM109 382c0 -209 24 -331 73 -331s73 122 73 331
s-24 344 -73 344s-73 -135 -73 -344zM181 -160c-24 0 -37 14 -37 46c0 29 13 46 37 46c26 0 39 -17 39 -46c0 -32 -13 -46 -39 -46z" />
    <glyph glyph-name="uni1EE4" unicode="&#x1ee4;" horiz-adv-x="404" 
d="M202 -10c-102 0 -136 100 -136 266v523h65v-526c0 -134 18 -199 71 -199c54 0 71 65 71 199v526h65v-523c0 -166 -33 -266 -136 -266zM201 -160c-24 0 -37 14 -37 46c0 29 13 46 37 46c26 0 39 -17 39 -46c0 -32 -13 -46 -39 -46z" />
    <glyph glyph-name="uni1EE4" unicode="&#x1ee5;" horiz-adv-x="404" 
d="M202 -10c-102 0 -136 100 -136 266v523h65v-526c0 -134 18 -199 71 -199c54 0 71 65 71 199v526h65v-523c0 -166 -33 -266 -136 -266zM201 -160c-24 0 -37 14 -37 46c0 29 13 46 37 46c26 0 39 -17 39 -46c0 -32 -13 -46 -39 -46z" />
    <glyph glyph-name="uni1EE6" unicode="&#x1ee6;" horiz-adv-x="404" 
d="M202 -10c-102 0 -136 100 -136 266v523h65v-526c0 -134 18 -199 71 -199c54 0 71 65 71 199v526h65v-523c0 -166 -33 -266 -136 -266zM220 801h-45c1 60 50 61 50 93c0 13 -8 21 -40 21c-23 0 -30 -4 -39 -10v53c10 6 30 10 53 10c59 0 89 -26 89 -62
c0 -54 -67 -54 -68 -105z" />
    <glyph glyph-name="uni1EE6" unicode="&#x1ee7;" horiz-adv-x="404" 
d="M202 -10c-102 0 -136 100 -136 266v523h65v-526c0 -134 18 -199 71 -199c54 0 71 65 71 199v526h65v-523c0 -166 -33 -266 -136 -266zM220 801h-45c1 60 50 61 50 93c0 13 -8 21 -40 21c-23 0 -30 -4 -39 -10v53c10 6 30 10 53 10c59 0 89 -26 89 -62
c0 -54 -67 -54 -68 -105z" />
    <glyph glyph-name="uni1EE8" unicode="&#x1ee8;" horiz-adv-x="404" 
d="M341 889h64c5 -8 9 -29 9 -47c0 -45 -23 -77 -76 -83v-503c0 -166 -33 -266 -136 -266c-102 0 -136 100 -136 266v523h65v-526c0 -134 18 -199 71 -199c54 0 71 65 71 199v526h38c27 0 39 18 39 58c0 20 -3 40 -9 52zM206 805h-65l112 163h70z" />
    <glyph glyph-name="uni1EE8" unicode="&#x1ee9;" horiz-adv-x="404" 
d="M341 889h64c5 -8 9 -29 9 -47c0 -45 -23 -77 -76 -83v-503c0 -166 -33 -266 -136 -266c-102 0 -136 100 -136 266v523h65v-526c0 -134 18 -199 71 -199c54 0 71 65 71 199v526h38c27 0 39 18 39 58c0 20 -3 40 -9 52zM206 805h-65l112 163h70z" />
    <glyph glyph-name="uni1EEA" unicode="&#x1eea;" horiz-adv-x="404" 
d="M341 889h64c5 -8 9 -29 9 -47c0 -45 -23 -77 -76 -83v-503c0 -166 -33 -266 -136 -266c-102 0 -136 100 -136 266v523h65v-526c0 -134 18 -199 71 -199c54 0 71 65 71 199v526h38c27 0 39 18 39 58c0 20 -3 40 -9 52zM263 805h-65l-117 163h70z" />
    <glyph glyph-name="uni1EEA" unicode="&#x1eeb;" horiz-adv-x="404" 
d="M341 889h64c5 -8 9 -29 9 -47c0 -45 -23 -77 -76 -83v-503c0 -166 -33 -266 -136 -266c-102 0 -136 100 -136 266v523h65v-526c0 -134 18 -199 71 -199c54 0 71 65 71 199v526h38c27 0 39 18 39 58c0 20 -3 40 -9 52zM263 805h-65l-117 163h70z" />
    <glyph glyph-name="uni1EEC" unicode="&#x1eec;" horiz-adv-x="404" 
d="M341 889h64c5 -8 9 -29 9 -47c0 -45 -23 -77 -76 -83v-503c0 -166 -33 -266 -136 -266c-102 0 -136 100 -136 266v523h65v-526c0 -134 18 -199 71 -199c54 0 71 65 71 199v526h38c27 0 39 18 39 58c0 20 -3 40 -9 52zM227 801h-45c1 60 50 61 50 93c0 13 -8 21 -40 21
c-23 0 -30 -4 -39 -10v53c10 6 30 10 53 10c59 0 89 -26 89 -62c0 -54 -67 -54 -68 -105z" />
    <glyph glyph-name="uni1EEC" unicode="&#x1eed;" horiz-adv-x="404" 
d="M341 889h64c5 -8 9 -29 9 -47c0 -45 -23 -77 -76 -83v-503c0 -166 -33 -266 -136 -266c-102 0 -136 100 -136 266v523h65v-526c0 -134 18 -199 71 -199c54 0 71 65 71 199v526h38c27 0 39 18 39 58c0 20 -3 40 -9 52zM227 801h-45c1 60 50 61 50 93c0 13 -8 21 -40 21
c-23 0 -30 -4 -39 -10v53c10 6 30 10 53 10c59 0 89 -26 89 -62c0 -54 -67 -54 -68 -105z" />
    <glyph glyph-name="uni1EEE" unicode="&#x1eee;" horiz-adv-x="404" 
d="M341 889h64c5 -8 9 -29 9 -47c0 -45 -23 -77 -76 -83v-503c0 -166 -33 -266 -136 -266c-102 0 -136 100 -136 266v523h65v-526c0 -134 18 -199 71 -199c54 0 71 65 71 199v526h38c27 0 39 18 39 58c0 20 -3 40 -9 52zM339 920v-57c-18 -19 -43 -29 -71 -29
c-48 0 -84 39 -133 39c-31 0 -51 -12 -70 -37v57c19 19 44 30 72 30c48 0 84 -39 133 -39c31 0 51 12 69 36z" />
    <glyph glyph-name="uni1EEE" unicode="&#x1eef;" horiz-adv-x="404" 
d="M341 889h64c5 -8 9 -29 9 -47c0 -45 -23 -77 -76 -83v-503c0 -166 -33 -266 -136 -266c-102 0 -136 100 -136 266v523h65v-526c0 -134 18 -199 71 -199c54 0 71 65 71 199v526h38c27 0 39 18 39 58c0 20 -3 40 -9 52zM339 920v-57c-18 -19 -43 -29 -71 -29
c-48 0 -84 39 -133 39c-31 0 -51 -12 -70 -37v57c19 19 44 30 72 30c48 0 84 -39 133 -39c31 0 51 12 69 36z" />
    <glyph glyph-name="uni1EF0" unicode="&#x1ef0;" horiz-adv-x="404" 
d="M341 889h64c5 -8 9 -29 9 -47c0 -45 -23 -77 -76 -83v-503c0 -166 -33 -266 -136 -266c-102 0 -136 100 -136 266v523h65v-526c0 -134 18 -199 71 -199c54 0 71 65 71 199v526h38c27 0 39 18 39 58c0 20 -3 40 -9 52zM201 -160c-24 0 -37 14 -37 46c0 29 13 46 37 46
c26 0 39 -17 39 -46c0 -32 -13 -46 -39 -46z" />
    <glyph glyph-name="uni1EF0" unicode="&#x1ef1;" horiz-adv-x="404" 
d="M341 889h64c5 -8 9 -29 9 -47c0 -45 -23 -77 -76 -83v-503c0 -166 -33 -266 -136 -266c-102 0 -136 100 -136 266v523h65v-526c0 -134 18 -199 71 -199c54 0 71 65 71 199v526h38c27 0 39 18 39 58c0 20 -3 40 -9 52zM201 -160c-24 0 -37 14 -37 46c0 29 13 46 37 46
c26 0 39 -17 39 -46c0 -32 -13 -46 -39 -46z" />
    <glyph glyph-name="Ygrave" unicode="&#x1ef2;" horiz-adv-x="374" 
d="M220 0h-64v345l-132 434h65l100 -346h4l99 346h58l-130 -434v-345zM248 805h-65l-117 163h70z" />
    <glyph glyph-name="Ygrave" unicode="&#x1ef3;" horiz-adv-x="374" 
d="M220 0h-64v345l-132 434h65l100 -346h4l99 346h58l-130 -434v-345zM248 805h-65l-117 163h70z" />
    <glyph glyph-name="uni1EF6" unicode="&#x1ef6;" horiz-adv-x="374" 
d="M220 0h-64v345l-132 434h65l100 -346h4l99 346h58l-130 -434v-345zM208 801h-45c1 60 50 61 50 93c0 13 -8 21 -40 21c-23 0 -30 -4 -39 -10v53c10 6 30 10 53 10c59 0 89 -26 89 -62c0 -54 -67 -54 -68 -105z" />
    <glyph glyph-name="uni1EF6" unicode="&#x1ef7;" horiz-adv-x="374" 
d="M220 0h-64v345l-132 434h65l100 -346h4l99 346h58l-130 -434v-345zM208 801h-45c1 60 50 61 50 93c0 13 -8 21 -40 21c-23 0 -30 -4 -39 -10v53c10 6 30 10 53 10c59 0 89 -26 89 -62c0 -54 -67 -54 -68 -105z" />
    <glyph glyph-name="zerospace" unicode="&#x200b;" horiz-adv-x="0" 
 />
    <glyph glyph-name="endash" unicode="&#x2013;" horiz-adv-x="312" 
d="M295 195h-279v48h279v-48z" />
    <glyph glyph-name="emdash" unicode="&#x2014;" horiz-adv-x="467" 
d="M468 195h-468v48h468v-48z" />
    <glyph glyph-name="quoteleft" unicode="&#x2018;" horiz-adv-x="137" 
d="M67 699c30 0 45 -16 45 -51s-15 -53 -43 -53c-29 0 -44 18 -44 53c0 41 25 118 46 153h41c-13 -16 -29 -54 -45 -102z" />
    <glyph glyph-name="quoteright" unicode="&#x2019;" horiz-adv-x="137" 
d="M70 687c-30 0 -45 16 -45 52c0 34 15 52 43 52c29 0 44 -18 44 -52c0 -42 -25 -119 -46 -154h-41c13 17 29 54 45 102z" />
    <glyph glyph-name="quotesinglbase" unicode="&#x201a;" horiz-adv-x="137" 
d="M70 -9c-30 0 -45 15 -45 51c0 34 15 52 43 52c29 0 44 -18 44 -52c0 -42 -25 -118 -46 -154h-41c13 17 29 54 45 103z" />
    <glyph glyph-name="quotedblleft" unicode="&#x201c;" horiz-adv-x="254" 
d="M67 699c30 0 45 -16 45 -51s-15 -53 -43 -53c-29 0 -44 18 -44 53c0 41 25 118 46 153h41c-13 -16 -29 -54 -45 -102zM184 699c30 0 45 -16 45 -51s-15 -53 -43 -53c-29 0 -44 18 -44 53c0 41 25 118 46 153h41c-13 -16 -29 -54 -45 -102z" />
    <glyph glyph-name="quotedblright" unicode="&#x201d;" horiz-adv-x="254" 
d="M70 687c-30 0 -45 16 -45 52c0 34 15 52 43 52c29 0 44 -18 44 -52c0 -42 -25 -119 -46 -154h-41c13 17 29 54 45 102zM187 687c-30 0 -45 16 -45 52c0 34 15 52 43 52c29 0 44 -18 44 -52c0 -42 -25 -119 -46 -154h-41c13 17 29 54 45 102z" />
    <glyph glyph-name="quotedblbase" unicode="&#x201e;" horiz-adv-x="254" 
d="M70 -9c-30 0 -45 15 -45 51c0 34 15 52 43 52c29 0 44 -18 44 -52c0 -42 -25 -118 -46 -154h-41c13 17 29 54 45 103zM187 -9c-30 0 -45 15 -45 51c0 34 15 52 43 52c29 0 44 -18 44 -52c0 -42 -25 -118 -46 -154h-41c13 17 29 54 45 103z" />
    <glyph glyph-name="dagger" unicode="&#x2020;" horiz-adv-x="328" 
d="M287 599h-96v-74c0 -203 -15 -376 -27 -537c-14 162 -28 333 -28 537v74h-96v28l96 16v136h55v-136l96 -16v-28z" />
    <glyph glyph-name="daggerdbl" unicode="&#x2021;" horiz-adv-x="328" 
d="M191 0h-55v132l-96 18v27h96v53c0 58 6 110 12 159c-6 49 -12 102 -12 160v53h-96v27l96 18v132h55v-132l96 -18v-27h-96v-53c0 -58 -5 -111 -13 -160c8 -49 13 -101 13 -159v-53h96v-27l-96 -18v-132z" />
    <glyph glyph-name="bullet" unicode="&#x2022;" horiz-adv-x="302" 
d="M262 373c0 -62 -50 -109 -111 -109c-64 0 -111 47 -111 109c0 67 47 111 111 111c61 0 111 -44 111 -111z" />
    <glyph glyph-name="ellipsis" unicode="&#x2026;" horiz-adv-x="514" 
d="M82 -9c-28 0 -43 15 -43 51c0 34 15 52 43 52c29 0 44 -18 44 -52c0 -36 -15 -51 -44 -51zM256 -9c-28 0 -43 15 -43 51c0 34 15 52 43 52c29 0 44 -18 44 -52c0 -36 -15 -51 -44 -51zM430 -9c-28 0 -43 15 -43 51c0 34 15 52 43 52c29 0 44 -18 44 -52
c0 -36 -15 -51 -44 -51z" />
    <glyph glyph-name="perthousand" unicode="&#x2030;" horiz-adv-x="675" 
d="M194 562c0 -118 -23 -217 -75 -217s-74 100 -74 217s22 224 74 224s75 -107 75 -224zM89 562c0 -79 5 -181 30 -181s30 102 30 181c0 78 -4 188 -30 188s-30 -110 -30 -188zM109 0h-50l330 779h49zM461 211c0 -118 -23 -217 -75 -217s-74 100 -74 217s22 224 74 224
s75 -107 75 -224zM356 211c0 -79 5 -181 30 -181s30 102 30 181c0 78 -4 188 -30 188s-30 -110 -30 -188zM630 211c0 -118 -23 -217 -75 -217s-74 100 -74 217s22 224 74 224s75 -107 75 -224zM525 211c0 -79 5 -181 30 -181s30 102 30 181c0 78 -4 188 -30 188
s-30 -110 -30 -188z" />
    <glyph glyph-name="uni2032" unicode="&#x2032;" horiz-adv-x="130" 
d="M44 521h-44l123 258h67z" />
    <glyph glyph-name="uni2033" unicode="&#x2033;" horiz-adv-x="260" 
d="M44 521h-44l123 258h67zM174 521h-44l123 258h67z" />
    <glyph glyph-name="guilsinglleft" unicode="&#x2039;" horiz-adv-x="151" 
d="M72 437h62l-56 -218l56 -219h-62l-56 219z" />
    <glyph glyph-name="guilsinglright" unicode="&#x203a;" horiz-adv-x="151" 
d="M16 437h61l57 -218l-57 -219h-61l55 219z" />
    <glyph glyph-name="fraction" unicode="&#x2044;" horiz-adv-x="158" 
d="M-60 0h-50l330 779h49z" />
    <glyph glyph-name="zerosuperior" unicode="&#x2070;" horiz-adv-x="219" 
d="M184 562c0 -118 -23 -217 -75 -217s-74 100 -74 217s22 224 74 224s75 -107 75 -224zM79 562c0 -79 5 -181 30 -181s30 102 30 181c0 78 -4 188 -30 188s-30 -110 -30 -188z" />
    <glyph glyph-name="foursuperior" unicode="&#x2074;" horiz-adv-x="223" 
d="M174 351h-45v107h-108l153 328v-301h15v-27h-15v-107zM129 485v118l-52 -118h52z" />
    <glyph glyph-name="fivesuperior" unicode="&#x2075;" horiz-adv-x="202" 
d="M123 517c0 80 -21 117 -72 117c-4 0 -7 0 -10 -1l5 146h111v-34h-68l-3 -85c65 -9 82 -67 82 -143c0 -105 -27 -169 -89 -172c-21 0 -30 4 -35 9v35c6 -5 14 -9 28 -9c34 0 51 53 51 137z" />
    <glyph glyph-name="sixsuperior" unicode="&#x2076;" horiz-adv-x="229" 
d="M195 491c0 -104 -28 -146 -80 -146s-80 42 -80 173c0 159 11 268 93 268c17 0 26 -4 32 -9v-35c-6 5 -15 9 -29 9c-24 0 -43 -46 -50 -124c9 8 21 15 40 15c46 0 74 -46 74 -151zM80 491c0 -66 10 -111 35 -111c24 0 35 45 35 111c0 67 -11 116 -35 116
c-25 0 -35 -49 -35 -116z" />
    <glyph glyph-name="sevensuperior" unicode="&#x2077;" horiz-adv-x="176" 
d="M88 351h-47l61 394h-81v34h130z" />
    <glyph glyph-name="eightsuperior" unicode="&#x2078;" horiz-adv-x="237" 
d="M205 619c0 -115 -22 -147 -50 -160v-3c22 -4 43 -26 43 -51c0 -38 -30 -60 -79 -60c-50 0 -80 22 -80 60c0 25 21 47 44 51v3c-30 13 -50 45 -50 160c0 48 10 168 85 168c74 0 87 -104 87 -168zM77 619c0 -109 18 -144 41 -148c23 4 42 38 42 148c0 78 -18 130 -42 130
s-41 -52 -41 -130zM83 411c0 -18 12 -32 35 -32s36 14 36 32s-19 31 -36 33c-16 -2 -35 -15 -35 -33z" />
    <glyph glyph-name="ninesuperior" unicode="&#x2079;" horiz-adv-x="227" 
d="M126 351h-53c41 50 65 102 72 151c-9 -8 -21 -14 -40 -14c-45 0 -74 47 -74 151c0 105 29 147 81 147s80 -42 80 -174c0 -117 -24 -208 -66 -261zM147 639c0 66 -11 111 -35 111c-25 0 -35 -45 -35 -111c0 -67 10 -116 35 -116c24 0 35 49 35 116z" />
    <glyph glyph-name="zeroinferior" unicode="&#x2080;" horiz-adv-x="219" 
d="M184 211c0 -118 -23 -217 -75 -217s-74 100 -74 217s22 224 74 224s75 -107 75 -224zM79 211c0 -79 5 -181 30 -181s30 102 30 181c0 78 -4 188 -30 188s-30 -110 -30 -188z" />
    <glyph glyph-name="oneinferior" unicode="&#x2081;" horiz-adv-x="141" 
d="M93 0h-45v377l45 58v-435z" />
    <glyph glyph-name="twoinferior" unicode="&#x2082;" horiz-adv-x="216" 
d="M179 0h-137v63c0 117 96 174 96 266c0 46 -15 71 -42 71c-15 0 -23 -3 -30 -9v35c5 3 13 9 34 9c54 0 82 -40 82 -102c0 -117 -95 -155 -95 -271v-29h92v-33z" />
    <glyph glyph-name="threeinferior" unicode="&#x2083;" horiz-adv-x="208" 
d="M72 279l44 115h-72v34h131l-53 -129c32 -21 46 -62 46 -129c0 -111 -28 -176 -92 -176c-18 0 -26 4 -32 9v35c6 -5 14 -9 28 -9c34 0 51 53 51 141c0 70 -17 109 -51 109z" />
    <glyph glyph-name="fourinferior" unicode="&#x2084;" horiz-adv-x="223" 
d="M174 0h-45v107h-108l153 328v-301h15v-27h-15v-107zM129 134v118l-52 -118h52z" />
    <glyph glyph-name="fiveinferior" unicode="&#x2085;" horiz-adv-x="202" 
d="M123 166c0 80 -21 117 -72 117c-4 0 -7 0 -10 -1l5 146h111v-34h-68l-3 -85c65 -9 82 -67 82 -143c0 -105 -27 -169 -89 -172c-21 0 -30 4 -35 9v35c6 -5 14 -9 28 -9c34 0 51 53 51 137z" />
    <glyph glyph-name="sixinferior" unicode="&#x2086;" horiz-adv-x="229" 
d="M195 140c0 -104 -28 -146 -80 -146s-80 42 -80 173c0 159 11 268 93 268c17 0 26 -4 32 -9v-35c-6 5 -15 9 -29 9c-24 0 -43 -46 -50 -124c9 8 21 15 40 15c46 0 74 -46 74 -151zM80 140c0 -66 10 -111 35 -111c24 0 35 45 35 111c0 67 -11 116 -35 116
c-25 0 -35 -49 -35 -116z" />
    <glyph glyph-name="seveninferior" unicode="&#x2087;" horiz-adv-x="176" 
d="M88 0h-47l61 394h-81v34h130z" />
    <glyph glyph-name="eightinferior" unicode="&#x2088;" horiz-adv-x="237" 
d="M205 268c0 -115 -22 -147 -50 -160v-3c22 -4 43 -26 43 -51c0 -38 -30 -60 -79 -60c-50 0 -80 22 -80 60c0 25 21 47 44 51v3c-30 13 -50 45 -50 160c0 48 10 168 85 168c74 0 87 -104 87 -168zM77 268c0 -109 18 -144 41 -148c23 4 42 38 42 148c0 78 -18 130 -42 130
s-41 -52 -41 -130zM83 60c0 -18 12 -32 35 -32s36 14 36 32s-19 31 -36 33c-16 -2 -35 -15 -35 -33z" />
    <glyph glyph-name="nineinferior" unicode="&#x2089;" horiz-adv-x="227" 
d="M126 0h-53c41 50 65 102 72 151c-9 -8 -21 -14 -40 -14c-45 0 -74 47 -74 151c0 105 29 147 81 147s80 -42 80 -174c0 -117 -24 -208 -66 -261zM147 288c0 66 -11 111 -35 111c-25 0 -35 -45 -35 -111c0 -67 10 -116 35 -116c24 0 35 49 35 116z" />
    <glyph glyph-name="uni20A9" unicode="&#x20a9;" horiz-adv-x="602" 
d="M411 -36l-70 350h-86l-76 -350l-65 350h-47v48h38l-11 57h-27v48h18l-57 312h68l51 -312h81l73 348l69 -348h83l58 312h63l-63 -312h24v-48h-33l-12 -57h45v-48h-54zM278 419l-13 -57h67l-12 57h-42zM379 419l12 -57h43l10 57h-65zM155 419l9 -57h42l12 57h-63zM411 261
h4l10 53h-25zM181 261h4l11 53h-24zM298 512l-10 -45h23l-9 45h-4z" />
    <glyph glyph-name="uni20AA" unicode="&#x20aa;" horiz-adv-x="480" 
d="M316 126h-61v323c0 45 -16 88 -67 88h-55v-537h-64v585h118c87 0 129 -49 129 -133v-326zM164 459h61v-323c0 -45 16 -88 67 -88h55v537h64v-585h-118c-87 0 -129 49 -129 133v326z" />
    <glyph glyph-name="Euro" unicode="&#x20ac;" horiz-adv-x="310" 
d="M183 195h-47c13 -100 42 -143 82 -143c26 0 41 8 53 17v-64c-11 -9 -28 -15 -59 -15c-72 0 -119 62 -139 205h-67l10 48h51c-2 22 -4 45 -5 70h-56l10 48h45v28c0 282 52 401 151 401c37 0 55 -10 75 -24l-16 -56c-12 10 -27 17 -53 17c-60 0 -93 -97 -93 -338v-28h93
l-10 -48h-82c1 -26 2 -49 4 -70h63z" />
    <glyph glyph-name="uni20AD" unicode="&#x20ad;" horiz-adv-x="383" 
d="M393 0h-105c-43 26 -108 112 -154 194l-2 -5v-189h-63v232h-52v48h52v499h63v-423h4l157 423h65l-191 -499h198v-48h-195c49 -79 150 -197 223 -232z" />
    <glyph glyph-name="uni20AE" unicode="&#x20ae;" horiz-adv-x="267" 
d="M166 0h-63v208l-63 -22v40l63 22v120l-63 -22v40l63 22v308h-83v63h227v-63h-81v-285l61 22v-40l-61 -22v-120l61 22v-40l-61 -22v-231z" />
    <glyph glyph-name="uni20B1" unicode="&#x20b1;" horiz-adv-x="351" 
d="M132 194v-194h-63v384h-61v40h61v118h-61v40h61v203c143 -4 211 -90 232 -203h42v-40h-36c1 -16 2 -32 2 -48c0 -25 -2 -49 -5 -70h39v-40h-48c-24 -84 -80 -141 -163 -190zM246 484c0 19 -2 39 -4 58h-110v-118h109c3 18 5 38 5 60zM132 717v-135h103
c-15 67 -49 121 -103 135zM132 252c50 36 83 78 100 132h-100v-132z" />
    <glyph glyph-name="uni20B2" unicode="&#x20b2;" horiz-adv-x="333" 
d="M49 0h-37l49 166c-10 57 -16 131 -16 223c0 282 51 401 151 401c23 0 38 -3 48 -9l14 46h37l-180 -603c11 -106 34 -164 71 -164c14 0 28 4 34 10v362h56v-391c-18 -22 -55 -41 -89 -41c-48 0 -85 29 -109 98zM109 389v-62l118 397c-7 2 -15 3 -25 3
c-61 0 -93 -97 -93 -338z" />
    <glyph glyph-name="uni20B4" unicode="&#x20b4;" horiz-adv-x="315" 
d="M163 462h-143v51h170c12 26 19 54 19 92c0 79 -31 122 -83 122c-23 0 -41 -8 -48 -17v64c9 6 24 16 55 16c86 0 139 -73 139 -182c0 -36 -6 -67 -16 -95h39v-51h-61c-16 -40 -68 -100 -101 -165h162v-49h-180c-5 -18 -7 -37 -7 -60c0 -84 33 -136 104 -136
c24 0 37 6 50 17v-64c-9 -8 -27 -15 -58 -15c-102 0 -161 78 -161 198c0 22 2 42 5 60h-28v49h43c25 64 71 119 100 165z" />
    <glyph glyph-name="uni20B8" unicode="&#x20b8;" horiz-adv-x="267" 
d="M166 0h-63v568h-83v63h227v-63h-81v-568zM247 716h-227v63h227v-63z" />
    <glyph glyph-name="uni20B9" unicode="&#x20b9;" horiz-adv-x="381" 
d="M346 584h-76c6 -28 9 -59 9 -90c0 -128 -46 -209 -133 -272c70 -105 155 -191 217 -222h-105c-44 25 -110 117 -188 239c109 69 146 138 146 245c0 36 -4 69 -11 100h-179l10 48h154c-24 54 -65 92 -125 99h-39l10 48h320l-10 -48h-158c32 -25 54 -59 69 -99h99z" />
    <glyph glyph-name="uni20BA" unicode="&#x20ba;" horiz-adv-x="300" 
d="M245 574l-123 -46v-465c46 17 80 71 97 132h54c-32 -113 -96 -197 -214 -200v510l-41 -14v48l41 14v78l-41 -15v48l41 15v100h63v-77l123 46v-48l-123 -46v-78l123 46v-48z" />
    <glyph glyph-name="uni20BC" unicode="&#x20bc;" horiz-adv-x="404" 
d="M170 779h64v-505c82 -19 128 -115 128 -263v-11h-63v14c0 109 -23 175 -65 195v-209h-64v209c-42 -20 -65 -86 -65 -195v-14h-63v11c0 148 46 244 128 263v505z" />
    <glyph glyph-name="uni20BD" unicode="&#x20bd;" horiz-adv-x="347" 
d="M274 95h-144v-95h-63v95h-51v48h51v52h-51v48h51v542c179 -5 240 -137 240 -291c0 -148 -54 -239 -177 -300v-51h144v-48zM130 252c77 49 114 125 114 232c0 108 -35 213 -114 233v-465z" />
    <glyph glyph-name="uni20BE" unicode="&#x20be;" horiz-adv-x="394" 
d="M228 563h-41v150c-62 -33 -83 -122 -83 -246c0 -189 34 -254 197 -467h-255v60h153c-101 107 -163 223 -163 395c0 147 34 289 151 326v52h41v-44c7 0 14 1 22 1c7 0 13 0 20 -1v44h41v-53c27 -10 45 -27 57 -48v-78c-12 23 -30 45 -57 59v-150h-41v162c-7 1 -15 2 -22 2
s-14 0 -20 -1v-163z" />
    <glyph glyph-name="uni2116" unicode="&#x2116;" horiz-adv-x="565" 
d="M322 -36l-188 502h-4v-466h-61v815l190 -529h4v493h59v-815zM538 566c0 -170 -22 -216 -90 -216s-90 46 -90 216c0 172 21 224 90 224s90 -54 90 -224zM423 566c0 -139 6 -174 25 -174s25 35 25 174s-6 179 -25 179s-25 -40 -25 -179zM447 203c-28 0 -43 15 -43 51
c0 34 15 52 43 52c29 0 44 -18 44 -52c0 -36 -15 -51 -44 -51zM447 53c-28 0 -43 15 -43 51c0 34 15 52 43 52c29 0 44 -18 44 -52c0 -36 -15 -51 -44 -51z" />
    <glyph glyph-name="uni2117" unicode="&#x2117;" horiz-adv-x="589" 
d="M292 37c128 0 210 99 210 354c0 258 -82 352 -204 352s-211 -94 -211 -344c0 -251 76 -362 205 -362zM291 -10c-155 0 -246 129 -246 408c0 278 101 392 251 392s248 -114 248 -399c0 -282 -98 -401 -253 -401zM272 277v-118h-39v481c110 -3 148 -84 148 -179
c0 -90 -38 -142 -109 -184zM272 314c48 33 70 76 70 142s-22 130 -70 142v-284z" />
    <glyph glyph-name="trademark" unicode="&#x2122;" horiz-adv-x="501" 
d="M117 340h-38v400h-57v39h150v-39h-55v-400zM432 340h-35v233h-4l-72 -202l-70 202h-5v-233h-33v449l108 -313l111 313v-449z" />
    <glyph glyph-name="partialdiff" unicode="&#x2202;" horiz-adv-x="434" 
d="M188 708v64c10 7 26 10 54 10c135 0 147 -197 147 -310c0 -182 -35 -489 -215 -489c-90 0 -129 93 -129 208c0 138 59 254 170 254c54 0 98 -39 118 -104c4 45 6 94 6 135c0 97 -11 242 -105 242c-22 0 -34 -2 -46 -10zM324 284c-17 68 -55 110 -106 110
c-82 0 -123 -83 -123 -196c0 -87 27 -150 86 -150c89 0 126 113 143 236z" />
    <glyph glyph-name="product" unicode="&#x220f;" horiz-adv-x="446" 
d="M377 -178h-57v901h-195v-901h-56v957h308v-957z" />
    <glyph glyph-name="summation" unicode="&#x2211;" horiz-adv-x="379" 
d="M347 -150h-317l212 464l-212 465h317v-58h-228l180 -407l-180 -406h228v-58z" />
    <glyph glyph-name="minus" unicode="&#x2212;" horiz-adv-x="579" 
d="M510 355h-441v49h441v-49z" />
    <glyph glyph-name="radical" unicode="&#x221a;" horiz-adv-x="488" 
d="M488 779l-262 -815l-121 360h-89v52h134l73 -235h4l196 638h65z" />
    <glyph glyph-name="infinity" unicode="&#x221e;" horiz-adv-x="600" 
d="M300 331c-8 -96 -56 -120 -117 -120s-138 10 -138 169c0 158 77 166 138 166s109 -23 117 -118c8 95 58 118 116 118c63 0 139 -8 139 -166c0 -159 -76 -169 -139 -169c-58 0 -108 24 -116 120zM410 275c47 0 107 5 107 105c0 97 -59 102 -107 102
c-43 0 -82 -15 -82 -102c0 -88 39 -105 82 -105zM188 275c44 0 84 16 84 105c0 87 -39 102 -83 102c-47 0 -104 -5 -104 -102c0 -100 57 -105 103 -105z" />
    <glyph glyph-name="integral" unicode="&#x222b;" horiz-adv-x="325" 
d="M8 -203l6 58c14 -14 29 -17 46 -17c43 0 72 30 72 99v659c0 142 40 196 117 196c30 0 53 -7 67 -22l-6 -58c-13 13 -28 16 -46 16c-42 0 -71 -29 -71 -98v-659c0 -142 -41 -196 -116 -196c-30 0 -53 7 -69 22z" />
    <glyph glyph-name="approxequal" unicode="&#x2248;" horiz-adv-x="579" 
d="M510 535v-53c-33 -40 -68 -53 -111 -53c-81 0 -147 56 -220 56c-53 0 -77 -20 -110 -61v53c34 41 69 53 112 53c79 0 142 -55 220 -55c53 0 77 18 109 60zM510 295v-53c-33 -40 -68 -53 -111 -53c-81 0 -147 56 -220 56c-53 0 -77 -20 -110 -61v53c34 41 69 53 112 53
c79 0 142 -55 220 -55c53 0 77 18 109 60z" />
    <glyph glyph-name="notequal" unicode="&#x2260;" horiz-adv-x="549" 
d="M501 246h-272l-153 -286h-48l154 286h-133v49h159l92 170h-251v50h277l149 275h46l-149 -275h129v-50h-154l-92 -170h246v-49z" />
    <glyph glyph-name="lessequal" unicode="&#x2264;" horiz-adv-x="579" 
d="M510 85l-441 278v41l441 278v-62l-375 -236l375 -238v-61zM510 -1h-441v49h441v-49z" />
    <glyph glyph-name="greaterequal" unicode="&#x2265;" horiz-adv-x="579" 
d="M510 363l-441 -278v61l376 238l-376 236v62l441 -278v-41zM510 -1h-441v49h441v-49z" />
    <glyph glyph-name="lozenge" unicode="&#x25ca;" horiz-adv-x="406" 
d="M390 389l-189 -401l-186 401l186 401zM335 389l-134 289l-133 -289l133 -289z" />
    <glyph glyph-name="CR" horiz-adv-x="196" 
 />
    <glyph glyph-name=".null" horiz-adv-x="0" 
 />
    </font>
</defs>
</svg>
