<?xml version="1.0" encoding="UTF-8"?>
<!DOCTYPE svg PUBLIC "-//W3C//DTD SVG 1.1//EN" "http://www.w3.org/Graphics/SVG/1.1/DTD/svg11.dtd">
<!-- Creator: CorelDRAW X6 -->
<svg xmlns="http://www.w3.org/2000/svg" xml:space="preserve" width="210mm" height="297mm" version="1.1" style="shape-rendering:geometricPrecision; text-rendering:geometricPrecision; image-rendering:optimizeQuality; fill-rule:evenodd; clip-rule:evenodd"
viewBox="0 0 21000 29700"
 xmlns:xlink="http://www.w3.org/1999/xlink">
 <defs>
  <style type="text/css">
   <![CDATA[
    .fil1 {fill:#2B2A29;fill-rule:nonzero}
    .fil0 {fill:black;fill-rule:nonzero}
   ]]>
  </style>
 </defs>
 <g id="Warstwa_x0020_1">
  <metadata id="CorelCorpID_0Corel-Layer"/>
  <path class="fil0" d="M7370 14673c-24,45 -85,55 -131,71 42,-44 98,-75 118,-142 -47,-12 -96,-10 -146,0 27,-34 73,-114 30,-164 -21,28 -46,65 -75,77 28,-43 63,-91 60,-157 -59,-4 -115,18 -161,43 25,-41 51,-81 58,-140 -114,2 -212,42 -301,88 -53,28 -103,65 -146,103 -81,70 -179,179 -185,317 -3,67 44,123 121,125 16,86 -59,100 -125,112 2,-33 -4,-59 -9,-86 15,-8 28,-27 22,-50 -10,-1 -15,4 -26,2 -42,-21 -31,-80 -28,-133 9,-7 34,-8 34,-26 0,-7 -11,-15 -15,-24 -21,-49 16,-133 22,-200 5,-56 -11,-92 -15,-129 24,-23 17,-70 -15,-84 -4,14 -8,28 -28,26 18,-24 6,-68 -19,-75 -6,8 -11,17 -24,19 24,-83 65,-149 97,-224 -12,-3 -21,7 -32,13 -27,13 -59,12 -73,32 -6,-10 -30,-11 -41,-4 -4,-12 -16,-17 -28,-22 -3,-31 -33,-35 -47,-54 -2,-9 -4,-19 -17,-17 -5,39 -60,37 -50,84 -17,-2 -25,5 -34,11 -9,-10 -28,-10 -41,-4 -7,-22 -36,-16 -58,-22 -18,-4 -25,-19 -37,-19 1,18 13,35 22,52 26,52 51,107 67,168 -24,10 -34,35 -43,60 -72,-4 -109,65 -78,131 22,-20 82,-44 108,-11 -29,10 -76,41 -114,24 -11,-5 -12,-17 -26,-22 -26,102 124,86 177,52 -1,12 6,14 13,17 49,-31 94,33 97,73 5,60 -39,105 -82,121 -5,-3 -13,-4 -22,-4 -13,23 8,44 17,58 -37,39 -72,99 -140,93 -4,15 7,31 11,45 -23,27 -33,66 -39,110 -67,-4 -143,-20 -118,-101 62,-16 101,-62 106,-129 11,-148 -76,-230 -146,-304 -36,-38 -77,-73 -121,-106 -90,-67 -214,-127 -357,-134 4,68 38,107 69,149 -44,-23 -126,-45 -177,-28 16,63 47,111 80,157 -31,-23 -68,-40 -88,-73 -6,-10 -6,-23 -19,-28 -36,44 -9,128 24,151 -49,-8 -109,0 -151,17 41,74 119,122 181,168 -70,-30 -147,-54 -200,-101 -18,88 34,121 84,146 -63,10 -114,31 -153,65 45,54 117,82 187,112 -42,-7 -94,2 -131,-13 -12,-5 -18,-18 -32,-15 -7,96 90,106 161,131 -75,36 -142,81 -174,159 48,37 134,39 213,30 -62,34 -119,93 -209,84 26,102 175,71 245,30 -65,89 -143,200 -110,355 98,-21 169,-78 228,-136 20,-20 38,-43 60,-58 -12,22 -22,47 -37,67 0,8 -3,7 2,11 -6,-1 -7,4 -11,7 -32,55 -57,117 -101,164 -9,10 -49,31 -50,39 -2,23 64,19 80,15 83,-21 138,-115 181,-177 -19,99 -20,214 19,297 79,-58 131,-142 177,-233 0,47 -34,70 -37,108 18,6 27,-14 45,-15 61,-49 105,-116 123,-209 9,0 8,11 17,11 36,-24 62,-70 86,-99 -19,55 -44,102 -88,131 -5,3 -21,0 -22,13 -1,12 18,5 24,11 -5,9 -21,35 -34,47 -9,8 -18,3 -17,15 1,10 12,9 22,15 -14,19 -37,28 -60,37 -1,17 13,19 22,26 -10,25 -52,18 -56,50 27,21 75,21 110,24 -21,26 -39,54 -73,67 11,36 -31,68 -54,69 -6,9 6,15 4,22 -15,11 -19,33 -45,32 8,33 -34,49 -65,52 -1,14 12,14 17,21 -7,5 -18,16 -30,17 -23,3 -28,-8 -45,-13 -29,-9 -67,-4 -80,-9 -18,-6 -31,-31 -47,-37 -41,-14 -62,21 -78,43 -5,7 -15,13 -19,19 -24,36 -20,92 17,112 8,-21 10,-43 37,-47 24,-4 52,6 69,-13 8,7 17,12 28,15 -12,6 -24,12 -37,17 -13,-4 -18,-10 -30,-11 -61,-5 -61,66 -52,105 7,27 13,49 34,62 18,11 47,20 60,9 -3,-18 -13,-16 -15,-32 -3,-32 39,-43 47,-69 19,-4 39,-9 56,-15 -5,6 -10,13 -15,19 -34,10 -71,35 -62,80 2,13 18,20 15,39 12,9 12,21 22,32 27,33 88,29 114,0 -16,-10 -35,-17 -39,-39 22,-18 12,-48 22,-71 6,-14 22,-24 32,-37 11,-14 16,-30 30,-39 21,2 36,6 54,2 9,17 23,29 34,43 -1,23 -13,35 -22,52 25,26 66,4 86,-19 6,-7 7,-18 13,-26 7,-8 17,-13 22,-19 8,-14 1,-27 0,-41 -1,-25 -7,-46 -28,-56 -23,-11 -56,7 -71,-11 -10,-25 28,-61 45,-80 60,-68 126,-132 185,-189 20,29 55,64 93,60 6,-23 -20,-32 -13,-62 7,1 15,8 22,2 -13,-95 27,-196 78,-241 -5,87 -24,164 -52,224 -10,21 -25,37 -30,58 27,-3 46,-27 65,-32 -6,75 -47,151 -127,125 -12,76 54,115 125,95 -20,38 -99,109 -155,86 -30,-12 -20,-43 -11,-73 -32,-5 -58,14 -78,28 -43,45 -23,127 17,155 -59,15 -82,107 -47,155 27,38 81,57 142,52 71,-6 133,-53 174,-93 -8,89 24,185 77,233 38,-64 68,-137 62,-239 39,46 117,106 205,90 56,-10 113,-47 121,-101 10,-71 -33,-99 -75,-121 75,-46 46,-186 -52,-170 15,131 -161,51 -168,-9 62,33 151,-37 110,-112 -65,38 -115,-28 -114,-88 54,39 116,-7 151,-41 71,63 130,136 190,209 20,24 49,46 52,82 -17,11 -26,-5 -41,-9 -43,-9 -79,25 -71,69 1,6 8,14 11,24 6,24 6,19 22,34 11,10 21,24 30,28 29,13 79,4 84,-34 -14,-5 -33,-5 -37,-19 6,-5 6,-16 13,-19 22,3 35,2 56,-6 22,31 48,58 80,80 -11,37 13,56 26,75 -5,18 -21,24 -30,37 28,18 74,17 101,-11 11,-11 32,-39 32,-54 0,-12 -8,-21 -11,-32 11,-53 -53,-50 -67,-86 18,6 38,9 60,11 7,31 28,46 58,54 11,24 -6,44 -4,62 37,-7 75,-42 71,-90 11,-13 3,-23 2,-37 -2,-20 1,-37 -11,-50 -17,-18 -44,-19 -75,-11 -13,-9 -29,-14 -45,-19 8,-4 16,-9 28,-13 17,17 53,30 80,13 19,9 28,30 41,45 14,-14 20,-34 19,-54 0,-35 -28,-55 -41,-75 -24,-2 -31,-28 -56,-30 -23,-2 -38,21 -60,26 -10,2 -25,-1 -39,0 -59,5 -108,41 -134,6 5,-3 8,-8 6,-17 -20,-9 -50,-21 -39,-47 -31,-7 -54,-32 -50,-62 -28,-10 -57,-26 -52,-63 -42,-19 -68,-54 -90,-93 41,14 165,-19 88,-39 -11,-13 -25,-22 -32,-39 0,-7 7,-7 6,-15 -13,-15 -29,-27 -37,-47 3,-8 15,-8 13,-22 -13,-11 -29,-19 -37,-34 2,-6 13,-4 11,-15 -32,-19 -57,-43 -67,-84 23,11 35,33 58,43 7,-4 9,-14 15,-19 22,47 16,131 54,168 18,17 75,42 90,13 -25,-19 -31,-69 -32,-106 39,108 73,221 149,293 46,-70 50,-204 47,-291 58,47 86,169 198,155 16,-2 33,-6 43,-21 -33,-12 -48,-39 -67,-69 -40,-64 -76,-136 -112,-194 72,85 140,184 261,213 25,-142 -40,-266 -95,-362 76,42 247,107 269,-24 -42,13 -91,-16 -131,-37 -37,-19 -73,-38 -99,-56l2 0c0,1 0,3 2,2 41,7 77,20 129,21 22,1 105,-4 110,-28 2,-12 -19,-43 -26,-52 -37,-49 -86,-83 -136,-116 76,-13 178,-11 159,-112 -14,1 -24,17 -47,19 -34,4 -80,0 -106,-4 65,-15 129,-30 157,-82 -36,-36 -91,-51 -144,-69 46,-25 102,-79 73,-151zm-181 291c-27,-2 -43,-37 -58,-49 83,-6 170,-4 254,-19 -42,-11 -95,-11 -149,-13 -69,-3 -140,-4 -202,-13 24,-23 49,-38 90,-41 99,-6 228,21 297,60 -20,33 -78,58 -131,67 -27,5 -74,11 -101,9zm-56 -235c-21,79 -92,117 -159,142 5,-15 9,-23 9,-39 42,-31 95,-52 131,-88 -48,5 -95,29 -140,45 -12,-9 -21,-23 -37,-28 38,-38 129,-50 196,-32zm-2 -13c33,-29 83,-40 121,-65 3,0 2,4 0,4 -24,14 -47,31 -75,47 -16,9 -24,18 -45,13zm-103 -151c10,91 -42,138 -88,179 -5,-17 2,-46 -9,-58 23,-39 63,-62 84,-103 -36,12 -69,48 -103,71 -13,-5 -23,-13 -37,-17 33,-45 81,-70 153,-71zm-39 -9c41,-43 92,-76 138,-114 -11,19 -32,35 -54,56 -24,23 -43,57 -84,58zm-174 101c75,-29 127,41 101,114 73,15 51,138 -13,146 39,47 18,139 -32,157 8,72 -42,101 -110,103 -19,45 -76,74 -127,56 -14,8 -22,26 -41,32 -30,10 -65,-1 -84,-19 -24,22 -73,38 -106,26 0,-19 22,-11 28,-24 6,-12 -7,-26 -4,-41 109,-36 237,-47 327,-95 86,-45 125,-131 106,-258 19,-2 47,-9 65,-19 -7,-36 -30,-56 -56,-73 4,-21 4,-55 -4,-71 -19,3 -35,10 -52,15 -21,-29 -43,-57 -84,-67 -15,24 -20,57 -19,97 -27,5 -51,12 -67,28 10,26 30,41 52,56 -38,33 -88,-1 -86,-47 2,-45 42,-58 80,-62 -13,-35 -5,-71 17,-88 39,-30 89,4 110,34zm-32 -52c-5,-1 -9,-3 -13,-4 22,-31 54,-53 80,-80 -14,28 -45,57 -67,84zm-22 329c1,-10 -3,-22 0,-32 5,-16 24,-16 34,-30 2,0 2,1 2,2 38,211 -183,221 -338,263 4,-13 5,-28 9,-41 98,-28 203,-30 263,-93 15,-16 27,-42 30,-69zm-323 -2c-3,8 8,21 6,34 -10,-16 -28,-36 -26,-58 10,4 17,12 32,11 21,33 22,96 7,133 -38,-21 -98,-88 -52,-127 15,31 39,53 45,93 8,-25 7,-76 -13,-86zm-108 65c-17,-29 -31,-69 -24,-116 21,19 48,32 67,54 -3,17 7,30 6,45 -1,42 -31,74 -58,95 -26,-39 -74,-55 -78,-116 16,-14 35,-25 50,-41 0,53 38,79 28,129 33,-19 14,-68 9,-103 -2,-16 4,-32 -9,-39 -14,26 13,57 9,93zm65 13c3,13 42,35 50,49 17,32 -2,78 -22,97 -19,-21 -47,-45 -43,-82 -16,2 -9,21 -9,34 -38,16 -100,21 -127,-9 -36,33 -130,35 -155,-9 -8,32 -15,82 -47,97 -7,-46 -38,-79 -28,-136 26,-17 66,-20 90,-39 16,32 43,53 58,86 14,-3 16,-18 26,-26 21,-18 52,-27 65,-54 25,22 52,42 67,73 26,-28 63,-43 75,-84zm-224 -58c0,26 9,44 6,73 -19,-34 -26,-123 15,-138 -2,27 -5,53 -22,65zm58 6c30,59 -31,97 -67,123 -14,-26 -44,-48 -50,-86 -6,-40 10,-79 32,-105 16,-3 29,-9 41,-17 -14,20 -33,42 -34,78 -2,40 22,86 15,118 29,-19 17,-73 17,-110 14,3 32,7 45,0zm-127 19c-15,34 -50,49 -88,60 41,-41 46,-119 110,-138 -11,22 -20,46 -22,78zm-263 -170c-11,-19 -29,-32 -50,-41 3,-33 -6,-91 -32,-95 -23,-3 -62,46 -73,67 -20,-4 -50,-7 -69,0 0,30 -1,47 9,67 -7,14 -55,53 -47,84 4,16 28,17 47,21 -28,261 230,241 411,297 2,22 17,27 15,47 9,8 17,16 17,32 -31,7 -57,-5 -73,-19 -38,25 -99,6 -114,-28 -55,32 -116,-2 -140,-43 -63,13 -100,-31 -106,-88 -59,-5 -95,-53 -78,-121 -13,-19 -29,-37 -34,-60 -12,-55 25,-98 54,-125 -28,-68 27,-131 86,-106 19,-26 51,-59 90,-54 37,5 63,38 60,88 58,2 66,96 9,106 -6,-5 14,-20 17,-30zm-108 -228c-10,-21 -24,-38 -32,-58 29,32 53,69 67,116 -20,-11 -24,-38 -34,-58zm-43 73c-13,7 -20,20 -28,32 -71,-21 -113,-72 -172,-106 1,24 28,41 45,58 18,18 37,37 56,52 -8,14 -23,20 -26,39 -53,-30 -85,-86 -93,-155 98,-15 170,31 217,80zm-224 -151c-28,-23 -55,-47 -86,-67 58,33 118,83 174,125 -34,-13 -62,-36 -88,-58zm90 872c-10,-26 -15,-60 -11,-95 6,-52 45,-143 78,-153 8,9 15,36 24,52 -24,63 -56,117 -80,179 43,-44 76,-97 110,-151 14,9 31,16 56,15 -36,74 -89,131 -177,153zm157 -78c-32,138 -81,259 -118,392 20,-96 56,-200 82,-301 8,-32 13,-68 37,-90zm127 88c-21,32 -45,67 -82,82 -49,-45 -40,-182 -15,-248 17,13 32,28 50,41 -7,64 -28,125 -30,187 32,-50 48,-114 67,-177 24,8 41,-9 54,-2 -1,44 -22,84 -43,116zm52 -58c-1,40 -8,94 -22,129 9,-47 -2,-92 22,-129zm-112 71c2,-42 12,-95 26,-134 4,0 5,3 9,2 -4,43 -22,90 -34,131zm-177 -97c10,-35 34,-75 52,-110 6,0 8,5 11,9 -17,38 -42,67 -63,101zm-108 -28c-72,86 -147,172 -218,263 38,-60 93,-131 144,-194 46,-57 90,-117 140,-164 -13,38 -42,66 -67,95zm-103 -106c20,-81 75,-126 144,-157 2,0 14,51 13,56 -4,18 -53,34 -73,45 -30,17 -57,29 -71,45 27,2 57,-12 84,-24 27,-12 55,-24 77,-39 13,7 23,17 37,24 -50,43 -132,64 -211,50zm112 -54c-20,10 -39,20 -58,28 33,-25 74,-41 112,-62 -11,18 -35,25 -54,34zm-78 -41c-92,32 -181,66 -276,95 101,-42 207,-80 304,-127 -1,11 -22,20 -28,32zm-101 -106c36,-52 101,-75 185,-80 -1,20 1,37 4,52 -56,9 -114,17 -172,24 24,17 60,15 95,15 40,0 92,-21 106,13 -60,44 -172,23 -217,-24zm67 0c29,-9 86,-10 116,-15 6,-1 14,-5 15,9 -45,6 -88,9 -131,6zm-134 -103c63,0 150,0 228,11 -76,16 -156,-7 -228,-11zm99 -103c40,-47 145,-31 200,-11 -2,19 3,30 4,45 -68,-11 -126,-31 -192,-34 22,15 51,23 80,34 28,11 58,22 84,34 -7,11 -12,26 -19,37 -71,-17 -126,-49 -157,-106zm82 17c37,10 77,17 114,26 5,7 -9,10 -11,17 -32,-17 -74,-23 -103,-43zm-125 -133c38,6 76,25 114,39 37,13 79,21 106,45 -86,-16 -148,-55 -220,-84zm252 9c-15,-14 -33,-26 -45,-39 25,16 72,44 90,69 -19,6 -32,-18 -45,-30zm846 594c-28,-5 -36,-28 -56,-41 -23,31 -83,43 -116,17 -44,31 -111,9 -138,-24 -9,20 -18,41 -39,50 -3,-18 -20,-29 -17,-45 3,-15 24,-18 30,-32 22,12 65,14 95,6 41,19 76,31 118,19 17,-5 25,-19 39,-22 20,-4 58,18 86,-2 -2,17 -15,51 -2,73zm-99 -84c-40,36 -110,31 -151,-2 -20,10 -55,13 -80,2 6,-15 14,-30 19,-45 23,19 88,24 123,15 8,-2 17,-10 26,-11 24,-1 55,15 84,15 19,0 31,-4 49,-6 6,9 15,16 19,26 -22,16 -64,23 -90,6zm90 140c-1,-5 -3,-10 -2,-17 20,5 43,6 67,2 25,-4 48,-25 67,-11 -20,42 -95,67 -149,43 2,-10 15,-8 17,-17zm88 93c-7,5 -15,-12 -22,-17 -23,-17 -58,-25 -97,-19 -5,-7 7,-14 6,-24 33,8 68,10 106,0 3,19 2,42 6,60zm-159 -127c-48,41 -152,51 -196,0 -12,19 -25,38 -50,45 0,-23 -17,-37 -13,-56 4,-18 30,-18 34,-37 27,20 61,34 97,32 14,-1 27,-10 43,-11 17,-1 35,10 54,9 26,-2 42,-11 62,-22 11,5 14,17 28,19 -10,18 -9,43 -11,54 -29,1 -36,-20 -50,-34zm34 41c3,23 -10,30 -13,47 -15,-2 -9,-24 -19,-30 -15,29 -70,36 -95,11 -21,13 -57,27 -80,9 -10,-8 -5,-19 -17,-24 -8,15 -14,32 -30,39 -3,-15 -15,-20 -15,-39 21,-6 31,-22 47,-32 49,31 139,33 185,-2 13,7 21,18 37,22zm-267 54c-46,-20 -106,-1 -125,32 -2,-13 5,-34 9,-47 31,6 79,-1 101,-17 11,5 11,20 15,32zm-196 -75c23,4 48,15 75,11 8,-1 14,-7 22,-6 25,1 46,24 75,17 -40,39 -156,39 -172,-22zm-196 -476c-14,-6 -19,-20 -32,-26 8,-48 37,-76 69,-101 2,1 5,4 2,4 -12,42 -25,83 -39,123zm50 -127c22,34 22,90 2,123 -16,-1 -25,4 -41,2 11,-43 26,-83 39,-125zm-60 131c-37,23 -73,46 -112,67 4,-37 49,-78 80,-88 15,-5 20,16 32,22zm-65 -73c9,0 29,0 43,2 1,14 -6,20 -6,32 -14,-10 -28,-19 -37,-34zm28 41c-8,8 -19,12 -30,17 -7,-16 -8,-29 -6,-50 16,7 23,23 37,32zm159 19c-9,4 -33,2 -39,2 1,-11 5,-19 9,-28 12,7 25,13 30,26zm-4 7c6,13 -10,24 -19,30 -9,-6 -14,-16 -19,-26 12,-7 30,3 39,-4zm-32 114c-23,-32 -50,-71 -65,-103 15,-1 24,0 39,-4 19,25 35,68 26,108zm-6 6c-53,5 -96,-44 -67,-97 27,27 44,65 67,97zm-86 -52c-27,11 -62,25 -97,15 32,-27 69,-49 110,-67 -4,17 -9,34 -13,52zm50 194c72,46 197,53 280,80 1,13 10,27 4,41 -112,-34 -284,-40 -355,-121 -32,-36 -37,-89 -30,-159 14,-4 29,-7 39,-15 2,0 2,1 2,2 -14,69 8,139 60,172zm1118 -360c6,11 6,34 0,45 -7,-5 -16,-8 -26,-11 7,-14 17,-23 26,-34zm-32 28c-8,-3 -4,-16 -11,-19 7,-10 20,-14 37,-15 -7,13 -18,23 -26,34zm80 80c-42,-9 -70,-20 -112,-28 7,-12 18,-21 26,-32 38,10 70,27 86,60zm-164 -164c36,21 56,57 69,101 -9,8 -13,21 -26,26 -15,-42 -31,-83 -43,-127zm34 131c-19,-2 -35,-8 -52,-13 -8,-43 -9,-78 4,-116 22,37 33,85 47,129zm127 41c-20,14 -61,18 -93,13 -12,-7 -12,-26 -19,-39 38,-1 75,18 112,26zm-465 362c1,-16 7,-28 13,-39 165,-51 395,-48 362,-291 0,-10 22,-5 34,-4 59,276 -224,280 -409,334zm267 -284c21,-37 52,-64 75,-99 39,49 -29,89 -75,99zm-6 -13c-2,-47 9,-82 30,-106 18,1 33,6 47,11 -24,33 -48,67 -78,95zm-43 -123c20,4 38,9 58,13 0,12 -8,17 -11,26 -22,-6 -38,-20 -47,-39zm6 -9c8,-11 32,-12 47,-15 1,8 3,16 4,28 -19,-3 -36,-7 -52,-13zm-82 521c23,-4 44,-11 60,-22 22,57 27,131 43,194 10,-67 -5,-134 -7,-205 17,-1 35,-1 47,-11 32,64 5,194 -34,239 -61,-41 -102,-102 -110,-196zm114 220c9,70 20,138 30,207 -46,-50 -49,-147 -65,-233 12,8 25,15 34,26zm-17 -125c-9,-42 -18,-84 -24,-129l4 0c13,12 9,35 11,54 3,25 9,51 9,75zm-95 71c-14,-49 -26,-121 -22,-168l6 0c6,47 21,102 15,168zm162 -215c7,-13 21,-18 26,-32 53,43 87,106 138,151 -24,-55 -66,-112 -95,-170 16,-7 34,-12 45,-24 49,47 69,127 65,215 -81,-17 -148,-66 -179,-140zm24 62c14,27 19,59 24,93 11,85 25,177 39,258 -24,-116 -59,-237 -69,-353 3,-1 4,2 6,2zm394 -327c-39,63 -145,79 -224,52 3,-16 7,-31 9,-50 73,2 114,7 189,2 -10,-12 -29,-10 -45,-13 -49,-9 -106,-23 -155,-32 7,-20 23,-31 34,-45 91,2 147,39 192,86zm-75 -80c0,-2 1,-2 2,-2 69,1 134,-2 187,9 -31,-1 -78,0 -123,2 -27,1 -49,5 -67,-9zm-13 75c-42,3 -81,-2 -129,-9 -1,-5 -3,-8 -2,-15 41,7 85,16 131,24zm2 245c-82,25 -157,-23 -207,-58 9,-15 21,-27 24,-47 31,10 55,27 80,43 25,16 49,34 78,45 -3,-15 -17,-27 -28,-37 -33,-31 -76,-61 -112,-90 6,-13 18,-20 22,-34 74,33 120,96 144,179zm-62 -151c92,37 185,77 271,114 -79,-25 -164,-61 -248,-88 -8,-9 -17,-16 -24,-26zm-54 58c20,16 41,31 58,47 -28,-18 -62,-40 -97,-60 -9,-5 -26,-14 -24,-28 25,3 43,26 62,41zm17 159c56,90 115,183 168,276 -39,-58 -82,-121 -123,-181 -39,-57 -81,-113 -112,-177 34,15 49,53 67,82zm-110 15c-27,-25 -62,-71 -82,-103 9,-1 19,9 24,15 20,27 37,62 58,88zm50 -631c20,-21 47,-35 69,-54 -14,19 -39,46 -62,62 -2,-3 -2,-8 -6,-9zm151 101c5,0 3,2 2,4 -30,13 -53,35 -86,45 -2,-4 -4,-8 -4,-13 27,-15 59,-25 88,-37zm351 224c-52,30 -131,28 -202,30 -21,1 -40,-3 -62,-2 8,-11 18,-21 28,-30 78,-1 166,18 237,-4 4,2 0,4 0,6zm-166 69c-27,-3 -46,-24 -67,-26 59,-14 183,5 233,-32 4,-1 4,2 4,4 -15,30 -54,41 -101,47 -24,3 -52,8 -69,6zm-161 136c-10,-32 -25,-60 -39,-88 114,37 225,88 340,116 -25,-22 -56,-32 -86,-45 -88,-38 -176,-82 -267,-118 27,-6 55,-11 80,-24 1,0 3,0 4,0 59,10 123,42 174,78 52,36 105,77 121,131 -112,35 -240,-12 -327,-50zm306 164c-17,19 -49,22 -75,15 -44,-11 -91,-42 -136,-65 -46,-23 -97,-43 -118,-80 11,-4 28,-3 30,-15 98,49 185,119 299,144zm-248 -11c-14,-20 -26,-41 -41,-60 86,27 162,103 273,97 -72,51 -170,-12 -233,-37zm-222 50c0,-8 13,-2 13,-11 0,-45 1,-79 -9,-116 30,29 49,67 73,101 71,99 140,207 217,304 -81,-161 -181,-303 -271,-454 14,-1 45,11 69,13 7,1 17,-2 24,0 18,6 47,59 62,82 71,104 144,236 136,392 -154,-51 -224,-193 -314,-310zm73 233c-15,-21 -30,-44 -45,-69 -34,-52 -50,-99 -60,-170 -4,-2 0,-4 0,-7 2,1 4,2 6,2 80,131 147,274 237,394 -70,-18 -97,-93 -138,-151zm-82 -101c64,83 108,186 185,256 -96,-21 -122,-112 -177,-174 -4,-26 -4,-56 -9,-82zm-207 -45c2,-13 15,-27 22,-43 11,-26 17,-47 22,-80 34,126 57,257 82,381 9,42 14,86 32,125 -19,-177 -53,-361 -78,-536 -1,-4 2,-4 2,-2 13,8 23,16 39,26 10,6 34,14 41,24 8,10 11,42 15,62 29,134 37,334 -11,461 -24,-17 -46,-48 -62,-82 -31,-64 -58,-134 -80,-213 -10,-36 -28,-88 -24,-123zm-65 17c3,0 4,0 4,2 19,88 27,199 86,239 -63,-5 -73,-56 -88,-118 -13,-51 -24,-81 -2,-123zm-149 -168c19,-6 33,-16 45,-28 18,75 17,159 52,220 -2,-36 -1,-102 -4,-138 16,22 28,47 45,67 -2,24 -7,40 -17,67 -5,13 -14,40 -22,41 -6,1 -33,-24 -39,-30 -38,-42 -59,-122 -60,-198zm609 857c-1,-11 22,-19 19,-37 18,10 17,46 11,63 -9,-10 -29,-16 -30,-26zm-47 194c5,-16 1,-34 2,-45 17,2 24,-7 39,-9 -2,29 -18,45 -41,54zm-142 45c11,6 25,9 43,9 -12,15 -31,24 -60,22 -2,-10 16,-17 17,-30zm-243 -106c18,0 29,-7 39,-15 11,7 16,19 30,22 -14,15 -62,12 -69,-6zm-161 -437c4,-2 23,5 30,11 19,13 39,46 56,69 34,47 70,92 110,138 20,23 43,48 52,71 4,10 -3,29 15,28 -12,-63 -58,-110 -95,-155 -38,-47 -77,-93 -110,-144 9,0 19,1 26,-2 7,-4 8,-14 9,-24 18,23 48,45 60,67 -26,6 -49,-5 -65,-15 3,7 8,16 13,19 15,11 35,2 54,6 24,6 29,40 52,43 -28,13 -57,-5 -73,-17 4,10 8,21 17,26 14,8 39,1 54,6 22,8 27,35 39,45 -19,2 -43,-5 -60,-15 1,20 40,31 69,24 13,11 25,23 32,39 -33,5 -42,-4 -67,-13 4,29 38,18 62,26 15,5 30,28 45,30 24,4 57,-11 84,-17 30,-7 56,-8 86,-6 15,-28 74,-40 82,0 4,19 -15,30 -2,43 14,-6 15,-24 15,-43 40,56 -65,97 -84,41 -43,28 -109,34 -151,2 -1,10 8,9 6,19 51,18 119,19 159,47 66,-44 105,70 24,67 0,6 6,7 6,13 18,-2 27,-14 41,-19 -10,52 -109,38 -101,-19 -84,6 -128,-46 -177,-82 -1,7 1,12 2,17 38,33 82,61 108,108 58,-3 59,73 22,93 13,11 23,-13 32,-19 4,12 -4,23 -11,28 -45,30 -113,-30 -86,-80 -37,-15 -62,-48 -86,-80 -8,-10 -16,-26 -30,-26 -8,13 14,12 13,26 -17,6 -43,5 -60,0 -7,31 -52,71 -82,39 14,5 44,3 37,-13 -61,24 -77,-79 -11,-82 17,-1 32,15 47,15 14,0 26,-8 28,-21 4,-29 -40,-65 -56,-84 -55,-64 -106,-123 -159,-189 -9,-11 -28,-23 -22,-39zm32 -65c27,-1 56,15 47,56 -22,-12 -29,-40 -47,-56zm37 69c-23,-5 -44,-12 -56,-28 1,-13 10,-18 11,-30 19,16 33,36 45,58zm-166 63c17,-25 13,-61 22,-91 6,-20 24,-38 32,-60 9,-24 13,-47 15,-73 -9,-2 -11,3 -19,2 3,61 -21,111 -56,142 -10,-100 -41,-181 -95,-237 2,-47 5,-100 17,-157 13,-57 11,-114 84,-106 76,9 89,88 108,159 12,44 36,71 58,93 -46,6 -66,-15 -84,-37 -57,4 -83,-40 -108,-75 5,10 -1,21 2,30 9,30 61,60 106,63 20,18 44,32 82,32 8,18 34,27 34,45 -56,3 -89,-17 -114,-45 -42,8 -82,-16 -106,-45 -7,19 14,33 26,41 12,8 33,18 50,22 10,2 25,-1 37,2 25,7 54,47 101,41 8,16 21,26 28,43 -55,6 -99,-17 -125,-47 -51,14 -88,-20 -114,-45 -1,13 5,23 13,30 21,17 55,31 86,37 7,1 15,0 22,2 31,11 73,56 114,41 19,19 33,42 56,56 -55,27 -130,-1 -164,-28 -8,83 -50,132 -108,166zm-99 -293c38,43 81,123 78,200 -1,15 -12,25 0,37 14,-1 17,-13 28,-17 0,36 -18,53 -28,80 -58,-77 -65,-185 -78,-299zm-34 413c3,-13 7,-24 11,-37 21,31 59,78 112,56 -85,-6 -115,-80 -101,-170 5,1 6,7 11,9 9,73 42,166 127,129 27,125 -147,89 -159,13zm211 274c-75,16 -152,-40 -181,-86l0 -41c36,35 117,109 194,75 26,-11 49,-39 43,-80 -8,41 -39,68 -84,69 -86,1 -143,-83 -162,-146l0 -6c26,17 39,58 65,80 43,36 163,67 155,-37 35,5 58,24 62,56 9,62 -37,105 -93,116zm24 9c22,77 -79,73 -121,30 -18,-18 -29,-41 -37,-58 41,27 98,47 157,28zm-215 11c34,57 117,151 209,123 35,-11 74,-45 60,-95 -2,70 -76,96 -136,75 -23,-8 -56,-35 -77,-60 -22,-26 -47,-67 -50,-88 -1,-10 6,-26 4,-34 38,41 58,121 123,140 54,16 112,-9 97,-78 76,-9 107,87 71,138 -56,79 -178,58 -245,2 -33,-27 -57,-69 -56,-123zm-47 299c1,-81 3,-185 34,-248 23,82 -4,183 -34,248zm9 -545c1,-6 7,-13 9,-22 38,102 29,264 -17,362 2,-107 -6,-235 9,-340zm-15 2c-4,-104 10,-193 11,-289 51,70 28,222 -11,289zm4 381c-2,21 -3,43 -6,63 -5,-20 -7,-45 -6,-71 2,7 9,9 13,9zm-37 -689c9,105 21,189 22,310 -51,-66 -63,-224 -22,-310zm-9 284c28,41 22,122 28,192 5,57 7,113 9,168 -13,-8 -25,-27 -32,-45 -35,-83 -38,-230 -7,-317 2,0 2,1 2,2zm19 -273c6,2 13,22 17,6 5,51 -5,111 -2,174 -9,-59 -8,-118 -15,-181zm19 332c4,35 -1,86 -4,116 -1,-41 -5,-65 -4,-110l0 -6c1,1 8,5 9,0zm-60 370c-3,-39 3,-87 11,-121 43,59 42,173 50,261 -31,-21 -57,-85 -60,-140zm-276 -159c-5,41 20,74 62,75 97,2 160,-107 198,-166 2,6 8,22 6,32 -3,25 -38,70 -65,99 -26,29 -65,57 -90,67 -56,22 -117,3 -127,-50 -4,28 15,52 34,62 93,49 208,-72 254,-134 14,26 -2,51 -4,80 -44,74 -194,155 -291,86 -51,-36 -40,-133 22,-153zm80 58c-38,4 -74,-10 -62,-58 70,23 139,2 187,-39 4,-1 4,2 4,4 -31,32 -70,86 -129,93zm168 -280c9,-3 16,-7 22,-13 2,0 2,1 2,2 -17,72 -115,184 -213,166 -25,-5 -40,-26 -54,-47 -3,46 51,64 86,62 79,-4 127,-63 170,-99 11,45 -24,75 -58,101 -22,18 -57,38 -80,43 -83,20 -159,-26 -159,-93 0,-34 23,-77 69,-82 -8,42 14,69 47,73 71,9 140,-68 168,-114zm-6 -226c2,-12 23,-26 28,-37 14,82 -12,203 -99,224 56,12 81,-45 106,-80 61,103 -164,183 -170,49 95,31 122,-80 136,-157zm-30 -545c9,-7 15,-30 26,-30 7,0 21,21 30,24 25,8 46,-1 69,-11 10,21 85,-3 95,9 7,8 -20,82 -24,101 -28,159 -12,378 52,485 -45,-12 -63,-49 -82,-91 -9,-20 -23,-48 -24,-67 0,-28 21,-61 26,-95 6,-42 9,-88 -4,-121 -2,0 -2,-2 -4,-2 13,91 -10,180 -41,241 -35,-46 -61,-124 -62,-198 0,-17 7,-33 -9,-43 -2,38 3,73 9,108 6,34 20,63 24,90 4,32 -23,81 -39,106 -17,26 -41,48 -65,65 78,-141 90,-409 24,-571zm-368 950c12,6 35,6 45,6 -10,22 -33,32 -60,37 7,-13 13,-26 15,-43zm-252 118c20,2 36,-2 54,-6 4,12 15,18 22,28 -29,8 -69,6 -75,-21zm-134 -95c15,3 32,13 50,6 -1,18 0,33 6,43 -28,-7 -53,-17 -56,-50zm-17 -140c-6,12 -18,19 -19,37 -15,-14 -20,-48 -9,-65 11,8 14,23 28,28zm517 -340c-1,29 1,53 9,73 -40,55 -88,109 -136,164 -24,28 -53,47 -52,93l11 0c5,-2 1,-14 2,-19 36,-64 96,-119 146,-179 15,-18 33,-48 50,-58 19,-12 45,-9 58,-30 3,7 -5,11 -9,15 -50,58 -111,120 -166,179 -18,19 -50,45 -58,67 -8,23 6,46 28,50 25,4 41,-8 58,2 29,18 16,75 -17,73 2,23 24,1 34,0 -29,47 -103,11 -108,-34 -20,4 -52,3 -67,-4 -2,-14 12,-13 9,-28 -22,14 -29,40 -43,60 -15,21 -31,38 -47,56 17,62 -41,104 -86,78 12,-6 40,4 50,-13 -11,-13 -17,2 -32,0 -48,-5 -29,-95 28,-86 20,-32 42,-58 71,-84 13,-11 32,-24 32,-45 -42,39 -89,90 -172,95 0,49 -83,72 -103,26 13,3 27,22 37,4 -75,-17 -5,-119 43,-60 20,-17 49,-29 80,-39 30,-10 70,-6 82,-37 -37,11 -124,53 -155,2 -27,34 -120,27 -106,-32 9,14 19,42 43,28 -34,-11 -34,-62 -2,-75 43,-9 56,17 75,37 29,0 53,3 82,11 16,4 35,15 45,15 22,1 36,-18 54,-30 31,0 66,5 73,-19 -20,5 -49,12 -77,4 22,-10 37,-27 54,-43 32,3 71,4 78,-22 -21,9 -37,10 -65,11 7,-13 18,-39 39,-45 28,-8 65,9 75,-21 -20,5 -39,10 -62,4 -3,-10 24,-34 34,-45 32,1 71,1 80,-28 -22,7 -48,18 -78,11 30,-23 48,-58 82,-78zm22 54c20,-16 30,-43 52,-58 4,8 6,19 9,28 -14,19 -37,29 -60,39 -10,-15 -14,-46 -6,-67 16,-1 25,-8 41,-9 -11,23 -25,43 -34,67zm127 -543c30,-16 71,-9 101,11 20,56 32,131 37,209 4,64 -14,67 -41,106 -36,51 -61,123 -62,200 -47,-22 -53,-86 -52,-134 -17,3 -12,40 -9,60 2,16 8,34 15,47 7,15 23,25 26,37 5,18 -2,35 4,50 -52,-24 -80,-72 -84,-144 -47,28 -136,56 -202,26 14,-17 34,-29 50,-45 95,10 165,-24 200,-82 36,-2 70,-19 97,-37 -1,-9 3,-14 4,-22 -29,25 -60,49 -116,47 -29,58 -117,102 -200,71 16,-16 38,-25 52,-43 69,-11 124,-35 159,-80 47,-5 81,-24 110,-47 1,-4 -3,-14 2,-15 -31,19 -69,50 -123,54 -37,41 -86,80 -166,71 15,-21 36,-36 47,-60 65,-6 116,-25 138,-73 44,-11 77,-33 108,-58 -1,-9 2,-14 2,-22 -23,25 -45,48 -86,62 -11,4 -28,5 -37,11 -8,5 -11,16 -17,24 -27,30 -68,38 -112,45 -4,-11 11,-13 19,-22 17,-17 36,-41 49,-69 30,-60 27,-148 86,-179zm-202 73c8,-26 43,-41 52,-65 -4,62 -5,100 -11,159 16,-9 15,-32 19,-50 12,-51 25,-117 30,-170l0 -6c18,10 34,22 56,28 -11,100 -50,183 -110,226 -18,-24 -50,-78 -37,-123zm-84 306c38,-77 54,-167 71,-261 2,20 20,39 22,60 2,28 -21,88 -32,114 -15,37 -38,70 -60,86zm39 -278c9,-4 18,-9 26,-15 -21,109 -32,241 -97,317 26,-90 46,-204 71,-301zm-170 -99c30,-12 55,-28 77,-47 -41,181 -96,352 -136,536 13,-8 19,-35 26,-56 45,-147 97,-300 142,-448 8,28 8,55 19,82 6,15 24,28 26,41 2,17 -10,46 -15,67 -28,105 -73,197 -129,274 -23,32 -51,61 -82,80 -60,-182 20,-389 71,-528zm-286 424c128,-99 172,-283 263,-420l2 0c3,17 -5,36 -11,52 -18,50 -32,103 -56,151 -31,61 -67,121 -112,166 -23,23 -51,45 -86,52zm224 -435c11,2 4,22 17,21 -30,69 -69,143 -110,218 -36,67 -71,154 -138,189 -12,6 -25,8 -39,9 8,-7 16,-13 26,-17 98,-123 162,-280 243,-420zm-267 2c37,-47 82,-99 129,-146 15,-15 37,-38 50,-41 34,-8 67,4 90,-11 2,0 2,1 2,2 -115,161 -249,302 -351,476 113,-133 233,-269 347,-394 -10,31 2,64 -4,93 -7,34 -48,79 -71,108 -79,94 -175,199 -301,228 -15,-132 42,-229 110,-314zm-211 -9c118,10 203,-66 289,-110 4,-1 4,2 4,4 -47,51 -124,109 -209,121 -27,4 -62,3 -84,-15zm243 -146c31,-12 67,-17 95,-30 4,-2 10,-8 19,-2 -34,33 -87,62 -140,93 -53,30 -109,71 -170,77 -27,3 -55,1 -69,-15 101,-3 179,-90 265,-123zm50 -211c1,0 2,0 2,0 30,0 56,27 86,24 -116,68 -260,108 -381,170 115,-19 233,-67 349,-99 -11,24 -32,48 -30,78 -99,38 -240,73 -349,32 48,-115 202,-162 323,-205zm-302 -34c62,39 161,23 235,37 -21,14 -50,19 -71,32 -64,-13 -133,-22 -164,-69zm263 -2c6,9 23,18 24,26 -68,0 -138,-7 -202,-11 -45,-2 -86,-13 -101,-45 1,-3 4,-5 4,-2 70,41 187,16 276,32zm-11 -190c16,0 39,-1 50,2 16,5 30,30 43,41 18,15 33,24 50,34 -118,4 -260,-9 -383,-13 11,11 31,11 45,13 86,14 203,20 306,34 -35,17 -67,36 -90,65 -130,-9 -229,-48 -301,-114 53,-60 197,-65 282,-62zm-224 -108c34,44 89,67 142,93 -40,15 -104,-19 -127,-47 -10,-12 -13,-27 -15,-45zm256 93c-66,10 -101,-6 -155,-32 -44,-21 -82,-40 -99,-84 71,52 165,82 254,116zm134 -140c10,26 25,48 37,73 -113,-38 -223,-80 -338,-116 4,12 20,15 30,19 79,38 169,79 250,116 -34,8 -70,13 -95,30 -100,-40 -181,-98 -239,-179 124,-43 261,15 355,56zm-159 -73c-53,-4 -93,-39 -95,-101 21,44 55,75 95,101zm125 37c-50,-7 -97,-31 -136,-60 -34,-26 -74,-55 -77,-110 52,76 144,111 213,170zm151 -97c22,18 58,42 69,60 13,23 12,52 26,71 -71,-41 -144,-89 -211,-138 -57,-41 -113,-83 -174,-114 13,18 32,32 50,47 53,45 115,89 164,140 -15,3 -34,1 -45,9 -5,6 1,14 -2,19 -91,-55 -163,-128 -196,-241 132,-8 235,75 321,146zm215 362c67,6 119,-50 123,-121 4,-93 -65,-188 -110,-239 -43,-50 -109,-97 -168,-136 -64,-42 -138,-76 -205,-93 46,26 99,43 149,73 90,54 179,116 243,200 31,41 62,95 73,146 8,39 0,82 -15,110 -11,-28 -26,-52 -56,-60 0,-46 -21,-71 -50,-88 -26,-64 -58,-123 -114,-157 7,24 26,44 39,69 12,24 25,50 32,77 -15,0 -24,5 -37,6 -25,-47 -56,-99 -47,-172 84,23 139,81 177,151 13,24 18,54 41,73 -18,-80 -63,-140 -118,-185 -19,-15 -40,-24 -60,-39 -21,-16 -39,-38 -60,-56 -61,-50 -136,-97 -211,-129 16,19 37,31 56,45 56,43 113,89 164,140l0 45c-9,3 -14,-8 -19,-13 -21,-17 -45,-35 -69,-54 -31,-23 -66,-44 -97,-67 -41,-31 -83,-92 -93,-146l0 -6c180,15 327,115 431,213 49,46 111,111 140,183 35,85 29,188 -43,235 -20,13 -82,34 -95,-7zm-284 -512c52,37 110,69 151,118 -58,-32 -102,-78 -151,-118zm474 717c0,10 16,15 11,24 -35,1 -82,-10 -125,-22 -66,-18 -141,-36 -129,-121 16,3 29,10 47,11 15,-10 14,-51 13,-65 9,-3 26,6 39,7 -14,101 83,92 149,114 -1,18 2,40 -4,52zm13 39c4,14 7,27 11,41 -140,-29 -362,-37 -314,-233 10,8 19,17 28,26 -11,138 166,138 276,166zm32 -205c18,4 25,19 52,15 -34,34 -47,101 -82,127 -3,-53 4,-111 30,-142zm-50 -411c57,15 115,-14 162,-30 6,0 3,2 2,4 -39,21 -111,52 -164,26zm198 -62c24,2 54,8 73,28 -17,-1 -25,-10 -39,-13 -72,-16 -133,47 -207,41 -20,-2 -35,-7 -43,-24 69,37 138,-38 215,-32zm-13 -26c43,-2 85,15 110,41 15,15 32,42 15,62 -24,-11 -52,-34 -86,-34 -23,-1 -45,8 -62,19 7,-50 87,-36 118,-17 15,-15 -5,-33 -13,-39 -22,-15 -67,-21 -101,-19 -6,0 -13,3 -19,2 -13,-2 -23,-17 -39,-22 -39,-11 -70,10 -95,24 -23,-63 32,-101 86,-97 47,4 70,49 86,80zm153 -323c13,25 -49,55 -34,90 -26,-23 19,-91 -32,-99 -61,-10 -28,67 -45,99 3,-44 -49,-44 -39,-88 11,-6 27,-3 37,4 4,-1 2,-8 6,-9 0,-8 -11,-7 -11,-15 -2,-32 27,-33 39,-52 13,14 36,18 45,37 0,10 -6,14 -9,22 1,5 7,4 6,11 8,-9 30,-13 37,0zm-149 50c16,7 24,21 22,45 -32,19 -37,-28 -22,-45zm168 45c-8,4 -21,2 -30,0 -14,-21 0,-44 17,-56 7,16 25,34 13,56zm24 86c-82,0 -164,-21 -239,-11 -21,-69 -48,-133 -80,-192 22,7 42,3 56,17 4,8 5,19 15,22 8,-2 5,-13 13,-15 60,3 2,69 22,101 -18,1 -21,-12 -24,-26 -19,9 -1,29 9,32 22,8 59,-6 78,-6 34,-16 -17,-109 39,-101 9,1 16,6 17,19 1,-17 -41,-21 -34,-2 5,6 15,-9 22,-2 10,17 -11,19 -15,28 9,12 27,-2 26,-15 2,32 -12,68 22,78 14,4 56,6 69,2 14,-4 25,-25 30,-39 -17,-3 -16,28 -37,28 18,-36 -25,-53 -13,-90 16,-11 36,0 41,13 10,-4 6,-9 9,-19 17,-11 40,-16 62,-22 -31,64 -64,127 -86,200zm43 416c-2,-65 50,-131 41,-220 -2,-15 -4,-33 -22,-39 41,86 -27,170 -30,256 0,10 2,22 2,32 -1,53 -24,103 -15,159 2,13 9,24 11,39 -14,-27 -45,-36 -50,-67 -5,-37 30,-75 24,-125 -9,46 -43,87 -34,131 8,39 63,49 52,97 -28,-34 -86,-39 -82,-106 -16,7 -8,20 -9,34 -3,51 -32,96 -88,90 50,-22 30,-86 54,-131 26,-50 68,-92 97,-149 17,-33 39,-82 19,-110 0,63 -28,108 -58,155 -30,48 -78,89 -84,151 -4,36 -3,62 -37,73 8,-30 -2,-47 4,-82 9,-53 57,-93 88,-138 54,-77 101,-189 37,-295 0,33 17,61 19,99 9,135 -87,204 -138,284 -8,13 -11,29 -19,41 -26,36 -152,79 -161,2 53,58 149,2 172,-52 -33,33 -105,100 -157,47 59,-17 90,-62 127,-101 35,9 72,-12 90,-34 -11,-4 -18,13 -34,19 -27,10 -69,9 -73,-21 86,31 160,-56 164,-146 -4,-4 -5,-11 -11,-13 -1,88 -56,165 -140,153 71,-21 126,-146 56,-209 -7,-6 -18,-11 -28,-15 61,-12 87,40 82,95 14,-17 11,-49 2,-69 5,2 11,4 17,4 18,-8 19,-31 15,-45 -14,-46 -74,-82 -134,-84 -22,-30 -38,-67 -82,-75 9,-13 21,-32 37,-34 77,-12 157,64 248,60 -78,29 -177,-72 -237,-34 9,19 20,2 37,2 -8,47 37,78 80,60 16,-6 25,-32 43,-19 -2,18 -20,22 -32,30 23,12 49,-10 62,-22 32,5 63,-4 73,-26 -14,-6 -19,1 -37,0 -73,-5 -155,-72 -233,-62 -30,4 -40,19 -52,43 -3,-36 20,-51 58,-54 65,-5 175,22 237,15 10,-1 26,-7 28,-17 10,4 6,24 4,34 -39,34 -119,-15 -170,-19 2,7 10,7 11,15 52,5 93,32 146,28 17,16 53,9 62,-2 14,20 0,46 -17,54 -19,4 -32,-8 -43,0 13,18 45,3 58,19 0,10 -6,-1 -13,2 60,97 -34,245 4,340 -34,3 -42,-29 -43,-52zm-213 -364c12,3 -1,30 13,34 7,-6 7,-19 13,-26 12,4 24,9 37,13 -3,46 -88,22 -62,-22zm248 605c-64,-8 -50,-127 -37,-187 9,3 14,10 22,15 -8,66 -13,152 52,157 -10,11 -18,17 -37,15zm181 -17c30,-5 46,-24 67,-39 1,23 -5,47 2,71 22,-1 40,-6 54,-15 15,146 -166,149 -276,179 1,-25 12,-41 15,-65 78,-5 157,-43 138,-131zm291 -373c0,-18 -5,-27 -6,-47 48,-58 111,-102 159,-159 -48,18 -88,50 -129,82 -40,31 -82,62 -118,95 -77,35 -136,86 -172,162 25,-5 34,-38 52,-60 44,-55 106,-91 187,-110 19,54 -7,117 -30,155 -31,8 -50,5 -60,-19 26,-37 60,-67 78,-112 -12,0 -22,11 -32,19 -19,15 -39,33 -58,52 -9,9 -20,23 -28,26 -10,5 -24,3 -34,7 -36,14 -52,46 -45,93 -46,6 -71,33 -80,78 -13,-9 -12,-33 -11,-52 4,-60 39,-116 71,-161 95,-132 258,-222 424,-273 -60,5 -118,28 -172,56 -49,26 -103,55 -146,90 -84,69 -176,166 -192,282 -10,70 26,134 93,134 -70,61 -166,11 -159,-86 10,-133 109,-249 211,-327 117,-89 245,-149 385,-161 2,0 2,1 2,2 -30,111 -115,178 -187,239zm-22 -50c-9,0 -19,-1 -26,2 -3,-8 8,-13 13,-17 44,-39 101,-80 149,-116 -7,13 -21,22 -32,32 -34,30 -71,65 -103,99zm241 65c-30,21 -50,54 -84,71 3,-11 2,-27 2,-41 -2,-6 -13,-4 -19,-7 46,-54 105,-95 146,-153 -20,3 -40,21 -58,34 -36,26 -74,54 -110,84 -17,14 -33,32 -52,43 -19,12 -45,12 -60,30 -1,-49 30,-69 65,-99 64,-56 147,-117 241,-123 1,69 -41,114 -71,159zm103 -62c-17,53 -59,81 -97,114 -36,34 -75,66 -116,95 7,-18 17,-33 22,-54 63,-54 139,-93 190,-159 3,1 5,4 2,4zm-54 140c-29,10 -59,18 -86,30 49,-50 111,-87 144,-153 2,54 -31,91 -58,123zm-41 170c-1,-16 17,-33 19,-54 49,-33 102,-62 146,-99 -50,15 -101,34 -151,60 -15,8 -33,22 -47,24 -33,5 -72,-11 -106,4 -3,-8 8,-13 13,-17 70,-55 209,-101 319,-88 -41,79 -115,136 -194,170zm222 -75c-14,44 -62,57 -112,75 -48,17 -77,36 -138,34 -2,-19 27,-25 50,-32 21,-7 44,-14 65,-21 46,-16 102,-32 131,-58 3,0 4,0 4,2zm-6 30c-10,42 -53,69 -93,88 -20,-5 -53,-7 -71,-6 4,-8 15,-10 24,-13 49,-17 104,-33 140,-69zm-952 -205c8,-63 -3,-124 -39,-151 2,25 16,36 22,52 10,28 3,78 17,99zm-50 -312c15,-35 -46,-32 -62,-24 -2,9 -2,11 0,19 13,9 50,9 62,4zm-56 -11c0,-18 38,-11 43,-2 -3,15 -36,9 -43,2zm-22 -9c-20,-16 -46,-17 -67,-4l0 15c12,9 67,21 67,-11zm-19 -2c2,7 -2,8 -2,13 -13,-2 -33,5 -37,-6 5,-15 28,-6 39,-6zm-60 15c6,-37 -47,-27 -65,-17 -2,5 -4,15 0,19 13,11 53,8 65,-2zm-58 -4c2,-17 34,-14 43,-6 2,17 -36,12 -43,6zm2 168c-4,-31 -41,-57 -86,-47 12,17 59,-1 58,30 -8,-2 -29,-4 -37,0 21,7 44,17 65,17zm-719 1755c8,23 -1,42 -22,47 -2,7 6,4 4,11 21,-1 47,-46 17,-58zm9 146c1,24 -10,37 -30,41 6,1 5,9 13,9 15,-6 37,-35 17,-50zm118 69l-9 0c7,15 -2,38 -2,45 17,-1 18,-33 11,-45zm237 -67c27,10 39,-53 4,-52 0,6 -4,4 0,9 10,3 15,10 13,26 -3,9 -17,6 -17,17zm364 -883c18,46 35,107 43,161 2,14 -4,34 11,43 -2,-35 -5,-66 -11,-97 -7,-35 -28,-66 -22,-101 15,5 29,12 45,15 11,108 14,210 17,317 0,12 -5,36 6,43 3,-115 8,-239 24,-360 12,-1 28,-9 37,-7 -21,38 -26,91 -34,142 -2,15 -14,37 0,50 5,-73 26,-149 52,-209 -6,-1 -5,-9 -13,-9 -27,26 -76,33 -116,17 -20,-8 -23,-20 -39,-6zm80 22l19 0c1,82 -9,140 -9,213 -8,-69 -10,-149 -11,-213zm465 853c33,-18 -14,-86 -30,-47 34,-6 29,26 30,47zm265 108c-5,4 -15,2 -17,9 7,1 11,6 22,4 22,-16 6,-78 -22,-54 17,3 23,21 17,41zm88 -133c19,-2 28,5 32,17 -2,5 -6,18 4,17 26,-24 -26,-67 -37,-34zm-15 -123c8,10 10,-5 24,-2 13,4 7,27 19,32 16,-31 -30,-61 -43,-30z"/>
  <path class="fil1" d="M8625 14644c0,2 -1,4 -2,6 -1,2 -3,3 -6,4 -3,1 -6,2 -10,3 -4,1 -9,1 -16,1 -6,0 -11,0 -15,-1 -4,-1 -7,-2 -10,-3 -2,-1 -4,-2 -5,-4 -1,-2 -2,-4 -2,-6l0 -609 -1 0 -265 613c-1,1 -2,3 -3,4 -1,1 -3,2 -6,3 -2,1 -5,2 -9,2 -3,1 -7,1 -12,1 -5,0 -9,0 -12,-1 -3,-1 -6,-1 -9,-2 -2,-1 -4,-2 -6,-3 -1,-1 -2,-2 -3,-4l-252 -613 -1 0 0 609c0,2 -1,4 -2,6 -1,2 -3,3 -6,4 -3,1 -6,2 -10,3 -4,1 -9,1 -16,1 -6,0 -11,0 -15,-1 -4,-1 -7,-2 -10,-3 -2,-1 -4,-2 -5,-4 -1,-2 -1,-4 -1,-6l0 -632c0,-13 3,-21 10,-26 7,-5 13,-7 19,-7l35 0c9,0 16,1 23,3 7,2 12,5 18,8 5,4 9,8 13,13 3,5 7,11 9,18l222 537 3 0 232 -535c3,-8 7,-15 11,-21 4,-6 8,-10 13,-14 4,-4 9,-6 14,-7 5,-1 11,-2 17,-2l38 0c3,0 7,1 10,2 4,1 7,3 9,6 3,3 5,6 7,10 2,4 3,9 3,16l0 632zm249 0c0,2 -1,4 -2,6 -1,2 -3,3 -5,4 -2,1 -5,2 -9,2 -4,1 -9,1 -15,1 -6,0 -11,0 -15,-1 -4,-1 -7,-2 -10,-2 -2,-1 -4,-3 -5,-4 -1,-2 -1,-4 -1,-6l0 -472c0,-2 0,-4 1,-6 1,-2 3,-3 5,-4 2,-1 6,-2 10,-3 4,-1 9,-1 15,-1 6,0 11,0 15,1 4,1 7,1 9,3 2,1 4,3 5,4 1,2 2,4 2,6l0 472zm10 -631c0,17 -3,28 -9,34 -6,6 -17,9 -32,9 -15,0 -26,-3 -32,-9 -6,-6 -9,-17 -9,-34 0,-17 3,-28 9,-34 6,-6 17,-9 32,-9 15,0 26,3 32,9 6,6 9,17 9,34zm547 631c0,2 -1,4 -2,6 -1,2 -3,3 -5,4 -2,1 -5,2 -9,3 -4,1 -9,1 -15,1 -6,0 -11,0 -16,-1 -4,-1 -7,-2 -9,-3 -2,-1 -4,-2 -5,-4 -1,-2 -2,-4 -2,-6l0 -280c0,-29 -2,-53 -7,-71 -4,-18 -11,-34 -20,-47 -9,-13 -21,-23 -35,-30 -14,-7 -30,-11 -49,-11 -24,0 -48,9 -72,26 -24,17 -49,42 -76,75l0 339c0,2 -1,4 -2,6 -1,2 -3,3 -5,4 -2,1 -5,2 -9,3 -4,1 -9,1 -15,1 -6,0 -11,0 -15,-1 -4,-1 -7,-2 -10,-2 -2,-1 -4,-3 -5,-4 -1,-2 -1,-4 -1,-6l0 -472c0,-2 0,-4 1,-6 1,-2 3,-3 5,-4 3,-1 6,-2 9,-3 4,-1 9,-1 14,-1 6,0 11,0 15,1 4,1 7,1 9,3 2,1 4,3 4,4 1,2 1,4 1,6l0 67c27,-30 54,-53 80,-66 26,-14 52,-20 78,-20 31,0 57,5 78,16 21,11 38,25 51,42 13,18 22,38 28,62 6,24 9,52 9,86l0 286zm235 0c0,2 -1,4 -2,6 -1,2 -3,3 -5,4 -2,1 -5,2 -9,2 -4,1 -9,1 -15,1 -6,0 -11,0 -15,-1 -4,-1 -7,-2 -10,-2 -2,-1 -4,-3 -5,-4 -1,-2 -1,-4 -1,-6l0 -472c0,-2 0,-4 1,-6 1,-2 2,-3 5,-4 3,-1 6,-2 10,-3 4,-1 9,-1 15,-1 6,0 11,0 15,1 4,1 7,1 9,3 2,1 4,3 5,4 1,2 2,4 2,6l0 472zm10 -631c0,17 -3,28 -9,34 -6,6 -17,9 -32,9 -15,0 -26,-3 -32,-9 -6,-6 -9,-17 -9,-34 0,-17 3,-28 9,-34 6,-6 17,-9 32,-9 15,0 26,3 32,9 6,6 9,17 9,34zm442 505c0,23 -4,43 -12,61 -8,18 -20,33 -36,46 -16,13 -34,22 -56,29 -22,7 -45,10 -72,10 -16,0 -32,-1 -46,-4 -15,-3 -28,-6 -40,-10 -12,-4 -22,-8 -30,-13 -8,-5 -14,-9 -18,-12 -4,-3 -7,-8 -8,-13 -2,-5 -3,-12 -3,-21 0,-4 0,-8 1,-12 1,-3 2,-6 3,-9 1,-3 2,-4 4,-6 2,-1 4,-2 6,-2 4,0 9,2 17,7 7,5 17,10 27,16 11,6 24,11 39,16 15,5 33,7 53,7 16,0 31,-2 44,-5 13,-4 25,-9 35,-16 10,-7 17,-16 23,-27 5,-11 8,-24 8,-38 0,-15 -4,-27 -11,-37 -7,-10 -16,-19 -27,-26 -11,-7 -24,-14 -39,-20 -14,-6 -29,-12 -44,-18 -15,-6 -30,-13 -44,-20 -14,-7 -27,-16 -39,-27 -11,-11 -20,-23 -27,-38 -7,-15 -11,-32 -11,-53 0,-16 3,-32 9,-48 6,-16 16,-30 29,-43 13,-12 30,-23 50,-30 20,-8 44,-11 72,-11 12,0 24,1 35,3 12,2 22,4 32,7 10,3 18,7 25,10 7,4 12,7 16,10 4,3 6,5 7,7 1,2 2,4 3,6 1,2 1,5 1,8 0,3 1,6 1,11 0,4 0,8 -1,11 -1,3 -1,6 -2,9 -1,2 -2,4 -4,6 -1,1 -3,2 -5,2 -3,0 -7,-2 -13,-6 -6,-4 -13,-8 -22,-12 -9,-4 -20,-9 -32,-12 -12,-4 -27,-6 -43,-6 -16,0 -31,2 -43,6 -12,4 -22,9 -30,16 -8,7 -14,15 -18,24 -4,9 -6,20 -6,31 0,15 4,28 11,38 7,11 16,20 28,27 11,8 25,14 39,20 15,6 29,12 45,18 15,6 30,12 45,20 15,7 28,16 39,26 12,10 21,22 28,36 7,14 11,31 11,51zm349 97c0,7 -1,13 -2,18 -1,5 -3,8 -6,11 -3,2 -6,5 -11,7 -5,2 -11,4 -17,6 -7,2 -14,3 -21,4 -7,1 -14,1 -21,1 -23,0 -43,-3 -59,-9 -16,-6 -30,-16 -40,-28 -10,-13 -18,-29 -23,-48 -5,-19 -7,-42 -7,-69l0 -294 -70 0c-5,0 -9,-2 -11,-6 -3,-4 -4,-11 -4,-20 0,-4 0,-8 1,-12 1,-3 2,-6 3,-8 1,-2 3,-4 5,-5 2,-1 4,-2 6,-2l70 0 0 -116c0,-2 0,-4 1,-6 1,-2 3,-3 5,-4 2,-1 6,-2 10,-3 4,-1 9,-1 15,-1 6,0 11,0 15,1 4,1 7,1 9,3 2,1 4,3 5,4 1,2 2,4 2,6l0 116 131 0c2,0 5,1 7,2 2,1 4,3 5,5 1,2 2,5 3,8 1,3 1,7 1,12 0,9 -1,15 -4,20 -3,4 -7,6 -11,6l-131 0 0 285c0,36 5,63 15,82 10,19 29,28 56,28 8,0 16,-1 23,-3 7,-2 13,-4 18,-6 5,-2 10,-4 13,-6 4,-2 7,-3 10,-3 2,0 3,0 5,1 1,1 2,2 3,4 1,2 2,4 2,7 1,3 1,7 1,11zm499 -232c0,13 -3,21 -10,26 -7,5 -13,7 -19,7l-321 0c0,29 3,56 9,79 6,24 15,44 29,61 13,17 30,30 51,39 21,9 47,14 78,14 22,0 42,-2 59,-6 17,-4 32,-8 45,-13 13,-5 23,-9 31,-13 8,-4 14,-6 17,-6 2,0 4,1 6,2 2,1 3,3 4,5 1,2 2,5 3,9 1,3 1,8 1,13 0,2 0,5 -1,7 0,2 -1,4 -1,6 -1,2 -1,4 -2,5 -1,2 -3,4 -4,5 -2,2 -7,5 -16,9 -9,4 -21,9 -35,13 -15,4 -32,9 -51,12 -19,4 -40,5 -63,5 -37,0 -69,-6 -97,-16 -28,-11 -52,-27 -71,-49 -19,-21 -34,-48 -44,-79 -10,-32 -15,-68 -15,-110 0,-40 5,-76 15,-107 10,-32 25,-59 44,-81 19,-22 42,-39 69,-51 27,-12 57,-17 90,-17 35,0 66,6 91,18 25,12 46,28 62,48 16,20 28,43 35,70 7,26 11,54 11,83l0 12zm-64 -18c1,-50 -11,-89 -34,-117 -24,-28 -59,-42 -105,-42 -24,0 -44,4 -62,13 -18,9 -33,21 -45,35 -12,14 -22,31 -29,51 -7,19 -10,39 -11,60l286 0zm469 -170c0,5 0,10 -1,13 0,4 -1,7 -2,9 -1,2 -2,4 -3,5 -1,1 -3,2 -5,2 -3,0 -7,-1 -11,-2 -4,-2 -9,-3 -15,-5 -6,-2 -12,-3 -18,-5 -7,-2 -14,-2 -22,-2 -9,0 -19,2 -28,6 -9,4 -19,11 -29,19 -10,9 -20,21 -31,35 -11,15 -23,33 -36,54l0 319c0,2 -1,4 -2,6 -1,2 -3,3 -5,4 -2,1 -5,2 -9,2 -4,1 -9,1 -15,1 -6,0 -11,0 -15,-1 -4,-1 -7,-2 -10,-2 -2,-1 -4,-3 -5,-4 -1,-2 -1,-4 -1,-6l0 -472c0,-2 0,-4 1,-6 1,-2 2,-3 5,-4 3,-1 6,-2 9,-3 4,-1 9,-1 14,-1 6,0 11,0 15,1 4,1 7,1 9,3 2,1 4,3 4,4 1,2 1,4 1,6l0 75c14,-20 26,-36 38,-48 12,-12 22,-22 33,-29 11,-7 21,-12 30,-14 10,-3 20,-4 31,-4 4,0 10,0 16,1 6,1 12,2 19,3 7,1 13,3 18,5 5,2 9,4 11,5 2,2 4,3 4,4 1,1 1,3 2,5 1,2 1,4 1,8 0,3 0,7 0,13zm364 323c0,23 -4,43 -12,61 -8,18 -20,33 -36,46 -15,13 -34,22 -56,29 -22,7 -45,10 -72,10 -16,0 -32,-1 -46,-4 -15,-3 -28,-6 -40,-10 -12,-4 -22,-8 -30,-13 -8,-5 -14,-9 -18,-12 -4,-3 -7,-8 -8,-13 -2,-5 -3,-12 -3,-21 0,-4 0,-8 1,-12 1,-3 2,-6 3,-9 1,-3 2,-4 4,-6 2,-1 4,-2 6,-2 4,0 9,2 17,7 7,5 17,10 27,16 11,6 24,11 39,16 15,5 33,7 53,7 16,0 31,-2 44,-5 13,-4 25,-9 35,-16 10,-7 17,-16 23,-27 5,-11 8,-24 8,-38 0,-15 -4,-27 -11,-37 -7,-10 -16,-19 -27,-26 -11,-7 -24,-14 -39,-20 -14,-6 -29,-12 -44,-18 -15,-6 -30,-13 -44,-20 -14,-7 -27,-16 -39,-27 -11,-11 -20,-23 -27,-38 -7,-15 -11,-32 -11,-53 0,-16 3,-32 9,-48 6,-16 16,-30 29,-43 13,-12 30,-23 50,-30 20,-8 44,-11 72,-11 12,0 24,1 35,3 12,2 22,4 32,7 10,3 18,7 25,10 7,4 12,7 16,10 4,3 6,5 7,7 1,2 2,4 3,6 1,2 1,5 1,8 0,3 1,6 1,11 0,4 0,8 -1,11 -1,3 -1,6 -3,9 -1,2 -2,4 -4,6 -1,1 -3,2 -5,2 -3,0 -7,-2 -13,-6 -6,-4 -13,-8 -22,-12 -9,-4 -20,-9 -32,-12 -12,-4 -27,-6 -43,-6 -16,0 -31,2 -43,6 -12,4 -22,9 -30,16 -8,7 -14,15 -18,24 -4,9 -6,20 -6,31 0,15 4,28 11,38 7,11 16,20 28,27 11,8 25,14 39,20 15,6 29,12 45,18 15,6 30,12 45,20 15,7 28,16 39,26 12,10 21,22 28,36 7,14 11,31 11,51zm349 97c0,7 -1,13 -2,18 -1,5 -3,8 -6,11 -2,2 -6,5 -11,7 -5,2 -11,4 -17,6 -7,2 -14,3 -21,4 -7,1 -14,1 -21,1 -23,0 -43,-3 -59,-9 -16,-6 -30,-16 -40,-28 -10,-13 -18,-29 -23,-48 -5,-19 -7,-42 -7,-69l0 -294 -70 0c-5,0 -9,-2 -11,-6 -3,-4 -4,-11 -4,-20 0,-4 0,-8 1,-12 1,-3 2,-6 3,-8 1,-2 3,-4 5,-5 2,-1 4,-2 6,-2l70 0 0 -116c0,-2 0,-4 1,-6 1,-2 2,-3 5,-4 3,-1 6,-2 10,-3 4,-1 9,-1 15,-1 6,0 11,0 15,1 4,1 7,1 9,3 2,1 4,3 5,4 1,2 2,4 2,6l0 116 131 0c3,0 5,1 7,2 2,1 4,3 5,5 1,2 2,5 3,8 1,3 1,7 1,12 0,9 -1,15 -4,20 -3,4 -7,6 -11,6l-131 0 0 285c0,36 5,63 15,82 10,19 29,28 56,28 8,0 16,-1 23,-3 7,-2 13,-4 18,-6 5,-2 10,-4 13,-6 4,-2 7,-3 10,-3 2,0 3,0 5,1 1,1 3,2 3,4 1,2 2,4 2,7 1,3 1,7 1,11zm750 -444c0,2 0,4 -1,6 -1,2 -1,5 -2,7l-146 460c-1,3 -2,5 -4,7 -2,2 -4,3 -7,4 -3,1 -7,2 -12,2 -5,0 -11,1 -18,1 -7,0 -14,0 -19,-1 -5,-1 -9,-1 -13,-3 -3,-1 -6,-2 -8,-4 -2,-2 -3,-4 -4,-6l-110 -372 -1 -4 -1 4 -102 372c-1,3 -2,5 -4,7 -2,2 -5,3 -9,4 -4,1 -8,2 -13,2 -5,0 -11,1 -18,1 -7,0 -13,0 -18,-1 -5,-1 -9,-1 -12,-3 -3,-1 -6,-2 -8,-4 -2,-2 -3,-4 -4,-6l-145 -460c-1,-2 -2,-5 -2,-7 -1,-2 -1,-4 -1,-6 0,-2 1,-4 2,-6 1,-2 3,-3 5,-4 2,-1 6,-1 9,-2 4,0 9,-1 14,-1 7,0 13,0 18,1 4,1 8,1 10,2 2,1 4,2 5,4 1,2 2,4 3,6l125 412 1 4 1 -4 113 -412c1,-3 2,-4 3,-6 1,-2 3,-3 5,-4 2,-1 6,-2 9,-2 4,-1 9,-1 15,-1 6,0 11,0 15,1 4,1 7,1 9,2 2,1 4,2 5,4 1,2 2,4 3,6l122 412 1 4 1 -4 124 -412c1,-3 2,-4 3,-6 1,-2 3,-3 6,-4 2,-1 6,-2 10,-2 4,-1 10,-1 17,-1 6,0 10,0 14,1 3,0 6,1 8,2 2,1 4,2 4,4 1,1 1,4 1,6zm528 232c0,38 -5,72 -15,104 -10,32 -24,59 -44,82 -19,23 -43,41 -72,55 -29,13 -62,20 -101,20 -37,0 -69,-6 -97,-17 -28,-12 -51,-28 -69,-50 -19,-22 -33,-48 -42,-79 -9,-31 -14,-66 -14,-105 0,-38 5,-72 14,-104 9,-32 24,-59 43,-82 19,-23 43,-41 72,-54 29,-13 63,-19 101,-19 37,0 69,6 97,17 28,11 51,28 69,50 19,22 32,48 42,79 9,31 14,66 14,104zm-66 6c0,-27 -3,-52 -8,-77 -5,-24 -14,-46 -26,-64 -12,-19 -29,-33 -49,-44 -20,-11 -46,-16 -76,-16 -28,0 -52,5 -73,15 -20,10 -37,24 -50,42 -13,18 -23,39 -29,63 -6,24 -9,51 -9,79 0,27 3,53 8,77 5,25 14,46 26,64 12,18 29,33 49,44 20,11 46,16 76,16 28,0 52,-5 73,-15 20,-10 37,-24 50,-42 13,-18 23,-39 29,-63 6,-24 9,-51 9,-79z"/>
  <path class="fil1" d="M8262 15489c0,30 -5,57 -16,81 -11,24 -26,44 -45,60 -19,17 -43,29 -69,38 -27,9 -56,13 -88,13 -22,0 -42,-2 -61,-6 -19,-4 -36,-9 -51,-14 -15,-6 -28,-11 -38,-17 -10,-6 -17,-11 -21,-14 -4,-4 -7,-9 -8,-14 -2,-5 -3,-12 -3,-20 0,-6 0,-11 1,-15 1,-4 2,-7 3,-9 1,-2 3,-4 5,-5 2,-1 4,-1 6,-1 5,0 12,3 20,9 9,6 20,13 35,20 14,7 31,14 50,20 20,6 43,9 69,9 21,0 41,-3 58,-9 18,-6 33,-14 46,-25 13,-11 23,-24 30,-40 7,-16 11,-34 11,-54 0,-21 -4,-39 -14,-54 -9,-15 -21,-28 -36,-39 -15,-11 -32,-22 -50,-31 -19,-9 -38,-18 -58,-28 -20,-9 -39,-19 -58,-30 -19,-11 -36,-23 -50,-38 -15,-14 -27,-31 -36,-51 -9,-19 -14,-43 -14,-69 0,-26 5,-50 14,-70 9,-21 23,-38 40,-53 17,-14 37,-26 61,-33 24,-8 50,-11 79,-11 14,0 29,1 43,4 15,3 29,6 42,11 13,4 25,9 35,15 10,5 17,10 20,13 3,3 5,6 6,7 1,2 2,4 2,6 1,2 1,5 2,9 0,3 1,7 1,12 0,5 0,9 -1,12 -1,4 -1,7 -2,9 -1,3 -2,5 -4,6 -2,1 -3,2 -6,2 -4,0 -10,-2 -17,-8 -8,-5 -18,-11 -29,-17 -12,-6 -26,-12 -42,-17 -16,-5 -35,-8 -56,-8 -20,0 -38,3 -54,8 -15,6 -28,13 -38,23 -10,9 -17,21 -23,33 -5,13 -7,26 -7,40 0,21 4,39 14,54 9,15 21,28 36,40 15,11 32,22 51,31 19,9 38,18 58,28 20,9 39,19 58,30 19,11 36,23 51,37 15,14 27,31 36,51 9,19 14,42 14,69zm544 -71c0,40 -4,77 -13,109 -9,32 -22,60 -39,82 -17,22 -38,40 -64,52 -25,12 -55,19 -87,19 -14,0 -27,-1 -39,-4 -12,-3 -24,-7 -36,-14 -12,-6 -23,-14 -35,-23 -12,-9 -24,-21 -37,-34l0 244c0,2 -1,4 -2,6 -1,2 -3,3 -5,4 -2,1 -5,2 -9,3 -4,1 -9,1 -15,1 -6,0 -11,0 -15,-1 -4,-1 -7,-1 -10,-3 -2,-1 -4,-3 -5,-4 -1,-2 -1,-4 -1,-6l0 -659c0,-3 0,-4 1,-6 1,-2 3,-3 5,-4 2,-1 5,-2 9,-2 4,-1 8,-1 13,-1 5,0 10,0 13,1 4,1 6,1 9,2 2,1 4,2 5,4 1,2 2,4 2,6l0 68c15,-15 29,-28 42,-39 13,-11 27,-20 40,-27 13,-7 27,-13 41,-16 14,-3 29,-5 44,-5 34,0 63,7 87,20 24,13 44,31 59,53 15,23 26,49 33,79 7,30 10,62 10,96zm-65 10c0,-26 -2,-52 -6,-76 -4,-24 -11,-46 -21,-65 -10,-19 -23,-34 -40,-46 -17,-12 -37,-17 -63,-17 -12,0 -25,2 -37,5 -12,4 -24,9 -37,17 -13,8 -26,18 -39,31 -14,13 -28,28 -43,47l0 206c26,32 51,56 75,73 24,17 49,25 75,25 24,0 45,-6 62,-17 17,-12 31,-27 42,-46 11,-19 19,-40 24,-64 5,-24 8,-48 8,-72zm470 -215c0,5 0,10 -1,13 0,4 -1,7 -2,9 -1,2 -2,4 -3,5 -1,1 -3,2 -5,2 -3,0 -7,-1 -11,-2 -4,-2 -9,-3 -15,-5 -6,-2 -12,-3 -18,-5 -7,-2 -14,-2 -22,-2 -9,0 -19,2 -28,6 -9,4 -19,11 -29,19 -10,9 -20,21 -31,35 -11,15 -23,33 -36,54l0 319c0,2 -1,4 -2,6 -1,2 -3,3 -5,4 -2,1 -5,2 -9,3 -4,1 -9,1 -15,1 -6,0 -11,0 -15,-1 -4,-1 -7,-2 -10,-3 -2,-1 -4,-2 -5,-4 -1,-2 -1,-4 -1,-6l0 -472c0,-2 0,-4 1,-6 1,-2 3,-3 5,-4 2,-1 6,-2 9,-3 4,-1 9,-1 14,-1 6,0 11,0 15,1 4,1 7,1 9,3 2,1 4,3 4,4 1,2 1,4 1,6l0 75c14,-20 26,-36 38,-48 12,-12 22,-22 33,-28 11,-7 21,-12 30,-14 10,-3 20,-4 31,-4 4,0 10,0 16,1 6,1 12,2 19,3 7,1 13,3 18,5 5,2 9,4 11,5 2,2 4,3 4,4 1,1 1,3 2,5 1,2 1,4 1,8 0,3 0,7 0,13zm416 449c0,3 -1,6 -3,8 -2,2 -5,3 -9,4 -4,1 -9,1 -15,1 -6,0 -11,0 -15,-1 -4,-1 -7,-2 -10,-4 -2,-2 -3,-5 -3,-8l0 -53c-21,23 -45,41 -70,53 -25,12 -52,19 -79,19 -25,0 -47,-3 -66,-10 -20,-7 -36,-16 -50,-28 -14,-12 -24,-27 -31,-44 -7,-17 -11,-36 -11,-58 0,-26 5,-49 16,-68 11,-19 26,-35 46,-48 20,-13 44,-22 71,-29 28,-6 59,-10 93,-10l75 0 0 -40c0,-20 -2,-38 -6,-53 -4,-15 -11,-28 -20,-39 -9,-10 -22,-18 -37,-23 -15,-5 -33,-8 -55,-8 -21,0 -40,2 -56,8 -17,5 -31,11 -44,17 -12,6 -23,12 -31,17 -8,5 -14,8 -17,8 -2,0 -4,0 -6,-1 -2,-1 -3,-2 -4,-4 -1,-2 -2,-4 -3,-7 -1,-3 -1,-6 -1,-11 0,-7 1,-13 2,-17 1,-4 4,-9 8,-13 4,-4 12,-10 23,-15 11,-6 24,-12 38,-17 14,-5 30,-9 46,-12 17,-3 33,-5 50,-5 32,0 60,4 82,12 22,8 40,19 54,34 14,15 24,33 29,54 6,21 9,46 9,73l0 320zm-62 -224l-86 0c-25,0 -47,2 -66,7 -19,5 -34,11 -47,20 -12,9 -22,19 -28,31 -6,12 -9,26 -9,42 0,27 9,49 26,65 17,16 41,24 72,24 25,0 48,-6 69,-19 21,-13 44,-32 68,-59l0 -111zm855 -249c0,2 0,4 -1,6 -1,2 -1,5 -2,7l-146 460c-1,3 -2,5 -4,7 -2,2 -4,3 -7,4 -3,1 -7,2 -12,2 -5,0 -11,1 -18,1 -7,0 -14,0 -19,-1 -5,-1 -9,-1 -13,-3 -3,-1 -6,-2 -8,-4 -2,-2 -3,-4 -4,-6l-110 -372 -1 -4 -1 4 -102 372c-1,3 -2,5 -4,7 -2,2 -5,3 -9,4 -4,1 -8,2 -13,2 -5,0 -11,1 -18,1 -7,0 -13,0 -18,-1 -5,-1 -9,-1 -12,-3 -3,-1 -6,-2 -8,-4 -2,-2 -3,-4 -4,-6l-145 -460c-1,-2 -2,-5 -2,-7 -1,-2 -1,-4 -1,-6 0,-2 1,-4 2,-6 1,-2 3,-3 5,-4 2,-1 6,-1 9,-2 4,0 9,-1 14,-1 7,0 13,0 18,1 4,1 8,1 10,2 2,1 4,2 5,4 1,2 2,4 3,6l125 412 1 4 1 -4 113 -412c1,-3 2,-4 3,-6 1,-2 3,-3 5,-4 2,-1 6,-2 9,-2 4,-1 9,-1 15,-1 6,0 11,0 15,1 4,1 7,1 9,2 2,1 4,2 5,4 1,2 2,4 3,6l122 412 1 4 1 -4 124 -412c1,-3 2,-4 3,-6 1,-2 3,-3 6,-4 2,-1 6,-2 10,-2 4,-1 10,-1 17,-1 6,0 10,0 14,1 3,0 6,1 8,2 2,1 4,2 4,4 1,1 1,4 1,6zm985 472c-1,3 -3,5 -5,7 -2,2 -5,3 -9,4 -4,1 -8,2 -12,3 -5,1 -10,1 -17,1 -6,0 -12,0 -17,-1 -5,-1 -9,-1 -13,-3 -4,-1 -7,-3 -9,-4 -2,-2 -4,-4 -5,-7l-160 -555 -1 0 -146 555c-1,3 -2,5 -4,7 -2,2 -4,3 -8,4 -3,1 -7,2 -12,3 -5,1 -10,1 -17,1 -7,0 -13,0 -18,-1 -5,-1 -9,-1 -13,-3 -4,-1 -7,-3 -9,-4 -2,-2 -4,-4 -5,-7l-192 -643c-2,-6 -3,-10 -3,-13 0,-3 1,-6 4,-7 2,-2 6,-3 10,-3 5,-1 11,-1 19,-1 8,0 14,0 19,1 4,1 8,1 11,3 2,1 4,2 5,4 1,2 2,4 2,6l169 593 1 0 156 -593c1,-2 1,-4 2,-6 1,-2 3,-3 6,-4 3,-1 6,-2 11,-3 5,-1 11,-1 19,-1 6,0 11,0 14,1 4,1 7,1 9,3 2,1 4,2 5,4 1,2 2,4 3,6l170 593 1 0 165 -593c1,-2 1,-4 2,-6 1,-2 3,-3 5,-4 2,-1 6,-2 10,-3 4,-1 10,-1 17,-1 8,0 14,0 18,1 5,1 8,2 10,4 2,2 3,4 4,7 0,3 0,7 -2,13l-192 643zm664 -260c0,13 -3,21 -10,26 -7,5 -13,7 -19,7l-321 0c0,29 3,56 9,79 6,24 15,44 29,61 13,17 30,30 51,39 21,9 47,14 78,14 22,0 41,-2 59,-6 17,-4 32,-8 45,-13 13,-5 23,-9 31,-13 8,-4 14,-6 17,-6 2,0 4,1 6,2 2,1 3,3 4,5 1,2 2,5 3,9 1,3 1,8 1,13 0,2 0,5 -1,7 0,2 -1,4 -1,6 -1,2 -1,4 -2,5 -1,2 -3,4 -4,5 -2,2 -7,5 -16,9 -9,4 -21,9 -35,13 -15,4 -32,9 -51,12 -19,4 -40,5 -63,5 -37,0 -69,-6 -97,-16 -28,-11 -52,-27 -71,-49 -19,-21 -34,-48 -44,-79 -10,-32 -15,-68 -15,-110 0,-40 5,-76 15,-107 10,-32 25,-59 44,-81 19,-22 42,-39 69,-51 27,-12 57,-17 90,-17 35,0 66,6 91,18 25,12 46,28 62,48 16,20 28,43 35,70 7,26 11,54 11,83l0 12zm-64 -18c1,-50 -11,-89 -34,-117 -24,-28 -59,-42 -105,-42 -24,0 -44,4 -62,13 -18,9 -33,21 -45,35 -12,14 -22,31 -29,51 -7,19 -10,39 -11,60l286 0zm828 -194c0,2 0,4 -1,6 -1,2 -1,5 -2,7l-146 460c-1,3 -2,5 -4,7 -2,2 -4,3 -7,4 -3,1 -7,2 -12,2 -5,0 -11,1 -18,1 -7,0 -14,0 -19,-1 -5,-1 -9,-1 -13,-3 -3,-1 -6,-2 -8,-4 -2,-2 -3,-4 -4,-6l-110 -372 -1 -4 -1 4 -102 372c-1,3 -2,5 -4,7 -2,2 -5,3 -9,4 -4,1 -8,2 -13,2 -5,0 -11,1 -18,1 -7,0 -13,0 -18,-1 -5,-1 -9,-1 -12,-3 -3,-1 -6,-2 -8,-4 -2,-2 -3,-4 -4,-6l-145 -460c-1,-2 -2,-5 -2,-7 -1,-2 -1,-4 -1,-6 0,-2 1,-4 2,-6 1,-2 3,-3 5,-4 2,-1 6,-1 9,-2 4,0 9,-1 14,-1 7,0 13,0 18,1 4,1 8,1 10,2 2,1 4,2 5,4 1,2 2,4 3,6l125 412 1 4 1 -4 113 -412c1,-3 2,-4 3,-6 1,-2 3,-3 5,-4 2,-1 6,-2 9,-2 4,-1 9,-1 15,-1 6,0 11,0 15,1 4,1 7,1 9,2 2,1 4,2 5,4 1,2 2,4 3,6l122 412 1 4 1 -4 124 -412c1,-3 2,-4 3,-6 1,-2 3,-3 6,-4 2,-1 6,-2 10,-2 4,-1 10,-1 17,-1 6,0 10,0 14,1 3,0 6,1 8,2 2,1 4,2 4,4 1,1 1,4 1,6zm504 473c0,2 -1,4 -2,6 -1,2 -3,3 -5,4 -2,1 -5,2 -9,3 -4,1 -9,1 -15,1 -6,0 -11,0 -15,-1 -4,-1 -7,-2 -9,-3 -2,-1 -4,-2 -5,-4 -1,-2 -2,-4 -2,-6l0 -280c0,-29 -2,-53 -7,-71 -4,-18 -11,-34 -20,-47 -9,-13 -21,-23 -35,-30 -14,-7 -30,-11 -49,-11 -24,0 -48,9 -72,26 -24,17 -49,42 -76,75l0 339c0,2 -1,4 -2,6 -1,2 -3,3 -5,4 -2,1 -5,2 -9,3 -4,1 -9,1 -15,1 -6,0 -11,0 -15,-1 -4,-1 -7,-2 -10,-3 -2,-1 -4,-2 -5,-4 -1,-2 -1,-4 -1,-6l0 -472c0,-2 0,-4 1,-6 1,-2 3,-3 5,-4 2,-1 6,-2 9,-3 4,-1 9,-1 14,-1 6,0 11,0 15,1 4,1 7,1 9,3 2,1 4,3 4,4 1,2 1,4 1,6l0 67c27,-30 54,-53 80,-66 26,-14 52,-20 78,-20 31,0 57,5 78,16 21,11 38,25 51,42 13,18 22,38 28,62 6,24 9,52 9,86l0 286zm557 -261c0,13 -3,21 -10,26 -7,5 -13,7 -19,7l-321 0c0,29 3,56 9,79 6,24 15,44 28,61 13,17 30,30 51,39 21,9 47,14 78,14 22,0 41,-2 59,-6 17,-4 32,-8 45,-13 13,-5 23,-9 31,-13 8,-4 14,-6 17,-6 2,0 4,1 6,2 2,1 3,3 4,5 1,2 2,5 3,9 1,3 1,8 1,13 0,5 0,9 0,13 0,4 -1,7 -1,10 -1,3 -2,5 -3,7 -1,2 -3,4 -5,6l-81 83c-10,10 -16,18 -19,25 -3,7 -4,13 -4,18 0,11 3,19 9,24 6,5 17,8 32,8l63 0c4,0 8,1 10,3 2,2 3,7 3,15 0,4 0,8 -1,11 -1,3 -1,5 -2,7 -1,2 -3,3 -5,4 -2,1 -5,2 -8,2 -11,3 -21,5 -32,6 -11,1 -22,2 -34,2 -30,0 -53,-6 -69,-19 -17,-13 -25,-31 -25,-56 0,-7 1,-13 2,-19 1,-6 4,-12 7,-19 3,-7 8,-14 13,-21 6,-7 13,-15 21,-25l31 -31c-10,3 -21,4 -33,6 -12,1 -25,2 -41,2 -37,0 -69,-6 -97,-16 -28,-11 -52,-27 -71,-49 -19,-21 -34,-48 -43,-79 -10,-32 -15,-68 -15,-110 0,-40 5,-76 15,-107 10,-32 25,-59 44,-81 19,-22 42,-39 69,-51 27,-12 57,-17 90,-17 35,0 66,6 91,18 25,12 46,28 62,48 16,20 28,43 35,70 7,26 11,54 11,83l0 12zm-64 -18c1,-50 -11,-89 -34,-117 -24,-28 -59,-42 -105,-42 -24,0 -44,4 -62,13 -18,9 -33,21 -45,35 -12,14 -22,31 -29,51 -7,19 -10,39 -11,60l286 0zm429 250c0,7 -1,13 -2,18 -1,5 -3,8 -6,11 -3,2 -6,5 -11,7 -5,2 -11,4 -17,6 -7,2 -14,3 -21,4 -7,1 -14,1 -21,1 -23,0 -43,-3 -59,-9 -16,-6 -30,-16 -40,-28 -10,-13 -18,-29 -23,-48 -5,-19 -7,-42 -7,-69l0 -294 -70 0c-5,0 -9,-2 -11,-6 -3,-4 -4,-11 -4,-20 0,-4 0,-8 1,-12 1,-3 2,-6 3,-8 1,-2 3,-4 5,-5 2,-1 4,-2 6,-2l70 0 0 -116c0,-2 0,-4 1,-6 1,-2 2,-3 5,-4 3,-1 6,-2 10,-3 4,-1 9,-1 15,-1 6,0 11,0 15,1 4,1 7,1 9,3 2,1 4,3 5,4 1,2 2,4 2,6l0 116 131 0c3,0 5,1 7,2 2,1 4,3 5,5 1,2 2,5 3,8 1,3 1,7 1,12 0,9 -1,15 -4,20 -3,4 -7,6 -11,6l-131 0 0 285c0,36 5,63 15,82 10,19 29,28 56,28 8,0 16,-1 23,-3 7,-2 13,-4 18,-6 5,-2 10,-4 13,-6 4,-2 7,-3 10,-3 2,0 3,0 5,1 1,1 3,2 3,4 1,2 2,4 2,7 1,3 1,7 1,11z"/>
  <path class="fil1" d="M14644 15213c0,5 0,10 -1,13 0,4 -1,7 -2,9 -1,2 -2,4 -3,5 -1,1 -3,2 -5,2 -3,0 -7,-1 -11,-2 -4,-2 -9,-3 -15,-5 -6,-2 -12,-3 -18,-5 -7,-2 -14,-2 -22,-2 -9,0 -19,2 -28,6 -9,4 -19,11 -29,19 -10,9 -20,21 -31,35 -11,15 -23,33 -36,54l0 319c0,2 -1,4 -2,6 -1,2 -3,3 -5,4 -2,1 -5,2 -9,3 -4,1 -9,1 -15,1 -6,0 -11,0 -15,-1 -4,-1 -7,-2 -10,-3 -2,-1 -4,-2 -5,-4 -1,-2 -1,-4 -1,-6l0 -472c0,-2 0,-4 1,-6 1,-2 2,-3 5,-4 3,-1 6,-2 9,-3 4,-1 9,-1 14,-1 6,0 11,0 15,1 4,1 7,1 9,3 2,1 4,3 4,4 1,2 1,4 1,6l0 75c14,-20 26,-36 38,-48 12,-12 22,-22 33,-28 11,-7 21,-12 30,-14 10,-3 20,-4 31,-4 4,0 10,0 16,1 6,1 12,2 19,3 7,1 13,3 18,5 5,2 9,4 11,5 2,2 4,3 4,4 1,1 1,3 2,5 1,2 1,4 1,8 0,3 0,7 0,13zm392 432c0,4 0,9 -1,12 -1,3 -2,6 -3,9 -1,2 -3,4 -5,5 -2,1 -4,2 -7,2l-281 0c-6,0 -12,-2 -16,-6 -4,-4 -7,-11 -7,-21l0 -15c0,-4 0,-7 1,-11 1,-3 2,-6 3,-10 1,-3 3,-7 6,-11 2,-4 5,-9 9,-14l224 -352 -220 0c-5,0 -9,-2 -12,-7 -3,-4 -5,-11 -5,-21 0,-5 0,-9 1,-12 1,-3 2,-6 3,-9 1,-2 3,-4 5,-5 2,-1 4,-2 7,-2l261 0c3,0 6,1 9,2 3,1 5,2 7,5 2,2 4,5 5,8 1,4 2,8 2,13l0 12c0,4 0,7 -1,11 -1,4 -2,7 -3,11 -1,4 -3,8 -6,12 -2,4 -5,9 -9,15l-223 352 240 0c2,0 5,1 7,2 2,1 4,3 5,5 1,2 3,5 3,9 1,4 1,7 1,12zm518 17c0,2 -1,4 -2,6 -1,2 -3,3 -5,4 -2,1 -5,2 -9,3 -4,1 -9,1 -15,1 -6,0 -11,0 -16,-1 -4,-1 -7,-2 -9,-3 -2,-1 -4,-2 -5,-4 -1,-2 -2,-4 -2,-6l0 -280c0,-29 -2,-53 -7,-71 -4,-18 -11,-34 -20,-47 -9,-13 -21,-23 -35,-30 -14,-7 -30,-11 -49,-11 -24,0 -48,9 -72,26 -24,17 -49,42 -76,75l0 339c0,2 -1,4 -2,6 -1,2 -3,3 -5,4 -2,1 -5,2 -9,3 -4,1 -9,1 -15,1 -6,0 -11,0 -15,-1 -4,-1 -7,-2 -10,-3 -2,-1 -4,-2 -5,-4 -1,-2 -1,-4 -1,-6l0 -472c0,-2 0,-4 1,-6 1,-2 3,-3 5,-4 2,-1 6,-2 9,-3 4,-1 9,-1 14,-1 6,0 11,0 15,1 4,1 7,1 9,3 2,1 4,3 4,4 1,2 1,4 1,6l0 67c27,-30 54,-53 80,-66 26,-14 52,-20 78,-20 31,0 57,5 78,16 21,11 38,25 51,42 13,18 22,38 28,62 6,24 9,52 9,86l0 286zm335 10l-65 177c-2,4 -5,7 -11,10 -6,3 -15,4 -27,4 -6,0 -11,0 -16,-1 -4,-1 -7,-2 -10,-4 -2,-2 -4,-4 -4,-7 0,-3 0,-6 2,-11l67 -167c-3,-1 -5,-3 -7,-5 -2,-2 -4,-5 -4,-7l-172 -460c-2,-5 -3,-9 -3,-12 0,-3 1,-5 3,-7 2,-2 5,-3 9,-3 4,-1 10,-1 17,-1 8,0 14,0 18,1 4,1 8,1 11,2 2,1 4,2 6,4 1,2 2,4 3,6l148 412 2 0 145 -412c2,-5 4,-8 7,-10 3,-2 7,-3 12,-3 5,-1 11,-1 18,-1 7,0 12,0 16,1 4,1 7,2 10,4 2,2 3,4 3,7 0,3 -1,7 -3,11l-176 473zm604 -81c0,4 0,8 -1,11 0,3 -1,6 -2,9 -1,3 -2,5 -3,7 -1,2 -4,5 -9,10 -4,4 -12,10 -23,17 -11,7 -23,13 -36,19 -13,5 -27,9 -43,13 -15,3 -31,5 -47,5 -33,0 -62,-6 -87,-16 -25,-11 -46,-27 -63,-49 -17,-21 -30,-48 -39,-79 -9,-31 -13,-67 -13,-108 0,-46 6,-85 16,-118 11,-33 26,-59 45,-80 19,-21 42,-36 67,-46 25,-10 53,-15 82,-15 15,0 30,1 45,4 14,3 27,7 39,12 12,5 23,10 32,17 9,6 16,12 21,16 4,4 7,8 9,10 1,2 3,5 4,8 1,3 1,6 2,9 0,3 1,7 1,12 0,10 -1,17 -4,21 -3,4 -6,6 -10,6 -5,0 -11,-3 -18,-9 -7,-6 -16,-13 -27,-20 -11,-7 -25,-14 -40,-20 -16,-6 -35,-9 -56,-9 -45,0 -80,17 -104,52 -24,35 -37,85 -37,151 0,33 3,62 10,87 7,25 16,46 28,62 12,17 27,29 45,37 18,8 38,12 60,12 21,0 39,-3 55,-10 16,-7 30,-14 42,-22 12,-8 22,-16 29,-22 8,-7 14,-10 17,-10 2,0 4,1 6,2 1,1 3,3 4,6 1,2 2,6 2,9 1,4 1,8 1,13zm508 71c0,2 -1,4 -2,6 -1,2 -3,3 -5,4 -2,1 -5,2 -9,3 -4,1 -9,1 -15,1 -6,0 -11,0 -16,-1 -4,-1 -7,-2 -9,-3 -2,-1 -4,-2 -5,-4 -1,-2 -2,-4 -2,-6l0 -280c0,-29 -2,-53 -7,-71 -4,-18 -11,-34 -20,-47 -9,-13 -21,-23 -35,-30 -14,-7 -30,-11 -49,-11 -24,0 -48,9 -72,26 -24,17 -49,42 -76,75l0 339c0,2 -1,4 -2,6 -1,2 -3,3 -5,4 -2,1 -5,2 -9,3 -4,1 -9,1 -15,1 -6,0 -11,0 -15,-1 -4,-1 -7,-2 -10,-3 -2,-1 -4,-2 -5,-4 -1,-2 -1,-4 -1,-6l0 -704c0,-2 0,-4 1,-6 1,-2 2,-3 5,-4 3,-1 6,-2 10,-3 4,-1 9,-1 15,-1 6,0 11,0 15,1 4,1 7,1 9,3 2,1 4,3 5,4 1,2 2,4 2,6l0 295c26,-29 51,-50 77,-63 26,-13 51,-20 77,-20 31,0 57,5 78,16 21,11 38,25 51,42 13,18 22,38 28,62 6,24 9,52 9,86l0 286zm-9030 1018c0,2 -1,4 -2,6 -1,2 -3,3 -5,4 -2,1 -5,2 -9,3 -4,1 -9,1 -15,1 -6,0 -11,0 -15,-1 -4,-1 -7,-2 -10,-3 -2,-1 -4,-2 -5,-4 -1,-2 -1,-4 -1,-6l0 -472c0,-2 0,-4 1,-6 1,-2 2,-3 5,-4 3,-1 6,-2 10,-3 4,-1 9,-1 15,-1 6,0 11,0 15,1 4,1 7,1 9,3 2,1 4,3 5,4 1,2 2,4 2,6l0 472zm10 -631c0,17 -3,28 -9,34 -6,6 -17,9 -32,9 -15,0 -26,-3 -32,-9 -6,-6 -9,-17 -9,-34 0,-17 3,-28 9,-34 6,-6 17,-9 32,-9 15,0 26,3 32,9 6,6 9,17 9,34zm897 620c2,5 3,10 3,13 0,3 -1,6 -4,8 -2,2 -6,3 -10,3 -5,1 -11,1 -18,1 -7,0 -13,0 -17,-1 -4,-1 -8,-1 -10,-3 -2,-1 -4,-2 -5,-4 -1,-2 -2,-4 -3,-6l-65 -180 -297 0 -63 179c-1,3 -2,4 -3,6 -1,2 -3,3 -6,4 -2,1 -6,2 -10,3 -4,1 -10,1 -16,1 -7,0 -13,0 -18,-1 -5,-1 -8,-2 -11,-4 -2,-2 -3,-4 -4,-7 0,-3 1,-7 3,-13l237 -643c1,-3 3,-5 5,-7 2,-2 5,-4 8,-4 3,-1 7,-2 12,-2 5,-1 10,-1 16,-1 6,0 12,0 16,1 5,1 9,1 12,2 3,1 6,2 8,4 2,2 3,4 4,7l237 643zm-281 -586l-1 0 -127 363 259 0 -131 -363zm772 597c0,2 0,4 -1,6 -1,2 -3,3 -5,4 -2,1 -5,2 -9,3 -3,1 -8,1 -13,1 -6,0 -10,0 -14,-1 -4,-1 -7,-1 -9,-3 -2,-1 -4,-2 -5,-4 -1,-2 -2,-4 -2,-6l0 -68c-25,27 -51,48 -78,64 -27,16 -56,23 -88,23 -34,0 -63,-7 -87,-20 -24,-13 -44,-31 -59,-54 -15,-23 -26,-49 -33,-80 -7,-30 -11,-63 -11,-97 0,-40 4,-76 13,-108 9,-32 22,-60 39,-82 17,-22 38,-40 63,-52 25,-12 54,-18 87,-18 29,0 55,6 78,19 24,13 47,31 70,56l0 -284c0,-2 0,-4 1,-6 1,-2 2,-3 5,-4 3,-1 6,-2 10,-2 4,-1 9,-1 15,-1 6,0 11,0 15,1 4,1 7,2 9,2 2,1 4,3 5,4 1,2 2,4 2,6l0 701zm-62 -341c-26,-32 -51,-56 -76,-72 -24,-17 -50,-25 -76,-25 -24,0 -44,6 -61,17 -17,11 -31,27 -42,45 -11,19 -19,40 -23,64 -5,24 -7,48 -7,72 0,26 2,51 6,76 4,25 11,47 21,66 10,19 23,35 40,46 17,12 37,17 62,17 13,0 25,-2 37,-5 12,-4 24,-9 37,-17 13,-8 26,-18 39,-31 13,-13 28,-28 43,-47l0 -206zm910 341c0,2 -1,4 -2,6 -1,2 -3,3 -5,4 -2,1 -5,2 -9,3 -4,1 -9,1 -15,1 -6,0 -11,0 -16,-1 -4,-1 -7,-2 -10,-3 -3,-1 -4,-2 -5,-4 -1,-2 -1,-4 -1,-6l0 -291c0,-22 -2,-43 -6,-61 -4,-18 -10,-34 -19,-47 -9,-13 -19,-23 -32,-30 -13,-7 -28,-11 -46,-11 -22,0 -44,9 -66,26 -22,17 -47,42 -74,75l0 339c0,2 -1,4 -2,6 -1,2 -3,3 -5,4 -2,1 -5,2 -9,3 -4,1 -9,1 -15,1 -6,0 -11,0 -15,-1 -4,-1 -7,-2 -10,-3 -2,-1 -4,-2 -5,-4 -1,-2 -1,-4 -1,-6l0 -291c0,-22 -2,-43 -6,-61 -4,-18 -11,-34 -19,-47 -9,-13 -19,-23 -32,-30 -13,-7 -28,-11 -46,-11 -22,0 -44,9 -66,26 -22,17 -47,42 -73,75l0 339c0,2 -1,4 -2,6 -1,2 -3,3 -5,4 -2,1 -5,2 -9,3 -4,1 -9,1 -15,1 -6,0 -11,0 -15,-1 -4,-1 -7,-2 -10,-3 -2,-1 -4,-2 -5,-4 -1,-2 -1,-4 -1,-6l0 -472c0,-2 0,-4 1,-6 1,-2 3,-3 5,-4 2,-1 6,-2 9,-3 4,-1 9,-1 14,-1 6,0 11,0 15,1 4,1 7,1 9,3 2,1 4,3 4,4 1,2 1,4 1,6l0 67c27,-30 53,-53 77,-66 24,-14 49,-20 73,-20 20,0 38,2 53,7 15,5 29,11 41,20 12,9 22,19 30,31 8,12 15,25 20,39 16,-18 32,-33 46,-46 14,-12 28,-22 41,-30 13,-7 26,-13 38,-16 12,-3 24,-5 36,-5 30,0 55,5 75,16 20,11 37,25 49,42 12,18 21,38 27,62 5,24 8,49 8,75l0 297zm234 0c0,2 -1,4 -2,6 -1,2 -3,3 -5,4 -2,1 -5,2 -9,3 -4,1 -9,1 -15,1 -6,0 -11,0 -15,-1 -4,-1 -7,-2 -10,-3 -2,-1 -4,-2 -5,-4 -1,-2 -1,-4 -1,-6l0 -472c0,-2 0,-4 1,-6 1,-2 3,-3 5,-4 3,-1 6,-2 10,-3 4,-1 9,-1 15,-1 6,0 11,0 15,1 4,1 7,1 9,3 2,1 4,3 5,4 1,2 2,4 2,6l0 472zm10 -631c0,17 -3,28 -9,34 -6,6 -17,9 -32,9 -15,0 -26,-3 -32,-9 -6,-6 -9,-17 -9,-34 0,-17 3,-28 9,-34 6,-6 17,-9 32,-9 15,0 26,3 32,9 6,6 9,17 9,34zm547 631c0,2 -1,4 -2,6 -1,2 -3,3 -5,4 -2,1 -5,2 -9,3 -4,1 -9,1 -15,1 -6,0 -11,0 -16,-1 -4,-1 -7,-2 -9,-3 -2,-1 -4,-2 -5,-4 -1,-2 -2,-4 -2,-6l0 -280c0,-29 -2,-53 -7,-71 -4,-18 -11,-34 -20,-47 -9,-13 -21,-23 -35,-30 -14,-7 -30,-11 -49,-11 -24,0 -48,9 -72,26 -24,17 -49,42 -76,75l0 339c0,2 -1,4 -2,6 -1,2 -3,3 -5,4 -2,1 -5,2 -9,3 -4,1 -9,1 -15,1 -6,0 -11,0 -15,-1 -4,-1 -7,-2 -10,-3 -2,-1 -4,-2 -5,-4 -1,-2 -1,-4 -1,-6l0 -472c0,-2 0,-4 1,-6 1,-2 3,-3 5,-4 3,-1 6,-2 9,-3 4,-1 9,-1 14,-1 6,0 11,0 15,1 4,1 7,1 9,3 2,1 4,3 4,4 1,2 1,4 1,6l0 67c27,-30 54,-53 80,-66 26,-14 52,-20 78,-20 31,0 57,5 78,16 21,11 38,25 51,42 13,18 22,38 28,62 6,24 9,52 9,86l0 286zm235 0c0,2 -1,4 -2,6 -1,2 -3,3 -5,4 -2,1 -5,2 -9,3 -4,1 -9,1 -15,1 -6,0 -11,0 -15,-1 -4,-1 -7,-2 -10,-3 -2,-1 -4,-2 -5,-4 -1,-2 -1,-4 -1,-6l0 -472c0,-2 0,-4 1,-6 1,-2 3,-3 5,-4 2,-1 6,-2 10,-3 4,-1 9,-1 15,-1 6,0 11,0 15,1 4,1 7,1 9,3 2,1 4,3 5,4 1,2 2,4 2,6l0 472zm10 -631c0,17 -3,28 -9,34 -6,6 -17,9 -32,9 -15,0 -26,-3 -32,-9 -6,-6 -9,-17 -9,-34 0,-17 3,-28 9,-34 6,-6 17,-9 32,-9 15,0 26,3 32,9 6,6 9,17 9,34z"/>
  <path class="fil1" d="M11694 16553c0,23 -4,43 -12,61 -8,18 -20,33 -36,46 -16,13 -34,22 -56,29 -22,7 -45,10 -72,10 -16,0 -32,-1 -46,-4 -15,-3 -28,-6 -40,-10 -12,-4 -22,-8 -30,-13 -8,-5 -14,-9 -18,-12 -4,-3 -7,-8 -8,-13 -2,-5 -3,-12 -3,-21 0,-4 0,-8 1,-12 1,-3 2,-6 3,-9 1,-3 2,-4 4,-6 2,-1 4,-2 6,-2 4,0 9,2 17,7 7,5 17,10 27,16 11,6 24,11 39,16 15,5 33,7 53,7 16,0 31,-2 44,-5 13,-4 25,-9 35,-16 10,-7 17,-16 23,-27 5,-11 8,-24 8,-38 0,-15 -4,-27 -11,-37 -7,-10 -16,-19 -27,-26 -11,-7 -24,-14 -39,-20 -14,-6 -29,-12 -44,-18 -15,-6 -30,-13 -44,-20 -14,-7 -27,-16 -39,-27 -11,-11 -20,-23 -27,-38 -7,-15 -11,-32 -11,-53 0,-16 3,-32 9,-48 6,-16 16,-30 29,-43 13,-12 30,-23 50,-30 20,-8 44,-11 72,-11 12,0 24,1 35,3 12,2 22,4 32,7 10,3 18,7 25,10 7,4 12,7 16,10 4,3 6,5 7,7 1,2 2,4 3,6 1,2 1,5 1,8 0,3 1,6 1,11 0,4 0,8 -1,11 -1,3 -1,6 -3,9 -1,2 -2,4 -4,6 -1,1 -3,2 -5,2 -3,0 -7,-2 -13,-6 -6,-4 -13,-8 -22,-12 -9,-4 -20,-9 -32,-12 -12,-4 -27,-6 -43,-6 -16,0 -31,2 -43,6 -12,4 -22,9 -30,16 -8,7 -14,15 -18,24 -4,9 -6,20 -6,31 0,15 4,28 11,38 7,11 16,20 28,27 11,8 25,14 39,20 15,6 29,12 45,18 15,6 30,12 45,20 15,7 28,16 39,26 12,10 21,22 28,36 7,14 11,31 11,51zm349 97c0,7 -1,13 -2,18 -1,5 -3,8 -6,11 -3,2 -6,5 -11,7 -5,2 -11,4 -17,6 -7,2 -14,3 -21,4 -7,1 -14,1 -21,1 -23,0 -43,-3 -59,-9 -16,-6 -30,-16 -40,-28 -10,-13 -18,-29 -23,-48 -5,-19 -7,-42 -7,-69l0 -294 -70 0c-5,0 -9,-2 -11,-6 -3,-4 -4,-11 -4,-20 0,-4 0,-8 1,-12 1,-3 2,-6 3,-8 1,-2 3,-4 5,-5 2,-1 4,-2 6,-2l70 0 0 -116c0,-2 0,-4 1,-6 1,-2 2,-3 5,-4 3,-1 6,-2 10,-3 4,-1 9,-1 15,-1 6,0 11,0 15,1 4,1 7,1 9,3 2,1 4,3 5,4 1,2 2,4 2,6l0 116 131 0c3,0 5,1 7,2 2,1 4,3 5,5 1,2 2,5 3,8 1,3 1,7 1,12 0,9 -1,15 -4,20 -3,4 -7,6 -11,6l-131 0 0 285c0,36 5,63 15,82 10,19 29,28 56,28 8,0 16,-1 23,-3 7,-2 13,-4 18,-6 5,-2 10,-4 13,-6 4,-2 7,-3 10,-3 2,0 3,0 5,1 1,1 3,2 3,4 1,2 2,4 2,7 1,3 1,7 1,11zm387 -420c0,5 0,10 -1,13 0,4 -1,7 -2,9 -1,2 -2,4 -3,5 -1,1 -3,2 -5,2 -3,0 -7,-1 -11,-2 -4,-2 -9,-3 -15,-5 -6,-2 -12,-3 -18,-5 -7,-2 -14,-2 -22,-2 -9,0 -19,2 -28,6 -9,4 -19,11 -29,19 -10,9 -20,21 -31,35 -11,15 -23,33 -36,54l0 319c0,2 -1,4 -2,6 -1,2 -3,3 -5,4 -2,1 -5,2 -9,3 -4,1 -9,1 -15,1 -6,0 -11,0 -15,-1 -4,-1 -7,-2 -10,-3 -2,-1 -4,-2 -5,-4 -1,-2 -1,-4 -1,-6l0 -472c0,-2 0,-4 1,-6 1,-2 3,-3 5,-4 2,-1 6,-2 9,-3 4,-1 9,-1 14,-1 6,0 11,0 15,1 4,1 7,1 9,3 2,1 4,3 4,4 1,2 1,4 1,6l0 75c14,-20 26,-36 38,-48 12,-12 22,-22 33,-28 11,-7 21,-12 30,-14 10,-3 20,-4 31,-4 4,0 10,0 16,1 6,1 12,2 19,3 7,1 13,3 18,5 5,2 9,4 11,5 2,2 4,3 4,4 1,1 1,3 2,5 1,2 1,4 1,8 0,3 0,7 0,13zm416 449c0,3 -1,6 -3,8 -2,2 -5,3 -9,4 -4,1 -9,1 -15,1 -6,0 -11,0 -15,-1 -4,-1 -7,-2 -10,-4 -2,-2 -3,-5 -3,-8l0 -53c-21,23 -45,41 -70,53 -25,12 -52,19 -79,19 -25,0 -47,-3 -66,-10 -20,-7 -36,-16 -50,-28 -14,-12 -24,-27 -31,-44 -7,-17 -11,-36 -11,-58 0,-26 5,-49 16,-68 11,-19 26,-35 46,-48 20,-13 44,-22 71,-29 28,-6 59,-10 93,-10l75 0 0 -40c0,-20 -2,-38 -6,-53 -4,-15 -11,-28 -20,-39 -9,-10 -22,-18 -37,-23 -15,-5 -33,-8 -55,-8 -21,0 -40,2 -56,8 -17,5 -31,11 -44,17 -12,6 -23,12 -31,17 -8,5 -14,8 -17,8 -2,0 -4,0 -6,-1 -2,-1 -3,-2 -4,-4 -1,-2 -2,-4 -3,-7 -1,-3 -1,-6 -1,-11 0,-7 1,-13 2,-17 1,-4 4,-9 8,-13 4,-4 12,-10 23,-15 11,-6 24,-12 38,-17 14,-5 30,-9 46,-12 17,-3 33,-5 50,-5 32,0 60,4 82,12 22,8 40,19 54,34 14,15 24,33 29,54 6,21 9,46 9,73l0 320zm-62 -224l-86 0c-25,0 -47,2 -66,7 -19,5 -34,11 -47,20 -12,9 -22,19 -28,31 -6,12 -9,26 -9,42 0,27 9,49 26,65 17,16 41,24 72,24 25,0 48,-6 69,-19 21,-13 44,-32 68,-59l0 -111zm564 153c0,4 0,8 -1,11 0,3 -1,6 -2,9 -1,3 -2,5 -3,7 -1,2 -4,5 -9,10 -4,4 -12,10 -23,17 -11,7 -23,13 -36,19 -13,5 -27,9 -43,13 -15,3 -31,5 -47,5 -33,0 -62,-6 -87,-16 -25,-11 -46,-27 -63,-49 -17,-21 -30,-48 -39,-79 -9,-31 -13,-67 -13,-108 0,-46 6,-85 16,-118 11,-33 26,-59 45,-80 19,-21 42,-36 67,-46 25,-10 53,-15 82,-15 16,0 30,1 45,4 14,3 27,7 39,12 12,5 23,10 32,17 9,6 16,12 21,16 4,4 7,8 9,10 1,2 3,5 4,8 1,3 1,6 2,9 0,3 1,7 1,12 0,10 -1,17 -4,21 -3,4 -6,6 -10,6 -5,0 -11,-3 -18,-9 -7,-6 -16,-13 -27,-20 -11,-7 -25,-14 -40,-20 -16,-6 -35,-9 -56,-9 -45,0 -80,17 -104,52 -24,35 -37,85 -37,151 0,33 3,62 10,87 7,25 16,46 28,62 12,17 27,29 45,37 18,8 38,12 60,12 21,0 39,-3 55,-10 16,-7 30,-14 42,-22 12,-8 22,-16 29,-22 8,-7 14,-10 17,-10 2,0 4,1 6,2 1,1 3,3 4,6 1,2 2,6 2,9 1,4 1,8 1,13zm196 95c0,34 -2,61 -7,81 -5,20 -12,38 -22,52 -10,14 -24,25 -40,32 -17,7 -37,11 -61,11 -9,0 -17,-1 -24,-2 -7,-1 -12,-3 -16,-4 -4,-1 -6,-3 -8,-5 -2,-2 -3,-4 -3,-6 -1,-2 -1,-4 -1,-6 0,-2 0,-5 0,-7 0,-4 0,-8 1,-12 1,-3 1,-6 2,-8 1,-2 2,-4 4,-5 1,-1 3,-2 5,-2 2,0 6,1 13,1 7,1 14,1 24,1 13,0 24,-2 33,-6 9,-4 16,-10 22,-19 6,-9 10,-20 12,-35 3,-14 4,-35 4,-63l0 -496c0,-2 1,-4 2,-6 1,-2 3,-3 5,-4 2,-1 5,-2 9,-3 4,-1 9,-1 15,-1 6,0 11,0 15,1 4,1 7,1 9,3 2,1 4,3 5,4 1,2 2,4 2,6l0 496zm10 -655c0,17 -3,28 -9,34 -6,6 -17,9 -32,9 -15,0 -26,-3 -32,-9 -6,-6 -9,-17 -9,-34 0,-17 3,-28 9,-34 6,-6 17,-9 32,-9 15,0 26,3 32,9 6,6 9,17 9,34zm228 631c0,2 -1,4 -2,6 -1,2 -3,3 -5,4 -2,1 -5,2 -9,3 -4,1 -9,1 -15,1 -6,0 -11,0 -15,-1 -4,-1 -7,-2 -10,-3 -2,-1 -4,-2 -5,-4 -1,-2 -1,-4 -1,-6l0 -472c0,-2 0,-4 1,-6 1,-2 3,-3 5,-4 2,-1 6,-2 10,-3 4,-1 9,-1 15,-1 6,0 11,0 15,1 4,1 7,1 9,3 2,1 4,3 5,4 1,2 2,4 2,6l0 472zm10 -631c0,17 -3,28 -9,34 -6,6 -17,9 -32,9 -15,0 -26,-3 -32,-9 -6,-6 -9,-17 -9,-34 0,-17 3,-28 9,-34 6,-6 17,-9 32,-9 15,0 26,3 32,9 6,6 9,17 9,34z"/>
 </g>
</svg>
